<svg width="48" height="48" viewBox="0 0 48 48" fill="none" xmlns="http://www.w3.org/2000/svg">
<path d="M44.1604 10.2188L37.7854 3.84378C37.649 3.6932 37.4834 3.57191 37.2986 3.48727C37.1139 3.40263 36.9139 3.35641 36.7107 3.35141C36.5076 3.34641 36.3056 3.38273 36.1169 3.45817C35.9282 3.53362 35.7569 3.64661 35.6132 3.79029C35.4695 3.93398 35.3565 4.10535 35.281 4.29403C35.2056 4.4827 35.1693 4.68474 35.1743 4.88787C35.1793 5.09101 35.2255 5.29101 35.3101 5.47575C35.3948 5.66048 35.5161 5.82609 35.6667 5.96253L42.0417 12.3375C42.3216 12.6133 42.6987 12.7681 43.0917 12.7688C43.49 12.7671 43.8725 12.6128 44.1604 12.3375C44.4409 12.0563 44.5985 11.6753 44.5985 11.2782C44.5985 10.881 44.4409 10.5 44.1604 10.2188Z" fill="#5470CB"/>
<path d="M12.3381 3.84382C12.0569 3.5633 11.6759 3.40576 11.2787 3.40576C10.8815 3.40576 10.5005 3.5633 10.2193 3.84382L3.84431 10.2188C3.56379 10.5 3.40625 10.881 3.40625 11.2782C3.40625 11.6754 3.56379 12.0564 3.84431 12.3376C4.13224 12.6128 4.51475 12.7671 4.91306 12.7688C5.30603 12.7682 5.68306 12.6133 5.96306 12.3376L12.3381 5.96257C12.6186 5.68137 12.7761 5.30039 12.7761 4.90319C12.7761 4.506 12.6186 4.12502 12.3381 3.84382Z" fill="#5470CB"/>
<path d="M42 23.475C41.9844 23.3444 41.9782 23.2128 41.9812 23.0813C41.7552 18.6324 39.8875 14.4253 36.7394 11.2737C33.5912 8.12203 29.3862 6.24971 24.9375 6.0188H23.0625C18.6169 6.24932 14.4144 8.11899 11.2667 11.2667C8.11894 14.4145 6.24927 18.617 6.01875 23.0625C6.02184 23.1941 6.01558 23.3257 6 23.4563V24.5063C6.01558 24.6369 6.02184 24.7685 6.01875 24.9001C6.24027 29.3523 8.10598 33.5639 11.2546 36.7195C14.4032 39.875 18.6108 41.75 23.0625 41.9813H24.9375C29.3831 41.7508 33.5856 39.8811 36.7333 36.7334C39.8811 33.5856 41.7507 29.3832 41.9812 24.9376C41.9782 24.806 41.9844 24.6744 42 24.5438V23.4938V23.475ZM34.5 25.5001H24C23.6022 25.5001 23.2206 25.342 22.9393 25.0607C22.658 24.7794 22.5 24.3979 22.5 24V13.5C22.5 13.1022 22.658 12.7207 22.9393 12.4394C23.2206 12.1581 23.6022 12 24 12C24.3978 12 24.7794 12.1581 25.0607 12.4394C25.342 12.7207 25.5 13.1022 25.5 13.5V22.5H34.5C34.8978 22.5 35.2794 22.6581 35.5607 22.9394C35.842 23.2207 36 23.6022 36 24C36 24.3979 35.842 24.7794 35.5607 25.0607C35.2794 25.342 34.8978 25.5001 34.5 25.5001Z" fill="#5470CB"/>
</svg>
