<?xml version="1.0" encoding="utf-8"?>
<!-- Generator: Adobe Illustrator 24.0.0, SVG Export Plug-In . SVG Version: 6.00 Build 0)  -->
<svg version="1.1" id="Layer_1" xmlns="http://www.w3.org/2000/svg" xmlns:xlink="http://www.w3.org/1999/xlink" x="0px" y="0px"
	 viewBox="0 0 60 75" style="enable-background:new 0 0 60 75;" xml:space="preserve">
<style type="text/css">
	.st0{fill:#5470CB;}
	.st1{fill:#FFFFFF;}
</style>
<g>
	<path class="st0" d="M46.1,59.9H13.9c-3.9,0-7-3.1-7-7V20.3c0-3.9,3.1-7,7-7h32.3c3.9,0,7,3.1,7,7v32.5
		C53.1,56.7,50,59.9,46.1,59.9z M13.9,16.3c-2.2,0-4,1.8-4,4v32.5c0,2.2,1.8,4,4,4h32.3c2.2,0,4-1.8,4-4V20.3c0-2.2-1.8-4-4-4H13.9z
		"/>
</g>
<g>
	<path class="st0" d="M33.5,44.4H18c-1.7,0-3-1.3-3-3v-7c0-1.7,1.3-3,3-3h15.6c1.7,0,3,1.3,3,3v7C36.5,43.1,35.2,44.4,33.5,44.4z
		 M18,34.4L18,34.4v7h15.6v-7H18z"/>
</g>
<g>
	<path class="st1" d="M31.4,40.4h10.2c0.8,0,1.5,0.7,1.5,1.5v3.6c0,0.8-0.7,1.5-1.5,1.5H31.4c-0.8,0-1.5-0.7-1.5-1.5v-3.6
		C29.9,41.1,30.6,40.4,31.4,40.4z"/>
	<path class="st0" d="M41.6,48.5H31.4c-1.7,0-3-1.3-3-3v-3.6c0-1.7,1.3-3,3-3h10.2c1.7,0,3,1.3,3,3v3.6
		C44.6,47.2,43.3,48.5,41.6,48.5z M31.4,41.9L31.4,41.9v3.6h10.2v-3.6H31.4z"/>
</g>
<g>
	<path class="st0" d="M53.1,23.4H6.9v-3c0-3.9,3.1-7,7-7h32.3c3.9,0,7,3.1,7,7V23.4z M9.9,20.4h40.3v0c0-2.2-1.8-4-4-4H13.9
		C11.7,16.3,9.9,18.1,9.9,20.4L9.9,20.4z"/>
</g>
<g>
	<ellipse class="st0" cx="12.3" cy="18.4" rx="1.3" ry="1.4"/>
</g>
<g>
	<ellipse class="st0" cx="16.3" cy="18.4" rx="1.3" ry="1.4"/>
</g>
<g>
	<ellipse class="st0" cx="20.4" cy="18.4" rx="1.3" ry="1.4"/>
</g>
</svg>
