<?xml version="1.0" encoding="utf-8"?>
<!-- Generator: Adobe Illustrator 24.0.0, SVG Export Plug-In . SVG Version: 6.00 Build 0)  -->
<svg version="1.1" id="Layer_1" xmlns="http://www.w3.org/2000/svg" xmlns:xlink="http://www.w3.org/1999/xlink" x="0px" y="0px"
	 viewBox="0 0 60 75" style="enable-background:new 0 0 60 75;" xml:space="preserve">
<style type="text/css">
	.st0{fill:#5470CB;}
	.st1{fill:#FFFFFF;}
</style>
<g>
	<path class="st0" d="M49.5,51.2H11.3c-2.8,0-5-2.2-5-5V23.4c0-2.8,2.2-5,5-5h38.2c2.8,0,5,2.2,5,5v22.8
		C54.5,48.9,52.3,51.2,49.5,51.2z M11.3,21.4c-1.1,0-2,0.9-2,2v22.8c0,1.1,0.9,2,2,2h38.2c1.1,0,2-0.9,2-2V23.4c0-1.1-0.9-2-2-2
		H11.3z"/>
</g>
<g>
	<path class="st0" d="M53.1,55H6.9c-1.9,0-3.4-1.5-3.4-3.4s1.5-3.4,3.4-3.4h46.3c1.9,0,3.4,1.5,3.4,3.4S55,55,53.1,55z M6.9,51.3
		c-0.2,0-0.4,0.2-0.4,0.4S6.7,52,6.9,52h46.3c0.2,0,0.4-0.2,0.4-0.4s-0.2-0.4-0.4-0.4H6.9z"/>
</g>
<g>
	<path class="st0" d="M51.5,29.9H9.3c-1.7,0-3-1.3-3-3v-5.6c0-1.7,1.3-3,3-3h42.2c1.7,0,3,1.3,3,3v5.6
		C54.5,28.6,53.2,29.9,51.5,29.9z M9.3,21.4L9.3,21.4v5.6h42.2v-5.6H9.3z"/>
</g>
<g>
	<path class="st1" d="M31,25.7h10.6c1.9,0,3.5,1.6,3.5,3.5v29.5c0,1.9-1.6,3.5-3.5,3.5H31c-1.9,0-3.5-1.6-3.5-3.5V29.2
		C27.5,27.2,29.1,25.7,31,25.7z"/>
	<path class="st0" d="M41.6,63.7H31c-2.8,0-5-2.2-5-5V29.2c0-2.8,2.2-5,5-5h10.6c2.8,0,5,2.2,5,5v29.5
		C46.6,61.4,44.4,63.7,41.6,63.7z M31,27.2c-1.1,0-2,0.9-2,2v29.5c0,1.1,0.9,2,2,2h10.6c1.1,0,2-0.9,2-2V29.2c0-1.1-0.9-2-2-2H31z"
		/>
</g>
<g>
	<path class="st1" d="M29,25.7h14.6c0.8,0,1.5,0.7,1.5,1.5v4.6c0,0.8-0.7,1.5-1.5,1.5H29c-0.8,0-1.5-0.7-1.5-1.5v-4.6
		C27.5,26.3,28.2,25.7,29,25.7z"/>
	<path class="st0" d="M43.6,34.8H29c-1.7,0-3-1.3-3-3v-4.6c0-1.7,1.3-3,3-3h14.6c1.7,0,3,1.3,3,3v4.6C46.6,33.4,45.3,34.8,43.6,34.8
		z M29,27.2L29,27.2v4.6h14.6v-4.6H29z"/>
</g>
</svg>
