<svg width="840" height="501" viewBox="0 0 840 501" fill="none" xmlns="http://www.w3.org/2000/svg">
<g filter="url(#filter0_d)">
<rect x="30" y="30" width="780" height="441" fill="white"/>
</g>
<rect x="63" y="334" width="146" height="87" rx="5" fill="#F0F0F0"/>
<rect x="136" y="363" width="54" height="52" rx="2" fill="#CCCCCC"/>
<path d="M136 365C136 363.895 136.895 363 138 363H188C189.105 363 190 363.895 190 365V369H136V365Z" fill="#BBBBBB"/>
<rect x="82" y="345" width="75" height="52" rx="2" fill="#DDDDDD"/>
<path d="M82 347C82 345.895 82.8954 345 84 345H155C156.105 345 157 345.895 157 347V351H82V347Z" fill="#BBBBBB"/>
<rect x="254" y="334" width="145" height="87" rx="5" fill="#F0F0F0"/>
<rect x="326" y="350" width="54" height="52" rx="2" fill="#CCCCCC"/>
<path d="M326 352C326 350.895 326.895 350 328 350H378C379.105 350 380 350.895 380 352V356H326V352Z" fill="#BBBBBB"/>
<rect x="273" y="360" width="75" height="52" rx="2" fill="#DDDDDD"/>
<path d="M273 362C273 360.895 273.895 360 275 360H346C347.105 360 348 360.895 348 362V366H273V362Z" fill="#BBBBBB"/>
<rect x="302" y="343" width="41" height="40" rx="2" fill="#9E9E9E"/>
<path d="M302 345C302 343.895 302.895 343 304 343H341C342.105 343 343 343.895 343 345V348H302V345Z" fill="#BBBBBB"/>
<rect x="445" y="334" width="144" height="87" rx="5" fill="#F0F0F0"/>
<rect x="516" y="350" width="55" height="52" rx="2" fill="#CCCCCC"/>
<path d="M516 352C516 350.895 516.895 350 518 350H569C570.105 350 571 350.895 571 352V356H516V352Z" fill="#BBBBBB"/>
<rect x="463" y="360" width="75" height="52" rx="2" fill="#DDDDDD"/>
<path d="M463 362C463 360.895 463.895 360 465 360H536C537.105 360 538 360.895 538 362V366H463V362Z" fill="#BBBBBB"/>
<rect x="63" y="301" width="698" height="20" rx="2" fill="#CEF1F9"/>
<path d="M71.6348 315V307.891H73.8223C74.4473 307.891 75.0055 308.032 75.4971 308.315C75.9919 308.595 76.3776 308.996 76.6543 309.517C76.931 310.034 77.0693 310.623 77.0693 311.284V311.611C77.0693 312.272 76.9326 312.86 76.6592 313.374C76.389 313.888 76.0065 314.287 75.5117 314.57C75.0169 314.854 74.4587 314.997 73.8369 315H71.6348ZM73.0996 309.077V313.823H73.8076C74.3805 313.823 74.8184 313.636 75.1211 313.262C75.4238 312.887 75.5785 312.352 75.585 311.655V311.279C75.585 310.557 75.4352 310.01 75.1357 309.639C74.8363 309.264 74.3984 309.077 73.8223 309.077H73.0996ZM80.4775 315.098C79.7028 315.098 79.0713 314.86 78.583 314.385C78.098 313.91 77.8555 313.276 77.8555 312.485V312.349C77.8555 311.818 77.958 311.344 78.1631 310.928C78.3682 310.508 78.6579 310.186 79.0322 309.961C79.4098 309.733 79.8395 309.619 80.3213 309.619C81.0439 309.619 81.612 309.847 82.0254 310.303C82.4421 310.758 82.6504 311.405 82.6504 312.241V312.817H79.2861C79.3317 313.162 79.4684 313.439 79.6963 313.647C79.9274 313.856 80.2188 313.96 80.5703 313.96C81.1139 313.96 81.5387 313.763 81.8447 313.369L82.5381 314.146C82.3265 314.445 82.04 314.679 81.6787 314.849C81.3174 315.015 80.917 315.098 80.4775 315.098ZM80.3164 310.762C80.0365 310.762 79.8086 310.856 79.6328 311.045C79.4603 311.234 79.3496 311.504 79.3008 311.855H81.2637V311.743C81.2572 311.431 81.1725 311.19 81.0098 311.021C80.847 310.848 80.6159 310.762 80.3164 310.762ZM85.3652 313.276L86.3467 309.717H87.8213L86.0391 315H84.6914L82.9092 309.717H84.3838L85.3652 313.276ZM90.8096 315.098C90.0348 315.098 89.4033 314.86 88.915 314.385C88.43 313.91 88.1875 313.276 88.1875 312.485V312.349C88.1875 311.818 88.29 311.344 88.4951 310.928C88.7002 310.508 88.9899 310.186 89.3643 309.961C89.7419 309.733 90.1715 309.619 90.6533 309.619C91.376 309.619 91.944 309.847 92.3574 310.303C92.7741 310.758 92.9824 311.405 92.9824 312.241V312.817H89.6182C89.6637 313.162 89.8005 313.439 90.0283 313.647C90.2594 313.856 90.5508 313.96 90.9023 313.96C91.446 313.96 91.8708 313.763 92.1768 313.369L92.8701 314.146C92.6585 314.445 92.3721 314.679 92.0107 314.849C91.6494 315.015 91.249 315.098 90.8096 315.098ZM90.6484 310.762C90.3685 310.762 90.1406 310.856 89.9648 311.045C89.7923 311.234 89.6816 311.504 89.6328 311.855H91.5957V311.743C91.5892 311.431 91.5046 311.19 91.3418 311.021C91.179 310.848 90.9479 310.762 90.6484 310.762ZM95.2773 315H93.8613V307.5H95.2773V315ZM96.2246 312.31C96.2246 311.785 96.3255 311.318 96.5273 310.908C96.7292 310.498 97.0189 310.181 97.3965 309.956C97.7773 309.731 98.2184 309.619 98.7197 309.619C99.4326 309.619 100.014 309.837 100.463 310.273C100.915 310.71 101.168 311.302 101.22 312.051L101.229 312.412C101.229 313.223 101.003 313.874 100.551 314.365C100.098 314.854 99.4912 315.098 98.7295 315.098C97.9678 315.098 97.359 314.854 96.9033 314.365C96.4508 313.877 96.2246 313.213 96.2246 312.373V312.31ZM97.6357 312.412C97.6357 312.913 97.7301 313.298 97.9189 313.564C98.1077 313.828 98.3779 313.96 98.7295 313.96C99.0713 313.96 99.3382 313.83 99.5303 313.569C99.7223 313.306 99.8184 312.886 99.8184 312.31C99.8184 311.818 99.7223 311.437 99.5303 311.167C99.3382 310.897 99.068 310.762 98.7197 310.762C98.3747 310.762 98.1077 310.897 97.9189 311.167C97.7301 311.434 97.6357 311.849 97.6357 312.412ZM106.854 312.407C106.854 313.221 106.669 313.874 106.298 314.365C105.93 314.854 105.432 315.098 104.804 315.098C104.27 315.098 103.839 314.912 103.51 314.541V317.031H102.099V309.717H103.407L103.456 310.234C103.798 309.824 104.244 309.619 104.794 309.619C105.445 309.619 105.951 309.86 106.312 310.342C106.674 310.824 106.854 311.488 106.854 312.334V312.407ZM105.443 312.305C105.443 311.813 105.355 311.434 105.18 311.167C105.007 310.9 104.755 310.767 104.423 310.767C103.98 310.767 103.676 310.936 103.51 311.274V313.438C103.682 313.786 103.99 313.96 104.433 313.96C105.106 313.96 105.443 313.408 105.443 312.305Z" fill="#505A89"/>
<path d="M68.1807 431.398L65.2363 438H64.2891L67.2236 431.633H63.376V430.891H68.1807V431.398ZM69.2695 437.526C69.2695 437.37 69.3151 437.24 69.4062 437.136C69.5007 437.032 69.6406 436.979 69.8262 436.979C70.0117 436.979 70.1517 437.032 70.2461 437.136C70.3438 437.24 70.3926 437.37 70.3926 437.526C70.3926 437.676 70.3438 437.801 70.2461 437.902C70.1517 438.003 70.0117 438.054 69.8262 438.054C69.6406 438.054 69.5007 438.003 69.4062 437.902C69.3151 437.801 69.2695 437.676 69.2695 437.526ZM69.2744 433.215C69.2744 433.059 69.32 432.928 69.4111 432.824C69.5055 432.72 69.6455 432.668 69.8311 432.668C70.0166 432.668 70.1566 432.72 70.251 432.824C70.3486 432.928 70.3975 433.059 70.3975 433.215C70.3975 433.365 70.3486 433.49 70.251 433.591C70.1566 433.692 70.0166 433.742 69.8311 433.742C69.6455 433.742 69.5055 433.692 69.4111 433.591C69.32 433.49 69.2744 433.365 69.2744 433.215ZM72.9414 434.006H73.6201C74.0465 433.999 74.3818 433.887 74.626 433.669C74.8701 433.451 74.9922 433.156 74.9922 432.785C74.9922 431.952 74.5771 431.535 73.7471 431.535C73.3564 431.535 73.0439 431.647 72.8096 431.872C72.5785 432.093 72.4629 432.388 72.4629 432.756H71.5596C71.5596 432.193 71.7646 431.726 72.1748 431.354C72.5882 430.98 73.1123 430.793 73.7471 430.793C74.4176 430.793 74.9434 430.97 75.3242 431.325C75.7051 431.68 75.8955 432.173 75.8955 432.805C75.8955 433.114 75.7946 433.413 75.5928 433.703C75.3942 433.993 75.1224 434.209 74.7773 434.353C75.168 434.476 75.4691 434.681 75.6807 434.968C75.8955 435.254 76.0029 435.604 76.0029 436.018C76.0029 436.656 75.7946 437.162 75.3779 437.536C74.9613 437.91 74.4193 438.098 73.752 438.098C73.0846 438.098 72.541 437.917 72.1211 437.556C71.7044 437.194 71.4961 436.717 71.4961 436.125H72.4043C72.4043 436.499 72.5264 436.799 72.7705 437.023C73.0146 437.248 73.3418 437.36 73.752 437.36C74.1882 437.36 74.5218 437.246 74.7529 437.019C74.984 436.791 75.0996 436.464 75.0996 436.037C75.0996 435.624 74.9727 435.306 74.7188 435.085C74.4648 434.864 74.0986 434.75 73.6201 434.743H72.9414V434.006ZM77.6582 434.436L78.0195 430.891H81.6621V431.726H78.7861L78.5713 433.664C78.9196 433.459 79.3151 433.356 79.7578 433.356C80.4056 433.356 80.9199 433.571 81.3008 434.001C81.6816 434.427 81.8721 435.005 81.8721 435.734C81.8721 436.467 81.6735 437.045 81.2764 437.468C80.8825 437.888 80.3307 438.098 79.6211 438.098C78.9928 438.098 78.4801 437.924 78.083 437.575C77.6859 437.227 77.4596 436.745 77.4043 436.13H78.2588C78.3141 436.537 78.459 436.844 78.6934 437.053C78.9277 437.258 79.237 437.36 79.6211 437.36C80.041 437.36 80.3698 437.217 80.6074 436.931C80.8483 436.644 80.9688 436.249 80.9688 435.744C80.9688 435.269 80.8385 434.888 80.5781 434.602C80.321 434.312 79.9775 434.167 79.5479 434.167C79.154 434.167 78.8447 434.253 78.6201 434.426L78.3809 434.621L77.6582 434.436ZM89.499 436.145H86.5205L85.8516 438H84.8848L87.5996 430.891H88.4199L91.1396 438H90.1777L89.499 436.145ZM86.8037 435.373H89.2207L88.0098 432.048L86.8037 435.373ZM93.3076 430.891L95.6318 436.691L97.9561 430.891H99.1719V438H98.2344V435.231L98.3223 432.243L95.9883 438H95.2705L92.9414 432.258L93.0342 435.231V438H92.0967V430.891H93.3076Z" fill="#505A89"/>
<path d="M169.479 435.612H170.465V436.35H169.479V438H168.57V436.35H165.333V435.817L168.517 430.891H169.479V435.612ZM166.358 435.612H168.57V432.126L168.463 432.321L166.358 435.612ZM171.695 434.436L172.057 430.891H175.699V431.726H172.823L172.608 433.664C172.957 433.459 173.352 433.356 173.795 433.356C174.443 433.356 174.957 433.571 175.338 434.001C175.719 434.427 175.909 435.005 175.909 435.734C175.909 436.467 175.711 437.045 175.313 437.468C174.92 437.888 174.368 438.098 173.658 438.098C173.03 438.098 172.517 437.924 172.12 437.575C171.723 437.227 171.497 436.745 171.441 436.13H172.296C172.351 436.537 172.496 436.844 172.73 437.053C172.965 437.258 173.274 437.36 173.658 437.36C174.078 437.36 174.407 437.217 174.645 436.931C174.885 436.644 175.006 436.249 175.006 435.744C175.006 435.269 174.876 434.888 174.615 434.602C174.358 434.312 174.015 434.167 173.585 434.167C173.191 434.167 172.882 434.253 172.657 434.426L172.418 434.621L171.695 434.436ZM176.817 432.258C176.817 431.831 176.952 431.48 177.223 431.203C177.496 430.926 177.846 430.788 178.272 430.788C178.705 430.788 179.055 430.928 179.322 431.208C179.592 431.485 179.728 431.844 179.728 432.287V432.634C179.728 433.063 179.591 433.415 179.317 433.688C179.047 433.959 178.702 434.094 178.282 434.094C177.859 434.094 177.509 433.959 177.232 433.688C176.956 433.415 176.817 433.052 176.817 432.6V432.258ZM177.491 432.634C177.491 432.888 177.563 433.098 177.706 433.264C177.849 433.426 178.041 433.508 178.282 433.508C178.513 433.508 178.699 433.428 178.839 433.269C178.982 433.109 179.054 432.891 179.054 432.614V432.258C179.054 432.004 178.984 431.794 178.844 431.628C178.704 431.462 178.513 431.379 178.272 431.379C178.032 431.379 177.841 431.462 177.701 431.628C177.561 431.794 177.491 432.01 177.491 432.277V432.634ZM180.279 436.257C180.279 435.83 180.414 435.48 180.685 435.207C180.958 434.93 181.308 434.792 181.734 434.792C182.161 434.792 182.511 434.929 182.784 435.202C183.058 435.476 183.194 435.839 183.194 436.291V436.638C183.194 437.064 183.058 437.416 182.784 437.692C182.514 437.966 182.167 438.103 181.744 438.103C181.321 438.103 180.971 437.967 180.694 437.697C180.418 437.424 180.279 437.061 180.279 436.608V436.257ZM180.953 436.638C180.953 436.895 181.025 437.106 181.168 437.272C181.311 437.435 181.503 437.517 181.744 437.517C181.979 437.517 182.166 437.437 182.306 437.277C182.446 437.115 182.516 436.895 182.516 436.618V436.257C182.516 436 182.444 435.79 182.301 435.627C182.161 435.464 181.972 435.383 181.734 435.383C181.503 435.383 181.314 435.464 181.168 435.627C181.025 435.786 180.953 436.003 180.953 436.276V436.638ZM178.487 437.463L177.975 437.141L181.446 431.584L181.959 431.906L178.487 437.463ZM186.554 435.31C186.554 434.792 186.655 434.326 186.856 433.913C187.062 433.5 187.345 433.181 187.706 432.956C188.071 432.731 188.486 432.619 188.951 432.619C189.671 432.619 190.252 432.868 190.694 433.366C191.14 433.864 191.363 434.527 191.363 435.354V435.417C191.363 435.931 191.264 436.394 191.065 436.804C190.87 437.211 190.589 437.528 190.221 437.756C189.856 437.984 189.436 438.098 188.961 438.098C188.245 438.098 187.664 437.849 187.218 437.351C186.775 436.853 186.554 436.193 186.554 435.373V435.31ZM187.462 435.417C187.462 436.003 187.597 436.473 187.867 436.828C188.141 437.183 188.505 437.36 188.961 437.36C189.42 437.36 189.785 437.181 190.055 436.823C190.325 436.462 190.46 435.957 190.46 435.31C190.46 434.73 190.322 434.261 190.045 433.903C189.771 433.542 189.407 433.361 188.951 433.361C188.505 433.361 188.146 433.539 187.872 433.894C187.599 434.248 187.462 434.756 187.462 435.417ZM192.94 438V433.415H192.105V432.717H192.94V432.175C192.94 431.608 193.092 431.171 193.395 430.861C193.697 430.552 194.125 430.397 194.679 430.397C194.887 430.397 195.094 430.425 195.299 430.48L195.25 431.213C195.097 431.184 194.934 431.169 194.762 431.169C194.469 431.169 194.243 431.255 194.083 431.428C193.924 431.597 193.844 431.841 193.844 432.16V432.717H194.972V433.415H193.844V438H192.94ZM201.329 438H200.421V431.979L198.6 432.648V431.828L201.188 430.856H201.329V438ZM204.391 434.436L204.752 430.891H208.395V431.726H205.519L205.304 433.664C205.652 433.459 206.048 433.356 206.49 433.356C207.138 433.356 207.652 433.571 208.033 434.001C208.414 434.427 208.604 435.005 208.604 435.734C208.604 436.467 208.406 437.045 208.009 437.468C207.615 437.888 207.063 438.098 206.354 438.098C205.725 438.098 205.213 437.924 204.815 437.575C204.418 437.227 204.192 436.745 204.137 436.13H204.991C205.047 436.537 205.191 436.844 205.426 437.053C205.66 437.258 205.969 437.36 206.354 437.36C206.773 437.36 207.102 437.217 207.34 436.931C207.581 436.644 207.701 436.249 207.701 435.744C207.701 435.269 207.571 434.888 207.311 434.602C207.053 434.312 206.71 434.167 206.28 434.167C205.886 434.167 205.577 434.253 205.353 434.426L205.113 434.621L204.391 434.436ZM193.814 444.717L193.839 445.303C194.226 444.847 194.749 444.619 195.406 444.619C196.145 444.619 196.648 444.902 196.915 445.469C197.091 445.215 197.319 445.01 197.599 444.854C197.882 444.697 198.215 444.619 198.6 444.619C199.758 444.619 200.348 445.233 200.367 446.46V450H199.464V446.514C199.464 446.136 199.378 445.854 199.205 445.669C199.033 445.48 198.743 445.386 198.336 445.386C198.001 445.386 197.722 445.487 197.501 445.688C197.28 445.887 197.151 446.156 197.115 446.494V450H196.207V446.538C196.207 445.77 195.831 445.386 195.079 445.386C194.487 445.386 194.081 445.638 193.863 446.143V450H192.96V444.717H193.814ZM202.716 450H201.812V444.717H202.716V450ZM201.739 443.315C201.739 443.169 201.783 443.045 201.871 442.944C201.962 442.843 202.096 442.793 202.271 442.793C202.447 442.793 202.581 442.843 202.672 442.944C202.763 443.045 202.809 443.169 202.809 443.315C202.809 443.462 202.763 443.584 202.672 443.682C202.581 443.779 202.447 443.828 202.271 443.828C202.096 443.828 201.962 443.779 201.871 443.682C201.783 443.584 201.739 443.462 201.739 443.315ZM205.021 444.717L205.05 445.381C205.453 444.873 205.981 444.619 206.632 444.619C207.748 444.619 208.312 445.249 208.321 446.509V450H207.418V446.504C207.415 446.123 207.327 445.841 207.154 445.659C206.985 445.477 206.72 445.386 206.358 445.386C206.065 445.386 205.808 445.464 205.587 445.62C205.366 445.776 205.193 445.981 205.069 446.235V450H204.166V444.717H205.021Z" fill="#505A89"/>
<rect x="254" y="429" width="39" height="11" rx="2" fill="#EEEEEE"/>
<rect x="337" y="429" width="62" height="11" rx="2" fill="#EEEEEE"/>
<rect x="635" y="334" width="145" height="87" rx="5" fill="#F0F0F0"/>
<rect x="708" y="350" width="53" height="52" rx="2" fill="#CCCCCC"/>
<path d="M708 352C708 350.895 708.895 350 710 350H759C760.105 350 761 350.895 761 352V356H708V352Z" fill="#BBBBBB"/>
<rect x="654" y="360" width="75" height="52" rx="2" fill="#DDDDDD"/>
<path d="M654 362C654 360.895 654.895 360 656 360H727C728.105 360 729 360.895 729 362V366H654V362Z" fill="#BBBBBB"/>
<rect x="683" y="343" width="41" height="40" rx="2" fill="#9E9E9E"/>
<path d="M683 345C683 343.895 683.895 343 685 343H722C723.105 343 724 343.895 724 345V348H683V345Z" fill="#BBBBBB"/>
<rect x="635" y="429" width="40" height="11" rx="2" fill="#EEEEEE"/>
<rect x="719" y="429" width="61" height="11" rx="2" fill="#EEEEEE"/>
<rect x="445" y="429" width="39" height="11" rx="2" fill="#EEEEEE"/>
<rect x="528" y="429" width="61" height="11" rx="2" fill="#EEEEEE"/>
<rect x="63" y="63" width="347" height="205" rx="3" fill="#ECF4FF"/>
<rect x="529" y="110" width="205" height="11" rx="2" fill="#F9CEE3"/>
<rect x="529" y="135" width="26" height="11" rx="2" fill="#D2CEF9"/>
<rect x="529" y="160" width="107" height="12" rx="2" fill="#F9D8CE"/>
<rect x="529" y="185" width="43" height="12" rx="2" fill="#CEE9F9"/>
<rect x="529" y="211" width="70" height="11" rx="2" fill="#D9F9CE"/>
<rect x="529" y="236" width="52" height="11" rx="2" fill="#CEF9F4"/>
<path d="M443.934 118.067C443.693 118.412 443.356 118.671 442.923 118.844C442.493 119.013 441.992 119.098 441.419 119.098C440.84 119.098 440.325 118.963 439.876 118.692C439.427 118.419 439.078 118.032 438.831 117.53C438.587 117.029 438.462 116.448 438.455 115.787V115.167C438.455 114.096 438.704 113.266 439.202 112.677C439.703 112.088 440.407 111.793 441.312 111.793C442.054 111.793 442.651 111.983 443.104 112.364C443.556 112.742 443.833 113.279 443.934 113.976H442.996C442.82 113.035 442.26 112.564 441.316 112.564C440.688 112.564 440.211 112.786 439.886 113.229C439.563 113.668 439.401 114.306 439.397 115.143V115.724C439.397 116.521 439.58 117.156 439.944 117.628C440.309 118.097 440.802 118.331 441.424 118.331C441.775 118.331 442.083 118.292 442.347 118.214C442.61 118.136 442.828 118.004 443.001 117.818V116.222H441.355V115.46H443.934V118.067ZM445.12 116.31C445.12 115.792 445.221 115.326 445.423 114.913C445.628 114.5 445.911 114.181 446.272 113.956C446.637 113.731 447.052 113.619 447.518 113.619C448.237 113.619 448.818 113.868 449.261 114.366C449.707 114.864 449.93 115.527 449.93 116.354V116.417C449.93 116.931 449.83 117.394 449.632 117.804C449.437 118.211 449.155 118.528 448.787 118.756C448.423 118.984 448.003 119.098 447.527 119.098C446.811 119.098 446.23 118.849 445.784 118.351C445.341 117.853 445.12 117.193 445.12 116.373V116.31ZM446.028 116.417C446.028 117.003 446.163 117.473 446.434 117.828C446.707 118.183 447.072 118.36 447.527 118.36C447.986 118.36 448.351 118.181 448.621 117.823C448.891 117.462 449.026 116.957 449.026 116.31C449.026 115.73 448.888 115.261 448.611 114.903C448.338 114.542 447.973 114.361 447.518 114.361C447.072 114.361 446.712 114.539 446.438 114.894C446.165 115.248 446.028 115.756 446.028 116.417ZM450.823 116.31C450.823 115.792 450.924 115.326 451.126 114.913C451.331 114.5 451.614 114.181 451.976 113.956C452.34 113.731 452.755 113.619 453.221 113.619C453.94 113.619 454.521 113.868 454.964 114.366C455.41 114.864 455.633 115.527 455.633 116.354V116.417C455.633 116.931 455.534 117.394 455.335 117.804C455.14 118.211 454.858 118.528 454.49 118.756C454.126 118.984 453.706 119.098 453.23 119.098C452.514 119.098 451.933 118.849 451.487 118.351C451.045 117.853 450.823 117.193 450.823 116.373V116.31ZM451.731 116.417C451.731 117.003 451.867 117.473 452.137 117.828C452.41 118.183 452.775 118.36 453.23 118.36C453.689 118.36 454.054 118.181 454.324 117.823C454.594 117.462 454.729 116.957 454.729 116.31C454.729 115.73 454.591 115.261 454.314 114.903C454.041 114.542 453.676 114.361 453.221 114.361C452.775 114.361 452.415 114.539 452.142 114.894C451.868 115.248 451.731 115.756 451.731 116.417ZM456.551 116.314C456.551 115.491 456.741 114.837 457.122 114.352C457.503 113.863 458.007 113.619 458.636 113.619C459.28 113.619 459.783 113.847 460.145 114.303L460.188 113.717H461.014V118.873C461.014 119.557 460.81 120.095 460.403 120.489C460 120.883 459.456 121.08 458.772 121.08C458.392 121.08 458.019 120.999 457.654 120.836C457.29 120.673 457.011 120.45 456.819 120.167L457.288 119.625C457.675 120.104 458.149 120.343 458.709 120.343C459.148 120.343 459.49 120.219 459.734 119.972C459.982 119.724 460.105 119.376 460.105 118.927V118.473C459.744 118.889 459.251 119.098 458.626 119.098C458.007 119.098 457.506 118.849 457.122 118.351C456.741 117.853 456.551 117.174 456.551 116.314ZM457.459 116.417C457.459 117.013 457.581 117.481 457.825 117.823C458.069 118.162 458.411 118.331 458.851 118.331C459.42 118.331 459.839 118.072 460.105 117.555V115.143C459.829 114.638 459.414 114.386 458.86 114.386C458.421 114.386 458.077 114.557 457.83 114.898C457.583 115.24 457.459 115.746 457.459 116.417ZM463.362 119H462.459V111.5H463.362V119ZM467.005 119.098C466.289 119.098 465.706 118.863 465.257 118.395C464.808 117.923 464.583 117.293 464.583 116.505V116.339C464.583 115.815 464.682 115.348 464.881 114.938C465.083 114.524 465.363 114.202 465.721 113.971C466.082 113.736 466.473 113.619 466.893 113.619C467.579 113.619 468.113 113.845 468.494 114.298C468.875 114.75 469.065 115.398 469.065 116.241V116.617H465.486C465.499 117.138 465.651 117.56 465.94 117.882C466.233 118.201 466.604 118.36 467.054 118.36C467.373 118.36 467.643 118.295 467.864 118.165C468.086 118.035 468.279 117.862 468.445 117.647L468.997 118.077C468.554 118.757 467.89 119.098 467.005 119.098ZM466.893 114.361C466.528 114.361 466.222 114.495 465.975 114.762C465.727 115.025 465.574 115.396 465.516 115.875H468.162V115.807C468.136 115.348 468.012 114.993 467.791 114.742C467.57 114.488 467.27 114.361 466.893 114.361ZM477.967 116.744C477.879 117.496 477.601 118.077 477.132 118.487C476.666 118.894 476.046 119.098 475.271 119.098C474.432 119.098 473.758 118.797 473.25 118.194C472.745 117.592 472.493 116.786 472.493 115.777V115.094C472.493 114.433 472.61 113.852 472.845 113.351C473.082 112.849 473.418 112.465 473.851 112.198C474.284 111.928 474.785 111.793 475.354 111.793C476.11 111.793 476.715 112.005 477.171 112.428C477.627 112.848 477.892 113.43 477.967 114.176H477.024C476.943 113.609 476.766 113.199 476.492 112.945C476.222 112.691 475.843 112.564 475.354 112.564C474.756 112.564 474.285 112.786 473.943 113.229C473.605 113.671 473.436 114.301 473.436 115.118V115.807C473.436 116.578 473.597 117.192 473.919 117.647C474.241 118.103 474.692 118.331 475.271 118.331C475.792 118.331 476.191 118.214 476.468 117.979C476.748 117.742 476.933 117.33 477.024 116.744H477.967ZM480.013 114.356C480.413 113.865 480.934 113.619 481.575 113.619C482.692 113.619 483.255 114.249 483.265 115.509V119H482.361V115.504C482.358 115.123 482.27 114.841 482.098 114.659C481.928 114.477 481.663 114.386 481.302 114.386C481.009 114.386 480.752 114.464 480.53 114.62C480.309 114.776 480.136 114.981 480.013 115.235V119H479.109V111.5H480.013V114.356ZM487.171 114.527C487.034 114.505 486.886 114.493 486.727 114.493C486.134 114.493 485.732 114.745 485.521 115.25V119H484.617V113.717H485.496L485.511 114.327C485.807 113.855 486.227 113.619 486.771 113.619C486.946 113.619 487.08 113.642 487.171 113.688V114.527ZM487.669 116.31C487.669 115.792 487.77 115.326 487.972 114.913C488.177 114.5 488.46 114.181 488.821 113.956C489.186 113.731 489.601 113.619 490.066 113.619C490.786 113.619 491.367 113.868 491.81 114.366C492.256 114.864 492.479 115.527 492.479 116.354V116.417C492.479 116.931 492.379 117.394 492.181 117.804C491.985 118.211 491.704 118.528 491.336 118.756C490.971 118.984 490.551 119.098 490.076 119.098C489.36 119.098 488.779 118.849 488.333 118.351C487.89 117.853 487.669 117.193 487.669 116.373V116.31ZM488.577 116.417C488.577 117.003 488.712 117.473 488.982 117.828C489.256 118.183 489.62 118.36 490.076 118.36C490.535 118.36 490.9 118.181 491.17 117.823C491.44 117.462 491.575 116.957 491.575 116.31C491.575 115.73 491.437 115.261 491.16 114.903C490.887 114.542 490.522 114.361 490.066 114.361C489.62 114.361 489.261 114.539 488.987 114.894C488.714 115.248 488.577 115.756 488.577 116.417ZM494.461 113.717L494.485 114.303C494.873 113.847 495.395 113.619 496.053 113.619C496.792 113.619 497.295 113.902 497.562 114.469C497.737 114.215 497.965 114.01 498.245 113.854C498.528 113.697 498.862 113.619 499.246 113.619C500.405 113.619 500.994 114.233 501.014 115.46V119H500.11V115.514C500.11 115.136 500.024 114.854 499.852 114.669C499.679 114.48 499.389 114.386 498.982 114.386C498.647 114.386 498.369 114.487 498.147 114.688C497.926 114.887 497.798 115.156 497.762 115.494V119H496.854V115.538C496.854 114.77 496.478 114.386 495.726 114.386C495.133 114.386 494.728 114.638 494.51 115.143V119H493.606V113.717H494.461ZM504.573 119.098C503.857 119.098 503.274 118.863 502.825 118.395C502.376 117.923 502.151 117.293 502.151 116.505V116.339C502.151 115.815 502.251 115.348 502.449 114.938C502.651 114.524 502.931 114.202 503.289 113.971C503.65 113.736 504.041 113.619 504.461 113.619C505.148 113.619 505.682 113.845 506.062 114.298C506.443 114.75 506.634 115.398 506.634 116.241V116.617H503.055C503.068 117.138 503.219 117.56 503.509 117.882C503.802 118.201 504.173 118.36 504.622 118.36C504.941 118.36 505.211 118.295 505.433 118.165C505.654 118.035 505.848 117.862 506.014 117.647L506.565 118.077C506.123 118.757 505.459 119.098 504.573 119.098ZM504.461 114.361C504.096 114.361 503.79 114.495 503.543 114.762C503.296 115.025 503.143 115.396 503.084 115.875H505.73V115.807C505.704 115.348 505.581 114.993 505.359 114.742C505.138 114.488 504.839 114.361 504.461 114.361Z" fill="#505A89"/>
<path d="M467.718 136.891L470.042 142.691L472.366 136.891H473.582V144H472.645V141.231L472.732 138.243L470.398 144H469.681L467.352 138.258L467.444 141.231V144H466.507V136.891H467.718ZM474.856 141.31C474.856 140.792 474.957 140.326 475.159 139.913C475.364 139.5 475.647 139.181 476.009 138.956C476.373 138.731 476.788 138.619 477.254 138.619C477.973 138.619 478.554 138.868 478.997 139.366C479.443 139.864 479.666 140.527 479.666 141.354V141.417C479.666 141.931 479.567 142.394 479.368 142.804C479.173 143.211 478.891 143.528 478.523 143.756C478.159 143.984 477.739 144.098 477.264 144.098C476.548 144.098 475.966 143.849 475.521 143.351C475.078 142.853 474.856 142.193 474.856 141.373V141.31ZM475.765 141.417C475.765 142.003 475.9 142.473 476.17 142.828C476.443 143.183 476.808 143.36 477.264 143.36C477.723 143.36 478.087 143.181 478.357 142.823C478.628 142.462 478.763 141.957 478.763 141.31C478.763 140.73 478.624 140.261 478.348 139.903C478.074 139.542 477.71 139.361 477.254 139.361C476.808 139.361 476.448 139.539 476.175 139.894C475.901 140.248 475.765 140.756 475.765 141.417ZM481.653 138.717L481.683 139.381C482.086 138.873 482.614 138.619 483.265 138.619C484.381 138.619 484.944 139.249 484.954 140.509V144H484.051V140.504C484.048 140.123 483.96 139.841 483.787 139.659C483.618 139.477 483.353 139.386 482.991 139.386C482.698 139.386 482.441 139.464 482.22 139.62C481.998 139.776 481.826 139.981 481.702 140.235V144H480.799V138.717H481.653ZM487.298 144H486.395V138.717H487.298V144ZM486.321 137.315C486.321 137.169 486.365 137.045 486.453 136.944C486.544 136.843 486.678 136.793 486.854 136.793C487.029 136.793 487.163 136.843 487.254 136.944C487.345 137.045 487.391 137.169 487.391 137.315C487.391 137.462 487.345 137.584 487.254 137.682C487.163 137.779 487.029 137.828 486.854 137.828C486.678 137.828 486.544 137.779 486.453 137.682C486.365 137.584 486.321 137.462 486.321 137.315ZM489.974 137.438V138.717H490.96V139.415H489.974V142.691C489.974 142.903 490.018 143.062 490.105 143.17C490.193 143.274 490.343 143.326 490.555 143.326C490.659 143.326 490.802 143.307 490.984 143.268V144C490.747 144.065 490.516 144.098 490.291 144.098C489.887 144.098 489.583 143.976 489.378 143.731C489.173 143.487 489.07 143.141 489.07 142.691V139.415H488.108V138.717H489.07V137.438H489.974ZM495.281 144C495.229 143.896 495.187 143.71 495.154 143.443C494.734 143.88 494.233 144.098 493.65 144.098C493.13 144.098 492.701 143.951 492.366 143.658C492.034 143.362 491.868 142.988 491.868 142.535C491.868 141.985 492.076 141.559 492.493 141.256C492.913 140.95 493.502 140.797 494.261 140.797H495.14V140.382C495.14 140.066 495.045 139.815 494.856 139.63C494.668 139.441 494.389 139.347 494.021 139.347C493.699 139.347 493.429 139.428 493.211 139.591C492.993 139.754 492.884 139.951 492.884 140.182H491.976C491.976 139.918 492.068 139.664 492.254 139.42C492.443 139.173 492.697 138.977 493.016 138.834C493.338 138.691 493.691 138.619 494.075 138.619C494.684 138.619 495.161 138.772 495.506 139.078C495.851 139.381 496.03 139.799 496.043 140.333V142.765C496.043 143.25 496.105 143.635 496.229 143.922V144H495.281ZM493.782 143.312C494.065 143.312 494.334 143.238 494.588 143.092C494.842 142.945 495.026 142.755 495.14 142.521V141.437H494.432C493.325 141.437 492.771 141.76 492.771 142.408C492.771 142.691 492.866 142.913 493.055 143.072C493.243 143.232 493.486 143.312 493.782 143.312ZM500.535 142.599C500.535 142.354 500.442 142.166 500.257 142.032C500.075 141.896 499.754 141.778 499.295 141.681C498.839 141.583 498.476 141.466 498.206 141.329C497.939 141.192 497.741 141.03 497.61 140.841C497.483 140.652 497.42 140.427 497.42 140.167C497.42 139.734 497.602 139.368 497.967 139.068C498.335 138.769 498.803 138.619 499.373 138.619C499.972 138.619 500.457 138.774 500.828 139.083C501.202 139.392 501.39 139.788 501.39 140.27H500.481C500.481 140.022 500.376 139.809 500.164 139.63C499.956 139.451 499.692 139.361 499.373 139.361C499.044 139.361 498.787 139.433 498.602 139.576C498.416 139.719 498.323 139.907 498.323 140.138C498.323 140.356 498.41 140.52 498.582 140.631C498.755 140.742 499.065 140.847 499.515 140.948C499.967 141.049 500.333 141.17 500.613 141.31C500.893 141.45 501.1 141.619 501.233 141.817C501.37 142.013 501.438 142.252 501.438 142.535C501.438 143.007 501.25 143.386 500.872 143.673C500.494 143.956 500.005 144.098 499.402 144.098C498.979 144.098 498.605 144.023 498.279 143.873C497.954 143.723 497.698 143.515 497.513 143.248C497.33 142.978 497.239 142.687 497.239 142.374H498.143C498.159 142.677 498.279 142.918 498.504 143.097C498.732 143.272 499.031 143.36 499.402 143.36C499.744 143.36 500.018 143.292 500.223 143.155C500.431 143.015 500.535 142.83 500.535 142.599ZM504.09 141.554L503.523 142.145V144H502.62V136.5H503.523V141.036L504.007 140.455L505.652 138.717H506.751L504.695 140.924L506.99 144H505.931L504.09 141.554Z" fill="#505A89"/>
<path d="M440.042 161.891L442.366 167.691L444.69 161.891H445.906V169H444.969V166.231L445.057 163.243L442.723 169H442.005L439.676 163.258L439.769 166.231V169H438.831V161.891H440.042ZM448.401 169H447.498V163.717H448.401V169ZM447.425 162.315C447.425 162.169 447.469 162.045 447.557 161.944C447.648 161.843 447.781 161.793 447.957 161.793C448.133 161.793 448.266 161.843 448.357 161.944C448.449 162.045 448.494 162.169 448.494 162.315C448.494 162.462 448.449 162.584 448.357 162.682C448.266 162.779 448.133 162.828 447.957 162.828C447.781 162.828 447.648 162.779 447.557 162.682C447.469 162.584 447.425 162.462 447.425 162.315ZM451.971 168.36C452.293 168.36 452.575 168.263 452.815 168.067C453.056 167.872 453.19 167.628 453.216 167.335H454.07C454.054 167.638 453.95 167.926 453.758 168.199C453.566 168.473 453.309 168.691 452.986 168.854C452.667 169.016 452.329 169.098 451.971 169.098C451.251 169.098 450.678 168.858 450.252 168.38C449.829 167.898 449.617 167.241 449.617 166.407V166.256C449.617 165.742 449.712 165.284 449.9 164.884C450.089 164.483 450.359 164.173 450.711 163.951C451.066 163.73 451.484 163.619 451.966 163.619C452.558 163.619 453.05 163.797 453.44 164.151C453.834 164.506 454.044 164.967 454.07 165.533H453.216C453.19 165.191 453.06 164.911 452.825 164.693C452.594 164.472 452.308 164.361 451.966 164.361C451.507 164.361 451.15 164.527 450.896 164.859C450.646 165.188 450.521 165.665 450.521 166.29V166.461C450.521 167.07 450.646 167.538 450.896 167.867C451.147 168.196 451.505 168.36 451.971 168.36ZM457.64 164.527C457.503 164.505 457.355 164.493 457.195 164.493C456.603 164.493 456.201 164.745 455.989 165.25V169H455.086V163.717H455.965L455.979 164.327C456.276 163.855 456.696 163.619 457.239 163.619C457.415 163.619 457.549 163.642 457.64 163.688V164.527ZM458.138 166.31C458.138 165.792 458.239 165.326 458.44 164.913C458.646 164.5 458.929 164.181 459.29 163.956C459.655 163.731 460.07 163.619 460.535 163.619C461.255 163.619 461.836 163.868 462.278 164.366C462.724 164.864 462.947 165.527 462.947 166.354V166.417C462.947 166.931 462.848 167.394 462.649 167.804C462.454 168.211 462.173 168.528 461.805 168.756C461.44 168.984 461.02 169.098 460.545 169.098C459.829 169.098 459.248 168.849 458.802 168.351C458.359 167.853 458.138 167.193 458.138 166.373V166.31ZM459.046 166.417C459.046 167.003 459.181 167.473 459.451 167.828C459.725 168.183 460.089 168.36 460.545 168.36C461.004 168.36 461.368 168.181 461.639 167.823C461.909 167.462 462.044 166.957 462.044 166.31C462.044 165.73 461.906 165.261 461.629 164.903C461.355 164.542 460.991 164.361 460.535 164.361C460.089 164.361 459.729 164.539 459.456 164.894C459.183 165.248 459.046 165.756 459.046 166.417ZM467.156 167.599C467.156 167.354 467.063 167.166 466.878 167.032C466.696 166.896 466.375 166.778 465.916 166.681C465.46 166.583 465.097 166.466 464.827 166.329C464.56 166.192 464.362 166.03 464.231 165.841C464.104 165.652 464.041 165.427 464.041 165.167C464.041 164.734 464.223 164.368 464.588 164.068C464.956 163.769 465.424 163.619 465.994 163.619C466.593 163.619 467.078 163.774 467.449 164.083C467.824 164.392 468.011 164.788 468.011 165.27H467.103C467.103 165.022 466.997 164.809 466.785 164.63C466.577 164.451 466.313 164.361 465.994 164.361C465.665 164.361 465.408 164.433 465.223 164.576C465.037 164.719 464.944 164.907 464.944 165.138C464.944 165.356 465.031 165.52 465.203 165.631C465.376 165.742 465.687 165.847 466.136 165.948C466.588 166.049 466.954 166.17 467.234 166.31C467.514 166.45 467.721 166.619 467.854 166.817C467.991 167.013 468.06 167.252 468.06 167.535C468.06 168.007 467.871 168.386 467.493 168.673C467.116 168.956 466.626 169.098 466.023 169.098C465.6 169.098 465.226 169.023 464.9 168.873C464.575 168.723 464.319 168.515 464.134 168.248C463.951 167.978 463.86 167.687 463.86 167.374H464.764C464.78 167.677 464.9 167.918 465.125 168.097C465.353 168.272 465.652 168.36 466.023 168.36C466.365 168.36 466.639 168.292 466.844 168.155C467.052 168.015 467.156 167.83 467.156 167.599ZM468.997 166.31C468.997 165.792 469.098 165.326 469.3 164.913C469.505 164.5 469.788 164.181 470.149 163.956C470.514 163.731 470.929 163.619 471.395 163.619C472.114 163.619 472.695 163.868 473.138 164.366C473.584 164.864 473.807 165.527 473.807 166.354V166.417C473.807 166.931 473.707 167.394 473.509 167.804C473.313 168.211 473.032 168.528 472.664 168.756C472.299 168.984 471.88 169.098 471.404 169.098C470.688 169.098 470.107 168.849 469.661 168.351C469.218 167.853 468.997 167.193 468.997 166.373V166.31ZM469.905 166.417C469.905 167.003 470.04 167.473 470.311 167.828C470.584 168.183 470.949 168.36 471.404 168.36C471.863 168.36 472.228 168.181 472.498 167.823C472.768 167.462 472.903 166.957 472.903 166.31C472.903 165.73 472.765 165.261 472.488 164.903C472.215 164.542 471.85 164.361 471.395 164.361C470.949 164.361 470.589 164.539 470.315 164.894C470.042 165.248 469.905 165.756 469.905 166.417ZM475.384 169V164.415H474.549V163.717H475.384V163.175C475.384 162.608 475.535 162.171 475.838 161.861C476.141 161.552 476.569 161.397 477.122 161.397C477.33 161.397 477.537 161.425 477.742 161.48L477.693 162.213C477.54 162.184 477.378 162.169 477.205 162.169C476.912 162.169 476.686 162.255 476.526 162.428C476.367 162.597 476.287 162.841 476.287 163.16V163.717H477.415V164.415H476.287V169H475.384ZM479.642 162.438V163.717H480.628V164.415H479.642V167.691C479.642 167.903 479.686 168.062 479.773 168.17C479.861 168.274 480.011 168.326 480.223 168.326C480.327 168.326 480.47 168.307 480.652 168.268V169C480.415 169.065 480.184 169.098 479.959 169.098C479.555 169.098 479.251 168.976 479.046 168.731C478.841 168.487 478.738 168.141 478.738 167.691V164.415H477.776V163.717H478.738V162.438H479.642ZM488.328 165.714H485.247V168.233H488.826V169H484.31V161.891H488.777V162.662H485.247V164.947H488.328V165.714ZM491.624 165.646L492.796 163.717H493.851L492.122 166.329L493.904 169H492.859L491.639 167.022L490.418 169H489.368L491.15 166.329L489.422 163.717H490.467L491.624 165.646ZM496.834 168.36C497.156 168.36 497.438 168.263 497.679 168.067C497.92 167.872 498.053 167.628 498.079 167.335H498.934C498.917 167.638 498.813 167.926 498.621 168.199C498.429 168.473 498.172 168.691 497.85 168.854C497.531 169.016 497.192 169.098 496.834 169.098C496.115 169.098 495.542 168.858 495.115 168.38C494.692 167.898 494.48 167.241 494.48 166.407V166.256C494.48 165.742 494.575 165.284 494.764 164.884C494.952 164.483 495.223 164.173 495.574 163.951C495.929 163.73 496.347 163.619 496.829 163.619C497.422 163.619 497.913 163.797 498.304 164.151C498.698 164.506 498.908 164.967 498.934 165.533H498.079C498.053 165.191 497.923 164.911 497.688 164.693C497.457 164.472 497.171 164.361 496.829 164.361C496.37 164.361 496.014 164.527 495.76 164.859C495.509 165.188 495.384 165.665 495.384 166.29V166.461C495.384 167.07 495.509 167.538 495.76 167.867C496.01 168.196 496.368 168.36 496.834 168.36ZM502.142 169.098C501.425 169.098 500.843 168.863 500.394 168.395C499.944 167.923 499.72 167.293 499.72 166.505V166.339C499.72 165.815 499.819 165.348 500.018 164.938C500.219 164.524 500.499 164.202 500.857 163.971C501.219 163.736 501.609 163.619 502.029 163.619C502.716 163.619 503.25 163.845 503.631 164.298C504.012 164.75 504.202 165.398 504.202 166.241V166.617H500.623C500.636 167.138 500.787 167.56 501.077 167.882C501.37 168.201 501.741 168.36 502.19 168.36C502.509 168.36 502.78 168.295 503.001 168.165C503.222 168.035 503.416 167.862 503.582 167.647L504.134 168.077C503.691 168.757 503.027 169.098 502.142 169.098ZM502.029 164.361C501.665 164.361 501.359 164.495 501.111 164.762C500.864 165.025 500.711 165.396 500.652 165.875H503.299V165.807C503.273 165.348 503.149 164.993 502.928 164.742C502.706 164.488 502.407 164.361 502.029 164.361ZM506.233 169H505.33V161.5H506.233V169Z" fill="#505A89"/>
<path d="M434.808 192.145H431.829L431.16 194H430.193L432.908 186.891H433.729L436.448 194H435.486L434.808 192.145ZM432.112 191.373H434.529L433.318 188.048L432.112 191.373ZM437.044 191.314C437.044 190.504 437.236 189.853 437.62 189.361C438.004 188.867 438.507 188.619 439.129 188.619C439.747 188.619 440.237 188.831 440.599 189.254V186.5H441.502V194H440.672L440.628 193.434C440.267 193.876 439.764 194.098 439.119 194.098C438.507 194.098 438.007 193.847 437.62 193.346C437.236 192.844 437.044 192.19 437.044 191.383V191.314ZM437.947 191.417C437.947 192.016 438.071 192.485 438.318 192.823C438.566 193.162 438.908 193.331 439.344 193.331C439.917 193.331 440.335 193.074 440.599 192.56V190.133C440.328 189.635 439.913 189.386 439.354 189.386C438.911 189.386 438.566 189.557 438.318 189.898C438.071 190.24 437.947 190.746 437.947 191.417ZM442.669 191.31C442.669 190.792 442.77 190.326 442.972 189.913C443.177 189.5 443.46 189.181 443.821 188.956C444.186 188.731 444.601 188.619 445.066 188.619C445.786 188.619 446.367 188.868 446.81 189.366C447.256 189.864 447.479 190.527 447.479 191.354V191.417C447.479 191.931 447.379 192.394 447.181 192.804C446.985 193.211 446.704 193.528 446.336 193.756C445.971 193.984 445.551 194.098 445.076 194.098C444.36 194.098 443.779 193.849 443.333 193.351C442.89 192.853 442.669 192.193 442.669 191.373V191.31ZM443.577 191.417C443.577 192.003 443.712 192.473 443.982 192.828C444.256 193.183 444.62 193.36 445.076 193.36C445.535 193.36 445.9 193.181 446.17 192.823C446.44 192.462 446.575 191.957 446.575 191.31C446.575 190.73 446.437 190.261 446.16 189.903C445.887 189.542 445.522 189.361 445.066 189.361C444.62 189.361 444.261 189.539 443.987 189.894C443.714 190.248 443.577 190.756 443.577 191.417ZM453.084 191.417C453.084 192.224 452.898 192.874 452.527 193.365C452.156 193.854 451.658 194.098 451.033 194.098C450.366 194.098 449.85 193.862 449.485 193.39L449.441 194H448.611V186.5H449.515V189.298C449.879 188.845 450.382 188.619 451.023 188.619C451.665 188.619 452.168 188.862 452.532 189.347C452.9 189.832 453.084 190.496 453.084 191.339V191.417ZM452.181 191.314C452.181 190.699 452.062 190.224 451.824 189.889C451.587 189.553 451.245 189.386 450.799 189.386C450.203 189.386 449.775 189.662 449.515 190.216V192.501C449.791 193.054 450.223 193.331 450.809 193.331C451.242 193.331 451.578 193.163 451.819 192.828C452.06 192.493 452.181 191.988 452.181 191.314ZM456.419 194.098C455.703 194.098 455.12 193.863 454.671 193.395C454.222 192.923 453.997 192.293 453.997 191.505V191.339C453.997 190.815 454.096 190.348 454.295 189.938C454.497 189.524 454.777 189.202 455.135 188.971C455.496 188.736 455.887 188.619 456.307 188.619C456.993 188.619 457.527 188.845 457.908 189.298C458.289 189.75 458.479 190.398 458.479 191.241V191.617H454.9C454.913 192.138 455.065 192.56 455.354 192.882C455.647 193.201 456.019 193.36 456.468 193.36C456.787 193.36 457.057 193.295 457.278 193.165C457.5 193.035 457.693 192.862 457.859 192.647L458.411 193.077C457.968 193.757 457.304 194.098 456.419 194.098ZM456.307 189.361C455.942 189.361 455.636 189.495 455.389 189.762C455.141 190.025 454.988 190.396 454.93 190.875H457.576V190.807C457.55 190.348 457.426 189.993 457.205 189.742C456.984 189.488 456.684 189.361 456.307 189.361ZM463.094 193.233H466.463V194H462.151V186.891H463.094V193.233ZM468.372 194H467.469V188.717H468.372V194ZM467.396 187.315C467.396 187.169 467.439 187.045 467.527 186.944C467.618 186.843 467.752 186.793 467.928 186.793C468.104 186.793 468.237 186.843 468.328 186.944C468.419 187.045 468.465 187.169 468.465 187.315C468.465 187.462 468.419 187.584 468.328 187.682C468.237 187.779 468.104 187.828 467.928 187.828C467.752 187.828 467.618 187.779 467.527 187.682C467.439 187.584 467.396 187.462 467.396 187.315ZM469.607 191.314C469.607 190.491 469.798 189.837 470.179 189.352C470.56 188.863 471.064 188.619 471.692 188.619C472.337 188.619 472.84 188.847 473.201 189.303L473.245 188.717H474.07V193.873C474.07 194.557 473.867 195.095 473.46 195.489C473.056 195.883 472.513 196.08 471.829 196.08C471.448 196.08 471.076 195.999 470.711 195.836C470.346 195.673 470.068 195.45 469.876 195.167L470.345 194.625C470.732 195.104 471.206 195.343 471.766 195.343C472.205 195.343 472.547 195.219 472.791 194.972C473.038 194.724 473.162 194.376 473.162 193.927V193.473C472.801 193.889 472.308 194.098 471.683 194.098C471.064 194.098 470.563 193.849 470.179 193.351C469.798 192.853 469.607 192.174 469.607 191.314ZM470.516 191.417C470.516 192.013 470.638 192.481 470.882 192.823C471.126 193.162 471.468 193.331 471.907 193.331C472.477 193.331 472.895 193.072 473.162 192.555V190.143C472.885 189.638 472.47 189.386 471.917 189.386C471.478 189.386 471.134 189.557 470.887 189.898C470.639 190.24 470.516 190.746 470.516 191.417ZM476.341 189.356C476.741 188.865 477.262 188.619 477.903 188.619C479.02 188.619 479.583 189.249 479.593 190.509V194H478.689V190.504C478.686 190.123 478.598 189.841 478.426 189.659C478.257 189.477 477.991 189.386 477.63 189.386C477.337 189.386 477.08 189.464 476.858 189.62C476.637 189.776 476.465 189.981 476.341 190.235V194H475.438V186.5H476.341V189.356ZM482.171 187.438V188.717H483.157V189.415H482.171V192.691C482.171 192.903 482.215 193.062 482.303 193.17C482.391 193.274 482.54 193.326 482.752 193.326C482.856 193.326 482.999 193.307 483.182 193.268V194C482.944 194.065 482.713 194.098 482.488 194.098C482.085 194.098 481.78 193.976 481.575 193.731C481.37 193.487 481.268 193.141 481.268 192.691V189.415H480.306V188.717H481.268V187.438H482.171ZM486.771 189.527C486.634 189.505 486.486 189.493 486.326 189.493C485.734 189.493 485.332 189.745 485.12 190.25V194H484.217V188.717H485.096L485.11 189.327C485.407 188.855 485.826 188.619 486.37 188.619C486.546 188.619 486.679 188.642 486.771 188.688V189.527ZM487.269 191.31C487.269 190.792 487.369 190.326 487.571 189.913C487.776 189.5 488.06 189.181 488.421 188.956C488.785 188.731 489.201 188.619 489.666 188.619C490.385 188.619 490.966 188.868 491.409 189.366C491.855 189.864 492.078 190.527 492.078 191.354V191.417C492.078 191.931 491.979 192.394 491.78 192.804C491.585 193.211 491.303 193.528 490.936 193.756C490.571 193.984 490.151 194.098 489.676 194.098C488.96 194.098 488.379 193.849 487.933 193.351C487.49 192.853 487.269 192.193 487.269 191.373V191.31ZM488.177 191.417C488.177 192.003 488.312 192.473 488.582 192.828C488.855 193.183 489.22 193.36 489.676 193.36C490.135 193.36 490.499 193.181 490.77 192.823C491.04 192.462 491.175 191.957 491.175 191.31C491.175 190.73 491.036 190.261 490.76 189.903C490.486 189.542 490.122 189.361 489.666 189.361C489.22 189.361 488.86 189.539 488.587 189.894C488.313 190.248 488.177 190.756 488.177 191.417ZM492.972 191.31C492.972 190.792 493.073 190.326 493.274 189.913C493.479 189.5 493.763 189.181 494.124 188.956C494.489 188.731 494.904 188.619 495.369 188.619C496.089 188.619 496.67 188.868 497.112 189.366C497.558 189.864 497.781 190.527 497.781 191.354V191.417C497.781 191.931 497.682 192.394 497.483 192.804C497.288 193.211 497.007 193.528 496.639 193.756C496.274 193.984 495.854 194.098 495.379 194.098C494.663 194.098 494.082 193.849 493.636 193.351C493.193 192.853 492.972 192.193 492.972 191.373V191.31ZM493.88 191.417C493.88 192.003 494.015 192.473 494.285 192.828C494.559 193.183 494.923 193.36 495.379 193.36C495.838 193.36 496.202 193.181 496.473 192.823C496.743 192.462 496.878 191.957 496.878 191.31C496.878 190.73 496.74 190.261 496.463 189.903C496.189 189.542 495.825 189.361 495.369 189.361C494.923 189.361 494.563 189.539 494.29 189.894C494.017 190.248 493.88 190.756 493.88 191.417ZM499.764 188.717L499.788 189.303C500.175 188.847 500.698 188.619 501.355 188.619C502.094 188.619 502.597 188.902 502.864 189.469C503.04 189.215 503.268 189.01 503.548 188.854C503.831 188.697 504.165 188.619 504.549 188.619C505.708 188.619 506.297 189.233 506.316 190.46V194H505.413V190.514C505.413 190.136 505.327 189.854 505.154 189.669C504.982 189.48 504.692 189.386 504.285 189.386C503.95 189.386 503.672 189.487 503.45 189.688C503.229 189.887 503.1 190.156 503.064 190.494V194H502.156V190.538C502.156 189.77 501.78 189.386 501.028 189.386C500.436 189.386 500.031 189.638 499.812 190.143V194H498.909V188.717H499.764Z" fill="#505A89"/>
<path d="M485.809 216.831C485.005 216.6 484.419 216.317 484.051 215.981C483.686 215.643 483.504 215.226 483.504 214.731C483.504 214.172 483.727 213.709 484.173 213.345C484.622 212.977 485.205 212.793 485.921 212.793C486.409 212.793 486.844 212.887 487.225 213.076C487.609 213.265 487.905 213.525 488.113 213.857C488.325 214.189 488.431 214.552 488.431 214.946H487.488C487.488 214.517 487.352 214.18 487.078 213.936C486.805 213.688 486.419 213.564 485.921 213.564C485.459 213.564 485.097 213.667 484.837 213.872C484.58 214.074 484.451 214.355 484.451 214.717C484.451 215.007 484.573 215.252 484.817 215.454C485.065 215.653 485.483 215.835 486.072 216.001C486.665 216.167 487.127 216.351 487.459 216.553C487.794 216.751 488.042 216.984 488.201 217.251C488.364 217.518 488.445 217.832 488.445 218.193C488.445 218.77 488.221 219.232 487.771 219.58C487.322 219.925 486.722 220.098 485.97 220.098C485.481 220.098 485.026 220.005 484.603 219.819C484.179 219.631 483.852 219.373 483.621 219.048C483.393 218.722 483.279 218.353 483.279 217.939H484.222C484.222 218.369 484.38 218.709 484.695 218.96C485.014 219.207 485.439 219.331 485.97 219.331C486.465 219.331 486.844 219.23 487.107 219.028C487.371 218.826 487.503 218.551 487.503 218.203C487.503 217.855 487.381 217.586 487.137 217.397C486.893 217.205 486.45 217.017 485.809 216.831ZM490.491 220H489.588V212.5H490.491V220ZM495.203 220C495.151 219.896 495.109 219.71 495.076 219.443C494.656 219.88 494.155 220.098 493.572 220.098C493.051 220.098 492.623 219.951 492.288 219.658C491.956 219.362 491.79 218.988 491.79 218.535C491.79 217.985 491.998 217.559 492.415 217.256C492.835 216.95 493.424 216.797 494.183 216.797H495.062V216.382C495.062 216.066 494.967 215.815 494.778 215.63C494.59 215.441 494.311 215.347 493.943 215.347C493.621 215.347 493.351 215.428 493.133 215.591C492.915 215.754 492.806 215.951 492.806 216.182H491.897C491.897 215.918 491.99 215.664 492.176 215.42C492.365 215.173 492.618 214.977 492.938 214.834C493.26 214.691 493.613 214.619 493.997 214.619C494.606 214.619 495.083 214.772 495.428 215.078C495.773 215.381 495.952 215.799 495.965 216.333V218.765C495.965 219.25 496.027 219.635 496.15 219.922V220H495.203ZM493.704 219.312C493.987 219.312 494.256 219.238 494.51 219.092C494.764 218.945 494.948 218.755 495.062 218.521V217.437H494.354C493.247 217.437 492.693 217.76 492.693 218.408C492.693 218.691 492.788 218.913 492.977 219.072C493.165 219.232 493.408 219.312 493.704 219.312ZM499.5 219.36C499.822 219.36 500.104 219.263 500.345 219.067C500.586 218.872 500.719 218.628 500.745 218.335H501.6C501.583 218.638 501.479 218.926 501.287 219.199C501.095 219.473 500.838 219.691 500.516 219.854C500.197 220.016 499.858 220.098 499.5 220.098C498.781 220.098 498.208 219.858 497.781 219.38C497.358 218.898 497.146 218.241 497.146 217.407V217.256C497.146 216.742 497.241 216.284 497.43 215.884C497.618 215.483 497.889 215.173 498.24 214.951C498.595 214.73 499.013 214.619 499.495 214.619C500.088 214.619 500.579 214.797 500.97 215.151C501.364 215.506 501.574 215.967 501.6 216.533H500.745C500.719 216.191 500.589 215.911 500.354 215.693C500.123 215.472 499.837 215.361 499.495 215.361C499.036 215.361 498.68 215.527 498.426 215.859C498.175 216.188 498.05 216.665 498.05 217.29V217.461C498.05 218.07 498.175 218.538 498.426 218.867C498.676 219.196 499.035 219.36 499.5 219.36ZM504.09 217.554L503.523 218.145V220H502.62V212.5H503.523V217.036L504.007 216.455L505.652 214.717H506.751L504.695 216.924L506.99 220H505.931L504.09 217.554Z" fill="#505A89"/>
<path d="M488.948 241.675C488.948 242.371 488.831 242.98 488.597 243.501C488.362 244.019 488.03 244.414 487.601 244.688C487.171 244.961 486.67 245.098 486.097 245.098C485.537 245.098 485.04 244.961 484.607 244.688C484.174 244.411 483.838 244.019 483.597 243.511C483.359 243 483.237 242.409 483.23 241.738V241.226C483.23 240.542 483.349 239.938 483.587 239.414C483.825 238.89 484.16 238.49 484.593 238.213C485.029 237.933 485.527 237.793 486.087 237.793C486.657 237.793 487.158 237.931 487.591 238.208C488.027 238.481 488.362 238.88 488.597 239.404C488.831 239.925 488.948 240.532 488.948 241.226V241.675ZM488.016 241.216C488.016 240.373 487.846 239.727 487.508 239.277C487.169 238.825 486.696 238.599 486.087 238.599C485.494 238.599 485.027 238.825 484.686 239.277C484.347 239.727 484.173 240.352 484.163 241.152V241.675C484.163 242.492 484.334 243.135 484.676 243.604C485.021 244.069 485.494 244.302 486.097 244.302C486.702 244.302 487.171 244.082 487.503 243.643C487.835 243.2 488.006 242.567 488.016 241.743V241.216ZM491.438 238.438V239.717H492.425V240.415H491.438V243.691C491.438 243.903 491.482 244.062 491.57 244.17C491.658 244.274 491.808 244.326 492.02 244.326C492.124 244.326 492.267 244.307 492.449 244.268V245C492.212 245.065 491.98 245.098 491.756 245.098C491.352 245.098 491.048 244.976 490.843 244.731C490.638 244.487 490.535 244.141 490.535 243.691V240.415H489.573V239.717H490.535V238.438H491.438ZM494.388 240.356C494.788 239.865 495.309 239.619 495.95 239.619C497.067 239.619 497.63 240.249 497.64 241.509V245H496.736V241.504C496.733 241.123 496.645 240.841 496.473 240.659C496.303 240.477 496.038 240.386 495.677 240.386C495.384 240.386 495.127 240.464 494.905 240.62C494.684 240.776 494.511 240.981 494.388 241.235V245H493.484V237.5H494.388V240.356ZM501.185 245.098C500.468 245.098 499.886 244.863 499.437 244.395C498.987 243.923 498.763 243.293 498.763 242.505V242.339C498.763 241.815 498.862 241.348 499.061 240.938C499.262 240.524 499.542 240.202 499.9 239.971C500.262 239.736 500.652 239.619 501.072 239.619C501.759 239.619 502.293 239.845 502.674 240.298C503.055 240.75 503.245 241.398 503.245 242.241V242.617H499.666C499.679 243.138 499.83 243.56 500.12 243.882C500.413 244.201 500.784 244.36 501.233 244.36C501.552 244.36 501.823 244.295 502.044 244.165C502.265 244.035 502.459 243.862 502.625 243.647L503.177 244.077C502.734 244.757 502.07 245.098 501.185 245.098ZM501.072 240.361C500.708 240.361 500.402 240.495 500.154 240.762C499.907 241.025 499.754 241.396 499.695 241.875H502.342V241.807C502.316 241.348 502.192 240.993 501.971 240.742C501.749 240.488 501.45 240.361 501.072 240.361ZM506.849 240.527C506.712 240.505 506.564 240.493 506.404 240.493C505.812 240.493 505.41 240.745 505.198 241.25V245H504.295V239.717H505.174L505.188 240.327C505.485 239.855 505.905 239.619 506.448 239.619C506.624 239.619 506.757 239.642 506.849 239.688V240.527Z" fill="#505A89"/>
<rect x="743" y="110" width="25" height="11" rx="2" fill="#EEEEEE"/>
<rect x="743" y="135" width="25" height="11" rx="2" fill="#EEEEEE"/>
<rect x="743" y="160" width="25" height="11" rx="2" fill="#EEEEEE"/>
<rect x="743" y="185" width="25" height="11" rx="2" fill="#EEEEEE"/>
<rect x="743" y="211" width="25" height="11" rx="2" fill="#EEEEEE"/>
<rect x="743" y="236" width="25" height="11" rx="2" fill="#EEEEEE"/>
<path d="M192.73 150.182C192.73 153.131 192.12 155.387 190.899 156.949C189.679 158.512 187.892 159.293 185.538 159.293C183.214 159.293 181.437 158.526 180.206 156.993C178.976 155.46 178.346 153.263 178.316 150.401V146.476C178.316 143.497 178.932 141.236 180.162 139.693C181.402 138.15 183.185 137.379 185.509 137.379C187.833 137.379 189.61 138.146 190.841 139.679C192.071 141.202 192.701 143.395 192.73 146.256V150.182ZM188.497 145.875C188.497 144.107 188.253 142.823 187.765 142.022C187.286 141.212 186.534 140.807 185.509 140.807C184.513 140.807 183.775 141.192 183.297 141.964C182.828 142.726 182.579 143.922 182.55 145.553V150.738C182.55 152.477 182.784 153.771 183.253 154.62C183.731 155.46 184.493 155.88 185.538 155.88C186.573 155.88 187.32 155.475 187.779 154.664C188.238 153.854 188.478 152.613 188.497 150.943V145.875ZM210.104 140.045L201.856 159H197.389L205.65 141.1H195.045V137.672H210.104V140.045ZM217.135 144.879C218.258 143.531 219.669 142.857 221.368 142.857C224.806 142.857 226.549 144.854 226.598 148.849V159H222.364V148.966C222.364 148.058 222.169 147.389 221.778 146.959C221.388 146.52 220.738 146.3 219.83 146.3C218.59 146.3 217.691 146.778 217.135 147.735V159H212.901V136.5H217.135V144.879ZM237.716 148.512L238.946 137.672H250.899V141.202H242.418L241.891 145.787C242.896 145.25 243.966 144.981 245.099 144.981C247.13 144.981 248.722 145.611 249.874 146.871C251.026 148.131 251.603 149.894 251.603 152.159C251.603 153.536 251.31 154.771 250.724 155.865C250.147 156.949 249.317 157.794 248.233 158.399C247.149 158.995 245.87 159.293 244.396 159.293C243.106 159.293 241.91 159.034 240.807 158.517C239.703 157.989 238.829 157.252 238.185 156.305C237.55 155.357 237.213 154.278 237.174 153.067H241.363C241.451 153.956 241.759 154.649 242.286 155.147C242.823 155.636 243.521 155.88 244.381 155.88C245.338 155.88 246.075 155.538 246.593 154.854C247.11 154.161 247.369 153.185 247.369 151.925C247.369 150.714 247.071 149.786 246.476 149.142C245.88 148.497 245.035 148.175 243.941 148.175C242.936 148.175 242.12 148.438 241.495 148.966L241.085 149.347L237.716 148.512ZM264.596 159H260.362V142.682L255.309 144.249V140.807L264.142 137.643H264.596V159ZM275.685 143.15L275.816 144.923C276.939 143.546 278.458 142.857 280.372 142.857C282.413 142.857 283.814 143.663 284.576 145.274C285.689 143.663 287.276 142.857 289.337 142.857C291.056 142.857 292.335 143.36 293.175 144.366C294.015 145.362 294.435 146.866 294.435 148.878V159H290.187V148.893C290.187 147.994 290.011 147.34 289.659 146.93C289.308 146.51 288.688 146.3 287.799 146.3C286.529 146.3 285.65 146.905 285.162 148.116L285.177 159H280.943V148.907C280.943 147.989 280.763 147.325 280.401 146.915C280.04 146.505 279.425 146.3 278.556 146.3C277.354 146.3 276.485 146.798 275.948 147.794V159H271.715V143.15H275.685Z" fill="#505A89"/>
<path d="M191.13 116.127H187.931V125H186.625V116.127H183.433V115.047H191.13V116.127ZM191.39 121.233C191.39 120.509 191.531 119.857 191.813 119.278C192.101 118.7 192.497 118.253 193.003 117.938C193.513 117.624 194.094 117.467 194.746 117.467C195.753 117.467 196.567 117.815 197.187 118.513C197.811 119.21 198.123 120.137 198.123 121.295V121.384C198.123 122.104 197.984 122.751 197.706 123.325C197.433 123.895 197.038 124.339 196.523 124.658C196.013 124.977 195.425 125.137 194.76 125.137C193.757 125.137 192.944 124.788 192.319 124.091C191.7 123.394 191.39 122.471 191.39 121.322V121.233ZM192.661 121.384C192.661 122.204 192.85 122.863 193.229 123.359C193.611 123.856 194.122 124.104 194.76 124.104C195.402 124.104 195.913 123.854 196.291 123.353C196.669 122.847 196.858 122.14 196.858 121.233C196.858 120.422 196.665 119.766 196.277 119.265C195.895 118.759 195.384 118.506 194.746 118.506C194.122 118.506 193.618 118.754 193.235 119.251C192.853 119.748 192.661 120.459 192.661 121.384ZM201.425 115.812V117.604H202.806V118.581H201.425V123.168C201.425 123.464 201.486 123.688 201.609 123.838C201.732 123.984 201.942 124.057 202.238 124.057C202.384 124.057 202.585 124.029 202.84 123.975V125C202.507 125.091 202.184 125.137 201.869 125.137C201.304 125.137 200.878 124.966 200.591 124.624C200.304 124.282 200.16 123.797 200.16 123.168V118.581H198.813V117.604H200.16V115.812H201.425ZM208.855 125C208.783 124.854 208.723 124.594 208.678 124.221C208.09 124.831 207.388 125.137 206.572 125.137C205.843 125.137 205.244 124.932 204.774 124.521C204.31 124.107 204.077 123.583 204.077 122.949C204.077 122.179 204.369 121.582 204.952 121.158C205.54 120.73 206.365 120.516 207.427 120.516H208.657V119.935C208.657 119.493 208.525 119.142 208.261 118.882C207.996 118.618 207.607 118.485 207.092 118.485C206.641 118.485 206.262 118.599 205.957 118.827C205.652 119.055 205.499 119.331 205.499 119.654H204.228C204.228 119.285 204.357 118.93 204.617 118.588C204.882 118.242 205.237 117.968 205.684 117.768C206.135 117.567 206.629 117.467 207.167 117.467C208.019 117.467 208.687 117.681 209.17 118.109C209.653 118.533 209.904 119.119 209.922 119.866V123.271C209.922 123.95 210.008 124.49 210.182 124.891V125H208.855ZM206.757 124.036C207.153 124.036 207.529 123.934 207.885 123.729C208.24 123.523 208.498 123.257 208.657 122.929V121.411H207.666C206.117 121.411 205.342 121.865 205.342 122.771C205.342 123.168 205.474 123.478 205.738 123.701C206.003 123.924 206.342 124.036 206.757 124.036ZM213.278 125H212.014V114.5H213.278V125ZM225.583 116.127H222.384V125H221.078V116.127H217.886V115.047H225.583V116.127ZM228.235 125H226.971V117.604H228.235V125ZM226.868 115.642C226.868 115.437 226.93 115.263 227.053 115.122C227.18 114.981 227.367 114.91 227.613 114.91C227.859 114.91 228.046 114.981 228.174 115.122C228.301 115.263 228.365 115.437 228.365 115.642C228.365 115.847 228.301 116.018 228.174 116.154C228.046 116.291 227.859 116.359 227.613 116.359C227.367 116.359 227.18 116.291 227.053 116.154C226.93 116.018 226.868 115.847 226.868 115.642ZM231.455 117.604L231.489 118.424C232.032 117.786 232.763 117.467 233.684 117.467C234.718 117.467 235.422 117.863 235.796 118.656C236.042 118.301 236.361 118.014 236.753 117.795C237.149 117.576 237.617 117.467 238.154 117.467C239.777 117.467 240.602 118.326 240.629 120.044V125H239.364V120.119C239.364 119.59 239.243 119.196 239.002 118.937C238.76 118.672 238.355 118.54 237.785 118.54C237.316 118.54 236.926 118.681 236.616 118.964C236.306 119.242 236.126 119.618 236.076 120.092V125H234.805V120.153C234.805 119.078 234.278 118.54 233.226 118.54C232.396 118.54 231.829 118.893 231.523 119.6V125H230.259V117.604H231.455ZM245.612 125.137C244.61 125.137 243.794 124.809 243.165 124.152C242.536 123.492 242.222 122.61 242.222 121.507V121.274C242.222 120.541 242.361 119.887 242.639 119.312C242.921 118.734 243.313 118.283 243.814 117.959C244.32 117.631 244.867 117.467 245.455 117.467C246.417 117.467 247.164 117.784 247.697 118.417C248.23 119.05 248.497 119.957 248.497 121.138V121.664H243.486C243.505 122.393 243.716 122.983 244.122 123.435C244.532 123.881 245.052 124.104 245.681 124.104C246.127 124.104 246.506 124.013 246.815 123.831C247.125 123.649 247.396 123.407 247.629 123.106L248.401 123.708C247.782 124.66 246.852 125.137 245.612 125.137ZM245.455 118.506C244.945 118.506 244.516 118.693 244.17 119.066C243.824 119.436 243.609 119.955 243.527 120.625H247.232V120.529C247.196 119.887 247.023 119.39 246.713 119.039C246.403 118.684 245.984 118.506 245.455 118.506ZM260.241 116.127H257.042V125H255.736V116.127H252.544V115.047H260.241V116.127ZM260.501 121.233C260.501 120.509 260.642 119.857 260.925 119.278C261.212 118.7 261.608 118.253 262.114 117.938C262.625 117.624 263.206 117.467 263.857 117.467C264.865 117.467 265.678 117.815 266.298 118.513C266.922 119.21 267.234 120.137 267.234 121.295V121.384C267.234 122.104 267.095 122.751 266.817 123.325C266.544 123.895 266.15 124.339 265.635 124.658C265.124 124.977 264.536 125.137 263.871 125.137C262.868 125.137 262.055 124.788 261.431 124.091C260.811 123.394 260.501 122.471 260.501 121.322V121.233ZM261.772 121.384C261.772 122.204 261.962 122.863 262.34 123.359C262.723 123.856 263.233 124.104 263.871 124.104C264.514 124.104 265.024 123.854 265.402 123.353C265.781 122.847 265.97 122.14 265.97 121.233C265.97 120.422 265.776 119.766 265.389 119.265C265.006 118.759 264.495 118.506 263.857 118.506C263.233 118.506 262.729 118.754 262.347 119.251C261.964 119.748 261.772 120.459 261.772 121.384ZM268.513 121.24C268.513 120.105 268.782 119.194 269.319 118.506C269.857 117.813 270.561 117.467 271.432 117.467C272.298 117.467 272.983 117.763 273.489 118.355V114.5H274.754V125H273.592L273.53 124.207C273.024 124.827 272.32 125.137 271.418 125.137C270.561 125.137 269.862 124.786 269.319 124.084C268.782 123.382 268.513 122.466 268.513 121.336V121.24ZM269.777 121.384C269.777 122.222 269.951 122.879 270.297 123.353C270.643 123.826 271.122 124.063 271.732 124.063C272.535 124.063 273.12 123.703 273.489 122.983V119.586C273.111 118.889 272.53 118.54 271.746 118.54C271.126 118.54 270.643 118.779 270.297 119.258C269.951 119.736 269.777 120.445 269.777 121.384ZM281.289 125C281.216 124.854 281.157 124.594 281.111 124.221C280.523 124.831 279.822 125.137 279.006 125.137C278.277 125.137 277.677 124.932 277.208 124.521C276.743 124.107 276.511 123.583 276.511 122.949C276.511 122.179 276.802 121.582 277.386 121.158C277.974 120.73 278.799 120.516 279.86 120.516H281.091V119.935C281.091 119.493 280.959 119.142 280.694 118.882C280.43 118.618 280.04 118.485 279.525 118.485C279.074 118.485 278.696 118.599 278.391 118.827C278.085 119.055 277.933 119.331 277.933 119.654H276.661C276.661 119.285 276.791 118.93 277.051 118.588C277.315 118.242 277.671 117.968 278.117 117.768C278.568 117.567 279.063 117.467 279.601 117.467C280.453 117.467 281.12 117.681 281.604 118.109C282.087 118.533 282.337 119.119 282.355 119.866V123.271C282.355 123.95 282.442 124.49 282.615 124.891V125H281.289ZM279.19 124.036C279.587 124.036 279.963 123.934 280.318 123.729C280.674 123.523 280.931 123.257 281.091 122.929V121.411H280.1C278.55 121.411 277.775 121.865 277.775 122.771C277.775 123.168 277.908 123.478 278.172 123.701C278.436 123.924 278.776 124.036 279.19 124.036ZM286.648 123.147L288.371 117.604H289.725L286.751 126.142C286.291 127.372 285.559 127.987 284.557 127.987L284.317 127.967L283.846 127.878V126.853L284.188 126.88C284.616 126.88 284.949 126.793 285.186 126.62C285.427 126.447 285.625 126.13 285.78 125.67L286.061 124.918L283.422 117.604H284.803L286.648 123.147Z" fill="#505A89"/>
<path d="M448.043 86.9492H444.447L443.764 89H441.583L445.288 79.0469H447.188L450.914 89H448.733L448.043 86.9492ZM445.001 85.2881H447.489L446.238 81.5625L445.001 85.2881ZM458.044 85.3701C458.044 86.5094 457.784 87.4232 457.265 88.1113C456.75 88.7949 456.052 89.1367 455.173 89.1367C454.425 89.1367 453.822 88.877 453.361 88.3574V91.8438H451.386V81.6035H453.218L453.286 82.3281C453.765 81.7539 454.389 81.4668 455.159 81.4668C456.071 81.4668 456.779 81.804 457.285 82.4785C457.791 83.153 458.044 84.0827 458.044 85.2676V85.3701ZM456.068 85.2266C456.068 84.5384 455.945 84.0075 455.699 83.6338C455.458 83.2601 455.104 83.0732 454.64 83.0732C454.02 83.0732 453.594 83.3102 453.361 83.7842V86.8125C453.603 87.3001 454.034 87.5439 454.653 87.5439C455.597 87.5439 456.068 86.7715 456.068 85.2266ZM465.933 85.3701C465.933 86.5094 465.673 87.4232 465.153 88.1113C464.638 88.7949 463.941 89.1367 463.062 89.1367C462.314 89.1367 461.71 88.877 461.25 88.3574V91.8438H459.274V81.6035H461.106L461.175 82.3281C461.653 81.7539 462.278 81.4668 463.048 81.4668C463.959 81.4668 464.668 81.804 465.174 82.4785C465.68 83.153 465.933 84.0827 465.933 85.2676V85.3701ZM463.957 85.2266C463.957 84.5384 463.834 84.0075 463.588 83.6338C463.346 83.2601 462.993 83.0732 462.528 83.0732C461.909 83.0732 461.482 83.3102 461.25 83.7842V86.8125C461.492 87.3001 461.922 87.5439 462.542 87.5439C463.485 87.5439 463.957 86.7715 463.957 85.2266ZM469.248 89H467.266V78.5H469.248V89ZM472.967 89H470.984V81.6035H472.967V89ZM470.868 79.6895C470.868 79.3932 470.966 79.1494 471.162 78.958C471.363 78.7666 471.634 78.6709 471.976 78.6709C472.313 78.6709 472.582 78.7666 472.782 78.958C472.983 79.1494 473.083 79.3932 473.083 79.6895C473.083 79.9902 472.98 80.2363 472.775 80.4277C472.575 80.6191 472.308 80.7148 471.976 80.7148C471.643 80.7148 471.374 80.6191 471.169 80.4277C470.968 80.2363 470.868 79.9902 470.868 79.6895ZM477.677 87.5439C478.041 87.5439 478.338 87.4437 478.565 87.2432C478.793 87.0426 478.912 86.776 478.921 86.4434H480.773C480.769 86.9447 480.632 87.4049 480.363 87.8242C480.094 88.2389 479.725 88.5625 479.256 88.7949C478.791 89.0228 478.276 89.1367 477.711 89.1367C476.654 89.1367 475.82 88.8018 475.209 88.1318C474.598 87.4574 474.293 86.5277 474.293 85.3428V85.2129C474.293 84.0736 474.596 83.1644 475.202 82.4854C475.808 81.8063 476.64 81.4668 477.697 81.4668C478.622 81.4668 479.363 81.7311 479.919 82.2598C480.479 82.7839 480.764 83.4834 480.773 84.3584H478.921C478.912 83.9756 478.793 83.6657 478.565 83.4287C478.338 83.1872 478.037 83.0664 477.663 83.0664C477.203 83.0664 476.854 83.235 476.617 83.5723C476.385 83.9049 476.269 84.4473 476.269 85.1992V85.4043C476.269 86.1654 476.385 86.7122 476.617 87.0449C476.85 87.3776 477.203 87.5439 477.677 87.5439ZM486.188 89C486.096 88.8223 486.03 88.6012 485.989 88.3369C485.511 88.8701 484.889 89.1367 484.123 89.1367C483.398 89.1367 482.797 88.9271 482.318 88.5078C481.844 88.0885 481.607 87.5599 481.607 86.9219C481.607 86.138 481.897 85.5365 482.476 85.1172C483.059 84.6979 483.9 84.486 484.998 84.4814H485.907V84.0576C485.907 83.7158 485.818 83.4424 485.641 83.2373C485.467 83.0322 485.192 82.9297 484.813 82.9297C484.481 82.9297 484.219 83.0094 484.027 83.1689C483.84 83.3285 483.747 83.5472 483.747 83.8252H481.771C481.771 83.3968 481.904 83.0003 482.168 82.6357C482.432 82.2712 482.806 81.9863 483.289 81.7812C483.772 81.5716 484.314 81.4668 484.916 81.4668C485.827 81.4668 486.55 81.6969 487.083 82.1572C487.621 82.613 487.89 83.2555 487.89 84.085V87.291C487.894 87.9928 487.992 88.5238 488.184 88.8838V89H486.188ZM484.554 87.626C484.845 87.626 485.114 87.5622 485.36 87.4346C485.606 87.3024 485.789 87.127 485.907 86.9082V85.6367H485.169C484.18 85.6367 483.654 85.9785 483.59 86.6621L483.583 86.7783C483.583 87.0244 483.67 87.2272 483.843 87.3867C484.016 87.5462 484.253 87.626 484.554 87.626ZM491.772 79.7852V81.6035H493.037V83.0527H491.772V86.7441C491.772 87.0176 491.825 87.2135 491.93 87.332C492.035 87.4505 492.235 87.5098 492.531 87.5098C492.75 87.5098 492.944 87.4938 493.112 87.4619V88.959C492.725 89.0775 492.326 89.1367 491.916 89.1367C490.531 89.1367 489.824 88.4372 489.797 87.0381V83.0527H488.717V81.6035H489.797V79.7852H491.772ZM496.223 89H494.24V81.6035H496.223V89ZM494.124 79.6895C494.124 79.3932 494.222 79.1494 494.418 78.958C494.618 78.7666 494.89 78.6709 495.231 78.6709C495.569 78.6709 495.838 78.7666 496.038 78.958C496.239 79.1494 496.339 79.3932 496.339 79.6895C496.339 79.9902 496.236 80.2363 496.031 80.4277C495.831 80.6191 495.564 80.7148 495.231 80.7148C494.899 80.7148 494.63 80.6191 494.425 80.4277C494.224 80.2363 494.124 79.9902 494.124 79.6895ZM497.549 85.2334C497.549 84.4997 497.69 83.8457 497.973 83.2715C498.255 82.6973 498.661 82.2529 499.189 81.9385C499.723 81.624 500.34 81.4668 501.042 81.4668C502.04 81.4668 502.854 81.7721 503.482 82.3828C504.116 82.9935 504.469 83.8229 504.542 84.8711L504.556 85.377C504.556 86.5117 504.239 87.4232 503.605 88.1113C502.972 88.7949 502.122 89.1367 501.056 89.1367C499.989 89.1367 499.137 88.7949 498.499 88.1113C497.866 87.4277 497.549 86.498 497.549 85.3223V85.2334ZM499.524 85.377C499.524 86.0788 499.657 86.6165 499.921 86.9902C500.185 87.3594 500.563 87.5439 501.056 87.5439C501.534 87.5439 501.908 87.3617 502.177 86.9971C502.446 86.6279 502.58 86.04 502.58 85.2334C502.58 84.5452 502.446 84.012 502.177 83.6338C501.908 83.2555 501.53 83.0664 501.042 83.0664C500.559 83.0664 500.185 83.2555 499.921 83.6338C499.657 84.0075 499.524 84.5885 499.524 85.377ZM507.591 81.6035L507.652 82.458C508.181 81.7972 508.89 81.4668 509.778 81.4668C510.562 81.4668 511.146 81.6969 511.528 82.1572C511.911 82.6175 512.107 83.3057 512.116 84.2217V89H510.141V84.2695C510.141 83.8503 510.049 83.5472 509.867 83.3604C509.685 83.1689 509.382 83.0732 508.958 83.0732C508.402 83.0732 507.985 83.3102 507.707 83.7842V89H505.731V81.6035H507.591ZM521.536 88.248C521.049 88.8405 520.374 89.1367 519.513 89.1367C518.72 89.1367 518.114 88.9089 517.694 88.4531C517.28 87.9974 517.068 87.3298 517.059 86.4502V81.6035H519.034V86.3818C519.034 87.152 519.385 87.5371 520.087 87.5371C520.757 87.5371 521.217 87.3047 521.468 86.8398V81.6035H523.45V89H521.591L521.536 88.248ZM528.946 86.9561C528.946 86.7145 528.826 86.5254 528.584 86.3887C528.347 86.2474 527.964 86.1221 527.436 86.0127C525.676 85.6436 524.797 84.8962 524.797 83.7705C524.797 83.1143 525.068 82.5674 525.61 82.1299C526.157 81.6878 526.87 81.4668 527.75 81.4668C528.689 81.4668 529.438 81.6878 529.999 82.1299C530.564 82.5719 530.847 83.1462 530.847 83.8525H528.871C528.871 83.57 528.78 83.3376 528.598 83.1553C528.415 82.9684 528.131 82.875 527.743 82.875C527.41 82.875 527.153 82.9502 526.971 83.1006C526.788 83.251 526.697 83.4424 526.697 83.6748C526.697 83.8936 526.8 84.0713 527.005 84.208C527.215 84.3402 527.565 84.4564 528.058 84.5566C528.55 84.6523 528.965 84.7617 529.302 84.8848C530.345 85.2676 530.867 85.9307 530.867 86.874C530.867 87.5485 530.578 88.0954 529.999 88.5146C529.42 88.9294 528.673 89.1367 527.757 89.1367C527.137 89.1367 526.586 89.0273 526.103 88.8086C525.624 88.5853 525.248 88.2822 524.975 87.8994C524.701 87.512 524.564 87.0951 524.564 86.6484H526.438C526.456 86.9993 526.586 87.2682 526.827 87.4551C527.069 87.6419 527.392 87.7354 527.798 87.7354C528.176 87.7354 528.461 87.6647 528.652 87.5234C528.848 87.3776 528.946 87.1885 528.946 86.9561ZM536.432 89C536.34 88.8223 536.274 88.6012 536.233 88.3369C535.755 88.8701 535.133 89.1367 534.367 89.1367C533.643 89.1367 533.041 88.9271 532.562 88.5078C532.089 88.0885 531.852 87.5599 531.852 86.9219C531.852 86.138 532.141 85.5365 532.72 85.1172C533.303 84.6979 534.144 84.486 535.242 84.4814H536.151V84.0576C536.151 83.7158 536.062 83.4424 535.885 83.2373C535.712 83.0322 535.436 82.9297 535.058 82.9297C534.725 82.9297 534.463 83.0094 534.271 83.1689C534.085 83.3285 533.991 83.5472 533.991 83.8252H532.016C532.016 83.3968 532.148 83.0003 532.412 82.6357C532.676 82.2712 533.05 81.9863 533.533 81.7812C534.016 81.5716 534.559 81.4668 535.16 81.4668C536.072 81.4668 536.794 81.6969 537.327 82.1572C537.865 82.613 538.134 83.2555 538.134 84.085V87.291C538.138 87.9928 538.236 88.5238 538.428 88.8838V89H536.432ZM534.798 87.626C535.09 87.626 535.358 87.5622 535.604 87.4346C535.851 87.3024 536.033 87.127 536.151 86.9082V85.6367H535.413C534.424 85.6367 533.898 85.9785 533.834 86.6621L533.827 86.7783C533.827 87.0244 533.914 87.2272 534.087 87.3867C534.26 87.5462 534.497 87.626 534.798 87.626ZM539.364 85.2471C539.364 84.1123 539.633 83.1986 540.171 82.5059C540.713 81.8132 541.442 81.4668 542.358 81.4668C543.17 81.4668 543.801 81.7448 544.252 82.3008L544.334 81.6035H546.125V88.7539C546.125 89.401 545.977 89.9639 545.681 90.4424C545.389 90.9209 544.977 91.2855 544.443 91.5361C543.91 91.7868 543.286 91.9121 542.57 91.9121C542.028 91.9121 541.499 91.8027 540.984 91.584C540.469 91.3698 540.08 91.0918 539.815 90.75L540.69 89.5469C541.183 90.0983 541.78 90.374 542.481 90.374C543.006 90.374 543.413 90.2327 543.705 89.9502C543.997 89.6722 544.143 89.2757 544.143 88.7607V88.3643C543.687 88.8792 543.088 89.1367 542.345 89.1367C541.456 89.1367 540.736 88.7904 540.185 88.0977C539.638 87.4004 539.364 86.4775 539.364 85.3291V85.2471ZM541.34 85.3906C541.34 86.0605 541.474 86.5869 541.743 86.9697C542.012 87.348 542.381 87.5371 542.851 87.5371C543.452 87.5371 543.883 87.3115 544.143 86.8604V83.75C543.878 83.2988 543.452 83.0732 542.864 83.0732C542.39 83.0732 542.017 83.2669 541.743 83.6543C541.474 84.0417 541.34 84.6204 541.34 85.3906ZM551.054 89.1367C549.969 89.1367 549.085 88.804 548.401 88.1387C547.722 87.4733 547.383 86.5869 547.383 85.4795V85.2881C547.383 84.5452 547.526 83.8822 547.813 83.2988C548.101 82.7109 548.506 82.2598 549.03 81.9453C549.559 81.6263 550.16 81.4668 550.835 81.4668C551.847 81.4668 552.642 81.7858 553.221 82.4238C553.804 83.0618 554.096 83.9665 554.096 85.1377V85.9443H549.386C549.45 86.4274 549.641 86.8148 549.96 87.1064C550.284 87.3981 550.691 87.5439 551.184 87.5439C551.945 87.5439 552.539 87.2682 552.968 86.7168L553.938 87.8037C553.642 88.223 553.241 88.5511 552.735 88.7881C552.229 89.0205 551.669 89.1367 551.054 89.1367ZM550.828 83.0664C550.436 83.0664 550.117 83.1986 549.871 83.4629C549.63 83.7272 549.475 84.1055 549.406 84.5977H552.154V84.4404C552.145 84.0029 552.027 83.6657 551.799 83.4287C551.571 83.1872 551.247 83.0664 550.828 83.0664Z" fill="#505A89"/>
<path d="M168.312 189H166.999V179.047H168.312V189ZM171.716 181.604L171.757 182.533C172.322 181.822 173.06 181.467 173.972 181.467C175.535 181.467 176.323 182.349 176.337 184.112V189H175.072V184.105C175.068 183.572 174.945 183.178 174.703 182.923C174.466 182.668 174.095 182.54 173.589 182.54C173.179 182.54 172.819 182.649 172.509 182.868C172.199 183.087 171.957 183.374 171.784 183.729V189H170.52V181.604H171.716ZM182.811 189C182.738 188.854 182.678 188.594 182.633 188.221C182.045 188.831 181.343 189.137 180.527 189.137C179.798 189.137 179.199 188.932 178.729 188.521C178.265 188.107 178.032 187.583 178.032 186.949C178.032 186.179 178.324 185.582 178.907 185.158C179.495 184.73 180.32 184.516 181.382 184.516H182.612V183.935C182.612 183.493 182.48 183.142 182.216 182.882C181.951 182.618 181.562 182.485 181.047 182.485C180.596 182.485 180.217 182.599 179.912 182.827C179.607 183.055 179.454 183.331 179.454 183.654H178.183C178.183 183.285 178.312 182.93 178.572 182.588C178.837 182.242 179.192 181.968 179.639 181.768C180.09 181.567 180.584 181.467 181.122 181.467C181.974 181.467 182.642 181.681 183.125 182.109C183.608 182.533 183.859 183.119 183.877 183.866V187.271C183.877 187.95 183.964 188.49 184.137 188.891V189H182.811ZM180.712 188.036C181.108 188.036 181.484 187.934 181.84 187.729C182.195 187.523 182.453 187.257 182.612 186.929V185.411H181.621C180.072 185.411 179.297 185.865 179.297 186.771C179.297 187.168 179.429 187.478 179.693 187.701C179.958 187.924 180.297 188.036 180.712 188.036ZM188.826 188.104C189.277 188.104 189.672 187.968 190.009 187.694C190.346 187.421 190.533 187.079 190.569 186.669H191.766C191.743 187.093 191.597 187.496 191.328 187.879C191.059 188.262 190.699 188.567 190.248 188.795C189.801 189.023 189.327 189.137 188.826 189.137C187.819 189.137 187.017 188.802 186.42 188.132C185.827 187.457 185.531 186.537 185.531 185.37V185.158C185.531 184.438 185.663 183.798 185.928 183.237C186.192 182.677 186.57 182.242 187.062 181.932C187.559 181.622 188.145 181.467 188.819 181.467C189.649 181.467 190.337 181.715 190.884 182.212C191.435 182.709 191.729 183.354 191.766 184.146H190.569C190.533 183.668 190.351 183.276 190.022 182.971C189.699 182.661 189.298 182.506 188.819 182.506C188.177 182.506 187.678 182.738 187.322 183.203C186.971 183.663 186.796 184.331 186.796 185.206V185.445C186.796 186.298 186.971 186.954 187.322 187.414C187.673 187.874 188.174 188.104 188.826 188.104ZM194.903 179.812V181.604H196.284V182.581H194.903V187.168C194.903 187.464 194.965 187.688 195.088 187.838C195.211 187.984 195.421 188.057 195.717 188.057C195.863 188.057 196.063 188.029 196.318 187.975V189C195.986 189.091 195.662 189.137 195.348 189.137C194.783 189.137 194.356 188.966 194.069 188.624C193.782 188.282 193.639 187.797 193.639 187.168V182.581H192.292V181.604H193.639V179.812H194.903ZM199.142 189H197.877V181.604H199.142V189ZM197.774 179.642C197.774 179.437 197.836 179.263 197.959 179.122C198.087 178.981 198.273 178.91 198.52 178.91C198.766 178.91 198.952 178.981 199.08 179.122C199.208 179.263 199.271 179.437 199.271 179.642C199.271 179.847 199.208 180.018 199.08 180.154C198.952 180.291 198.766 180.359 198.52 180.359C198.273 180.359 198.087 180.291 197.959 180.154C197.836 180.018 197.774 179.847 197.774 179.642ZM203.612 187.284L205.444 181.604H206.736L204.084 189H203.12L200.44 181.604H201.732L203.612 187.284ZM210.927 189.137C209.924 189.137 209.108 188.809 208.479 188.152C207.851 187.492 207.536 186.61 207.536 185.507V185.274C207.536 184.541 207.675 183.887 207.953 183.312C208.236 182.734 208.628 182.283 209.129 181.959C209.635 181.631 210.182 181.467 210.77 181.467C211.731 181.467 212.479 181.784 213.012 182.417C213.545 183.05 213.812 183.957 213.812 185.138V185.664H208.801C208.819 186.393 209.031 186.983 209.437 187.435C209.847 187.881 210.366 188.104 210.995 188.104C211.442 188.104 211.82 188.013 212.13 187.831C212.44 187.649 212.711 187.407 212.943 187.106L213.716 187.708C213.096 188.66 212.166 189.137 210.927 189.137ZM210.77 182.506C210.259 182.506 209.831 182.693 209.484 183.066C209.138 183.436 208.924 183.955 208.842 184.625H212.547V184.529C212.51 183.887 212.337 183.39 212.027 183.039C211.717 182.684 211.298 182.506 210.77 182.506ZM220.47 179.812V181.604H221.851V182.581H220.47V187.168C220.47 187.464 220.531 187.688 220.654 187.838C220.777 187.984 220.987 188.057 221.283 188.057C221.429 188.057 221.63 188.029 221.885 187.975V189C221.552 189.091 221.229 189.137 220.914 189.137C220.349 189.137 219.923 188.966 219.636 188.624C219.349 188.282 219.205 187.797 219.205 187.168V182.581H217.858V181.604H219.205V179.812H220.47ZM224.708 189H223.443V181.604H224.708V189ZM223.341 179.642C223.341 179.437 223.402 179.263 223.525 179.122C223.653 178.981 223.84 178.91 224.086 178.91C224.332 178.91 224.519 178.981 224.646 179.122C224.774 179.263 224.838 179.437 224.838 179.642C224.838 179.847 224.774 180.018 224.646 180.154C224.519 180.291 224.332 180.359 224.086 180.359C223.84 180.359 223.653 180.291 223.525 180.154C223.402 180.018 223.341 179.847 223.341 179.642ZM227.928 181.604L227.962 182.424C228.504 181.786 229.236 181.467 230.156 181.467C231.191 181.467 231.895 181.863 232.269 182.656C232.515 182.301 232.834 182.014 233.226 181.795C233.622 181.576 234.089 181.467 234.627 181.467C236.249 181.467 237.074 182.326 237.102 184.044V189H235.837V184.119C235.837 183.59 235.716 183.196 235.475 182.937C235.233 182.672 234.827 182.54 234.258 182.54C233.788 182.54 233.399 182.681 233.089 182.964C232.779 183.242 232.599 183.618 232.549 184.092V189H231.277V184.153C231.277 183.078 230.751 182.54 229.698 182.54C228.869 182.54 228.301 182.893 227.996 183.6V189H226.731V181.604H227.928ZM242.085 189.137C241.082 189.137 240.267 188.809 239.638 188.152C239.009 187.492 238.694 186.61 238.694 185.507V185.274C238.694 184.541 238.833 183.887 239.111 183.312C239.394 182.734 239.786 182.283 240.287 181.959C240.793 181.631 241.34 181.467 241.928 181.467C242.889 181.467 243.637 181.784 244.17 182.417C244.703 183.05 244.97 183.957 244.97 185.138V185.664H239.959C239.977 186.393 240.189 186.983 240.595 187.435C241.005 187.881 241.524 188.104 242.153 188.104C242.6 188.104 242.978 188.013 243.288 187.831C243.598 187.649 243.869 187.407 244.102 187.106L244.874 187.708C244.254 188.66 243.325 189.137 242.085 189.137ZM241.928 182.506C241.417 182.506 240.989 182.693 240.643 183.066C240.296 183.436 240.082 183.955 240 184.625H243.705V184.529C243.669 183.887 243.495 183.39 243.186 183.039C242.876 182.684 242.456 182.506 241.928 182.506ZM246.398 188.337C246.398 188.118 246.462 187.936 246.59 187.79C246.722 187.644 246.918 187.571 247.178 187.571C247.438 187.571 247.633 187.644 247.766 187.79C247.902 187.936 247.971 188.118 247.971 188.337C247.971 188.547 247.902 188.722 247.766 188.863C247.633 189.005 247.438 189.075 247.178 189.075C246.918 189.075 246.722 189.005 246.59 188.863C246.462 188.722 246.398 188.547 246.398 188.337ZM246.405 182.301C246.405 182.082 246.469 181.9 246.597 181.754C246.729 181.608 246.925 181.535 247.185 181.535C247.444 181.535 247.64 181.608 247.772 181.754C247.909 181.9 247.978 182.082 247.978 182.301C247.978 182.51 247.909 182.686 247.772 182.827C247.64 182.968 247.444 183.039 247.185 183.039C246.925 183.039 246.729 182.968 246.597 182.827C246.469 182.686 246.405 182.51 246.405 182.301ZM259.414 184.755C259.414 186.236 259.161 187.337 258.655 188.057C258.149 188.777 257.359 189.137 256.283 189.137C255.221 189.137 254.435 188.786 253.925 188.084C253.414 187.378 253.15 186.325 253.132 184.926V183.237C253.132 181.774 253.385 180.688 253.891 179.977C254.396 179.266 255.189 178.91 256.27 178.91C257.34 178.91 258.129 179.254 258.635 179.942C259.141 180.626 259.4 181.683 259.414 183.114V184.755ZM258.149 183.025C258.149 181.954 257.999 181.175 257.698 180.688C257.397 180.195 256.921 179.949 256.27 179.949C255.622 179.949 255.151 180.193 254.854 180.681C254.558 181.168 254.406 181.918 254.396 182.93V184.953C254.396 186.029 254.551 186.824 254.861 187.339C255.176 187.849 255.65 188.104 256.283 188.104C256.908 188.104 257.37 187.863 257.671 187.38C257.976 186.897 258.136 186.136 258.149 185.097V183.025ZM267.275 184.755C267.275 186.236 267.022 187.337 266.517 188.057C266.011 188.777 265.22 189.137 264.145 189.137C263.083 189.137 262.297 188.786 261.786 188.084C261.276 187.378 261.011 186.325 260.993 184.926V183.237C260.993 181.774 261.246 180.688 261.752 179.977C262.258 179.266 263.051 178.91 264.131 178.91C265.202 178.91 265.99 179.254 266.496 179.942C267.002 180.626 267.262 181.683 267.275 183.114V184.755ZM266.011 183.025C266.011 181.954 265.86 181.175 265.56 180.688C265.259 180.195 264.783 179.949 264.131 179.949C263.484 179.949 263.012 180.193 262.716 180.681C262.42 181.168 262.267 181.918 262.258 182.93V184.953C262.258 186.029 262.413 186.824 262.723 187.339C263.037 187.849 263.511 188.104 264.145 188.104C264.769 188.104 265.231 187.863 265.532 187.38C265.838 186.897 265.997 186.136 266.011 185.097V183.025ZM270.29 182.499C270.851 181.811 271.58 181.467 272.478 181.467C274.041 181.467 274.829 182.349 274.843 184.112V189H273.578V184.105C273.574 183.572 273.451 183.178 273.209 182.923C272.972 182.668 272.601 182.54 272.095 182.54C271.685 182.54 271.325 182.649 271.015 182.868C270.705 183.087 270.463 183.374 270.29 183.729V189H269.025V178.5H270.29V182.499ZM280.66 184.01L281.166 179.047H286.266V180.216H282.239L281.938 182.93C282.426 182.643 282.98 182.499 283.6 182.499C284.507 182.499 285.227 182.8 285.76 183.401C286.293 183.998 286.56 184.807 286.56 185.828C286.56 186.854 286.282 187.662 285.726 188.255C285.174 188.843 284.402 189.137 283.408 189.137C282.529 189.137 281.811 188.893 281.255 188.405C280.699 187.918 280.382 187.243 280.305 186.382H281.501C281.578 186.951 281.781 187.382 282.109 187.674C282.438 187.961 282.87 188.104 283.408 188.104C283.996 188.104 284.456 187.904 284.789 187.503C285.126 187.102 285.295 186.548 285.295 185.842C285.295 185.176 285.113 184.643 284.748 184.242C284.388 183.837 283.907 183.634 283.306 183.634C282.754 183.634 282.321 183.755 282.007 183.996L281.672 184.27L280.66 184.01ZM294.366 179.758L290.244 189H288.918L293.026 180.086H287.64V179.047H294.366V179.758ZM297.121 181.604L297.155 182.424C297.698 181.786 298.429 181.467 299.35 181.467C300.384 181.467 301.088 181.863 301.462 182.656C301.708 182.301 302.027 182.014 302.419 181.795C302.815 181.576 303.283 181.467 303.82 181.467C305.443 181.467 306.268 182.326 306.295 184.044V189H305.03V184.119C305.03 183.59 304.91 183.196 304.668 182.937C304.426 182.672 304.021 182.54 303.451 182.54C302.982 182.54 302.592 182.681 302.282 182.964C301.972 183.242 301.792 183.618 301.742 184.092V189H300.471V184.153C300.471 183.078 299.944 182.54 298.892 182.54C298.062 182.54 297.495 182.893 297.189 183.6V189H295.925V181.604H297.121Z" fill="#505A89"/>
<path d="M132.669 223.862L132.86 225.175L133.141 223.992L135.109 217.047H136.217L138.138 223.992L138.411 225.195L138.623 223.855L140.168 217.047H141.487L139.074 227H137.878L135.827 219.747L135.67 218.988L135.513 219.747L133.387 227H132.19L129.784 217.047H131.097L132.669 223.862ZM145.603 227.137C144.6 227.137 143.784 226.809 143.155 226.152C142.526 225.492 142.212 224.61 142.212 223.507V223.274C142.212 222.541 142.351 221.887 142.629 221.312C142.911 220.734 143.303 220.283 143.805 219.959C144.311 219.631 144.857 219.467 145.445 219.467C146.407 219.467 147.154 219.784 147.688 220.417C148.221 221.05 148.487 221.957 148.487 223.138V223.664H143.477C143.495 224.393 143.707 224.983 144.112 225.435C144.522 225.881 145.042 226.104 145.671 226.104C146.118 226.104 146.496 226.013 146.806 225.831C147.116 225.649 147.387 225.407 147.619 225.106L148.392 225.708C147.772 226.66 146.842 227.137 145.603 227.137ZM145.445 220.506C144.935 220.506 144.507 220.693 144.16 221.066C143.814 221.436 143.6 221.955 143.518 222.625H147.223V222.529C147.186 221.887 147.013 221.39 146.703 221.039C146.393 220.684 145.974 220.506 145.445 220.506ZM153.026 227.137C152.024 227.137 151.208 226.809 150.579 226.152C149.95 225.492 149.636 224.61 149.636 223.507V223.274C149.636 222.541 149.775 221.887 150.053 221.312C150.335 220.734 150.727 220.283 151.229 219.959C151.734 219.631 152.281 219.467 152.869 219.467C153.831 219.467 154.578 219.784 155.111 220.417C155.645 221.05 155.911 221.957 155.911 223.138V223.664H150.9C150.919 224.393 151.131 224.983 151.536 225.435C151.946 225.881 152.466 226.104 153.095 226.104C153.541 226.104 153.92 226.013 154.229 225.831C154.539 225.649 154.811 225.407 155.043 225.106L155.815 225.708C155.196 226.66 154.266 227.137 153.026 227.137ZM152.869 220.506C152.359 220.506 151.93 220.693 151.584 221.066C151.238 221.436 151.023 221.955 150.941 222.625H154.646V222.529C154.61 221.887 154.437 221.39 154.127 221.039C153.817 220.684 153.398 220.506 152.869 220.506ZM159.445 223.575L158.652 224.402V227H157.388V216.5H158.652V222.851L159.329 222.037L161.633 219.604H163.171L160.293 222.693L163.506 227H162.022L159.445 223.575ZM174.341 227H167.819V226.091L171.265 222.263C171.775 221.684 172.126 221.215 172.317 220.854C172.513 220.49 172.611 220.114 172.611 219.727C172.611 219.207 172.454 218.781 172.14 218.448C171.825 218.116 171.406 217.949 170.882 217.949C170.253 217.949 169.763 218.129 169.412 218.489C169.066 218.845 168.893 219.341 168.893 219.979H167.628C167.628 219.063 167.922 218.323 168.51 217.758C169.102 217.193 169.893 216.91 170.882 216.91C171.807 216.91 172.538 217.154 173.076 217.642C173.614 218.125 173.883 218.77 173.883 219.576C173.883 220.556 173.258 221.723 172.01 223.076L169.344 225.968H174.341V227ZM180.527 222.625C180.263 222.939 179.946 223.192 179.577 223.384C179.213 223.575 178.812 223.671 178.374 223.671C177.8 223.671 177.299 223.53 176.87 223.247C176.446 222.965 176.118 222.568 175.886 222.058C175.653 221.543 175.537 220.975 175.537 220.355C175.537 219.69 175.662 219.091 175.913 218.558C176.168 218.024 176.528 217.617 176.993 217.334C177.458 217.051 178 216.91 178.62 216.91C179.604 216.91 180.379 217.279 180.944 218.018C181.514 218.751 181.799 219.754 181.799 221.025V221.395C181.799 223.331 181.416 224.746 180.65 225.64C179.885 226.528 178.729 226.984 177.185 227.007H176.938V225.94H177.205C178.249 225.922 179.051 225.651 179.611 225.127C180.172 224.598 180.477 223.764 180.527 222.625ZM178.579 222.625C179.003 222.625 179.393 222.495 179.748 222.235C180.108 221.976 180.37 221.654 180.534 221.271V220.766C180.534 219.936 180.354 219.262 179.994 218.742C179.634 218.223 179.178 217.963 178.627 217.963C178.071 217.963 177.624 218.177 177.287 218.605C176.95 219.029 176.781 219.59 176.781 220.287C176.781 220.966 176.943 221.527 177.267 221.969C177.595 222.406 178.032 222.625 178.579 222.625ZM184.937 220.499C185.497 219.811 186.226 219.467 187.124 219.467C188.687 219.467 189.476 220.349 189.489 222.112V227H188.225V222.105C188.22 221.572 188.097 221.178 187.855 220.923C187.618 220.668 187.247 220.54 186.741 220.54C186.331 220.54 185.971 220.649 185.661 220.868C185.351 221.087 185.11 221.374 184.937 221.729V227H183.672V216.5H184.937V220.499ZM196.564 221.408H197.515C198.112 221.399 198.581 221.242 198.923 220.937C199.265 220.631 199.436 220.219 199.436 219.699C199.436 218.533 198.854 217.949 197.692 217.949C197.146 217.949 196.708 218.106 196.38 218.421C196.056 218.731 195.895 219.143 195.895 219.658H194.63C194.63 218.87 194.917 218.216 195.491 217.696C196.07 217.172 196.804 216.91 197.692 216.91C198.631 216.91 199.367 217.159 199.9 217.655C200.434 218.152 200.7 218.842 200.7 219.727C200.7 220.16 200.559 220.579 200.276 220.984C199.998 221.39 199.618 221.693 199.135 221.894C199.682 222.067 200.103 222.354 200.399 222.755C200.7 223.156 200.851 223.646 200.851 224.225C200.851 225.118 200.559 225.826 199.976 226.351C199.392 226.875 198.633 227.137 197.699 227.137C196.765 227.137 196.004 226.884 195.416 226.378C194.833 225.872 194.541 225.204 194.541 224.375H195.812C195.812 224.899 195.983 225.318 196.325 225.633C196.667 225.947 197.125 226.104 197.699 226.104C198.31 226.104 198.777 225.945 199.101 225.626C199.424 225.307 199.586 224.849 199.586 224.252C199.586 223.673 199.408 223.229 199.053 222.919C198.697 222.609 198.185 222.45 197.515 222.44H196.564V221.408ZM203.168 222.01L203.674 217.047H208.773V218.216H204.747L204.446 220.93C204.934 220.643 205.488 220.499 206.107 220.499C207.014 220.499 207.734 220.8 208.268 221.401C208.801 221.998 209.067 222.807 209.067 223.828C209.067 224.854 208.789 225.662 208.233 226.255C207.682 226.843 206.91 227.137 205.916 227.137C205.036 227.137 204.319 226.893 203.763 226.405C203.207 225.918 202.89 225.243 202.812 224.382H204.009C204.086 224.951 204.289 225.382 204.617 225.674C204.945 225.961 205.378 226.104 205.916 226.104C206.504 226.104 206.964 225.904 207.297 225.503C207.634 225.102 207.803 224.548 207.803 223.842C207.803 223.176 207.62 222.643 207.256 222.242C206.896 221.837 206.415 221.634 205.813 221.634C205.262 221.634 204.829 221.755 204.515 221.996L204.18 222.27L203.168 222.01ZM211.768 219.604L211.802 220.424C212.344 219.786 213.076 219.467 213.996 219.467C215.031 219.467 215.735 219.863 216.108 220.656C216.354 220.301 216.674 220.014 217.065 219.795C217.462 219.576 217.929 219.467 218.467 219.467C220.089 219.467 220.914 220.326 220.941 222.044V227H219.677V222.119C219.677 221.59 219.556 221.196 219.314 220.937C219.073 220.672 218.667 220.54 218.098 220.54C217.628 220.54 217.239 220.681 216.929 220.964C216.619 221.242 216.439 221.618 216.389 222.092V227H215.117V222.153C215.117 221.078 214.591 220.54 213.538 220.54C212.709 220.54 212.141 220.893 211.836 221.6V227H210.571V219.604H211.768ZM230.054 227.854H228.967L233.123 217.047H234.203L230.054 227.854ZM247.882 217.047L251.136 225.168L254.39 217.047H256.092V227H254.779V223.124L254.902 218.94L251.635 227H250.63L247.369 218.961L247.499 223.124V227H246.187V217.047H247.882ZM257.876 223.233C257.876 222.509 258.017 221.857 258.3 221.278C258.587 220.7 258.983 220.253 259.489 219.938C260 219.624 260.581 219.467 261.232 219.467C262.24 219.467 263.053 219.815 263.673 220.513C264.297 221.21 264.609 222.137 264.609 223.295V223.384C264.609 224.104 264.47 224.751 264.192 225.325C263.919 225.895 263.525 226.339 263.01 226.658C262.499 226.977 261.911 227.137 261.246 227.137C260.243 227.137 259.43 226.788 258.806 226.091C258.186 225.394 257.876 224.471 257.876 223.322V223.233ZM259.147 223.384C259.147 224.204 259.337 224.863 259.715 225.359C260.098 225.856 260.608 226.104 261.246 226.104C261.889 226.104 262.399 225.854 262.777 225.353C263.156 224.847 263.345 224.14 263.345 223.233C263.345 222.422 263.151 221.766 262.764 221.265C262.381 220.759 261.87 220.506 261.232 220.506C260.608 220.506 260.104 220.754 259.722 221.251C259.339 221.748 259.147 222.459 259.147 223.384ZM267.392 219.604L267.433 220.533C267.998 219.822 268.736 219.467 269.647 219.467C271.211 219.467 271.999 220.349 272.013 222.112V227H270.748V222.105C270.743 221.572 270.62 221.178 270.379 220.923C270.142 220.668 269.771 220.54 269.265 220.54C268.854 220.54 268.494 220.649 268.185 220.868C267.875 221.087 267.633 221.374 267.46 221.729V227H266.195V219.604H267.392ZM275.636 217.812V219.604H277.017V220.581H275.636V225.168C275.636 225.464 275.697 225.688 275.82 225.838C275.943 225.984 276.153 226.057 276.449 226.057C276.595 226.057 276.796 226.029 277.051 225.975V227C276.718 227.091 276.395 227.137 276.08 227.137C275.515 227.137 275.089 226.966 274.802 226.624C274.515 226.282 274.371 225.797 274.371 225.168V220.581H273.024V219.604H274.371V217.812H275.636ZM279.765 220.499C280.325 219.811 281.054 219.467 281.952 219.467C283.515 219.467 284.304 220.349 284.317 222.112V227H283.053V222.105C283.048 221.572 282.925 221.178 282.684 220.923C282.447 220.668 282.075 220.54 281.569 220.54C281.159 220.54 280.799 220.649 280.489 220.868C280.179 221.087 279.938 221.374 279.765 221.729V227H278.5V216.5H279.765V220.499ZM295.59 219.645C295.59 220.141 295.458 220.583 295.193 220.971C294.934 221.358 294.58 221.661 294.134 221.88C294.653 222.103 295.063 222.429 295.364 222.857C295.67 223.286 295.822 223.771 295.822 224.313C295.822 225.175 295.531 225.861 294.947 226.371C294.368 226.882 293.605 227.137 292.657 227.137C291.7 227.137 290.932 226.882 290.354 226.371C289.779 225.856 289.492 225.17 289.492 224.313C289.492 223.776 289.638 223.29 289.93 222.857C290.226 222.424 290.634 222.096 291.153 221.873C290.711 221.654 290.363 221.351 290.107 220.964C289.852 220.576 289.725 220.137 289.725 219.645C289.725 218.806 289.993 218.141 290.531 217.648C291.069 217.156 291.778 216.91 292.657 216.91C293.532 216.91 294.239 217.156 294.776 217.648C295.319 218.141 295.59 218.806 295.59 219.645ZM294.558 224.286C294.558 223.73 294.38 223.277 294.024 222.926C293.674 222.575 293.213 222.399 292.644 222.399C292.074 222.399 291.616 222.573 291.27 222.919C290.928 223.265 290.757 223.721 290.757 224.286C290.757 224.851 290.923 225.296 291.256 225.619C291.593 225.943 292.06 226.104 292.657 226.104C293.25 226.104 293.715 225.943 294.052 225.619C294.389 225.291 294.558 224.847 294.558 224.286ZM292.657 217.949C292.16 217.949 291.757 218.104 291.447 218.414C291.142 218.719 290.989 219.136 290.989 219.665C290.989 220.171 291.14 220.581 291.44 220.896C291.746 221.205 292.151 221.36 292.657 221.36C293.163 221.36 293.566 221.205 293.867 220.896C294.173 220.581 294.325 220.171 294.325 219.665C294.325 219.159 294.168 218.747 293.854 218.428C293.539 218.109 293.14 217.949 292.657 217.949ZM302.262 222.625C301.997 222.939 301.681 223.192 301.312 223.384C300.947 223.575 300.546 223.671 300.108 223.671C299.534 223.671 299.033 223.53 298.604 223.247C298.181 222.965 297.853 222.568 297.62 222.058C297.388 221.543 297.271 220.975 297.271 220.355C297.271 219.69 297.397 219.091 297.647 218.558C297.903 218.024 298.263 217.617 298.728 217.334C299.192 217.051 299.735 216.91 300.354 216.91C301.339 216.91 302.114 217.279 302.679 218.018C303.248 218.751 303.533 219.754 303.533 221.025V221.395C303.533 223.331 303.15 224.746 302.385 225.64C301.619 226.528 300.464 226.984 298.919 227.007H298.673V225.94H298.939C299.983 225.922 300.785 225.651 301.346 225.127C301.906 224.598 302.212 223.764 302.262 222.625ZM300.313 222.625C300.737 222.625 301.127 222.495 301.482 222.235C301.842 221.976 302.104 221.654 302.269 221.271V220.766C302.269 219.936 302.089 219.262 301.729 218.742C301.368 218.223 300.913 217.963 300.361 217.963C299.805 217.963 299.359 218.177 299.021 218.605C298.684 219.029 298.516 219.59 298.516 220.287C298.516 220.966 298.677 221.527 299.001 221.969C299.329 222.406 299.767 222.625 300.313 222.625ZM306.671 220.499C307.231 219.811 307.961 219.467 308.858 219.467C310.422 219.467 311.21 220.349 311.224 222.112V227H309.959V222.105C309.954 221.572 309.831 221.178 309.59 220.923C309.353 220.668 308.981 220.54 308.476 220.54C308.065 220.54 307.705 220.649 307.396 220.868C307.086 221.087 306.844 221.374 306.671 221.729V227H305.406V216.5H306.671V220.499ZM322.701 222.755C322.701 224.236 322.448 225.337 321.942 226.057C321.437 226.777 320.646 227.137 319.57 227.137C318.508 227.137 317.722 226.786 317.212 226.084C316.701 225.378 316.437 224.325 316.419 222.926V221.237C316.419 219.774 316.672 218.688 317.178 217.977C317.684 217.266 318.477 216.91 319.557 216.91C320.628 216.91 321.416 217.254 321.922 217.942C322.428 218.626 322.688 219.683 322.701 221.114V222.755ZM321.437 221.025C321.437 219.954 321.286 219.175 320.985 218.688C320.685 218.195 320.208 217.949 319.557 217.949C318.91 217.949 318.438 218.193 318.142 218.681C317.845 219.168 317.693 219.918 317.684 220.93V222.953C317.684 224.029 317.839 224.824 318.148 225.339C318.463 225.849 318.937 226.104 319.57 226.104C320.195 226.104 320.657 225.863 320.958 225.38C321.263 224.897 321.423 224.136 321.437 223.097V221.025ZM326.16 221.408H327.11C327.707 221.399 328.177 221.242 328.519 220.937C328.86 220.631 329.031 220.219 329.031 219.699C329.031 218.533 328.45 217.949 327.288 217.949C326.741 217.949 326.304 218.106 325.976 218.421C325.652 218.731 325.49 219.143 325.49 219.658H324.226C324.226 218.87 324.513 218.216 325.087 217.696C325.666 217.172 326.399 216.91 327.288 216.91C328.227 216.91 328.963 217.159 329.496 217.655C330.029 218.152 330.296 218.842 330.296 219.727C330.296 220.16 330.155 220.579 329.872 220.984C329.594 221.39 329.214 221.693 328.73 221.894C329.277 222.067 329.699 222.354 329.995 222.755C330.296 223.156 330.446 223.646 330.446 224.225C330.446 225.118 330.155 225.826 329.571 226.351C328.988 226.875 328.229 227.137 327.295 227.137C326.361 227.137 325.6 226.884 325.012 226.378C324.428 225.872 324.137 225.204 324.137 224.375H325.408C325.408 224.899 325.579 225.318 325.921 225.633C326.263 225.947 326.721 226.104 327.295 226.104C327.906 226.104 328.373 225.945 328.696 225.626C329.02 225.307 329.182 224.849 329.182 224.252C329.182 223.673 329.004 223.229 328.648 222.919C328.293 222.609 327.78 222.45 327.11 222.44H326.16V221.408ZM333.502 219.604L333.536 220.424C334.078 219.786 334.81 219.467 335.73 219.467C336.765 219.467 337.469 219.863 337.843 220.656C338.089 220.301 338.408 220.014 338.8 219.795C339.196 219.576 339.663 219.467 340.201 219.467C341.824 219.467 342.648 220.326 342.676 222.044V227H341.411V222.119C341.411 221.59 341.29 221.196 341.049 220.937C340.807 220.672 340.402 220.54 339.832 220.54C339.363 220.54 338.973 220.681 338.663 220.964C338.353 221.242 338.173 221.618 338.123 222.092V227H336.852V222.153C336.852 221.078 336.325 220.54 335.272 220.54C334.443 220.54 333.876 220.893 333.57 221.6V227H332.306V219.604H333.502Z" fill="#505A89"/>
<defs>
<filter id="filter0_d" x="0" y="0" width="840" height="501" filterUnits="userSpaceOnUse" color-interpolation-filters="sRGB">
<feFlood flood-opacity="0" result="BackgroundImageFix"/>
<feColorMatrix in="SourceAlpha" type="matrix" values="0 0 0 0 0 0 0 0 0 0 0 0 0 0 0 0 0 0 127 0"/>
<feOffset/>
<feGaussianBlur stdDeviation="15"/>
<feColorMatrix type="matrix" values="0 0 0 0 0 0 0 0 0 0 0 0 0 0 0 0 0 0 0.1 0"/>
<feBlend mode="normal" in2="BackgroundImageFix" result="effect1_dropShadow"/>
<feBlend mode="normal" in="SourceGraphic" in2="effect1_dropShadow" result="shape"/>
</filter>
</defs>
</svg>
