<svg width="630" height="326" viewBox="0 0 630 326" fill="none" xmlns="http://www.w3.org/2000/svg">
<g filter="url(#filter0_d)">
<rect x="30" y="30" width="570" height="266" fill="white"/>
</g>
<g filter="url(#filter1_d)">
<rect x="63" y="87" width="166" height="166" rx="26" fill="#FCFDFF"/>
</g>
<path d="M357 163.436C354.675 168.431 353.564 170.664 350.578 175.078C346.407 181.243 340.518 188.935 333.238 188.988C326.762 189.041 325.09 184.887 316.301 184.955C307.512 184.996 305.681 189.063 299.198 188.999C291.917 188.935 286.343 182.005 282.168 175.852C270.495 158.592 269.262 138.363 276.477 127.599C281.581 119.967 289.658 115.485 297.242 115.485C304.966 115.485 309.821 119.605 316.208 119.605C322.404 119.605 326.179 115.474 335.111 115.474C341.867 115.474 349.012 119.046 354.116 125.211C337.416 134.092 340.13 157.241 357 163.436V163.436ZM328.332 108.585C331.582 104.537 334.046 98.825 333.152 93C327.85 93.3509 321.65 96.6368 318.027 100.892C314.746 104.767 312.025 110.524 313.086 116.092C318.871 116.274 324.857 112.927 328.332 108.585V108.585Z" fill="#5470CB"/>
<path d="M524.394 169.97C521.509 168.789 520.276 167.222 520.395 164.883C520.518 162.153 518.969 160.153 518.233 159.363C518.678 157.665 519.976 151.793 518.235 146.693C516.363 141.233 510.649 132.895 504.753 124.698C502.339 121.332 502.225 117.674 502.093 113.437C501.966 109.396 501.824 104.816 499.57 99.7236C497.12 94.1793 492.204 91 486.081 91C482.439 91 478.7 92.1383 475.823 94.1229C469.931 98.189 470.71 107.054 471.225 112.92C471.296 113.724 471.362 114.482 471.401 115.13C471.744 120.875 471.432 123.904 471.024 124.824C470.759 125.425 469.459 127.137 468.083 128.949C466.66 130.824 465.047 132.948 463.724 134.928C462.146 137.31 460.873 140.951 459.641 144.472C458.739 147.049 457.888 149.482 457.059 150.937C455.489 153.734 455.879 156.343 456.206 157.549C455.611 157.962 454.752 158.775 454.027 160.308C453.15 162.179 451.372 163.184 447.674 163.895C445.974 164.243 444.802 164.957 444.19 166.019C443.298 167.564 443.784 169.505 444.227 170.832C444.881 172.782 444.473 174.017 443.732 176.258C443.561 176.775 443.367 177.361 443.171 178.007C442.861 179.026 442.973 179.953 443.501 180.761C444.898 182.896 448.974 183.649 453.169 184.145C455.674 184.442 458.416 185.444 461.067 186.413C463.666 187.363 466.352 188.345 468.794 188.642C469.165 188.689 469.533 188.713 469.887 188.713C473.575 188.713 475.241 186.266 475.769 185.261C477.093 184.991 481.661 184.125 486.369 184.009C491.069 183.875 495.617 184.803 496.905 185.092C497.31 185.867 498.378 187.638 500.08 188.55C501.016 189.061 502.318 189.355 503.651 189.355C503.651 189.355 503.651 189.355 503.651 189.355C505.075 189.355 507.784 189.018 509.929 186.762C512.067 184.496 517.411 181.603 521.313 179.49C522.183 179.019 522.998 178.577 523.712 178.179C525.904 176.964 527.1 175.228 526.993 173.416C526.904 171.911 525.908 170.591 524.394 169.97ZM475.871 169.534C475.598 167.612 473.125 165.706 470.262 163.499C467.921 161.694 465.267 159.649 464.536 157.916C463.025 154.343 464.216 148.059 466.293 144.823C467.319 143.203 468.157 140.746 468.968 138.37C469.843 135.804 470.748 133.152 471.76 131.991C473.363 130.178 474.845 126.65 475.107 123.87C476.608 125.303 478.937 127.121 481.088 127.121C481.42 127.121 481.741 127.078 482.048 126.992C483.52 126.567 485.685 125.316 487.778 124.106C489.583 123.063 491.809 121.777 492.647 121.66C494.082 123.722 502.427 142.188 503.279 148.118C503.954 152.81 503.241 156.688 502.883 158.208C502.595 158.168 502.251 158.136 501.89 158.136C499.566 158.136 498.95 159.405 498.79 160.162C498.378 162.13 498.334 168.424 498.33 169.838C497.489 170.905 493.24 175.933 487.138 176.837C484.653 177.198 482.332 177.382 480.24 177.382C478.452 177.382 477.311 177.244 476.838 177.172L473.772 173.663C474.981 173.067 476.189 171.807 475.871 169.534ZM479.761 111.687C479.666 111.728 479.571 111.772 479.479 111.819C479.469 111.611 479.448 111.401 479.415 111.19C479.08 109.263 477.802 107.864 476.377 107.864C476.272 107.864 476.166 107.872 476.049 107.89C475.202 108.031 474.537 108.668 474.172 109.571C474.492 107.59 475.614 106.123 476.946 106.123C478.51 106.123 479.831 108.231 479.831 110.725C479.831 111.04 479.808 111.352 479.761 111.687ZM491.914 113.172C492.057 112.716 492.135 112.223 492.135 111.711C492.135 109.449 490.7 107.677 488.868 107.677C487.077 107.677 485.621 109.486 485.621 111.711C485.621 111.862 485.628 112.014 485.642 112.166C485.548 112.129 485.455 112.094 485.365 112.06C485.159 111.436 485.054 110.785 485.054 110.12C485.054 107.415 486.783 105.215 488.908 105.215C491.033 105.215 492.762 107.415 492.762 110.12C492.762 111.245 492.451 112.319 491.914 113.172ZM490.347 118.436C490.317 118.573 490.251 118.634 489.531 119.008C489.167 119.198 488.715 119.433 488.148 119.778L487.769 120.008C486.248 120.93 482.686 123.09 481.718 123.217C481.062 123.305 480.655 123.051 479.742 122.43C479.536 122.29 479.316 122.141 479.083 121.991C477.436 120.91 476.376 119.72 476.257 119.254C476.794 118.839 478.124 117.801 478.806 117.186C480.189 115.9 481.581 115.035 482.27 115.035C482.306 115.035 482.339 115.038 482.373 115.044C483.182 115.187 485.179 115.984 486.637 116.566C487.311 116.835 487.893 117.067 488.303 117.214C489.593 117.657 490.266 118.224 490.347 118.436ZM501.939 178.536C502.667 175.253 503.506 170.787 503.37 168.154C503.339 167.555 503.286 166.904 503.234 166.275C503.139 165.098 502.996 163.348 503.143 162.83C503.172 162.816 503.204 162.804 503.24 162.794C503.246 164.3 503.573 167.302 505.974 168.349C506.69 168.662 507.508 168.82 508.405 168.82C510.81 168.82 513.479 167.64 514.572 166.546C515.216 165.903 515.757 165.115 516.137 164.492C516.22 164.734 516.27 165.052 516.244 165.461C516.101 167.681 517.18 170.626 519.233 171.712L519.532 171.869C520.264 172.253 522.206 173.273 522.238 173.756C522.237 173.757 522.221 173.813 522.113 173.914C521.626 174.359 519.913 175.233 518.257 176.079C515.319 177.579 511.989 179.28 510.493 180.853C508.388 183.069 506.006 184.557 504.567 184.557C504.394 184.557 504.237 184.535 504.096 184.491C502.534 184.004 501.249 181.75 501.939 178.536ZM448.695 170.16C448.536 169.415 448.41 168.826 448.545 168.256C448.643 167.834 450.729 167.381 451.619 167.188C452.871 166.916 454.166 166.635 455.013 166.121C456.158 165.427 456.778 164.148 457.325 163.02C457.721 162.203 458.13 161.359 458.617 161.082C458.644 161.066 458.686 161.048 458.766 161.048C459.678 161.048 461.591 162.964 462.693 164.679C462.973 165.112 463.49 165.978 464.09 166.981C465.882 169.98 468.335 174.087 469.617 175.463C470.772 176.7 472.641 179.079 472.181 181.119C471.845 182.702 470.052 183.99 469.629 184.275C469.476 184.309 469.286 184.327 469.063 184.327C466.61 184.327 461.755 182.286 459.146 181.19L458.76 181.028C457.303 180.417 454.926 180.032 452.626 179.66C450.796 179.364 448.291 178.959 447.875 178.592C447.539 178.215 447.929 176.987 448.273 175.904C448.521 175.125 448.778 174.32 448.918 173.478C449.117 172.134 448.883 171.039 448.695 170.16Z" fill="#5470CB"/>
<path d="M146.701 118.844V150.078H189V112L146.701 118.844ZM146.701 188.275L189 195V156.943H146.701V188.275ZM102 150.067H137.754V119.979L102 125.763V150.067ZM102 181.464L137.754 187.151V156.943H102V181.464Z" fill="#5470CB"/>
<path d="M87.9004 217V207.047H90.8398C91.7194 207.047 92.4987 207.243 93.1777 207.635C93.8613 208.027 94.39 208.583 94.7637 209.303C95.1374 210.023 95.3242 210.848 95.3242 211.777V212.276C95.3242 213.22 95.1351 214.049 94.7568 214.765C94.3831 215.48 93.8477 216.032 93.1504 216.419C92.4577 216.806 91.6624 217 90.7646 217H87.9004ZM89.6299 208.441V215.619H90.7578C91.6647 215.619 92.3597 215.337 92.8428 214.771C93.3304 214.202 93.5788 213.386 93.5879 212.324V211.771C93.5879 210.69 93.3532 209.866 92.8838 209.296C92.4144 208.726 91.7331 208.441 90.8398 208.441H89.6299ZM96.5752 213.233C96.5752 212.509 96.7188 211.857 97.0059 211.278C97.293 210.695 97.6963 210.248 98.2158 209.938C98.7354 209.624 99.3324 209.467 100.007 209.467C101.005 209.467 101.814 209.788 102.434 210.431C103.058 211.073 103.395 211.925 103.445 212.987L103.452 213.377C103.452 214.106 103.311 214.758 103.028 215.332C102.75 215.906 102.349 216.351 101.825 216.665C101.306 216.979 100.704 217.137 100.021 217.137C98.9769 217.137 98.1406 216.79 97.5117 216.098C96.8874 215.4 96.5752 214.473 96.5752 213.315V213.233ZM98.2363 213.377C98.2363 214.138 98.3936 214.735 98.708 215.168C99.0225 215.596 99.46 215.811 100.021 215.811C100.581 215.811 101.016 215.592 101.326 215.154C101.641 214.717 101.798 214.076 101.798 213.233C101.798 212.486 101.636 211.894 101.312 211.456C100.993 211.019 100.558 210.8 100.007 210.8C99.4645 210.8 99.0339 211.016 98.7148 211.449C98.3958 211.878 98.2363 212.52 98.2363 213.377ZM111.354 214.71L112.53 209.604H114.15L112.134 217H110.767L109.181 211.921L107.622 217H106.255L104.231 209.604H105.852L107.048 214.655L108.565 209.604H109.816L111.354 214.71ZM116.803 209.604L116.851 210.458C117.397 209.797 118.115 209.467 119.004 209.467C120.544 209.467 121.328 210.349 121.355 212.112V217H119.694V212.208C119.694 211.739 119.592 211.392 119.387 211.169C119.186 210.941 118.856 210.827 118.396 210.827C117.726 210.827 117.227 211.13 116.898 211.736V217H115.237V209.604H116.803ZM124.821 217H123.16V206.5H124.821V217ZM126.325 213.233C126.325 212.509 126.469 211.857 126.756 211.278C127.043 210.695 127.446 210.248 127.966 209.938C128.485 209.624 129.082 209.467 129.757 209.467C130.755 209.467 131.564 209.788 132.184 210.431C132.808 211.073 133.145 211.925 133.195 212.987L133.202 213.377C133.202 214.106 133.061 214.758 132.778 215.332C132.5 215.906 132.099 216.351 131.575 216.665C131.056 216.979 130.454 217.137 129.771 217.137C128.727 217.137 127.891 216.79 127.262 216.098C126.637 215.4 126.325 214.473 126.325 213.315V213.233ZM127.986 213.377C127.986 214.138 128.144 214.735 128.458 215.168C128.772 215.596 129.21 215.811 129.771 215.811C130.331 215.811 130.766 215.592 131.076 215.154C131.391 214.717 131.548 214.076 131.548 213.233C131.548 212.486 131.386 211.894 131.062 211.456C130.743 211.019 130.308 210.8 129.757 210.8C129.215 210.8 128.784 211.016 128.465 211.449C128.146 211.878 127.986 212.52 127.986 213.377ZM139.026 217C138.953 216.859 138.89 216.629 138.835 216.31C138.306 216.861 137.659 217.137 136.894 217.137C136.151 217.137 135.545 216.925 135.075 216.501C134.606 216.077 134.371 215.553 134.371 214.929C134.371 214.14 134.663 213.536 135.246 213.117C135.834 212.693 136.673 212.481 137.762 212.481H138.78V211.996C138.78 211.613 138.673 211.308 138.459 211.08C138.245 210.848 137.919 210.731 137.481 210.731C137.103 210.731 136.793 210.827 136.552 211.019C136.31 211.205 136.189 211.445 136.189 211.736H134.528C134.528 211.331 134.663 210.952 134.932 210.602C135.201 210.246 135.565 209.968 136.025 209.768C136.49 209.567 137.007 209.467 137.577 209.467C138.443 209.467 139.133 209.686 139.648 210.123C140.163 210.556 140.428 211.167 140.441 211.955V215.291C140.441 215.956 140.535 216.487 140.722 216.884V217H139.026ZM137.201 215.804C137.529 215.804 137.837 215.724 138.124 215.564C138.416 215.405 138.634 215.191 138.78 214.922V213.527H137.885C137.27 213.527 136.807 213.634 136.497 213.849C136.187 214.063 136.032 214.366 136.032 214.758C136.032 215.077 136.137 215.332 136.347 215.523C136.561 215.71 136.846 215.804 137.201 215.804ZM141.87 213.247C141.87 212.108 142.134 211.194 142.663 210.506C143.192 209.813 143.9 209.467 144.789 209.467C145.573 209.467 146.206 209.74 146.689 210.287V206.5H148.351V217H146.847L146.765 216.234C146.268 216.836 145.605 217.137 144.775 217.137C143.91 217.137 143.208 216.788 142.67 216.091C142.137 215.394 141.87 214.446 141.87 213.247ZM143.531 213.391C143.531 214.143 143.675 214.73 143.962 215.154C144.254 215.574 144.666 215.783 145.199 215.783C145.878 215.783 146.375 215.48 146.689 214.874V211.716C146.384 211.123 145.892 210.827 145.213 210.827C144.675 210.827 144.26 211.041 143.969 211.47C143.677 211.894 143.531 212.534 143.531 213.391ZM155.973 207.047L158.844 214.676L161.708 207.047H163.943V217H162.221V213.719L162.392 209.33L159.452 217H158.215L155.282 209.337L155.453 213.719V217H153.73V207.047H155.973ZM165.522 213.233C165.522 212.509 165.666 211.857 165.953 211.278C166.24 210.695 166.644 210.248 167.163 209.938C167.683 209.624 168.28 209.467 168.954 209.467C169.952 209.467 170.761 209.788 171.381 210.431C172.005 211.073 172.342 211.925 172.393 212.987L172.399 213.377C172.399 214.106 172.258 214.758 171.976 215.332C171.698 215.906 171.297 216.351 170.772 216.665C170.253 216.979 169.651 217.137 168.968 217.137C167.924 217.137 167.088 216.79 166.459 216.098C165.835 215.4 165.522 214.473 165.522 213.315V213.233ZM167.184 213.377C167.184 214.138 167.341 214.735 167.655 215.168C167.97 215.596 168.407 215.811 168.968 215.811C169.528 215.811 169.964 215.592 170.273 215.154C170.588 214.717 170.745 214.076 170.745 213.233C170.745 212.486 170.583 211.894 170.26 211.456C169.941 211.019 169.506 210.8 168.954 210.8C168.412 210.8 167.981 211.016 167.662 211.449C167.343 211.878 167.184 212.52 167.184 213.377ZM175.346 209.604L175.394 210.458C175.94 209.797 176.658 209.467 177.547 209.467C179.087 209.467 179.871 210.349 179.898 212.112V217H178.237V212.208C178.237 211.739 178.135 211.392 177.93 211.169C177.729 210.941 177.399 210.827 176.938 210.827C176.269 210.827 175.77 211.13 175.441 211.736V217H173.78V209.604H175.346ZM183.364 217H181.703V209.604H183.364V217ZM181.601 207.683C181.601 207.427 181.68 207.215 181.84 207.047C182.004 206.878 182.236 206.794 182.537 206.794C182.838 206.794 183.07 206.878 183.234 207.047C183.398 207.215 183.48 207.427 183.48 207.683C183.48 207.933 183.398 208.143 183.234 208.312C183.07 208.476 182.838 208.558 182.537 208.558C182.236 208.558 182.004 208.476 181.84 208.312C181.68 208.143 181.601 207.933 181.601 207.683ZM187.261 207.806V209.604H188.566V210.834H187.261V214.963C187.261 215.245 187.315 215.451 187.425 215.578C187.539 215.701 187.739 215.763 188.026 215.763C188.218 215.763 188.411 215.74 188.607 215.694V216.979C188.229 217.084 187.865 217.137 187.514 217.137C186.238 217.137 185.6 216.433 185.6 215.024V210.834H184.383V209.604H185.6V207.806H187.261ZM194.261 217C194.188 216.859 194.124 216.629 194.069 216.31C193.541 216.861 192.894 217.137 192.128 217.137C191.385 217.137 190.779 216.925 190.31 216.501C189.84 216.077 189.605 215.553 189.605 214.929C189.605 214.14 189.897 213.536 190.48 213.117C191.068 212.693 191.907 212.481 192.996 212.481H194.015V211.996C194.015 211.613 193.908 211.308 193.693 211.08C193.479 210.848 193.153 210.731 192.716 210.731C192.338 210.731 192.028 210.827 191.786 211.019C191.545 211.205 191.424 211.445 191.424 211.736H189.763C189.763 211.331 189.897 210.952 190.166 210.602C190.435 210.246 190.799 209.968 191.26 209.768C191.725 209.567 192.242 209.467 192.812 209.467C193.677 209.467 194.368 209.686 194.883 210.123C195.398 210.556 195.662 211.167 195.676 211.955V215.291C195.676 215.956 195.769 216.487 195.956 216.884V217H194.261ZM192.436 215.804C192.764 215.804 193.071 215.724 193.358 215.564C193.65 215.405 193.869 215.191 194.015 214.922V213.527H193.119C192.504 213.527 192.041 213.634 191.731 213.849C191.422 214.063 191.267 214.366 191.267 214.758C191.267 215.077 191.371 215.332 191.581 215.523C191.795 215.71 192.08 215.804 192.436 215.804ZM201.562 214.99C201.562 214.694 201.438 214.468 201.192 214.313C200.951 214.159 200.548 214.022 199.982 213.903C199.417 213.785 198.946 213.634 198.567 213.452C197.738 213.051 197.323 212.47 197.323 211.709C197.323 211.071 197.592 210.538 198.13 210.109C198.668 209.681 199.351 209.467 200.181 209.467C201.065 209.467 201.778 209.686 202.32 210.123C202.867 210.561 203.141 211.128 203.141 211.825H201.479C201.479 211.506 201.361 211.242 201.124 211.032C200.887 210.818 200.573 210.711 200.181 210.711C199.816 210.711 199.518 210.795 199.285 210.964C199.057 211.132 198.943 211.358 198.943 211.641C198.943 211.896 199.05 212.094 199.265 212.235C199.479 212.377 199.912 212.52 200.563 212.666C201.215 212.807 201.726 212.978 202.095 213.179C202.468 213.375 202.744 213.612 202.922 213.89C203.104 214.168 203.195 214.505 203.195 214.901C203.195 215.567 202.92 216.107 202.368 216.521C201.817 216.932 201.094 217.137 200.201 217.137C199.595 217.137 199.055 217.027 198.581 216.809C198.107 216.59 197.738 216.289 197.474 215.906C197.209 215.523 197.077 215.111 197.077 214.669H198.69C198.713 215.061 198.861 215.364 199.135 215.578C199.408 215.788 199.771 215.893 200.222 215.893C200.659 215.893 200.992 215.811 201.22 215.646C201.448 215.478 201.562 215.259 201.562 214.99ZM207.051 213.828L206.312 214.587V217H204.651V206.5H206.312V212.557L206.832 211.907L208.876 209.604H210.872L208.124 212.687L211.166 217H209.245L207.051 213.828ZM111.163 233V226.834H110.035V225.604H111.163V224.927C111.163 224.106 111.391 223.473 111.847 223.026C112.302 222.58 112.94 222.356 113.761 222.356C114.052 222.356 114.362 222.397 114.69 222.479L114.649 223.778C114.467 223.742 114.255 223.724 114.014 223.724C113.221 223.724 112.824 224.132 112.824 224.947V225.604H114.328V226.834H112.824V233H111.163ZM115.23 229.233C115.23 228.509 115.374 227.857 115.661 227.278C115.948 226.695 116.352 226.248 116.871 225.938C117.391 225.624 117.988 225.467 118.662 225.467C119.66 225.467 120.469 225.788 121.089 226.431C121.713 227.073 122.05 227.925 122.101 228.987L122.107 229.377C122.107 230.106 121.966 230.758 121.684 231.332C121.406 231.906 121.005 232.351 120.48 232.665C119.961 232.979 119.359 233.137 118.676 233.137C117.632 233.137 116.796 232.79 116.167 232.098C115.543 231.4 115.23 230.473 115.23 229.315V229.233ZM116.892 229.377C116.892 230.138 117.049 230.735 117.363 231.168C117.678 231.596 118.115 231.811 118.676 231.811C119.236 231.811 119.672 231.592 119.981 231.154C120.296 230.717 120.453 230.076 120.453 229.233C120.453 228.486 120.291 227.894 119.968 227.456C119.649 227.019 119.214 226.8 118.662 226.8C118.12 226.8 117.689 227.016 117.37 227.449C117.051 227.878 116.892 228.52 116.892 229.377ZM127.385 227.121C127.166 227.085 126.94 227.066 126.708 227.066C125.947 227.066 125.434 227.358 125.17 227.941V233H123.509V225.604H125.095L125.136 226.431C125.537 225.788 126.093 225.467 126.804 225.467C127.041 225.467 127.237 225.499 127.392 225.562L127.385 227.121ZM139.888 230.539L141.419 223.047H143.135L140.838 233H139.184L137.29 225.733L135.355 233H133.694L131.397 223.047H133.113L134.658 230.525L136.559 223.047H138.008L139.888 230.539ZM146.006 233H144.345V225.604H146.006V233ZM144.242 223.683C144.242 223.427 144.322 223.215 144.481 223.047C144.646 222.878 144.878 222.794 145.179 222.794C145.479 222.794 145.712 222.878 145.876 223.047C146.04 223.215 146.122 223.427 146.122 223.683C146.122 223.933 146.04 224.143 145.876 224.312C145.712 224.476 145.479 224.558 145.179 224.558C144.878 224.558 144.646 224.476 144.481 224.312C144.322 224.143 144.242 223.933 144.242 223.683ZM149.362 225.604L149.41 226.458C149.957 225.797 150.675 225.467 151.563 225.467C153.104 225.467 153.888 226.349 153.915 228.112V233H152.254V228.208C152.254 227.739 152.151 227.392 151.946 227.169C151.746 226.941 151.415 226.827 150.955 226.827C150.285 226.827 149.786 227.13 149.458 227.736V233H147.797V225.604H149.362ZM155.303 229.247C155.303 228.108 155.567 227.194 156.096 226.506C156.624 225.813 157.333 225.467 158.222 225.467C159.006 225.467 159.639 225.74 160.122 226.287V222.5H161.783V233H160.279L160.197 232.234C159.701 232.836 159.037 233.137 158.208 233.137C157.342 233.137 156.64 232.788 156.103 232.091C155.569 231.394 155.303 230.446 155.303 229.247ZM156.964 229.391C156.964 230.143 157.107 230.73 157.395 231.154C157.686 231.574 158.099 231.783 158.632 231.783C159.311 231.783 159.808 231.48 160.122 230.874V227.716C159.817 227.123 159.325 226.827 158.646 226.827C158.108 226.827 157.693 227.041 157.401 227.47C157.11 227.894 156.964 228.534 156.964 229.391ZM163.205 229.233C163.205 228.509 163.349 227.857 163.636 227.278C163.923 226.695 164.326 226.248 164.846 225.938C165.365 225.624 165.962 225.467 166.637 225.467C167.635 225.467 168.444 225.788 169.063 226.431C169.688 227.073 170.025 227.925 170.075 228.987L170.082 229.377C170.082 230.106 169.941 230.758 169.658 231.332C169.38 231.906 168.979 232.351 168.455 232.665C167.936 232.979 167.334 233.137 166.65 233.137C165.607 233.137 164.771 232.79 164.142 232.098C163.517 231.4 163.205 230.473 163.205 229.315V229.233ZM164.866 229.377C164.866 230.138 165.023 230.735 165.338 231.168C165.652 231.596 166.09 231.811 166.65 231.811C167.211 231.811 167.646 231.592 167.956 231.154C168.271 230.717 168.428 230.076 168.428 229.233C168.428 228.486 168.266 227.894 167.942 227.456C167.623 227.019 167.188 226.8 166.637 226.8C166.094 226.8 165.664 227.016 165.345 227.449C165.026 227.878 164.866 228.52 164.866 229.377ZM177.984 230.71L179.16 225.604H180.78L178.764 233H177.396L175.811 227.921L174.252 233H172.885L170.861 225.604H172.481L173.678 230.655L175.195 225.604H176.446L177.984 230.71ZM186.037 230.99C186.037 230.694 185.914 230.468 185.668 230.313C185.426 230.159 185.023 230.022 184.458 229.903C183.893 229.785 183.421 229.634 183.043 229.452C182.214 229.051 181.799 228.47 181.799 227.709C181.799 227.071 182.068 226.538 182.605 226.109C183.143 225.681 183.827 225.467 184.656 225.467C185.54 225.467 186.254 225.686 186.796 226.123C187.343 226.561 187.616 227.128 187.616 227.825H185.955C185.955 227.506 185.837 227.242 185.6 227.032C185.363 226.818 185.048 226.711 184.656 226.711C184.292 226.711 183.993 226.795 183.761 226.964C183.533 227.132 183.419 227.358 183.419 227.641C183.419 227.896 183.526 228.094 183.74 228.235C183.954 228.377 184.387 228.52 185.039 228.666C185.691 228.807 186.201 228.978 186.57 229.179C186.944 229.375 187.22 229.612 187.397 229.89C187.58 230.168 187.671 230.505 187.671 230.901C187.671 231.567 187.395 232.107 186.844 232.521C186.292 232.932 185.57 233.137 184.677 233.137C184.071 233.137 183.531 233.027 183.057 232.809C182.583 232.59 182.214 232.289 181.949 231.906C181.685 231.523 181.553 231.111 181.553 230.669H183.166C183.189 231.061 183.337 231.364 183.61 231.578C183.884 231.788 184.246 231.893 184.697 231.893C185.135 231.893 185.467 231.811 185.695 231.646C185.923 231.478 186.037 231.259 186.037 230.99Z" fill="#5470CB"/>
<path d="M256.9 217V207.047H259.84C260.719 207.047 261.499 207.243 262.178 207.635C262.861 208.027 263.39 208.583 263.764 209.303C264.137 210.023 264.324 210.848 264.324 211.777V212.276C264.324 213.22 264.135 214.049 263.757 214.765C263.383 215.48 262.848 216.032 262.15 216.419C261.458 216.806 260.662 217 259.765 217H256.9ZM258.63 208.441V215.619H259.758C260.665 215.619 261.36 215.337 261.843 214.771C262.33 214.202 262.579 213.386 262.588 212.324V211.771C262.588 210.69 262.353 209.866 261.884 209.296C261.414 208.726 260.733 208.441 259.84 208.441H258.63ZM265.575 213.233C265.575 212.509 265.719 211.857 266.006 211.278C266.293 210.695 266.696 210.248 267.216 209.938C267.735 209.624 268.332 209.467 269.007 209.467C270.005 209.467 270.814 209.788 271.434 210.431C272.058 211.073 272.395 211.925 272.445 212.987L272.452 213.377C272.452 214.106 272.311 214.758 272.028 215.332C271.75 215.906 271.349 216.351 270.825 216.665C270.306 216.979 269.704 217.137 269.021 217.137C267.977 217.137 267.141 216.79 266.512 216.098C265.887 215.4 265.575 214.473 265.575 213.315V213.233ZM267.236 213.377C267.236 214.138 267.394 214.735 267.708 215.168C268.022 215.596 268.46 215.811 269.021 215.811C269.581 215.811 270.016 215.592 270.326 215.154C270.641 214.717 270.798 214.076 270.798 213.233C270.798 212.486 270.636 211.894 270.312 211.456C269.993 211.019 269.558 210.8 269.007 210.8C268.465 210.8 268.034 211.016 267.715 211.449C267.396 211.878 267.236 212.52 267.236 213.377ZM280.354 214.71L281.53 209.604H283.15L281.134 217H279.767L278.181 211.921L276.622 217H275.255L273.231 209.604H274.852L276.048 214.655L277.565 209.604H278.816L280.354 214.71ZM285.803 209.604L285.851 210.458C286.397 209.797 287.115 209.467 288.004 209.467C289.544 209.467 290.328 210.349 290.355 212.112V217H288.694V212.208C288.694 211.739 288.592 211.392 288.387 211.169C288.186 210.941 287.856 210.827 287.396 210.827C286.726 210.827 286.227 211.13 285.898 211.736V217H284.237V209.604H285.803ZM293.821 217H292.16V206.5H293.821V217ZM295.325 213.233C295.325 212.509 295.469 211.857 295.756 211.278C296.043 210.695 296.446 210.248 296.966 209.938C297.485 209.624 298.082 209.467 298.757 209.467C299.755 209.467 300.564 209.788 301.184 210.431C301.808 211.073 302.145 211.925 302.195 212.987L302.202 213.377C302.202 214.106 302.061 214.758 301.778 215.332C301.5 215.906 301.099 216.351 300.575 216.665C300.056 216.979 299.454 217.137 298.771 217.137C297.727 217.137 296.891 216.79 296.262 216.098C295.637 215.4 295.325 214.473 295.325 213.315V213.233ZM296.986 213.377C296.986 214.138 297.144 214.735 297.458 215.168C297.772 215.596 298.21 215.811 298.771 215.811C299.331 215.811 299.766 215.592 300.076 215.154C300.391 214.717 300.548 214.076 300.548 213.233C300.548 212.486 300.386 211.894 300.062 211.456C299.743 211.019 299.308 210.8 298.757 210.8C298.215 210.8 297.784 211.016 297.465 211.449C297.146 211.878 296.986 212.52 296.986 213.377ZM308.026 217C307.953 216.859 307.89 216.629 307.835 216.31C307.306 216.861 306.659 217.137 305.894 217.137C305.151 217.137 304.545 216.925 304.075 216.501C303.606 216.077 303.371 215.553 303.371 214.929C303.371 214.14 303.663 213.536 304.246 213.117C304.834 212.693 305.673 212.481 306.762 212.481H307.78V211.996C307.78 211.613 307.673 211.308 307.459 211.08C307.245 210.848 306.919 210.731 306.481 210.731C306.103 210.731 305.793 210.827 305.552 211.019C305.31 211.205 305.189 211.445 305.189 211.736H303.528C303.528 211.331 303.663 210.952 303.932 210.602C304.201 210.246 304.565 209.968 305.025 209.768C305.49 209.567 306.007 209.467 306.577 209.467C307.443 209.467 308.133 209.686 308.648 210.123C309.163 210.556 309.428 211.167 309.441 211.955V215.291C309.441 215.956 309.535 216.487 309.722 216.884V217H308.026ZM306.201 215.804C306.529 215.804 306.837 215.724 307.124 215.564C307.416 215.405 307.634 215.191 307.78 214.922V213.527H306.885C306.27 213.527 305.807 213.634 305.497 213.849C305.187 214.063 305.032 214.366 305.032 214.758C305.032 215.077 305.137 215.332 305.347 215.523C305.561 215.71 305.846 215.804 306.201 215.804ZM310.87 213.247C310.87 212.108 311.134 211.194 311.663 210.506C312.192 209.813 312.9 209.467 313.789 209.467C314.573 209.467 315.206 209.74 315.689 210.287V206.5H317.351V217H315.847L315.765 216.234C315.268 216.836 314.605 217.137 313.775 217.137C312.91 217.137 312.208 216.788 311.67 216.091C311.137 215.394 310.87 214.446 310.87 213.247ZM312.531 213.391C312.531 214.143 312.675 214.73 312.962 215.154C313.254 215.574 313.666 215.783 314.199 215.783C314.878 215.783 315.375 215.48 315.689 214.874V211.716C315.384 211.123 314.892 210.827 314.213 210.827C313.675 210.827 313.26 211.041 312.969 211.47C312.677 211.894 312.531 212.534 312.531 213.391ZM324.973 207.047L327.844 214.676L330.708 207.047H332.943V217H331.221V213.719L331.392 209.33L328.452 217H327.215L324.282 209.337L324.453 213.719V217H322.73V207.047H324.973ZM334.522 213.233C334.522 212.509 334.666 211.857 334.953 211.278C335.24 210.695 335.644 210.248 336.163 209.938C336.683 209.624 337.28 209.467 337.954 209.467C338.952 209.467 339.761 209.788 340.381 210.431C341.005 211.073 341.342 211.925 341.393 212.987L341.399 213.377C341.399 214.106 341.258 214.758 340.976 215.332C340.698 215.906 340.297 216.351 339.772 216.665C339.253 216.979 338.651 217.137 337.968 217.137C336.924 217.137 336.088 216.79 335.459 216.098C334.835 215.4 334.522 214.473 334.522 213.315V213.233ZM336.184 213.377C336.184 214.138 336.341 214.735 336.655 215.168C336.97 215.596 337.407 215.811 337.968 215.811C338.528 215.811 338.964 215.592 339.273 215.154C339.588 214.717 339.745 214.076 339.745 213.233C339.745 212.486 339.583 211.894 339.26 211.456C338.941 211.019 338.506 210.8 337.954 210.8C337.412 210.8 336.981 211.016 336.662 211.449C336.343 211.878 336.184 212.52 336.184 213.377ZM344.346 209.604L344.394 210.458C344.94 209.797 345.658 209.467 346.547 209.467C348.087 209.467 348.871 210.349 348.898 212.112V217H347.237V212.208C347.237 211.739 347.135 211.392 346.93 211.169C346.729 210.941 346.399 210.827 345.938 210.827C345.269 210.827 344.77 211.13 344.441 211.736V217H342.78V209.604H344.346ZM352.364 217H350.703V209.604H352.364V217ZM350.601 207.683C350.601 207.427 350.68 207.215 350.84 207.047C351.004 206.878 351.236 206.794 351.537 206.794C351.838 206.794 352.07 206.878 352.234 207.047C352.398 207.215 352.48 207.427 352.48 207.683C352.48 207.933 352.398 208.143 352.234 208.312C352.07 208.476 351.838 208.558 351.537 208.558C351.236 208.558 351.004 208.476 350.84 208.312C350.68 208.143 350.601 207.933 350.601 207.683ZM356.261 207.806V209.604H357.566V210.834H356.261V214.963C356.261 215.245 356.315 215.451 356.425 215.578C356.539 215.701 356.739 215.763 357.026 215.763C357.218 215.763 357.411 215.74 357.607 215.694V216.979C357.229 217.084 356.865 217.137 356.514 217.137C355.238 217.137 354.6 216.433 354.6 215.024V210.834H353.383V209.604H354.6V207.806H356.261ZM363.261 217C363.188 216.859 363.124 216.629 363.069 216.31C362.541 216.861 361.894 217.137 361.128 217.137C360.385 217.137 359.779 216.925 359.31 216.501C358.84 216.077 358.605 215.553 358.605 214.929C358.605 214.14 358.897 213.536 359.48 213.117C360.068 212.693 360.907 212.481 361.996 212.481H363.015V211.996C363.015 211.613 362.908 211.308 362.693 211.08C362.479 210.848 362.153 210.731 361.716 210.731C361.338 210.731 361.028 210.827 360.786 211.019C360.545 211.205 360.424 211.445 360.424 211.736H358.763C358.763 211.331 358.897 210.952 359.166 210.602C359.435 210.246 359.799 209.968 360.26 209.768C360.725 209.567 361.242 209.467 361.812 209.467C362.677 209.467 363.368 209.686 363.883 210.123C364.398 210.556 364.662 211.167 364.676 211.955V215.291C364.676 215.956 364.769 216.487 364.956 216.884V217H363.261ZM361.436 215.804C361.764 215.804 362.071 215.724 362.358 215.564C362.65 215.405 362.869 215.191 363.015 214.922V213.527H362.119C361.504 213.527 361.041 213.634 360.731 213.849C360.422 214.063 360.267 214.366 360.267 214.758C360.267 215.077 360.371 215.332 360.581 215.523C360.795 215.71 361.08 215.804 361.436 215.804ZM370.562 214.99C370.562 214.694 370.438 214.468 370.192 214.313C369.951 214.159 369.548 214.022 368.982 213.903C368.417 213.785 367.946 213.634 367.567 213.452C366.738 213.051 366.323 212.47 366.323 211.709C366.323 211.071 366.592 210.538 367.13 210.109C367.668 209.681 368.351 209.467 369.181 209.467C370.065 209.467 370.778 209.686 371.32 210.123C371.867 210.561 372.141 211.128 372.141 211.825H370.479C370.479 211.506 370.361 211.242 370.124 211.032C369.887 210.818 369.573 210.711 369.181 210.711C368.816 210.711 368.518 210.795 368.285 210.964C368.057 211.132 367.943 211.358 367.943 211.641C367.943 211.896 368.05 212.094 368.265 212.235C368.479 212.377 368.912 212.52 369.563 212.666C370.215 212.807 370.726 212.978 371.095 213.179C371.468 213.375 371.744 213.612 371.922 213.89C372.104 214.168 372.195 214.505 372.195 214.901C372.195 215.567 371.92 216.107 371.368 216.521C370.817 216.932 370.094 217.137 369.201 217.137C368.595 217.137 368.055 217.027 367.581 216.809C367.107 216.59 366.738 216.289 366.474 215.906C366.209 215.523 366.077 215.111 366.077 214.669H367.69C367.713 215.061 367.861 215.364 368.135 215.578C368.408 215.788 368.771 215.893 369.222 215.893C369.659 215.893 369.992 215.811 370.22 215.646C370.448 215.478 370.562 215.259 370.562 214.99ZM376.051 213.828L375.312 214.587V217H373.651V206.5H375.312V212.557L375.832 211.907L377.876 209.604H379.872L377.124 212.687L380.166 217H378.245L376.051 213.828ZM286.124 233V226.834H284.996V225.604H286.124V224.927C286.124 224.106 286.352 223.473 286.808 223.026C287.263 222.58 287.901 222.356 288.722 222.356C289.013 222.356 289.323 222.397 289.651 222.479L289.61 223.778C289.428 223.742 289.216 223.724 288.975 223.724C288.182 223.724 287.785 224.132 287.785 224.947V225.604H289.289V226.834H287.785V233H286.124ZM290.191 229.233C290.191 228.509 290.335 227.857 290.622 227.278C290.909 226.695 291.312 226.248 291.832 225.938C292.352 225.624 292.949 225.467 293.623 225.467C294.621 225.467 295.43 225.788 296.05 226.431C296.674 227.073 297.011 227.925 297.062 228.987L297.068 229.377C297.068 230.106 296.927 230.758 296.645 231.332C296.367 231.906 295.965 232.351 295.441 232.665C294.922 232.979 294.32 233.137 293.637 233.137C292.593 233.137 291.757 232.79 291.128 232.098C290.504 231.4 290.191 230.473 290.191 229.315V229.233ZM291.853 229.377C291.853 230.138 292.01 230.735 292.324 231.168C292.639 231.596 293.076 231.811 293.637 231.811C294.197 231.811 294.632 231.592 294.942 231.154C295.257 230.717 295.414 230.076 295.414 229.233C295.414 228.486 295.252 227.894 294.929 227.456C294.61 227.019 294.174 226.8 293.623 226.8C293.081 226.8 292.65 227.016 292.331 227.449C292.012 227.878 291.853 228.52 291.853 229.377ZM302.346 227.121C302.127 227.085 301.901 227.066 301.669 227.066C300.908 227.066 300.395 227.358 300.131 227.941V233H298.47V225.604H300.056L300.097 226.431C300.498 225.788 301.054 225.467 301.765 225.467C302.002 225.467 302.198 225.499 302.353 225.562L302.346 227.121ZM309.284 223.047L312.155 230.676L315.02 223.047H317.255V233H315.532V229.719L315.703 225.33L312.764 233H311.526L308.594 225.337L308.765 229.719V233H307.042V223.047H309.284ZM323.564 233C323.492 232.859 323.428 232.629 323.373 232.31C322.844 232.861 322.197 233.137 321.432 233.137C320.689 233.137 320.083 232.925 319.613 232.501C319.144 232.077 318.909 231.553 318.909 230.929C318.909 230.14 319.201 229.536 319.784 229.117C320.372 228.693 321.211 228.481 322.3 228.481H323.318V227.996C323.318 227.613 323.211 227.308 322.997 227.08C322.783 226.848 322.457 226.731 322.02 226.731C321.641 226.731 321.331 226.827 321.09 227.019C320.848 227.205 320.728 227.445 320.728 227.736H319.066C319.066 227.331 319.201 226.952 319.47 226.602C319.739 226.246 320.103 225.968 320.563 225.768C321.028 225.567 321.546 225.467 322.115 225.467C322.981 225.467 323.672 225.686 324.187 226.123C324.701 226.556 324.966 227.167 324.979 227.955V231.291C324.979 231.956 325.073 232.487 325.26 232.884V233H323.564ZM321.739 231.804C322.067 231.804 322.375 231.724 322.662 231.564C322.954 231.405 323.173 231.191 323.318 230.922V229.527H322.423C321.808 229.527 321.345 229.634 321.035 229.849C320.725 230.063 320.57 230.366 320.57 230.758C320.57 231.077 320.675 231.332 320.885 231.523C321.099 231.71 321.384 231.804 321.739 231.804ZM329.758 231.811C330.173 231.811 330.517 231.69 330.79 231.448C331.063 231.207 331.209 230.908 331.228 230.553H332.793C332.775 231.013 332.631 231.444 332.362 231.845C332.093 232.241 331.729 232.556 331.269 232.788C330.808 233.021 330.312 233.137 329.778 233.137C328.744 233.137 327.924 232.802 327.317 232.132C326.711 231.462 326.408 230.537 326.408 229.356V229.186C326.408 228.06 326.709 227.16 327.311 226.485C327.912 225.806 328.732 225.467 329.771 225.467C330.651 225.467 331.367 225.724 331.918 226.239C332.474 226.75 332.766 227.422 332.793 228.256H331.228C331.209 227.832 331.063 227.483 330.79 227.21C330.521 226.937 330.177 226.8 329.758 226.8C329.22 226.8 328.805 226.996 328.514 227.388C328.222 227.775 328.074 228.365 328.069 229.158V229.425C328.069 230.227 328.213 230.826 328.5 231.223C328.792 231.615 329.211 231.811 329.758 231.811ZM342.151 228.283C342.151 229.258 341.983 230.115 341.646 230.854C341.308 231.587 340.825 232.152 340.196 232.549C339.572 232.941 338.852 233.137 338.036 233.137C337.229 233.137 336.509 232.941 335.876 232.549C335.247 232.152 334.759 231.59 334.413 230.86C334.071 230.131 333.898 229.29 333.894 228.338V227.777C333.894 226.807 334.064 225.95 334.406 225.207C334.753 224.464 335.238 223.897 335.862 223.505C336.491 223.108 337.211 222.91 338.022 222.91C338.834 222.91 339.551 223.106 340.176 223.498C340.805 223.885 341.29 224.446 341.632 225.18C341.974 225.909 342.147 226.759 342.151 227.729V228.283ZM340.422 227.764C340.422 226.661 340.212 225.815 339.793 225.228C339.378 224.64 338.788 224.346 338.022 224.346C337.275 224.346 336.689 224.64 336.266 225.228C335.846 225.811 335.632 226.638 335.623 227.709V228.283C335.623 229.377 335.835 230.222 336.259 230.819C336.687 231.416 337.28 231.715 338.036 231.715C338.802 231.715 339.39 231.423 339.8 230.84C340.215 230.257 340.422 229.404 340.422 228.283V227.764ZM349.076 230.437C349.076 229.999 348.921 229.662 348.611 229.425C348.306 229.188 347.752 228.949 346.95 228.707C346.148 228.465 345.51 228.197 345.036 227.9C344.129 227.331 343.676 226.588 343.676 225.672C343.676 224.87 344.002 224.209 344.653 223.689C345.31 223.17 346.16 222.91 347.203 222.91C347.896 222.91 348.513 223.038 349.056 223.293C349.598 223.548 350.024 223.913 350.334 224.387C350.644 224.856 350.799 225.378 350.799 225.952H349.076C349.076 225.433 348.912 225.027 348.584 224.735C348.26 224.439 347.796 224.291 347.189 224.291C346.624 224.291 346.185 224.412 345.87 224.653C345.56 224.895 345.405 225.232 345.405 225.665C345.405 226.03 345.574 226.335 345.911 226.581C346.248 226.823 346.804 227.06 347.579 227.292C348.354 227.52 348.976 227.782 349.445 228.078C349.915 228.37 350.259 228.707 350.478 229.09C350.696 229.468 350.806 229.912 350.806 230.423C350.806 231.252 350.487 231.913 349.849 232.405C349.215 232.893 348.354 233.137 347.265 233.137C346.545 233.137 345.882 233.005 345.275 232.74C344.674 232.471 344.204 232.102 343.867 231.633C343.535 231.163 343.368 230.617 343.368 229.992H345.098C345.098 230.557 345.285 230.995 345.658 231.305C346.032 231.615 346.567 231.77 347.265 231.77C347.866 231.77 348.317 231.649 348.618 231.407C348.924 231.161 349.076 230.838 349.076 230.437Z" fill="#5470CB"/>
<path d="M423.9 217V207.047H426.84C427.719 207.047 428.499 207.243 429.178 207.635C429.861 208.027 430.39 208.583 430.764 209.303C431.137 210.023 431.324 210.848 431.324 211.777V212.276C431.324 213.22 431.135 214.049 430.757 214.765C430.383 215.48 429.848 216.032 429.15 216.419C428.458 216.806 427.662 217 426.765 217H423.9ZM425.63 208.441V215.619H426.758C427.665 215.619 428.36 215.337 428.843 214.771C429.33 214.202 429.579 213.386 429.588 212.324V211.771C429.588 210.69 429.353 209.866 428.884 209.296C428.414 208.726 427.733 208.441 426.84 208.441H425.63ZM432.575 213.233C432.575 212.509 432.719 211.857 433.006 211.278C433.293 210.695 433.696 210.248 434.216 209.938C434.735 209.624 435.332 209.467 436.007 209.467C437.005 209.467 437.814 209.788 438.434 210.431C439.058 211.073 439.395 211.925 439.445 212.987L439.452 213.377C439.452 214.106 439.311 214.758 439.028 215.332C438.75 215.906 438.349 216.351 437.825 216.665C437.306 216.979 436.704 217.137 436.021 217.137C434.977 217.137 434.141 216.79 433.512 216.098C432.887 215.4 432.575 214.473 432.575 213.315V213.233ZM434.236 213.377C434.236 214.138 434.394 214.735 434.708 215.168C435.022 215.596 435.46 215.811 436.021 215.811C436.581 215.811 437.016 215.592 437.326 215.154C437.641 214.717 437.798 214.076 437.798 213.233C437.798 212.486 437.636 211.894 437.312 211.456C436.993 211.019 436.558 210.8 436.007 210.8C435.465 210.8 435.034 211.016 434.715 211.449C434.396 211.878 434.236 212.52 434.236 213.377ZM447.354 214.71L448.53 209.604H450.15L448.134 217H446.767L445.181 211.921L443.622 217H442.255L440.231 209.604H441.852L443.048 214.655L444.565 209.604H445.816L447.354 214.71ZM452.803 209.604L452.851 210.458C453.397 209.797 454.115 209.467 455.004 209.467C456.544 209.467 457.328 210.349 457.355 212.112V217H455.694V212.208C455.694 211.739 455.592 211.392 455.387 211.169C455.186 210.941 454.856 210.827 454.396 210.827C453.726 210.827 453.227 211.13 452.898 211.736V217H451.237V209.604H452.803ZM460.821 217H459.16V206.5H460.821V217ZM462.325 213.233C462.325 212.509 462.469 211.857 462.756 211.278C463.043 210.695 463.446 210.248 463.966 209.938C464.485 209.624 465.082 209.467 465.757 209.467C466.755 209.467 467.564 209.788 468.184 210.431C468.808 211.073 469.145 211.925 469.195 212.987L469.202 213.377C469.202 214.106 469.061 214.758 468.778 215.332C468.5 215.906 468.099 216.351 467.575 216.665C467.056 216.979 466.454 217.137 465.771 217.137C464.727 217.137 463.891 216.79 463.262 216.098C462.637 215.4 462.325 214.473 462.325 213.315V213.233ZM463.986 213.377C463.986 214.138 464.144 214.735 464.458 215.168C464.772 215.596 465.21 215.811 465.771 215.811C466.331 215.811 466.766 215.592 467.076 215.154C467.391 214.717 467.548 214.076 467.548 213.233C467.548 212.486 467.386 211.894 467.062 211.456C466.743 211.019 466.308 210.8 465.757 210.8C465.215 210.8 464.784 211.016 464.465 211.449C464.146 211.878 463.986 212.52 463.986 213.377ZM475.026 217C474.953 216.859 474.89 216.629 474.835 216.31C474.306 216.861 473.659 217.137 472.894 217.137C472.151 217.137 471.545 216.925 471.075 216.501C470.606 216.077 470.371 215.553 470.371 214.929C470.371 214.14 470.663 213.536 471.246 213.117C471.834 212.693 472.673 212.481 473.762 212.481H474.78V211.996C474.78 211.613 474.673 211.308 474.459 211.08C474.245 210.848 473.919 210.731 473.481 210.731C473.103 210.731 472.793 210.827 472.552 211.019C472.31 211.205 472.189 211.445 472.189 211.736H470.528C470.528 211.331 470.663 210.952 470.932 210.602C471.201 210.246 471.565 209.968 472.025 209.768C472.49 209.567 473.007 209.467 473.577 209.467C474.443 209.467 475.133 209.686 475.648 210.123C476.163 210.556 476.428 211.167 476.441 211.955V215.291C476.441 215.956 476.535 216.487 476.722 216.884V217H475.026ZM473.201 215.804C473.529 215.804 473.837 215.724 474.124 215.564C474.416 215.405 474.634 215.191 474.78 214.922V213.527H473.885C473.27 213.527 472.807 213.634 472.497 213.849C472.187 214.063 472.032 214.366 472.032 214.758C472.032 215.077 472.137 215.332 472.347 215.523C472.561 215.71 472.846 215.804 473.201 215.804ZM477.87 213.247C477.87 212.108 478.134 211.194 478.663 210.506C479.192 209.813 479.9 209.467 480.789 209.467C481.573 209.467 482.206 209.74 482.689 210.287V206.5H484.351V217H482.847L482.765 216.234C482.268 216.836 481.605 217.137 480.775 217.137C479.91 217.137 479.208 216.788 478.67 216.091C478.137 215.394 477.87 214.446 477.87 213.247ZM479.531 213.391C479.531 214.143 479.675 214.73 479.962 215.154C480.254 215.574 480.666 215.783 481.199 215.783C481.878 215.783 482.375 215.48 482.689 214.874V211.716C482.384 211.123 481.892 210.827 481.213 210.827C480.675 210.827 480.26 211.041 479.969 211.47C479.677 211.894 479.531 212.534 479.531 213.391ZM491.973 207.047L494.844 214.676L497.708 207.047H499.943V217H498.221V213.719L498.392 209.33L495.452 217H494.215L491.282 209.337L491.453 213.719V217H489.73V207.047H491.973ZM501.522 213.233C501.522 212.509 501.666 211.857 501.953 211.278C502.24 210.695 502.644 210.248 503.163 209.938C503.683 209.624 504.28 209.467 504.954 209.467C505.952 209.467 506.761 209.788 507.381 210.431C508.005 211.073 508.342 211.925 508.393 212.987L508.399 213.377C508.399 214.106 508.258 214.758 507.976 215.332C507.698 215.906 507.297 216.351 506.772 216.665C506.253 216.979 505.651 217.137 504.968 217.137C503.924 217.137 503.088 216.79 502.459 216.098C501.835 215.4 501.522 214.473 501.522 213.315V213.233ZM503.184 213.377C503.184 214.138 503.341 214.735 503.655 215.168C503.97 215.596 504.407 215.811 504.968 215.811C505.528 215.811 505.964 215.592 506.273 215.154C506.588 214.717 506.745 214.076 506.745 213.233C506.745 212.486 506.583 211.894 506.26 211.456C505.941 211.019 505.506 210.8 504.954 210.8C504.412 210.8 503.981 211.016 503.662 211.449C503.343 211.878 503.184 212.52 503.184 213.377ZM511.346 209.604L511.394 210.458C511.94 209.797 512.658 209.467 513.547 209.467C515.087 209.467 515.871 210.349 515.898 212.112V217H514.237V212.208C514.237 211.739 514.135 211.392 513.93 211.169C513.729 210.941 513.399 210.827 512.938 210.827C512.269 210.827 511.77 211.13 511.441 211.736V217H509.78V209.604H511.346ZM519.364 217H517.703V209.604H519.364V217ZM517.601 207.683C517.601 207.427 517.68 207.215 517.84 207.047C518.004 206.878 518.236 206.794 518.537 206.794C518.838 206.794 519.07 206.878 519.234 207.047C519.398 207.215 519.48 207.427 519.48 207.683C519.48 207.933 519.398 208.143 519.234 208.312C519.07 208.476 518.838 208.558 518.537 208.558C518.236 208.558 518.004 208.476 517.84 208.312C517.68 208.143 517.601 207.933 517.601 207.683ZM523.261 207.806V209.604H524.566V210.834H523.261V214.963C523.261 215.245 523.315 215.451 523.425 215.578C523.539 215.701 523.739 215.763 524.026 215.763C524.218 215.763 524.411 215.74 524.607 215.694V216.979C524.229 217.084 523.865 217.137 523.514 217.137C522.238 217.137 521.6 216.433 521.6 215.024V210.834H520.383V209.604H521.6V207.806H523.261ZM530.261 217C530.188 216.859 530.124 216.629 530.069 216.31C529.541 216.861 528.894 217.137 528.128 217.137C527.385 217.137 526.779 216.925 526.31 216.501C525.84 216.077 525.605 215.553 525.605 214.929C525.605 214.14 525.897 213.536 526.48 213.117C527.068 212.693 527.907 212.481 528.996 212.481H530.015V211.996C530.015 211.613 529.908 211.308 529.693 211.08C529.479 210.848 529.153 210.731 528.716 210.731C528.338 210.731 528.028 210.827 527.786 211.019C527.545 211.205 527.424 211.445 527.424 211.736H525.763C525.763 211.331 525.897 210.952 526.166 210.602C526.435 210.246 526.799 209.968 527.26 209.768C527.725 209.567 528.242 209.467 528.812 209.467C529.677 209.467 530.368 209.686 530.883 210.123C531.398 210.556 531.662 211.167 531.676 211.955V215.291C531.676 215.956 531.769 216.487 531.956 216.884V217H530.261ZM528.436 215.804C528.764 215.804 529.071 215.724 529.358 215.564C529.65 215.405 529.869 215.191 530.015 214.922V213.527H529.119C528.504 213.527 528.041 213.634 527.731 213.849C527.422 214.063 527.267 214.366 527.267 214.758C527.267 215.077 527.371 215.332 527.581 215.523C527.795 215.71 528.08 215.804 528.436 215.804ZM537.562 214.99C537.562 214.694 537.438 214.468 537.192 214.313C536.951 214.159 536.548 214.022 535.982 213.903C535.417 213.785 534.946 213.634 534.567 213.452C533.738 213.051 533.323 212.47 533.323 211.709C533.323 211.071 533.592 210.538 534.13 210.109C534.668 209.681 535.351 209.467 536.181 209.467C537.065 209.467 537.778 209.686 538.32 210.123C538.867 210.561 539.141 211.128 539.141 211.825H537.479C537.479 211.506 537.361 211.242 537.124 211.032C536.887 210.818 536.573 210.711 536.181 210.711C535.816 210.711 535.518 210.795 535.285 210.964C535.057 211.132 534.943 211.358 534.943 211.641C534.943 211.896 535.05 212.094 535.265 212.235C535.479 212.377 535.912 212.52 536.563 212.666C537.215 212.807 537.726 212.978 538.095 213.179C538.468 213.375 538.744 213.612 538.922 213.89C539.104 214.168 539.195 214.505 539.195 214.901C539.195 215.567 538.92 216.107 538.368 216.521C537.817 216.932 537.094 217.137 536.201 217.137C535.595 217.137 535.055 217.027 534.581 216.809C534.107 216.59 533.738 216.289 533.474 215.906C533.209 215.523 533.077 215.111 533.077 214.669H534.69C534.713 215.061 534.861 215.364 535.135 215.578C535.408 215.788 535.771 215.893 536.222 215.893C536.659 215.893 536.992 215.811 537.22 215.646C537.448 215.478 537.562 215.259 537.562 214.99ZM543.051 213.828L542.312 214.587V217H540.651V206.5H542.312V212.557L542.832 211.907L544.876 209.604H546.872L544.124 212.687L547.166 217H545.245L543.051 213.828ZM458.88 233V226.834H457.752V225.604H458.88V224.927C458.88 224.106 459.108 223.473 459.563 223.026C460.019 222.58 460.657 222.356 461.478 222.356C461.769 222.356 462.079 222.397 462.407 222.479L462.366 223.778C462.184 223.742 461.972 223.724 461.73 223.724C460.938 223.724 460.541 224.132 460.541 224.947V225.604H462.045V226.834H460.541V233H458.88ZM462.947 229.233C462.947 228.509 463.091 227.857 463.378 227.278C463.665 226.695 464.068 226.248 464.588 225.938C465.107 225.624 465.704 225.467 466.379 225.467C467.377 225.467 468.186 225.788 468.806 226.431C469.43 227.073 469.767 227.925 469.817 228.987L469.824 229.377C469.824 230.106 469.683 230.758 469.4 231.332C469.122 231.906 468.721 232.351 468.197 232.665C467.678 232.979 467.076 233.137 466.393 233.137C465.349 233.137 464.513 232.79 463.884 232.098C463.259 231.4 462.947 230.473 462.947 229.315V229.233ZM464.608 229.377C464.608 230.138 464.766 230.735 465.08 231.168C465.395 231.596 465.832 231.811 466.393 231.811C466.953 231.811 467.388 231.592 467.698 231.154C468.013 230.717 468.17 230.076 468.17 229.233C468.17 228.486 468.008 227.894 467.685 227.456C467.366 227.019 466.93 226.8 466.379 226.8C465.837 226.8 465.406 227.016 465.087 227.449C464.768 227.878 464.608 228.52 464.608 229.377ZM475.102 227.121C474.883 227.085 474.657 227.066 474.425 227.066C473.664 227.066 473.151 227.358 472.887 227.941V233H471.226V225.604H472.812L472.853 226.431C473.254 225.788 473.81 225.467 474.521 225.467C474.757 225.467 474.953 225.499 475.108 225.562L475.102 227.121ZM481.527 231.619H486.046V233H479.798V223.047H481.527V231.619ZM488.979 233H487.317V225.604H488.979V233ZM487.215 223.683C487.215 223.427 487.295 223.215 487.454 223.047C487.618 222.878 487.851 222.794 488.151 222.794C488.452 222.794 488.685 222.878 488.849 223.047C489.013 223.215 489.095 223.427 489.095 223.683C489.095 223.933 489.013 224.143 488.849 224.312C488.685 224.476 488.452 224.558 488.151 224.558C487.851 224.558 487.618 224.476 487.454 224.312C487.295 224.143 487.215 223.933 487.215 223.683ZM492.335 225.604L492.383 226.458C492.93 225.797 493.647 225.467 494.536 225.467C496.076 225.467 496.86 226.349 496.888 228.112V233H495.227V228.208C495.227 227.739 495.124 227.392 494.919 227.169C494.718 226.941 494.388 226.827 493.928 226.827C493.258 226.827 492.759 227.13 492.431 227.736V233H490.77V225.604H492.335ZM503.067 232.275C502.58 232.85 501.887 233.137 500.989 233.137C500.187 233.137 499.579 232.902 499.164 232.433C498.754 231.963 498.549 231.284 498.549 230.396V225.604H500.21V230.375C500.21 231.314 500.6 231.783 501.379 231.783C502.186 231.783 502.73 231.494 503.013 230.915V225.604H504.674V233H503.108L503.067 232.275ZM509.021 228.037L510.43 225.604H512.275L510.013 229.247L512.351 233H510.519L509.042 230.471L507.572 233H505.727L508.064 229.247L505.809 225.604H507.641L509.021 228.037Z" fill="#5470CB"/>
<defs>
<filter id="filter0_d" x="0" y="0" width="630" height="326" filterUnits="userSpaceOnUse" color-interpolation-filters="sRGB">
<feFlood flood-opacity="0" result="BackgroundImageFix"/>
<feColorMatrix in="SourceAlpha" type="matrix" values="0 0 0 0 0 0 0 0 0 0 0 0 0 0 0 0 0 0 127 0"/>
<feOffset/>
<feGaussianBlur stdDeviation="15"/>
<feColorMatrix type="matrix" values="0 0 0 0 0 0 0 0 0 0 0 0 0 0 0 0 0 0 0.1 0"/>
<feBlend mode="normal" in2="BackgroundImageFix" result="effect1_dropShadow"/>
<feBlend mode="normal" in="SourceGraphic" in2="effect1_dropShadow" result="shape"/>
</filter>
<filter id="filter1_d" x="33" y="57" width="226" height="226" filterUnits="userSpaceOnUse" color-interpolation-filters="sRGB">
<feFlood flood-opacity="0" result="BackgroundImageFix"/>
<feColorMatrix in="SourceAlpha" type="matrix" values="0 0 0 0 0 0 0 0 0 0 0 0 0 0 0 0 0 0 127 0"/>
<feOffset/>
<feGaussianBlur stdDeviation="15"/>
<feColorMatrix type="matrix" values="0 0 0 0 0 0 0 0 0 0 0 0 0 0 0 0 0 0 0.1 0"/>
<feBlend mode="normal" in2="BackgroundImageFix" result="effect1_dropShadow"/>
<feBlend mode="normal" in="SourceGraphic" in2="effect1_dropShadow" result="shape"/>
</filter>
</defs>
</svg>
