<svg width="67" height="45" viewBox="0 0 67 45" fill="none" xmlns="http://www.w3.org/2000/svg">
<g clip-path="url(#clip0)">
<path d="M20.4748 27.3064C20.7417 27.4851 21.0436 27.5705 21.3423 27.5705C21.8462 27.5705 22.3409 27.327 22.6423 26.8768C25.167 23.104 29.3876 20.8516 33.9322 20.8516C38.4634 20.8516 42.677 23.0937 45.2035 26.8492C45.6853 27.5652 46.6562 27.7552 47.3721 27.2734C48.0881 26.7917 48.278 25.8208 47.7963 25.1048C45.7777 22.1044 42.8834 19.8904 39.5761 18.706C41.5595 17.0858 42.8281 14.622 42.8281 11.8672C42.8281 6.9993 38.8679 3.03906 34 3.03906C29.1321 3.03906 25.1719 6.9993 25.1719 11.8672C25.1719 14.6022 26.422 17.0505 28.3809 18.6712C25.0219 19.8512 22.0841 22.092 20.0452 25.1388C19.5652 25.856 19.7576 26.8265 20.4748 27.3064ZM34 6.16406C37.1447 6.16406 39.7031 8.7225 39.7031 11.8672C39.7031 15.0119 37.1447 17.5703 34 17.5703C30.8553 17.5703 28.2969 15.0119 28.2969 11.8672C28.2969 8.7225 30.8553 6.16406 34 6.16406ZM40.2311 30.7055L37.9017 32.3859C37.5552 32.6359 37.4101 33.0791 37.5425 33.4836L38.4805 36.2025C38.5202 36.3236 38.5354 36.4419 38.5303 36.5547C38.4971 37.2849 37.5819 37.7845 36.9106 37.3002L34.5813 35.6194C34.408 35.4944 34.2041 35.4319 34.0001 35.4319C33.7961 35.4319 33.5921 35.4944 33.4188 35.6194L31.0895 37.3002C30.4183 37.7845 29.4987 37.2849 29.4696 36.5547C29.4652 36.4419 29.4808 36.3235 29.5204 36.2025L30.4576 33.4836C30.59 33.0791 30.4449 32.6359 30.0984 32.3859L27.769 30.7055C26.994 30.1464 27.3923 28.8203 28.3502 28.8203H31.2295C31.6579 28.8203 32.0376 28.6554 32.1699 28.2509L33.0596 25.5144C33.2077 25.0621 33.6038 24.8359 34.0001 24.8359C34.3963 24.8359 34.7925 25.0621 34.9405 25.5144L35.8302 28.2509C35.9627 28.6554 36.3423 28.8203 36.7707 28.8203H39.6499C40.6078 28.8203 41.0061 30.1464 40.2311 30.7055ZM53.5905 36.1742L51.2611 37.8546C50.9145 38.1046 50.7695 38.5478 50.9019 38.9523L51.8399 41.6713C51.8795 41.7923 51.8948 41.9106 51.8897 42.0234C51.8565 42.7537 50.9413 43.2532 50.27 42.769L47.9407 41.0881C47.7674 40.9631 47.5634 40.9006 47.3595 40.9006C47.1555 40.9006 46.9515 40.9631 46.7782 41.0881L44.4489 42.769C43.7777 43.2532 42.858 42.7537 42.829 42.0234C42.8245 41.9106 42.8402 41.7923 42.8798 41.6713L43.817 38.9523C43.9494 38.5478 43.8043 38.1046 43.4577 37.8546L41.1284 36.1742C40.3534 35.6152 40.7516 34.2891 41.7096 34.2891H44.5888C45.0173 34.2891 45.397 34.1241 45.5293 33.7196L46.419 30.9831C46.567 30.5309 46.9632 30.3047 47.3595 30.3047C47.7557 30.3047 48.1519 30.5309 48.2999 30.9831L49.1896 33.7196C49.322 34.1241 49.7016 34.2891 50.1301 34.2891H53.0093C53.9672 34.2891 54.3655 35.6152 53.5905 36.1742ZM26.8717 36.1742L24.5423 37.8546C24.1958 38.1046 24.0507 38.5478 24.1831 38.9523L25.1212 41.6713C25.1608 41.7923 25.176 41.9106 25.1709 42.0234C25.1377 42.7537 24.2225 43.2532 23.5512 42.769L21.2219 41.0881C21.0486 40.9631 20.8446 40.9006 20.6406 40.9006C20.4366 40.9006 20.2327 40.9631 20.0594 41.0881L17.7301 42.769C17.0588 43.2532 16.1392 42.7537 16.1102 42.0234C16.1057 41.9106 16.1213 41.7923 16.1609 41.6713L17.0981 38.9523C17.2305 38.5478 17.0855 38.1046 16.7389 37.8546L14.4095 36.1742C13.6345 35.6152 14.0328 34.2891 14.9908 34.2891H17.87C18.2984 34.2891 18.6781 34.1241 18.8105 33.7196L19.7002 30.9831C19.8482 30.5309 20.2444 30.3047 20.6406 30.3047C21.0369 30.3047 21.433 30.5309 21.5811 30.9831L22.4708 33.7196C22.6032 34.1241 22.9828 34.2891 23.4112 34.2891H26.2905C27.2484 34.2891 27.6467 35.6152 26.8717 36.1742Z" fill="#5470CB"/>
</g>
<defs>
<clipPath id="clip0">
<rect width="40" height="40" fill="white" transform="translate(14 3)"/>
</clipPath>
</defs>
</svg>
