<svg width="45" height="45" viewBox="0 0 45 45" fill="none" xmlns="http://www.w3.org/2000/svg">
<ellipse cx="26" cy="25.5" rx="8" ry="8.5" fill="#5470CB"/>
<path d="M17 25.1072C17 30.1289 21.0802 34.2091 26.1019 34.2091C31.1237 34.2091 35.2039 30.1289 35.2039 25.1072C35.2039 22.6137 34.1926 20.3295 32.5535 18.6905L33.2684 17.9756L33.5997 18.3069C33.7392 18.4464 33.9136 18.5161 34.1054 18.5161C34.2972 18.5161 34.4716 18.4464 34.611 18.3069C34.89 18.0279 34.89 17.5745 34.611 17.2955L32.9546 15.639C32.6756 15.3601 32.2222 15.3601 31.9432 15.639C31.6642 15.918 31.6642 16.3714 31.9432 16.6504L32.2745 16.9817L31.4899 17.7663C30.1647 16.7899 28.578 16.1796 26.8343 16.0401V15.4298H28.421C28.8221 15.4298 29.1359 15.1159 29.1359 14.7149C29.1359 14.3139 28.8221 14 28.421 14H23.7131C23.3121 14 22.9982 14.3139 22.9982 14.7149C22.9982 15.1159 23.3121 15.4298 23.7131 15.4298H25.4045V16.0401C20.6966 16.4063 17 20.3295 17 25.1072V25.1072ZM26.1019 17.435C30.3391 17.435 33.7915 20.8875 33.7915 25.1246C33.7915 29.3617 30.3391 32.8142 26.1019 32.8142C21.8648 32.8142 18.4124 29.3617 18.4124 25.1246C18.4124 20.8701 21.8648 17.435 26.1019 17.435V17.435Z" fill="#5470CB"/>
<path d="M25.7977 26H29.2023C29.6498 26 30 25.6766 30 25.2635C30 24.8503 29.6498 24.5269 29.2023 24.5269H26.5953V20.7365C26.5953 20.3234 26.2451 20 25.7977 20C25.3502 20 25 20.3234 25 20.7365V25.2814C25 25.6766 25.3502 26 25.7977 26V26Z" fill="white"/>
<path d="M9 11H35L9 37V11Z" fill="white"/>
<line x1="38.3536" y1="8.35355" x2="7.35355" y2="39.3536" stroke="#5470CB"/>
<path fill-rule="evenodd" clip-rule="evenodd" d="M23.2888 18.355C25.3527 17.2485 26.7564 15.0707 26.7564 12.5651C26.7564 8.9393 23.8171 6 20.1912 6C16.5654 6 13.6261 8.9393 13.6261 12.5651C13.6261 15.0707 15.0298 17.2485 17.0936 18.355C16.9525 18.4055 16.8126 18.4595 16.6739 18.5169C15.5587 18.9788 14.5455 19.6558 13.692 20.5093C12.8385 21.3628 12.1615 22.376 11.6996 23.4911C11.2377 24.6063 11 25.8014 11 27.0084C11 28.2154 11.2377 29.4106 11.6996 30.5257C12.1615 31.6409 12.8386 32.6541 13.692 33.5076L20.1912 27.0084L26.6903 20.5093C25.8368 19.6558 24.8236 18.9788 23.7085 18.5169C23.5698 18.4595 23.4298 18.4055 23.2888 18.355Z" fill="#5470CB"/>
</svg>
