<svg width="67" height="45" viewBox="0 0 67 45" fill="none" xmlns="http://www.w3.org/2000/svg">
<g clip-path="url(#clip0)">
<path d="M40.4417 15.391C38.5601 15.7958 36.5442 16.0354 34.4668 16.0924V22.0037H41.2669C41.2043 19.6753 40.9223 17.4369 40.4417 15.391Z" fill="#5470CB"/>
<path d="M23.7983 22.0039C23.8621 19.5188 24.1639 17.1206 24.6811 14.9193C22.9873 14.4294 21.4375 13.7961 20.0935 13.0349C18.2527 15.652 17.1815 18.7412 17 22.0039H23.7983Z" fill="#5470CB"/>
<path d="M23.7983 23.9963H17C17.1815 27.2591 18.2527 30.3482 20.0935 32.9653C21.4375 32.2042 22.9873 31.5708 24.6811 31.081C24.1639 28.8797 23.862 26.4814 23.7983 23.9963Z" fill="#5470CB"/>
<path d="M36.2805 7.15122C35.6892 6.63592 35.0821 6.28877 34.4668 6.11072V14.0998C36.3655 14.0453 38.2023 13.8308 39.9146 13.4722C39.6004 12.4826 39.2352 11.5531 38.8207 10.6993C38.0762 9.16523 37.2215 7.97144 36.2805 7.15122Z" fill="#5470CB"/>
<path d="M25.2008 32.996C23.7853 33.4055 22.4845 33.922 21.3418 34.5354C21.4952 34.7067 21.6515 34.876 21.8124 35.0418C23.6712 36.957 25.8948 38.3596 28.3218 39.1812C27.642 38.3533 27.0132 37.3534 26.4495 36.1917C25.9724 35.2087 25.5551 34.1371 25.2008 32.996Z" fill="#5470CB"/>
<path d="M43.2019 23.9963C43.1381 26.4814 42.8363 28.8797 42.3191 31.081C44.0129 31.5708 45.5627 32.2042 46.9067 32.9653C48.7475 30.3482 49.8187 27.2591 50.0002 23.9963H43.2019Z" fill="#5470CB"/>
<path d="M41.7991 13.0039C43.2146 12.5943 44.5154 12.0779 45.658 11.4644C45.5046 11.2932 45.3484 11.1239 45.1875 10.9581C43.3287 9.04299 41.105 7.6404 38.678 6.81873C39.3578 7.64664 39.9866 8.6465 40.5504 9.80815C41.0274 10.7912 41.4448 11.8629 41.7991 13.0039Z" fill="#5470CB"/>
<path d="M38.8207 35.3006C39.2352 34.4467 39.6004 33.5172 39.9146 32.5276C38.2023 32.169 36.3655 31.9545 34.4668 31.9V39.8891C35.0822 39.7111 35.6892 39.364 36.2805 38.8486C37.2216 38.0284 38.0763 36.8347 38.8207 35.3006Z" fill="#5470CB"/>
<path d="M42.3191 14.9192C42.8363 17.1205 43.1381 19.5188 43.2019 22.0038H50.0002C49.8187 18.7411 48.7475 15.652 46.9067 13.0349C45.5627 13.796 44.0129 14.4293 42.3191 14.9192Z" fill="#5470CB"/>
<path d="M34.4668 23.9963V29.9076C36.5442 29.9646 38.56 30.2042 40.4417 30.609C40.9223 28.5631 41.2043 26.3247 41.2669 23.9963H34.4668Z" fill="#5470CB"/>
<path d="M32.533 22.0037V16.0924C30.4557 16.0354 28.4398 15.7958 26.5581 15.391C26.0775 17.4369 25.7956 19.6753 25.7329 22.0037H32.533V22.0037Z" fill="#5470CB"/>
<path d="M25.2008 13.0039C25.5551 11.8628 25.9724 10.7912 26.4495 9.80815C27.0132 8.6465 27.642 7.64658 28.3218 6.81873C25.8949 7.6404 23.6712 9.04299 21.8124 10.9582C21.6515 11.1239 21.4952 11.2932 21.3418 11.4645C22.4845 12.0779 23.7853 12.5943 25.2008 13.0039Z" fill="#5470CB"/>
<path d="M41.799 32.996C41.4448 34.1371 41.0274 35.2087 40.5504 36.1917C39.9866 37.3534 39.3578 38.3533 38.678 39.1812C41.1049 38.3596 43.3286 36.957 45.1875 35.0418C45.3484 34.8761 45.5046 34.7068 45.658 34.5354C44.5153 33.922 43.2145 33.4055 41.799 32.996Z" fill="#5470CB"/>
<path d="M32.533 23.9963H25.7329C25.7956 26.3247 26.0775 28.5632 26.5581 30.609C28.4397 30.2042 30.4557 29.9646 32.533 29.9076V23.9963V23.9963Z" fill="#5470CB"/>
<path d="M30.7191 38.8487C31.3104 39.364 31.9175 39.7111 32.5328 39.8892V31.9001C30.6341 31.9546 28.7973 32.1691 27.085 32.5278C27.3992 33.5173 27.7644 34.4468 28.1789 35.3007C28.9234 36.8347 29.778 38.0284 30.7191 38.8487Z" fill="#5470CB"/>
<path d="M30.9008 7.04049C31.492 6.52518 32.0991 6.1781 32.7144 5.99998V13.989C30.8157 13.9346 28.9789 13.72 27.2666 13.3614C27.5808 12.3718 27.9461 11.4423 28.3605 10.5884C29.105 9.05441 29.9596 7.86076 30.9008 7.04049Z" fill="#5470CB"/>
</g>
<mask id="path-17-outside-1" maskUnits="userSpaceOnUse" x="33" y="31" width="13" height="14" fill="black">
<rect fill="white" x="33" y="31" width="13" height="14"/>
<path fill-rule="evenodd" clip-rule="evenodd" d="M41.0166 39.049C42.0271 38.5073 42.7143 37.441 42.7143 36.2143C42.7143 34.4391 41.2752 33 39.5 33C37.7248 33 36.2857 34.4391 36.2857 36.2143C36.2857 37.441 36.9729 38.5072 37.9834 39.049C37.9143 39.0737 37.8458 39.1001 37.7779 39.1283C37.232 39.3544 36.7359 39.6859 36.318 40.1037C35.9002 40.5216 35.5687 41.0177 35.3425 41.5636C35.1164 42.1096 35 42.6948 35 43.2857H39.5H44C44 42.6948 43.8836 42.1096 43.6575 41.5636C43.4313 41.0177 43.0998 40.5216 42.682 40.1037C42.2641 39.6859 41.768 39.3544 41.2221 39.1283C41.1542 39.1001 41.0857 39.0737 41.0166 39.049Z"/>
</mask>
<path fill-rule="evenodd" clip-rule="evenodd" d="M41.0166 39.049C42.0271 38.5073 42.7143 37.441 42.7143 36.2143C42.7143 34.4391 41.2752 33 39.5 33C37.7248 33 36.2857 34.4391 36.2857 36.2143C36.2857 37.441 36.9729 38.5072 37.9834 39.049C37.9143 39.0737 37.8458 39.1001 37.7779 39.1283C37.232 39.3544 36.7359 39.6859 36.318 40.1037C35.9002 40.5216 35.5687 41.0177 35.3425 41.5636C35.1164 42.1096 35 42.6948 35 43.2857H39.5H44C44 42.6948 43.8836 42.1096 43.6575 41.5636C43.4313 41.0177 43.0998 40.5216 42.682 40.1037C42.2641 39.6859 41.768 39.3544 41.2221 39.1283C41.1542 39.1001 41.0857 39.0737 41.0166 39.049Z" fill="#9CADE3"/>
<path d="M41.0166 39.049L40.3079 37.727L37.3312 39.3229L40.5111 40.4612L41.0166 39.049ZM37.9834 39.049L38.4889 40.4612L41.6688 39.3229L38.6922 37.727L37.9834 39.049ZM37.7779 39.1283L37.2039 37.7424L37.2039 37.7424L37.7779 39.1283ZM36.318 40.1037L37.3787 41.1644L37.3787 41.1644L36.318 40.1037ZM35.3425 41.5636L33.9567 40.9896L35.3425 41.5636ZM35 43.2857H33.5V44.7857H35V43.2857ZM44 43.2857V44.7857H45.5V43.2857H44ZM43.6575 41.5636L45.0433 40.9896L45.0433 40.9896L43.6575 41.5636ZM42.682 40.1037L43.7426 39.0431L43.7426 39.0431L42.682 40.1037ZM41.2221 39.1283L40.648 40.5141L40.6481 40.5141L41.2221 39.1283ZM41.2143 36.2143C41.2143 36.8665 40.8506 37.436 40.3079 37.727L41.7254 40.371C43.2036 39.5785 44.2143 38.0156 44.2143 36.2143H41.2143ZM39.5 34.5C40.4468 34.5 41.2143 35.2675 41.2143 36.2143H44.2143C44.2143 33.6107 42.1036 31.5 39.5 31.5V34.5ZM37.7857 36.2143C37.7857 35.2675 38.5532 34.5 39.5 34.5V31.5C36.8964 31.5 34.7857 33.6107 34.7857 36.2143H37.7857ZM38.6922 37.727C38.1494 37.436 37.7857 36.8665 37.7857 36.2143H34.7857C34.7857 38.0156 35.7965 39.5785 37.2746 40.371L38.6922 37.727ZM37.4779 37.6367C37.3858 37.6697 37.2945 37.7049 37.2039 37.7424L38.3519 40.5141C38.3972 40.4953 38.4429 40.4777 38.4889 40.4612L37.4779 37.6367ZM37.2039 37.7424C36.4759 38.044 35.8145 38.4859 35.2574 39.0431L37.3787 41.1644C37.6573 40.8858 37.988 40.6648 38.3519 40.5141L37.2039 37.7424ZM35.2574 39.0431C34.7002 39.6002 34.2583 40.2617 33.9567 40.9896L36.7284 42.1377C36.8791 41.7737 37.1001 41.443 37.3787 41.1644L35.2574 39.0431ZM33.9567 40.9896C33.6552 41.7176 33.5 42.4978 33.5 43.2857H36.5C36.5 42.8918 36.5776 42.5016 36.7284 42.1377L33.9567 40.9896ZM35 44.7857H39.5V41.7857H35V44.7857ZM39.5 44.7857H44V41.7857H39.5V44.7857ZM45.5 43.2857C45.5 42.4978 45.3448 41.7176 45.0433 40.9896L42.2716 42.1377C42.4224 42.5016 42.5 42.8918 42.5 43.2857H45.5ZM45.0433 40.9896C44.7417 40.2617 44.2998 39.6002 43.7426 39.0431L41.6213 41.1644C41.8999 41.443 42.1209 41.7737 42.2716 42.1377L45.0433 40.9896ZM43.7426 39.0431C43.1855 38.4859 42.5241 38.044 41.7961 37.7424L40.6481 40.5141C41.012 40.6648 41.3427 40.8858 41.6213 41.1644L43.7426 39.0431ZM41.7961 37.7424C41.7056 37.7049 41.6142 37.6697 41.5222 37.6368L40.5111 40.4612C40.5571 40.4777 40.6028 40.4953 40.648 40.5141L41.7961 37.7424Z" fill="white" mask="url(#path-17-outside-1)"/>
<mask id="path-19-outside-2" maskUnits="userSpaceOnUse" x="8" y="2" width="15" height="17" fill="black">
<rect fill="white" x="8" y="2" width="15" height="17"/>
<path fill-rule="evenodd" clip-rule="evenodd" d="M17.6042 11.6453C18.8813 10.9606 19.7499 9.61297 19.7499 8.0625C19.7499 5.81884 17.9311 4 15.6874 4C13.4438 4 11.6249 5.81884 11.6249 8.0625C11.6249 9.61299 12.4935 10.9606 13.7707 11.6453C13.6834 11.6765 13.5968 11.7099 13.511 11.7455C12.8209 12.0313 12.194 12.4503 11.6658 12.9784C11.1377 13.5065 10.7188 14.1335 10.4329 14.8235C10.1471 15.5136 10 16.2532 10 17.0001L15.6875 17.0001H21.375C21.375 16.2532 21.2279 15.5136 20.9421 14.8235C20.6562 14.1335 20.2373 13.5065 19.7092 12.9784C19.181 12.4503 18.554 12.0313 17.864 11.7455C17.7781 11.7099 17.6915 11.6765 17.6042 11.6453Z"/>
</mask>
<path fill-rule="evenodd" clip-rule="evenodd" d="M17.6042 11.6453C18.8813 10.9606 19.7499 9.61297 19.7499 8.0625C19.7499 5.81884 17.9311 4 15.6874 4C13.4438 4 11.6249 5.81884 11.6249 8.0625C11.6249 9.61299 12.4935 10.9606 13.7707 11.6453C13.6834 11.6765 13.5968 11.7099 13.511 11.7455C12.8209 12.0313 12.194 12.4503 11.6658 12.9784C11.1377 13.5065 10.7188 14.1335 10.4329 14.8235C10.1471 15.5136 10 16.2532 10 17.0001L15.6875 17.0001H21.375C21.375 16.2532 21.2279 15.5136 20.9421 14.8235C20.6562 14.1335 20.2373 13.5065 19.7092 12.9784C19.181 12.4503 18.554 12.0313 17.864 11.7455C17.7781 11.7099 17.6915 11.6765 17.6042 11.6453Z" fill="#5470CB"/>
<path d="M17.6042 11.6453L16.8955 10.3233L13.9186 11.9192L17.0987 13.0575L17.6042 11.6453ZM13.7707 11.6453L14.2762 13.0575L17.4563 11.9192L14.4794 10.3233L13.7707 11.6453ZM13.511 11.7455L14.085 13.1313L14.085 13.1313L13.511 11.7455ZM11.6658 12.9784L10.6052 11.9177L10.6052 11.9177L11.6658 12.9784ZM10.4329 14.8235L9.04712 14.2495L9.04712 14.2495L10.4329 14.8235ZM10 17.0001H8.5V18.5001L10 18.5001L10 17.0001ZM15.6875 17.0001L15.6875 15.5001L15.6875 15.5001L15.6875 17.0001ZM21.375 17.0001V18.5001H22.875V17.0001H21.375ZM20.9421 14.8235L22.3279 14.2495L22.3279 14.2495L20.9421 14.8235ZM19.7092 12.9784L18.6485 14.0391L18.6485 14.0391L19.7092 12.9784ZM17.864 11.7455L17.29 13.1313L17.29 13.1313L17.864 11.7455ZM18.2499 8.0625C18.2499 9.03842 17.7048 9.88934 16.8955 10.3233L18.313 12.9673C20.0578 12.0318 21.2499 10.1875 21.2499 8.0625H18.2499ZM15.6874 5.5C17.1026 5.5 18.2499 6.64727 18.2499 8.0625H21.2499C21.2499 4.99041 18.7595 2.5 15.6874 2.5V5.5ZM13.1249 8.0625C13.1249 6.64727 14.2722 5.5 15.6874 5.5V2.5C12.6153 2.5 10.1249 4.99042 10.1249 8.0625H13.1249ZM14.4794 10.3233C13.67 9.88937 13.1249 9.03844 13.1249 8.0625H10.1249C10.1249 10.1875 11.317 12.0319 13.0619 12.9673L14.4794 10.3233ZM13.2651 10.2331C13.1549 10.2725 13.0454 10.3148 12.937 10.3597L14.085 13.1313C14.1482 13.1051 14.2119 13.0806 14.2762 13.0575L13.2651 10.2331ZM12.937 10.3597C12.0649 10.7209 11.2726 11.2503 10.6052 11.9177L12.7265 14.0391C13.1153 13.6502 13.577 13.3418 14.085 13.1313L12.937 10.3597ZM10.6052 11.9177C9.93775 12.5852 9.40832 13.3775 9.04712 14.2495L11.8188 15.3976C12.0292 14.8895 12.3376 14.4279 12.7265 14.0391L10.6052 11.9177ZM9.04712 14.2495C8.68591 15.1216 8.5 16.0562 8.5 17.0001H11.5C11.5 16.4501 11.6083 15.9056 11.8188 15.3976L9.04712 14.2495ZM10 18.5001L15.6875 18.5001L15.6875 15.5001L10 15.5001L10 18.5001ZM15.6875 18.5001H21.375V15.5001H15.6875V18.5001ZM22.875 17.0001C22.875 16.0562 22.6891 15.1216 22.3279 14.2495L19.5562 15.3976C19.7667 15.9056 19.875 16.4501 19.875 17.0001H22.875ZM22.3279 14.2495C21.9667 13.3775 21.4372 12.5852 20.7698 11.9177L18.6485 14.0391C19.0373 14.4279 19.3458 14.8895 19.5562 15.3976L22.3279 14.2495ZM20.7698 11.9177C20.1024 11.2503 19.3101 10.7209 18.438 10.3597L17.29 13.1313C17.798 13.3418 18.2597 13.6502 18.6485 14.0391L20.7698 11.9177ZM18.438 10.3597C18.3295 10.3147 18.2201 10.2725 18.1097 10.233L17.0987 13.0575C17.163 13.0805 17.2268 13.1051 17.29 13.1313L18.438 10.3597Z" fill="white" mask="url(#path-19-outside-2)"/>
<mask id="path-21-outside-3" maskUnits="userSpaceOnUse" x="13" y="25" width="12" height="13" fill="black">
<rect fill="white" x="13" y="25" width="12" height="13"/>
<path fill-rule="evenodd" clip-rule="evenodd" d="M20.348 32.3769C21.2462 31.8954 21.8571 30.9476 21.8571 29.8571C21.8571 28.2792 20.578 27 19 27C17.422 27 16.1429 28.2792 16.1429 29.8571C16.1429 30.9476 16.7538 31.8954 17.652 32.3769C17.5906 32.3989 17.5297 32.4224 17.4693 32.4474C16.984 32.6484 16.543 32.9431 16.1716 33.3145C15.8001 33.686 15.5055 34.1269 15.3045 34.6122C15.1035 35.0975 15 35.6177 15 36.1429H19H23C23 35.6177 22.8965 35.0975 22.6955 34.6122C22.4945 34.1269 22.1999 33.686 21.8284 33.3145C21.457 32.9431 21.016 32.6484 20.5307 32.4474C20.4703 32.4224 20.4094 32.3989 20.348 32.3769Z"/>
</mask>
<path fill-rule="evenodd" clip-rule="evenodd" d="M20.348 32.3769C21.2462 31.8954 21.8571 30.9476 21.8571 29.8571C21.8571 28.2792 20.578 27 19 27C17.422 27 16.1429 28.2792 16.1429 29.8571C16.1429 30.9476 16.7538 31.8954 17.652 32.3769C17.5906 32.3989 17.5297 32.4224 17.4693 32.4474C16.984 32.6484 16.543 32.9431 16.1716 33.3145C15.8001 33.686 15.5055 34.1269 15.3045 34.6122C15.1035 35.0975 15 35.6177 15 36.1429H19H23C23 35.6177 22.8965 35.0975 22.6955 34.6122C22.4945 34.1269 22.1999 33.686 21.8284 33.3145C21.457 32.9431 21.016 32.6484 20.5307 32.4474C20.4703 32.4224 20.4094 32.3989 20.348 32.3769Z" fill="#989DAD"/>
<path d="M20.348 32.3769L19.6393 31.0549L16.6623 32.6509L19.8425 33.7892L20.348 32.3769ZM17.652 32.3769L18.1575 33.7892L21.3377 32.6509L18.3607 31.0549L17.652 32.3769ZM17.4693 32.4474L16.8952 31.0616L16.8952 31.0616L17.4693 32.4474ZM16.1716 33.3145L17.2322 34.3752L17.2322 34.3752L16.1716 33.3145ZM15.3045 34.6122L13.9187 34.0382L13.9187 34.0382L15.3045 34.6122ZM15 36.1429H13.5V37.6429H15V36.1429ZM23 36.1429V37.6429H24.5V36.1429H23ZM22.6955 34.6122L21.3097 35.1862L21.3097 35.1862L22.6955 34.6122ZM20.5307 32.4474L21.1048 31.0616L21.1048 31.0616L20.5307 32.4474ZM20.3571 29.8571C20.3571 30.3731 20.0698 30.8241 19.6393 31.0549L21.0567 33.6989C22.4227 32.9667 23.3571 31.5222 23.3571 29.8571H20.3571ZM19 28.5C19.7495 28.5 20.3571 29.1076 20.3571 29.8571H23.3571C23.3571 27.4508 21.4064 25.5 19 25.5V28.5ZM17.6429 29.8571C17.6429 29.1076 18.2505 28.5 19 28.5V25.5C16.5936 25.5 14.6429 27.4508 14.6429 29.8571H17.6429ZM18.3607 31.0549C17.9302 30.8241 17.6429 30.3731 17.6429 29.8571H14.6429C14.6429 31.5222 15.5773 32.9667 16.9433 33.6989L18.3607 31.0549ZM17.1465 30.9647C17.0621 30.9949 16.9783 31.0272 16.8952 31.0616L18.0433 33.8332C18.081 33.8176 18.1191 33.8029 18.1575 33.7892L17.1465 30.9647ZM16.8952 31.0616C16.228 31.338 15.6216 31.7431 15.1109 32.2539L17.2322 34.3752C17.4644 34.143 17.74 33.9589 18.0433 33.8332L16.8952 31.0616ZM15.1109 32.2539C14.6002 32.7646 14.1951 33.3709 13.9187 34.0382L16.6903 35.1862C16.8159 34.8829 17.0001 34.6073 17.2322 34.3752L15.1109 32.2539ZM13.9187 34.0382C13.6423 34.7055 13.5 35.4207 13.5 36.1429H16.5C16.5 35.8146 16.5647 35.4896 16.6903 35.1862L13.9187 34.0382ZM15 37.6429H19V34.6429H15V37.6429ZM19 37.6429H23V34.6429H19V37.6429ZM24.5 36.1429C24.5 35.4207 24.3577 34.7055 24.0813 34.0382L21.3097 35.1862C21.4353 35.4896 21.5 35.8146 21.5 36.1429H24.5ZM24.0813 34.0382C23.8049 33.3709 23.3998 32.7646 22.8891 32.2539L20.7678 34.3752C20.9999 34.6073 21.1841 34.8829 21.3097 35.1862L24.0813 34.0382ZM22.8891 32.2539C22.3784 31.7431 21.772 31.338 21.1048 31.0616L19.9567 33.8332C20.26 33.9589 20.5356 34.143 20.7678 34.3752L22.8891 32.2539ZM21.1048 31.0616C21.0217 31.0272 20.9379 30.9949 20.8535 30.9647L19.8425 33.7892C19.8809 33.8029 19.919 33.8176 19.9567 33.8332L21.1048 31.0616Z" fill="white" mask="url(#path-21-outside-3)"/>
<mask id="path-23-outside-4" maskUnits="userSpaceOnUse" x="43" y="6" width="18" height="20" fill="black">
<rect fill="white" x="43" y="6" width="18" height="20"/>
<path fill-rule="evenodd" clip-rule="evenodd" d="M54.359 17.4096C55.9309 16.5669 56.9999 14.9083 56.9999 13C56.9999 10.2386 54.7614 8 51.9999 8C49.2385 8 46.9999 10.2386 46.9999 13C46.9999 14.9083 48.069 16.567 49.6409 17.4096C49.5335 17.4481 49.4269 17.4892 49.3212 17.533C48.4719 17.8848 47.7003 18.4004 47.0503 19.0504C46.4002 19.7004 45.8846 20.4721 45.5328 21.3214C45.1811 22.1706 45 23.0809 45 24.0002H52H59C59 23.0809 58.8189 22.1706 58.4672 21.3214C58.1154 20.4721 57.5998 19.7004 56.9497 19.0504C56.2997 18.4004 55.5281 17.8848 54.6788 17.533C54.5731 17.4892 54.4665 17.4481 54.359 17.4096Z"/>
</mask>
<path fill-rule="evenodd" clip-rule="evenodd" d="M54.359 17.4096C55.9309 16.5669 56.9999 14.9083 56.9999 13C56.9999 10.2386 54.7614 8 51.9999 8C49.2385 8 46.9999 10.2386 46.9999 13C46.9999 14.9083 48.069 16.567 49.6409 17.4096C49.5335 17.4481 49.4269 17.4892 49.3212 17.533C48.4719 17.8848 47.7003 18.4004 47.0503 19.0504C46.4002 19.7004 45.8846 20.4721 45.5328 21.3214C45.1811 22.1706 45 23.0809 45 24.0002H52H59C59 23.0809 58.8189 22.1706 58.4672 21.3214C58.1154 20.4721 57.5998 19.7004 56.9497 19.0504C56.2997 18.4004 55.5281 17.8848 54.6788 17.533C54.5731 17.4892 54.4665 17.4481 54.359 17.4096Z" fill="#92ACFF"/>
<path d="M54.359 17.4096L53.6503 16.0876L50.6733 17.6836L53.8535 18.8219L54.359 17.4096ZM49.6409 17.4096L50.1465 18.8219L53.3267 17.6836L50.3497 16.0876L49.6409 17.4096ZM49.3212 17.533L49.8952 18.9188L49.8952 18.9188L49.3212 17.533ZM45.5328 21.3214L44.147 20.7473L44.147 20.7473L45.5328 21.3214ZM45 24.0002H43.5V25.5002H45V24.0002ZM59 24.0002V25.5002H60.5V24.0002H59ZM58.4672 21.3214L59.853 20.7473L59.853 20.7473L58.4672 21.3214ZM54.6788 17.533L54.1048 18.9188L54.1048 18.9188L54.6788 17.533ZM55.4999 13C55.4999 14.3338 54.7544 15.4957 53.6503 16.0876L55.0677 18.7316C57.1073 17.6382 58.4999 15.4829 58.4999 13H55.4999ZM51.9999 9.5C53.9329 9.5 55.4999 11.067 55.4999 13H58.4999C58.4999 9.41015 55.5898 6.5 51.9999 6.5V9.5ZM48.4999 13C48.4999 11.067 50.0669 9.5 51.9999 9.5V6.5C48.4101 6.5 45.4999 9.41015 45.4999 13H48.4999ZM50.3497 16.0876C49.2455 15.4957 48.4999 14.3338 48.4999 13H45.4999C45.4999 15.4829 46.8926 17.6382 48.9322 18.7317L50.3497 16.0876ZM49.1354 15.9974C49.005 16.0441 48.8755 16.094 48.7472 16.1472L49.8952 18.9188C49.9783 18.8844 50.062 18.8521 50.1465 18.8219L49.1354 15.9974ZM48.7472 16.1472C47.7159 16.5743 46.7789 17.2004 45.9896 17.9897L48.1109 20.1111C48.6216 19.6003 49.228 19.1952 49.8952 18.9188L48.7472 16.1472ZM45.9896 17.9897C45.2003 18.779 44.5742 19.7161 44.147 20.7473L46.9187 21.8954C47.1951 21.2281 47.6002 20.6218 48.1109 20.1111L45.9896 17.9897ZM44.147 20.7473C43.7199 21.7786 43.5 22.8839 43.5 24.0002H46.5C46.5 23.2779 46.6423 22.5627 46.9187 21.8954L44.147 20.7473ZM45 25.5002H52V22.5002H45V25.5002ZM52 25.5002H59V22.5002H52V25.5002ZM60.5 24.0002C60.5 22.8839 60.2801 21.7786 59.853 20.7473L57.0813 21.8954C57.3577 22.5627 57.5 23.2779 57.5 24.0002H60.5ZM59.853 20.7473C59.4258 19.7161 58.7997 18.779 58.0104 17.9897L55.8891 20.1111C56.3998 20.6218 56.8049 21.2281 57.0813 21.8954L59.853 20.7473ZM58.0104 17.9897C57.2211 17.2004 56.2841 16.5743 55.2528 16.1472L54.1048 18.9188C54.7721 19.1952 55.3784 19.6003 55.8891 20.1111L58.0104 17.9897ZM55.2528 16.1472C55.1245 16.094 54.995 16.0441 54.8645 15.9974L53.8535 18.8219C53.9379 18.8521 54.0217 18.8844 54.1048 18.9188L55.2528 16.1472Z" fill="white" mask="url(#path-23-outside-4)"/>
<defs>
<clipPath id="clip0">
<rect width="33" height="34" fill="white" transform="translate(17 6)"/>
</clipPath>
</defs>
</svg>
