<svg width="48" height="48" viewBox="0 0 48 48" fill="none" xmlns="http://www.w3.org/2000/svg">
<path d="M40.5 7.5H7.5C6.70435 7.5 5.94129 7.81607 5.37868 8.37868C4.81607 8.94129 4.5 9.70435 4.5 10.5V37.5C4.5 38.2956 4.81607 39.0587 5.37868 39.6213C5.94129 40.1839 6.70435 40.5 7.5 40.5H40.5C41.2957 40.5 42.0587 40.1839 42.6213 39.6213C43.1839 39.0587 43.5 38.2956 43.5 37.5V10.5C43.5 9.70435 43.1839 8.94129 42.6213 8.37868C42.0587 7.81607 41.2957 7.5 40.5 7.5ZM16.5 36H10.5C10.1022 36 9.72064 35.842 9.43934 35.5607C9.15804 35.2794 9 34.8978 9 34.5V28.5C9 28.1022 9.15804 27.7206 9.43934 27.4393C9.72064 27.158 10.1022 27 10.5 27C10.8978 27 11.2794 27.158 11.5607 27.4393C11.842 27.7206 12 28.1022 12 28.5V33H16.5C16.8978 33 17.2794 33.158 17.5607 33.4393C17.842 33.7206 18 34.1022 18 34.5C18 34.8978 17.842 35.2794 17.5607 35.5607C17.2794 35.842 16.8978 36 16.5 36ZM39 19.5C39 19.8978 38.842 20.2794 38.5607 20.5607C38.2794 20.842 37.8978 21 37.5 21C37.1022 21 36.7206 20.842 36.4393 20.5607C36.158 20.2794 36 19.8978 36 19.5V15H31.5C31.1022 15 30.7206 14.842 30.4393 14.5607C30.158 14.2794 30 13.8978 30 13.5C30 13.1022 30.158 12.7206 30.4393 12.4393C30.7206 12.158 31.1022 12 31.5 12H37.5C37.8978 12 38.2794 12.158 38.5607 12.4393C38.842 12.7206 39 13.1022 39 13.5V19.5Z" fill="#5470CB"/>
</svg>
