<svg width="60" height="46" viewBox="0 0 60 46" fill="none" xmlns="http://www.w3.org/2000/svg">
<g clip-path="url(#clip0)">
<path d="M46.966 12.7056C44.4001 13.2532 41.6511 13.5774 38.8184 13.6545V21.6522H48.0912C48.0058 18.5021 47.6213 15.4735 46.966 12.7056Z" fill="#5470CB"/>
<path d="M24.2705 21.6523C24.3574 18.2902 24.7689 15.0455 25.4743 12.0673C23.1645 11.4045 21.0512 10.5476 19.2184 9.51782C16.7083 13.0586 15.2474 17.2381 15 21.6523H24.2705Z" fill="#5470CB"/>
<path d="M24.2705 24.3479H15C15.2474 28.7622 16.7083 32.9416 19.2184 36.4824C21.0511 35.4526 23.1645 34.5958 25.4743 33.933C24.7689 30.9548 24.3573 27.7101 24.2705 24.3479Z" fill="#5470CB"/>
<path d="M41.2915 1.55765C40.4853 0.860468 39.6575 0.390801 38.8184 0.149902V10.9586C41.4075 10.885 43.9122 10.5947 46.2472 10.1095C45.8187 8.77068 45.3207 7.51318 44.7555 6.35792C43.7403 4.28247 42.5748 2.66734 41.2915 1.55765Z" fill="#5470CB"/>
<path d="M26.1827 36.524C24.2525 37.0782 22.4786 37.7769 20.9204 38.6069C21.1296 38.8386 21.3427 39.0676 21.5621 39.292C24.0969 41.8831 27.1291 43.7807 30.4387 44.8923C29.5116 43.7722 28.6542 42.4194 27.8854 40.8477C27.2349 39.5177 26.6659 38.0679 26.1827 36.524Z" fill="#5470CB"/>
<path d="M50.7299 24.3479C50.643 27.7101 50.2314 30.9548 49.5261 33.933C51.8359 34.5958 53.9493 35.4526 55.782 36.4824C58.2921 32.9416 59.7528 28.7623 60.0004 24.3479H50.7299Z" fill="#5470CB"/>
<path d="M48.8171 9.47587C50.7473 8.92174 52.5212 8.22303 54.0793 7.39305C53.8701 7.16132 53.6571 6.93228 53.4376 6.708C50.9029 4.11697 47.8706 2.21934 44.561 1.10767C45.4881 2.22779 46.3455 3.58054 47.1143 5.15218C47.7648 6.4822 48.3339 7.93209 48.8171 9.47587Z" fill="#5470CB"/>
<path d="M44.7555 39.6421C45.3207 38.4868 45.8187 37.2292 46.2472 35.8904C43.9122 35.4052 41.4075 35.1149 38.8184 35.0413V45.85C39.6576 45.6091 40.4853 45.1396 41.2915 44.4423C42.5749 43.3326 43.7404 41.7176 44.7555 39.6421Z" fill="#5470CB"/>
<path d="M49.5261 12.0672C50.2314 15.0454 50.643 18.2901 50.7299 21.6523H60.0004C59.7529 17.238 58.2921 13.0585 55.782 9.51782C53.9493 10.5476 51.8359 11.4044 49.5261 12.0672Z" fill="#5470CB"/>
<path d="M38.8184 24.3479V32.3455C41.6511 32.4226 44.4 32.7468 46.966 33.2945C47.6213 30.5264 48.0058 27.498 48.0912 24.3479H38.8184Z" fill="#5470CB"/>
<path d="M36.1814 21.6522V13.6545C33.3486 13.5774 30.5997 13.2532 28.0337 12.7056C27.3784 15.4736 26.9939 18.5021 26.9084 21.6522H36.1814V21.6522Z" fill="#5470CB"/>
<path d="M26.1827 9.47587C26.6658 7.932 27.2349 6.4822 27.8854 5.15218C28.6542 3.58054 29.5116 2.2277 30.4387 1.10767C27.1292 2.21934 24.0969 4.11697 21.5621 6.70809C21.3427 6.93237 21.1296 7.16141 20.9204 7.39314C22.4786 8.22303 24.2525 8.92174 26.1827 9.47587Z" fill="#5470CB"/>
<path d="M48.8168 36.524C48.3337 38.0679 47.7646 39.5177 47.114 40.8477C46.3453 42.4194 45.4879 43.7722 44.5608 44.8923C47.8703 43.7807 50.9026 41.8831 53.4374 39.292C53.6568 39.0677 53.8698 38.8387 54.079 38.6069C52.5208 37.7769 50.747 37.0782 48.8168 36.524Z" fill="#5470CB"/>
<path d="M36.1814 24.3479H26.9084C26.9939 27.4981 27.3784 30.5265 28.0337 33.2945C30.5996 32.7468 33.3486 32.4226 36.1814 32.3455V24.3479V24.3479Z" fill="#5470CB"/>
<path d="M33.7079 44.4422C34.5141 45.1394 35.342 45.609 36.1811 45.8499V35.0413C33.5919 35.1149 31.0872 35.4052 28.7522 35.8904C29.1807 37.2292 29.6788 38.4868 30.2439 39.642C31.2591 41.7175 32.4245 43.3324 33.7079 44.4422Z" fill="#5470CB"/>
</g>
<path d="M33 -1.74846e-07C35.2091 -7.8281e-08 37 1.79086 37 4L37 46L4 46C1.79086 46 1.88225e-06 44.2091 1.97882e-06 42L3.63985e-06 4C3.73642e-06 1.79086 1.79086 -1.53904e-06 4 -1.44248e-06L33 -1.74846e-07Z" fill="#5470CB"/>
<path d="M31 3C32.6569 3 34 4.34315 34 6L34 43L6 43C4.34315 43 3 41.6569 3 40L3 6C3 4.34314 4.34315 3 6 3L31 3Z" fill="white"/>
<rect x="13" y="7" width="5" height="5" rx="1" transform="rotate(90 13 7)" stroke="#5470CB" stroke-width="2"/>
<rect x="13" y="17" width="5" height="5" rx="1" transform="rotate(90 13 17)" stroke="#5470CB" stroke-width="2"/>
<rect x="24" y="7" width="5" height="5" rx="1" transform="rotate(90 24 7)" stroke="#5470CB" stroke-width="2"/>
<rect x="24" y="17" width="5" height="5" rx="1" transform="rotate(90 24 17)" stroke="#5470CB" stroke-width="2"/>
<path d="M7 28.2314H31.5" stroke="#5470CB" stroke-width="3"/>
<line x1="7" y1="35.2314" x2="27" y2="35.2314" stroke="#5470CB" stroke-width="3"/>
<defs>
<clipPath id="clip0">
<rect width="45" height="46" fill="white" transform="translate(15)"/>
</clipPath>
</defs>
</svg>
