<svg width="64" height="47" viewBox="0 0 64 47" fill="none" xmlns="http://www.w3.org/2000/svg">
<circle cx="40.5" cy="25.5" r="17.5" fill="white"/>
<path d="M21.4812 25.5767C21.4812 36.0697 30.0068 44.5953 40.4998 44.5953C50.9928 44.5953 59.5184 36.0697 59.5184 25.5767C59.5184 20.3666 57.4052 15.5937 53.9804 12.1689L55.4742 10.6751L56.1665 11.3674C56.4579 11.6589 56.8223 11.8046 57.2231 11.8046C57.6238 11.8046 57.9882 11.6589 58.2797 11.3674C58.8626 10.7844 58.8626 9.83716 58.2797 9.25421L54.8184 5.79297C54.2355 5.21002 53.2882 5.21002 52.7052 5.79297C52.1223 6.37592 52.1223 7.3232 52.7052 7.90615L53.3975 8.5984L51.7579 10.2379C48.989 8.19762 45.6735 6.92243 42.03 6.63096V5.35576H45.3455C46.1835 5.35576 46.8393 4.69995 46.8393 3.86196C46.8393 3.02398 46.1835 2.36816 45.3455 2.36816H35.5083C34.6703 2.36816 34.0145 3.02398 34.0145 3.86196C34.0145 4.69995 34.6703 5.35576 35.5083 5.35576H39.0424V6.63096C29.2052 7.39607 21.4812 15.5937 21.4812 25.5767V25.5767ZM40.4998 9.54568C49.3533 9.54568 56.5672 16.7596 56.5672 25.6131C56.5672 34.4666 49.3533 41.6806 40.4998 41.6806C31.6463 41.6806 24.4324 34.4666 24.4324 25.6131C24.4324 16.7232 31.6463 9.54568 40.4998 9.54568V9.54568Z" fill="#5470CB"/>
<path d="M40.4997 26.8155H46.8756C47.7136 26.8155 48.3694 26.1597 48.3694 25.3217C48.3694 24.4837 47.7136 23.8279 46.8756 23.8279H41.9935V16.1403C41.9935 15.3023 41.3376 14.6465 40.4997 14.6465C39.6617 14.6465 39.0059 15.3023 39.0059 16.1403V25.3581C39.0059 26.1597 39.6617 26.8155 40.4997 26.8155V26.8155Z" fill="#5470CB"/>
<rect y="3" width="19" height="3" rx="1.5" fill="#5470CB"/>
<rect x="5" y="11" width="14" height="3" rx="1.5" fill="#5470CB"/>
<rect x="10" y="19" width="9" height="3" rx="1.5" fill="#5470CB"/>
<rect x="14" y="27" width="5" height="3" rx="1.5" fill="#5470CB"/>
</svg>
