<svg width="72" height="47" viewBox="0 0 72 47" fill="none" xmlns="http://www.w3.org/2000/svg">
<rect x="5.73169" width="59.6098" height="40.122" rx="3" fill="#5470CB"/>
<rect x="8" y="2" width="55" height="36" rx="3" fill="white"/>
<rect width="71.0732" height="4.58537" rx="2.29268" transform="matrix(1 0 0 -1 0 47)" fill="#5470CB"/>
<path d="M22.5625 11.0814H43.6401L44.259 7H48.4375V8.58203H45.6192L42.2866 30.5603C42.2085 32.4702 40.6312 34 38.7025 34C36.9959 34 35.5649 32.802 35.2035 31.2031H33.3408C32.9794 32.802 31.5483 34 29.8418 34C27.8635 34 26.2539 32.3904 26.2539 30.4121C26.2539 28.4337 27.8634 26.8242 29.8418 26.8242C31.5484 26.8242 32.9794 28.0221 33.3408 29.621H35.2035C35.5649 28.0221 36.996 26.8242 38.7025 26.8242C39.629 26.8242 40.4745 27.1772 41.1118 27.7557L41.632 24.3248H25.8152L24.1277 12.6635H22.5625V11.0814ZM36.6966 30.4121C36.6966 31.5181 37.5965 32.418 38.7025 32.418C39.8085 32.418 40.7084 31.5181 40.7084 30.4121C40.7084 29.306 39.8085 28.4062 38.7025 28.4062C37.5965 28.4062 36.6966 29.3061 36.6966 30.4121V30.4121ZM31.8476 30.4121C31.8476 29.306 30.9478 28.4062 29.8418 28.4062C28.7357 28.4062 27.8359 29.3061 27.8359 30.4121C27.8359 31.5181 28.7357 32.418 29.8418 32.418C30.9478 32.418 31.8476 31.5181 31.8476 30.4121ZM43.3999 12.6635H38.864L38.0431 22.7427H41.8719L43.3999 12.6635ZM36.4558 22.7427L37.2767 12.6635H31.8556L32.6765 22.7427H36.4558ZM31.0892 22.7427L30.2683 12.6635H25.7262L27.1848 22.7427H31.0892Z" fill="#5470CB"/>
</svg>
