<svg width="72" height="47" viewBox="0 0 72 47" fill="none" xmlns="http://www.w3.org/2000/svg">
<rect x="5.73169" width="59.6098" height="40.122" rx="3" fill="#5470CB"/>
<rect x="9.17065" y="2.29272" width="52.7317" height="35.5366" rx="3" fill="white"/>
<rect width="71.0732" height="4.58537" rx="2.29268" transform="matrix(1 0 0 -1 0 47)" fill="#5470CB"/>
<g clip-path="url(#clip0)">
<path d="M35 8.07812C27.3576 8.07812 20.427 12.2594 15.313 19.0508C14.8957 19.6072 14.8957 20.3846 15.313 20.941C20.427 27.7406 27.3576 31.9218 35 31.9218C42.6424 31.9218 49.573 27.7406 54.687 20.9491C55.1043 20.3927 55.1043 19.6154 54.687 19.059C49.573 12.2594 42.6424 8.07812 35 8.07812ZM35.5482 28.3952C30.4751 28.7143 26.2857 24.5331 26.6048 19.4518C26.8666 15.2623 30.2624 11.8666 34.4518 11.6048C39.5249 11.2857 43.7143 15.4669 43.3952 20.5482C43.1252 24.7294 39.7295 28.1252 35.5482 28.3952ZM35.2946 24.5167C32.5616 24.6885 30.3033 22.4384 30.4833 19.7054C30.6224 17.4471 32.4553 15.6224 34.7136 15.4751C37.4466 15.3032 39.7049 17.5534 39.5249 20.2864C39.3776 22.5529 37.5447 24.3776 35.2946 24.5167Z" fill="#5470CB"/>
</g>
<defs>
<clipPath id="clip0">
<rect width="40" height="40" fill="white" transform="translate(15)"/>
</clipPath>
</defs>
</svg>
