<svg width="57" height="45" viewBox="0 0 57 45" fill="none" xmlns="http://www.w3.org/2000/svg">
<path fill-rule="evenodd" clip-rule="evenodd" d="M31.1895 10.7269C32.9814 9.76618 34.2 7.8754 34.2 5.7C34.2 2.55198 31.648 0 28.5 0C25.352 0 22.8 2.55198 22.8 5.7C22.8 7.87541 24.0187 9.76618 25.8105 10.7269C25.6881 10.7707 25.5666 10.8176 25.4462 10.8674C24.478 11.2685 23.5983 11.8563 22.8573 12.5973C22.1163 13.3383 21.5285 14.218 21.1275 15.1862C20.7264 16.1544 20.52 17.1921 20.52 18.24L28.5 18.24H36.48C36.48 17.1921 36.2736 16.1544 35.8726 15.1862C35.4715 14.218 34.8837 13.3383 34.1427 12.5973C33.4017 11.8563 32.522 11.2685 31.5538 10.8674C31.4334 10.8176 31.3119 10.7707 31.1895 10.7269Z" fill="#5470CB"/>
<path fill-rule="evenodd" clip-rule="evenodd" d="M51.7095 36.9468C53.5014 35.9861 54.72 34.0954 54.72 31.92C54.72 28.7719 52.1681 26.22 49.02 26.22C45.872 26.22 43.32 28.7719 43.32 31.92C43.32 34.0954 44.5387 35.9861 46.3306 36.9468C46.2081 36.9907 46.0866 37.0375 45.9662 37.0874C44.998 37.4884 44.1183 38.0762 43.3773 38.8173C42.6363 39.5583 42.0485 40.438 41.6475 41.4062C41.2464 42.3743 41.04 43.412 41.04 44.46L49.02 44.46H57C57 43.412 56.7936 42.3743 56.3926 41.4062C55.9916 40.438 55.4038 39.5583 54.6628 38.8173C53.9217 38.0762 53.042 37.4884 52.0739 37.0874C51.9534 37.0375 51.832 36.9907 51.7095 36.9468Z" fill="#9CADE3"/>
<path fill-rule="evenodd" clip-rule="evenodd" d="M10.6695 36.9468C12.4613 35.9861 13.68 34.0954 13.68 31.92C13.68 28.7719 11.128 26.22 7.98 26.22C4.83198 26.22 2.28 28.7719 2.28 31.92C2.28 34.0954 3.49866 35.9861 5.29052 36.9468C5.16808 36.9907 5.04659 37.0375 4.92619 37.0874C3.95801 37.4884 3.0783 38.0762 2.33729 38.8173C1.59628 39.5583 1.00847 40.438 0.607441 41.4062C0.206409 42.3743 0 43.412 0 44.46L7.98 44.46H15.96C15.96 43.412 15.7536 42.3743 15.3526 41.4062C14.9515 40.438 14.3637 39.5583 13.6227 38.8173C12.8817 38.0762 12.002 37.4884 11.0338 37.0874C10.9134 37.0375 10.7919 36.9907 10.6695 36.9468Z" fill="#7C89AF"/>
<line x1="19" y1="41" x2="38" y2="41" stroke="#5470CB" stroke-width="2"/>
<line x1="38.3272" y1="20.9528" x2="42.8872" y2="25.5128" stroke="#5470CB" stroke-width="2"/>
<line x1="14.113" y1="25.5129" x2="18.673" y2="20.9529" stroke="#5470CB" stroke-width="2"/>
</svg>
