<svg width="69" height="45" viewBox="0 0 69 45" fill="none" xmlns="http://www.w3.org/2000/svg">
<rect width="44" height="30" rx="5" fill="#5470CB"/>
<path fill-rule="evenodd" clip-rule="evenodd" d="M25 32V40C25 42.7615 27.2385 45 30 45H64C66.7615 45 69 42.7615 69 40V20C69 17.2385 66.7615 15 64 15H47V27C47 29.7615 44.7615 32 42 32H25Z" fill="#BCCDE7"/>
<path d="M57.388 32C54.1827 32 51.2761 33.7536 49.1313 36.6019C48.9562 36.8353 48.9562 37.1613 49.1313 37.3946C51.2761 40.2464 54.1827 42 57.388 42C60.5932 42 63.4998 40.2464 65.6446 37.3981C65.8197 37.1647 65.8197 36.8387 65.6446 36.6054C63.4998 33.7536 60.5932 32 57.388 32ZM57.6179 40.5209C55.4902 40.6548 53.7332 38.9012 53.867 36.7701C53.9768 35.013 55.401 33.5889 57.158 33.4791C59.2857 33.3452 61.0427 35.0988 60.9089 37.2299C60.7956 38.9835 59.3715 40.4077 57.6179 40.5209ZM57.5115 38.8943C56.3653 38.9664 55.4182 38.0226 55.4937 36.8765C55.552 35.9293 56.3207 35.164 57.2678 35.1023C58.414 35.0302 59.3612 35.9739 59.2857 37.1201C59.2239 38.0707 58.4552 38.836 57.5115 38.8943Z" fill="#5470CB"/>
<line x1="5" y1="6.5" x2="33" y2="6.5" stroke="white" stroke-width="3"/>
<line x1="5" y1="12.5" x2="33" y2="12.5" stroke="white" stroke-width="3"/>
<line x1="5" y1="18.5" x2="25" y2="18.5" stroke="white" stroke-width="3"/>
</svg>
