<svg width="67" height="40" viewBox="0 0 67 40" fill="none" xmlns="http://www.w3.org/2000/svg">
<rect x="47.1099" y="33" width="28" height="16" transform="rotate(-180 47.1099 33)" fill="#435386"/>
<path d="M19.1099 16.5C19.1099 17.4849 19.472 18.4602 20.1755 19.3701C20.8791 20.2801 21.9103 21.1069 23.2104 21.8033C24.5104 22.4997 26.0537 23.0522 27.7523 23.4291C29.4509 23.806 31.2714 24 33.1099 24C34.9484 24 36.7689 23.806 38.4674 23.4291C40.166 23.0522 41.7093 22.4997 43.0094 21.8033C44.3094 21.1069 45.3406 20.2801 46.0442 19.3701C46.7477 18.4602 47.1099 17.4849 47.1099 16.5L33.1099 16.5L19.1099 16.5Z" fill="#787878"/>
<path d="M19.1099 32.5C19.1099 33.4849 19.472 34.4602 20.1755 35.3701C20.8791 36.2801 21.9103 37.1069 23.2104 37.8033C24.5104 38.4997 26.0537 39.0522 27.7523 39.4291C29.4509 39.806 31.2714 40 33.1099 40C34.9484 40 36.7689 39.806 38.4674 39.4291C40.166 39.0522 41.7093 38.4997 43.0094 37.8033C44.3094 37.1069 45.3406 36.2801 46.0442 35.3701C46.7477 34.4602 47.1099 33.4849 47.1099 32.5L33.1099 32.5L19.1099 32.5Z" fill="#435386"/>
<path d="M47.1099 16.5C47.1099 15.5151 46.7477 14.5398 46.0442 13.6299C45.3406 12.7199 44.3094 11.8931 43.0094 11.1967C41.7093 10.5003 40.166 9.94782 38.4674 9.57091C36.7689 9.194 34.9484 9 33.1099 9C31.2714 9 29.4509 9.194 27.7523 9.5709C26.0537 9.94781 24.5104 10.5003 23.2104 11.1967C21.9103 11.8931 20.8791 12.7199 20.1755 13.6299C19.472 14.5398 19.1099 15.5151 19.1099 16.5L33.1099 16.5L47.1099 16.5Z" fill="#787878"/>
<path fill-rule="evenodd" clip-rule="evenodd" d="M66.5472 14.2105L33.2736 0L0 14.2105L33.2736 28.421L66.5472 14.2105Z" fill="#5470CB"/>
<line x1="62.5" y1="15" x2="62.5" y2="28" stroke="#5470CB"/>
<circle cx="62.5" cy="28.5" r="1.5" fill="#5470CB"/>
</svg>
