<svg width="71" height="66" viewBox="0 0 71 66" fill="none" xmlns="http://www.w3.org/2000/svg">
<path d="M64.6382 15.8933C64.9943 14.8477 66.1306 14.2888 67.1762 14.6449L68.1228 14.9672C69.1684 15.3233 69.7274 16.4596 69.3713 17.5052L68.4042 20.345L63.6711 18.7332L64.6382 15.8933Z" fill="#5470CB"/>
<path d="M63.3489 19.6798L68.0819 21.2917L60.345 44.0104L55.612 42.3985L63.3489 19.6798Z" fill="#5470CB"/>
<path d="M56.3666 47.9374L55.526 43.6896L59.625 45.0855L56.3666 47.9374Z" fill="#5470CB"/>
<path d="M55.4382 49.8273C55.4382 49.8273 55.023 46.1738 50.2617 48.0005C45.5004 49.8273 51.5004 40.5001 44.0003 44.0324C36.5002 47.5647 26.787 55.5001 38.6999 38.0005C50.6128 20.501 45.7697 19.001 36.635 34.0005C27.5004 49.0001 23.0014 47.5011 35.0009 28.5006C47.0004 9.50008 33.3204 6.00093 31.4104 21.0005C29.5004 36.0001 23.5004 28.5006 26.787 17.8272C30.0736 7.1539 11.2137 6.92081 17.5004 21.0005C23.7872 35.0802 19 32.0006 11 28.5006C3 25.0006 17 44.5002 17 44.5002" stroke="#5470CB" stroke-width="2"/>
</svg>
