<svg width="522" height="440" viewBox="0 0 522 440" fill="none" xmlns="http://www.w3.org/2000/svg">
<g filter="url(#filter0_d)">
<rect x="30" y="30" width="462" height="380" fill="white"/>
</g>
<rect x="77" y="81" width="364" height="37" fill="#BCCDE7"/>
<rect x="77" y="158" width="364" height="37" fill="#BCCDE7"/>
<rect x="77" y="238" width="364" height="37" fill="#BCCDE7"/>
<path d="M417.774 263.554C417.374 264.043 416.626 264.043 416.226 263.554L409.336 255.133C408.802 254.48 409.267 253.5 410.11 253.5L423.89 253.5C424.733 253.5 425.198 254.48 424.664 255.133L417.774 263.554Z" fill="#ECF4FF"/>
<rect x="258" y="320" width="183" height="37" rx="4" fill="#505A89"/>
<path d="M285.946 345H283.731V332.203H285.946V345ZM298.831 345H296.607L290.903 335.921V345H288.68V332.203H290.903L296.625 341.317V332.203H298.831V345ZM305.968 342.214L309.22 332.203H311.663L307.058 345H304.904L300.316 332.203H302.751L305.968 342.214ZM315.46 345H313.245V332.203H315.46V345ZM327.176 333.996H323.186V345H320.979V333.996H317.024V332.203H327.176V333.996ZM336.343 339.287H331.087V343.225H337.23V345H328.863V332.203H337.169V333.996H331.087V337.529H336.343V339.287ZM346.406 332.203L350.098 342.012L353.78 332.203H356.654V345H354.439V340.781L354.659 335.139L350.88 345H349.289L345.519 335.147L345.738 340.781V345H343.523V332.203H346.406ZM366.771 339.287H361.515V343.225H367.658V345H359.291V332.203H367.597V333.996H361.515V337.529H366.771V339.287ZM372.352 332.203L376.043 342.012L379.726 332.203H382.6V345H380.385V340.781L380.604 335.139L376.825 345H375.234L371.464 335.147L371.684 340.781V345H369.469V332.203H372.352ZM385.236 345V332.203H389.622C391.069 332.203 392.171 332.493 392.927 333.073C393.683 333.653 394.061 334.518 394.061 335.666C394.061 336.252 393.902 336.779 393.586 337.248C393.27 337.717 392.807 338.08 392.197 338.338C392.889 338.525 393.422 338.88 393.797 339.401C394.178 339.917 394.368 340.538 394.368 341.265C394.368 342.466 393.981 343.389 393.208 344.033C392.44 344.678 391.339 345 389.903 345H385.236ZM387.46 339.226V343.225H389.93C390.627 343.225 391.172 343.052 391.564 342.706C391.957 342.36 392.153 341.88 392.153 341.265C392.153 339.935 391.474 339.255 390.114 339.226H387.46ZM387.46 337.591H389.64C390.331 337.591 390.87 337.436 391.257 337.125C391.649 336.809 391.846 336.363 391.846 335.789C391.846 335.156 391.664 334.699 391.301 334.418C390.943 334.137 390.384 333.996 389.622 333.996H387.46V337.591ZM404.071 339.287H398.815V343.225H404.959V345H396.592V332.203H404.897V333.996H398.815V337.529H404.071V339.287ZM411.472 340.069H408.993V345H406.77V332.203H411.27C412.746 332.203 413.886 332.534 414.688 333.196C415.491 333.858 415.893 334.816 415.893 336.07C415.893 336.926 415.685 337.644 415.269 338.224C414.858 338.798 414.284 339.24 413.546 339.551L416.42 344.886V345H414.038L411.472 340.069ZM408.993 338.285H411.278C412.028 338.285 412.614 338.098 413.036 337.723C413.458 337.342 413.669 336.823 413.669 336.167C413.669 335.481 413.473 334.951 413.08 334.576C412.693 334.201 412.113 334.008 411.34 333.996H408.993V338.285Z" fill="white"/>
<path d="M99.583 259.683H95.7275L94.9209 262H93.123L96.8828 252.047H98.4346L102.201 262H100.396L99.583 259.683ZM96.2129 258.288H99.0977L97.6553 254.159L96.2129 258.288ZM102.864 258.247C102.864 257.108 103.129 256.194 103.657 255.506C104.186 254.813 104.895 254.467 105.783 254.467C106.567 254.467 107.201 254.74 107.684 255.287V251.5H109.345V262H107.841L107.759 261.234C107.262 261.836 106.599 262.137 105.77 262.137C104.904 262.137 104.202 261.788 103.664 261.091C103.131 260.394 102.864 259.446 102.864 258.247ZM104.525 258.391C104.525 259.143 104.669 259.73 104.956 260.154C105.248 260.574 105.66 260.783 106.193 260.783C106.872 260.783 107.369 260.48 107.684 259.874V256.716C107.378 256.123 106.886 255.827 106.207 255.827C105.669 255.827 105.255 256.041 104.963 256.47C104.671 256.894 104.525 257.534 104.525 258.391ZM110.767 258.247C110.767 257.108 111.031 256.194 111.56 255.506C112.088 254.813 112.797 254.467 113.686 254.467C114.469 254.467 115.103 254.74 115.586 255.287V251.5H117.247V262H115.743L115.661 261.234C115.164 261.836 114.501 262.137 113.672 262.137C112.806 262.137 112.104 261.788 111.566 261.091C111.033 260.394 110.767 259.446 110.767 258.247ZM112.428 258.391C112.428 259.143 112.571 259.73 112.858 260.154C113.15 260.574 113.562 260.783 114.096 260.783C114.775 260.783 115.271 260.48 115.586 259.874V256.716C115.281 256.123 114.788 255.827 114.109 255.827C113.572 255.827 113.157 256.041 112.865 256.47C112.574 256.894 112.428 257.534 112.428 258.391ZM124.548 252.806V254.604H125.854V255.834H124.548V259.963C124.548 260.245 124.603 260.451 124.712 260.578C124.826 260.701 125.026 260.763 125.313 260.763C125.505 260.763 125.699 260.74 125.895 260.694V261.979C125.516 262.084 125.152 262.137 124.801 262.137C123.525 262.137 122.887 261.433 122.887 260.024V255.834H121.67V254.604H122.887V252.806H124.548ZM126.612 258.233C126.612 257.509 126.756 256.857 127.043 256.278C127.33 255.695 127.733 255.248 128.253 254.938C128.772 254.624 129.369 254.467 130.044 254.467C131.042 254.467 131.851 254.788 132.471 255.431C133.095 256.073 133.432 256.925 133.482 257.987L133.489 258.377C133.489 259.106 133.348 259.758 133.065 260.332C132.787 260.906 132.386 261.351 131.862 261.665C131.343 261.979 130.741 262.137 130.058 262.137C129.014 262.137 128.178 261.79 127.549 261.098C126.924 260.4 126.612 259.473 126.612 258.315V258.233ZM128.273 258.377C128.273 259.138 128.431 259.735 128.745 260.168C129.06 260.596 129.497 260.811 130.058 260.811C130.618 260.811 131.053 260.592 131.363 260.154C131.678 259.717 131.835 259.076 131.835 258.233C131.835 257.486 131.673 256.894 131.35 256.456C131.031 256.019 130.595 255.8 130.044 255.8C129.502 255.8 129.071 256.016 128.752 256.449C128.433 256.878 128.273 257.52 128.273 258.377ZM144.857 258.377C144.857 259.521 144.598 260.435 144.078 261.118C143.559 261.797 142.861 262.137 141.986 262.137C141.175 262.137 140.526 261.87 140.038 261.337V264.844H138.377V254.604H139.908L139.977 255.355C140.464 254.763 141.127 254.467 141.966 254.467C142.868 254.467 143.575 254.804 144.085 255.479C144.6 256.148 144.857 257.08 144.857 258.274V258.377ZM143.203 258.233C143.203 257.495 143.055 256.91 142.759 256.477C142.467 256.044 142.048 255.827 141.501 255.827C140.822 255.827 140.334 256.107 140.038 256.668V259.949C140.339 260.523 140.831 260.811 141.515 260.811C142.043 260.811 142.456 260.599 142.752 260.175C143.053 259.746 143.203 259.099 143.203 258.233ZM150.142 256.121C149.923 256.085 149.697 256.066 149.465 256.066C148.704 256.066 148.191 256.358 147.927 256.941V262H146.266V254.604H147.852L147.893 255.431C148.294 254.788 148.85 254.467 149.561 254.467C149.798 254.467 149.993 254.499 150.148 254.562L150.142 256.121ZM150.634 258.233C150.634 257.509 150.777 256.857 151.064 256.278C151.352 255.695 151.755 255.248 152.274 254.938C152.794 254.624 153.391 254.467 154.065 254.467C155.063 254.467 155.872 254.788 156.492 255.431C157.117 256.073 157.454 256.925 157.504 257.987L157.511 258.377C157.511 259.106 157.369 259.758 157.087 260.332C156.809 260.906 156.408 261.351 155.884 261.665C155.364 261.979 154.763 262.137 154.079 262.137C153.035 262.137 152.199 261.79 151.57 261.098C150.946 260.4 150.634 259.473 150.634 258.315V258.233ZM152.295 258.377C152.295 259.138 152.452 259.735 152.767 260.168C153.081 260.596 153.519 260.811 154.079 260.811C154.64 260.811 155.075 260.592 155.385 260.154C155.699 259.717 155.856 259.076 155.856 258.233C155.856 257.486 155.695 256.894 155.371 256.456C155.052 256.019 154.617 255.8 154.065 255.8C153.523 255.8 153.092 256.016 152.773 256.449C152.454 256.878 152.295 257.52 152.295 258.377ZM160.648 254.604V262.656C160.648 263.413 160.459 263.989 160.081 264.386C159.707 264.787 159.158 264.987 158.434 264.987C158.128 264.987 157.834 264.949 157.552 264.871V263.559C157.725 263.6 157.921 263.62 158.14 263.62C158.691 263.62 158.974 263.319 158.987 262.718V254.604H160.648ZM158.844 252.683C158.844 252.427 158.924 252.215 159.083 252.047C159.247 251.878 159.479 251.794 159.78 251.794C160.081 251.794 160.313 251.878 160.478 252.047C160.642 252.215 160.724 252.427 160.724 252.683C160.724 252.933 160.642 253.143 160.478 253.312C160.313 253.476 160.081 253.558 159.78 253.558C159.479 253.558 159.247 253.476 159.083 253.312C158.924 253.143 158.844 252.933 158.844 252.683ZM165.687 262.137C164.634 262.137 163.779 261.806 163.123 261.146C162.471 260.48 162.146 259.596 162.146 258.493V258.288C162.146 257.55 162.287 256.891 162.569 256.312C162.856 255.729 163.257 255.276 163.772 254.952C164.287 254.629 164.862 254.467 165.495 254.467C166.502 254.467 167.279 254.788 167.826 255.431C168.378 256.073 168.653 256.982 168.653 258.158V258.828H163.82C163.87 259.439 164.073 259.922 164.429 260.277C164.789 260.633 165.24 260.811 165.782 260.811C166.543 260.811 167.163 260.503 167.642 259.888L168.537 260.742C168.241 261.184 167.844 261.528 167.348 261.774C166.855 262.016 166.302 262.137 165.687 262.137ZM165.488 255.8C165.033 255.8 164.663 255.959 164.381 256.278C164.103 256.597 163.925 257.042 163.848 257.611H167.013V257.488C166.976 256.932 166.828 256.513 166.568 256.23C166.309 255.943 165.949 255.8 165.488 255.8ZM172.987 260.811C173.402 260.811 173.746 260.69 174.02 260.448C174.293 260.207 174.439 259.908 174.457 259.553H176.022C176.004 260.013 175.861 260.444 175.592 260.845C175.323 261.241 174.958 261.556 174.498 261.788C174.038 262.021 173.541 262.137 173.008 262.137C171.973 262.137 171.153 261.802 170.547 261.132C169.941 260.462 169.638 259.537 169.638 258.356V258.186C169.638 257.06 169.938 256.16 170.54 255.485C171.142 254.806 171.962 254.467 173.001 254.467C173.881 254.467 174.596 254.724 175.147 255.239C175.703 255.75 175.995 256.422 176.022 257.256H174.457C174.439 256.832 174.293 256.483 174.02 256.21C173.751 255.937 173.407 255.8 172.987 255.8C172.45 255.8 172.035 255.996 171.743 256.388C171.451 256.775 171.303 257.365 171.299 258.158V258.425C171.299 259.227 171.442 259.826 171.729 260.223C172.021 260.615 172.44 260.811 172.987 260.811ZM179.358 252.806V254.604H180.664V255.834H179.358V259.963C179.358 260.245 179.413 260.451 179.522 260.578C179.636 260.701 179.837 260.763 180.124 260.763C180.315 260.763 180.509 260.74 180.705 260.694V261.979C180.327 262.084 179.962 262.137 179.611 262.137C178.335 262.137 177.697 261.433 177.697 260.024V255.834H176.48V254.604H177.697V252.806H179.358ZM186.085 259.99C186.085 259.694 185.962 259.468 185.716 259.313C185.474 259.159 185.071 259.022 184.506 258.903C183.941 258.785 183.469 258.634 183.091 258.452C182.261 258.051 181.847 257.47 181.847 256.709C181.847 256.071 182.116 255.538 182.653 255.109C183.191 254.681 183.875 254.467 184.704 254.467C185.588 254.467 186.301 254.686 186.844 255.123C187.391 255.561 187.664 256.128 187.664 256.825H186.003C186.003 256.506 185.884 256.242 185.647 256.032C185.41 255.818 185.096 255.711 184.704 255.711C184.34 255.711 184.041 255.795 183.809 255.964C183.581 256.132 183.467 256.358 183.467 256.641C183.467 256.896 183.574 257.094 183.788 257.235C184.002 257.377 184.435 257.52 185.087 257.666C185.739 257.807 186.249 257.978 186.618 258.179C186.992 258.375 187.268 258.612 187.445 258.89C187.628 259.168 187.719 259.505 187.719 259.901C187.719 260.567 187.443 261.107 186.892 261.521C186.34 261.932 185.618 262.137 184.725 262.137C184.118 262.137 183.578 262.027 183.104 261.809C182.631 261.59 182.261 261.289 181.997 260.906C181.733 260.523 181.601 260.111 181.601 259.669H183.214C183.237 260.061 183.385 260.364 183.658 260.578C183.932 260.788 184.294 260.893 184.745 260.893C185.183 260.893 185.515 260.811 185.743 260.646C185.971 260.478 186.085 260.259 186.085 259.99Z" fill="white"/>
<path d="M99.2139 179.437C99.2139 178.999 99.0589 178.662 98.749 178.425C98.4437 178.188 97.89 177.949 97.0879 177.707C96.2858 177.465 95.6478 177.197 95.1738 176.9C94.2669 176.331 93.8135 175.588 93.8135 174.672C93.8135 173.87 94.1393 173.209 94.791 172.689C95.4473 172.17 96.2972 171.91 97.3408 171.91C98.0335 171.91 98.651 172.038 99.1934 172.293C99.7357 172.548 100.162 172.913 100.472 173.387C100.782 173.856 100.937 174.378 100.937 174.952H99.2139C99.2139 174.433 99.0498 174.027 98.7217 173.735C98.3981 173.439 97.9333 173.291 97.3271 173.291C96.762 173.291 96.3223 173.412 96.0078 173.653C95.6979 173.895 95.543 174.232 95.543 174.665C95.543 175.03 95.7116 175.335 96.0488 175.581C96.3861 175.823 96.9421 176.06 97.7168 176.292C98.4915 176.52 99.1136 176.782 99.583 177.078C100.052 177.37 100.396 177.707 100.615 178.09C100.834 178.468 100.943 178.912 100.943 179.423C100.943 180.252 100.624 180.913 99.9863 181.405C99.3529 181.893 98.4915 182.137 97.4023 182.137C96.6823 182.137 96.0192 182.005 95.4131 181.74C94.8115 181.471 94.3421 181.102 94.0049 180.633C93.6722 180.163 93.5059 179.617 93.5059 178.992H95.2354C95.2354 179.557 95.4222 179.995 95.7959 180.305C96.1696 180.615 96.7051 180.77 97.4023 180.77C98.0039 180.77 98.4551 180.649 98.7559 180.407C99.0612 180.161 99.2139 179.838 99.2139 179.437ZM105.558 182.137C104.505 182.137 103.65 181.806 102.994 181.146C102.342 180.48 102.017 179.596 102.017 178.493V178.288C102.017 177.55 102.158 176.891 102.44 176.312C102.728 175.729 103.129 175.276 103.644 174.952C104.159 174.629 104.733 174.467 105.366 174.467C106.373 174.467 107.15 174.788 107.697 175.431C108.249 176.073 108.524 176.982 108.524 178.158V178.828H103.691C103.742 179.439 103.944 179.922 104.3 180.277C104.66 180.633 105.111 180.811 105.653 180.811C106.414 180.811 107.034 180.503 107.513 179.888L108.408 180.742C108.112 181.184 107.715 181.528 107.219 181.774C106.727 182.016 106.173 182.137 105.558 182.137ZM105.359 175.8C104.904 175.8 104.535 175.959 104.252 176.278C103.974 176.597 103.796 177.042 103.719 177.611H106.884V177.488C106.847 176.932 106.699 176.513 106.439 176.23C106.18 175.943 105.82 175.8 105.359 175.8ZM111.587 182H109.926V171.5H111.587V182ZM116.659 182.137C115.606 182.137 114.752 181.806 114.096 181.146C113.444 180.48 113.118 179.596 113.118 178.493V178.288C113.118 177.55 113.259 176.891 113.542 176.312C113.829 175.729 114.23 175.276 114.745 174.952C115.26 174.629 115.834 174.467 116.468 174.467C117.475 174.467 118.252 174.788 118.799 175.431C119.35 176.073 119.626 176.982 119.626 178.158V178.828H114.793C114.843 179.439 115.046 179.922 115.401 180.277C115.761 180.633 116.213 180.811 116.755 180.811C117.516 180.811 118.136 180.503 118.614 179.888L119.51 180.742C119.214 181.184 118.817 181.528 118.32 181.774C117.828 182.016 117.274 182.137 116.659 182.137ZM116.461 175.8C116.005 175.8 115.636 175.959 115.354 176.278C115.076 176.597 114.898 177.042 114.82 177.611H117.985V177.488C117.949 176.932 117.801 176.513 117.541 176.23C117.281 175.943 116.921 175.8 116.461 175.8ZM123.96 180.811C124.375 180.811 124.719 180.69 124.992 180.448C125.266 180.207 125.411 179.908 125.43 179.553H126.995C126.977 180.013 126.833 180.444 126.564 180.845C126.296 181.241 125.931 181.556 125.471 181.788C125.01 182.021 124.514 182.137 123.98 182.137C122.946 182.137 122.126 181.802 121.52 181.132C120.913 180.462 120.61 179.537 120.61 178.356V178.186C120.61 177.06 120.911 176.16 121.513 175.485C122.114 174.806 122.935 174.467 123.974 174.467C124.853 174.467 125.569 174.724 126.12 175.239C126.676 175.75 126.968 176.422 126.995 177.256H125.43C125.411 176.832 125.266 176.483 124.992 176.21C124.723 175.937 124.379 175.8 123.96 175.8C123.422 175.8 123.007 175.996 122.716 176.388C122.424 176.775 122.276 177.365 122.271 178.158V178.425C122.271 179.227 122.415 179.826 122.702 180.223C122.994 180.615 123.413 180.811 123.96 180.811ZM130.331 172.806V174.604H131.637V175.834H130.331V179.963C130.331 180.245 130.386 180.451 130.495 180.578C130.609 180.701 130.81 180.763 131.097 180.763C131.288 180.763 131.482 180.74 131.678 180.694V181.979C131.299 182.084 130.935 182.137 130.584 182.137C129.308 182.137 128.67 181.433 128.67 180.024V175.834H127.453V174.604H128.67V172.806H130.331ZM137.96 174.604L138.008 175.376C138.527 174.77 139.238 174.467 140.141 174.467C141.13 174.467 141.806 174.845 142.171 175.602C142.709 174.845 143.465 174.467 144.44 174.467C145.256 174.467 145.862 174.692 146.259 175.144C146.66 175.595 146.865 176.26 146.874 177.14V182H145.213V177.188C145.213 176.718 145.11 176.374 144.905 176.155C144.7 175.937 144.361 175.827 143.887 175.827C143.508 175.827 143.199 175.93 142.957 176.135C142.72 176.335 142.554 176.6 142.458 176.928L142.465 182H140.804V177.133C140.781 176.262 140.337 175.827 139.471 175.827C138.805 175.827 138.334 176.098 138.056 176.641V182H136.395V174.604H137.96ZM151.837 182.137C150.784 182.137 149.93 181.806 149.273 181.146C148.622 180.48 148.296 179.596 148.296 178.493V178.288C148.296 177.55 148.437 176.891 148.72 176.312C149.007 175.729 149.408 175.276 149.923 174.952C150.438 174.629 151.012 174.467 151.646 174.467C152.653 174.467 153.43 174.788 153.977 175.431C154.528 176.073 154.804 176.982 154.804 178.158V178.828H149.971C150.021 179.439 150.224 179.922 150.579 180.277C150.939 180.633 151.39 180.811 151.933 180.811C152.694 180.811 153.313 180.503 153.792 179.888L154.688 180.742C154.391 181.184 153.995 181.528 153.498 181.774C153.006 182.016 152.452 182.137 151.837 182.137ZM151.639 175.8C151.183 175.8 150.814 175.959 150.531 176.278C150.253 176.597 150.076 177.042 149.998 177.611H153.163V177.488C153.127 176.932 152.979 176.513 152.719 176.23C152.459 175.943 152.099 175.8 151.639 175.8ZM157.661 174.604L157.709 175.376C158.229 174.77 158.939 174.467 159.842 174.467C160.831 174.467 161.507 174.845 161.872 175.602C162.41 174.845 163.166 174.467 164.142 174.467C164.957 174.467 165.563 174.692 165.96 175.144C166.361 175.595 166.566 176.26 166.575 177.14V182H164.914V177.188C164.914 176.718 164.812 176.374 164.606 176.155C164.401 175.937 164.062 175.827 163.588 175.827C163.21 175.827 162.9 175.93 162.658 176.135C162.421 176.335 162.255 176.6 162.159 176.928L162.166 182H160.505V177.133C160.482 176.262 160.038 175.827 159.172 175.827C158.507 175.827 158.035 176.098 157.757 176.641V182H156.096V174.604H157.661ZM174.771 178.377C174.771 179.525 174.514 180.439 173.999 181.118C173.489 181.797 172.785 182.137 171.887 182.137C171.021 182.137 170.346 181.825 169.863 181.2L169.781 182H168.277V171.5H169.938V175.314C170.417 174.749 171.062 174.467 171.873 174.467C172.775 174.467 173.484 174.802 173.999 175.472C174.514 176.142 174.771 177.078 174.771 178.281V178.377ZM173.11 178.233C173.11 177.431 172.969 176.83 172.687 176.429C172.404 176.028 171.994 175.827 171.456 175.827C170.736 175.827 170.23 176.142 169.938 176.771V179.819C170.235 180.462 170.745 180.783 171.47 180.783C171.989 180.783 172.39 180.59 172.673 180.202C172.955 179.815 173.101 179.229 173.11 178.445V178.233ZM179.427 182.137C178.374 182.137 177.52 181.806 176.863 181.146C176.212 180.48 175.886 179.596 175.886 178.493V178.288C175.886 177.55 176.027 176.891 176.31 176.312C176.597 175.729 176.998 175.276 177.513 174.952C178.028 174.629 178.602 174.467 179.235 174.467C180.243 174.467 181.02 174.788 181.566 175.431C182.118 176.073 182.394 176.982 182.394 178.158V178.828H177.561C177.611 179.439 177.813 179.922 178.169 180.277C178.529 180.633 178.98 180.811 179.522 180.811C180.284 180.811 180.903 180.503 181.382 179.888L182.277 180.742C181.981 181.184 181.585 181.528 181.088 181.774C180.596 182.016 180.042 182.137 179.427 182.137ZM179.229 175.8C178.773 175.8 178.404 175.959 178.121 176.278C177.843 176.597 177.665 177.042 177.588 177.611H180.753V177.488C180.716 176.932 180.568 176.513 180.309 176.23C180.049 175.943 179.689 175.8 179.229 175.8ZM187.562 176.121C187.343 176.085 187.117 176.066 186.885 176.066C186.124 176.066 185.611 176.358 185.347 176.941V182H183.686V174.604H185.271L185.312 175.431C185.714 174.788 186.27 174.467 186.98 174.467C187.217 174.467 187.413 174.499 187.568 174.562L187.562 176.121ZM195.97 176.121C195.751 176.085 195.525 176.066 195.293 176.066C194.532 176.066 194.019 176.358 193.755 176.941V182H192.094V174.604H193.68L193.721 175.431C194.122 174.788 194.678 174.467 195.389 174.467C195.626 174.467 195.822 174.499 195.977 174.562L195.97 176.121ZM196.462 178.233C196.462 177.509 196.605 176.857 196.893 176.278C197.18 175.695 197.583 175.248 198.103 174.938C198.622 174.624 199.219 174.467 199.894 174.467C200.892 174.467 201.701 174.788 202.32 175.431C202.945 176.073 203.282 176.925 203.332 177.987L203.339 178.377C203.339 179.106 203.198 179.758 202.915 180.332C202.637 180.906 202.236 181.351 201.712 181.665C201.192 181.979 200.591 182.137 199.907 182.137C198.864 182.137 198.027 181.79 197.398 181.098C196.774 180.4 196.462 179.473 196.462 178.315V178.233ZM198.123 178.377C198.123 179.138 198.28 179.735 198.595 180.168C198.909 180.596 199.347 180.811 199.907 180.811C200.468 180.811 200.903 180.592 201.213 180.154C201.527 179.717 201.685 179.076 201.685 178.233C201.685 177.486 201.523 176.894 201.199 176.456C200.88 176.019 200.445 175.8 199.894 175.8C199.351 175.8 198.921 176.016 198.602 176.449C198.283 176.878 198.123 177.52 198.123 178.377ZM206.511 182H204.85V171.5H206.511V182ZM211.583 182.137C210.53 182.137 209.676 181.806 209.02 181.146C208.368 180.48 208.042 179.596 208.042 178.493V178.288C208.042 177.55 208.183 176.891 208.466 176.312C208.753 175.729 209.154 175.276 209.669 174.952C210.184 174.629 210.758 174.467 211.392 174.467C212.399 174.467 213.176 174.788 213.723 175.431C214.274 176.073 214.55 176.982 214.55 178.158V178.828H209.717C209.767 179.439 209.97 179.922 210.325 180.277C210.685 180.633 211.136 180.811 211.679 180.811C212.44 180.811 213.06 180.503 213.538 179.888L214.434 180.742C214.137 181.184 213.741 181.528 213.244 181.774C212.752 182.016 212.198 182.137 211.583 182.137ZM211.385 175.8C210.929 175.8 210.56 175.959 210.277 176.278C209.999 176.597 209.822 177.042 209.744 177.611H212.909V177.488C212.873 176.932 212.725 176.513 212.465 176.23C212.205 175.943 211.845 175.8 211.385 175.8Z" fill="white"/>
<path d="M96.2539 95.0469L99.125 102.676L101.989 95.0469H104.225V105H102.502V101.719L102.673 97.3301L99.7334 105H98.4961L95.5635 97.3369L95.7344 101.719V105H94.0117V95.0469H96.2539ZM109.372 105.137C108.319 105.137 107.465 104.806 106.809 104.146C106.157 103.48 105.831 102.596 105.831 101.493V101.288C105.831 100.55 105.972 99.8913 106.255 99.3125C106.542 98.7292 106.943 98.2757 107.458 97.9521C107.973 97.6286 108.547 97.4668 109.181 97.4668C110.188 97.4668 110.965 97.7881 111.512 98.4307C112.063 99.0732 112.339 99.9824 112.339 101.158V101.828H107.506C107.556 102.439 107.759 102.922 108.114 103.277C108.474 103.633 108.925 103.811 109.468 103.811C110.229 103.811 110.849 103.503 111.327 102.888L112.223 103.742C111.926 104.184 111.53 104.528 111.033 104.774C110.541 105.016 109.987 105.137 109.372 105.137ZM109.174 98.7998C108.718 98.7998 108.349 98.9593 108.066 99.2783C107.788 99.5973 107.611 100.042 107.533 100.611H110.698V100.488C110.662 99.9323 110.514 99.513 110.254 99.2305C109.994 98.9434 109.634 98.7998 109.174 98.7998ZM115.196 97.6035L115.244 98.376C115.764 97.7699 116.475 97.4668 117.377 97.4668C118.366 97.4668 119.043 97.8451 119.407 98.6016C119.945 97.8451 120.701 97.4668 121.677 97.4668C122.493 97.4668 123.099 97.6924 123.495 98.1436C123.896 98.5947 124.101 99.2601 124.11 100.14V105H122.449V100.188C122.449 99.7181 122.347 99.374 122.142 99.1553C121.937 98.9365 121.597 98.8271 121.123 98.8271C120.745 98.8271 120.435 98.9297 120.193 99.1348C119.956 99.3353 119.79 99.5996 119.694 99.9277L119.701 105H118.04V100.133C118.017 99.2624 117.573 98.8271 116.707 98.8271C116.042 98.8271 115.57 99.0983 115.292 99.6406V105H113.631V97.6035H115.196ZM132.307 101.377C132.307 102.525 132.049 103.439 131.534 104.118C131.024 104.797 130.32 105.137 129.422 105.137C128.556 105.137 127.882 104.825 127.398 104.2L127.316 105H125.812V94.5H127.474V98.3145C127.952 97.7493 128.597 97.4668 129.408 97.4668C130.311 97.4668 131.019 97.8018 131.534 98.4717C132.049 99.1416 132.307 100.078 132.307 101.281V101.377ZM130.646 101.233C130.646 100.431 130.504 99.8298 130.222 99.4287C129.939 99.0277 129.529 98.8271 128.991 98.8271C128.271 98.8271 127.765 99.1416 127.474 99.7705V102.819C127.77 103.462 128.28 103.783 129.005 103.783C129.524 103.783 129.925 103.59 130.208 103.202C130.491 102.815 130.636 102.229 130.646 101.445V101.233ZM136.962 105.137C135.909 105.137 135.055 104.806 134.398 104.146C133.747 103.48 133.421 102.596 133.421 101.493V101.288C133.421 100.55 133.562 99.8913 133.845 99.3125C134.132 98.7292 134.533 98.2757 135.048 97.9521C135.563 97.6286 136.137 97.4668 136.771 97.4668C137.778 97.4668 138.555 97.7881 139.102 98.4307C139.653 99.0732 139.929 99.9824 139.929 101.158V101.828H135.096C135.146 102.439 135.349 102.922 135.704 103.277C136.064 103.633 136.515 103.811 137.058 103.811C137.819 103.811 138.438 103.503 138.917 102.888L139.812 103.742C139.516 104.184 139.12 104.528 138.623 104.774C138.131 105.016 137.577 105.137 136.962 105.137ZM136.764 98.7998C136.308 98.7998 135.939 98.9593 135.656 99.2783C135.378 99.5973 135.201 100.042 135.123 100.611H138.288V100.488C138.252 99.9323 138.104 99.513 137.844 99.2305C137.584 98.9434 137.224 98.7998 136.764 98.7998ZM145.097 99.1211C144.878 99.0846 144.652 99.0664 144.42 99.0664C143.659 99.0664 143.146 99.3581 142.882 99.9414V105H141.221V97.6035H142.807L142.848 98.4307C143.249 97.7881 143.805 97.4668 144.516 97.4668C144.753 97.4668 144.949 97.4987 145.104 97.5625L145.097 99.1211ZM155.61 100.557H151.522V103.619H156.301V105H149.793V95.0469H156.253V96.4414H151.522V99.1895H155.61V100.557ZM160.771 101.438H157.183V100.099H160.771V101.438ZM163.704 97.6035L163.752 98.376C164.271 97.7699 164.982 97.4668 165.885 97.4668C166.874 97.4668 167.55 97.8451 167.915 98.6016C168.453 97.8451 169.209 97.4668 170.185 97.4668C171 97.4668 171.606 97.6924 172.003 98.1436C172.404 98.5947 172.609 99.2601 172.618 100.14V105H170.957V100.188C170.957 99.7181 170.854 99.374 170.649 99.1553C170.444 98.9365 170.105 98.8271 169.631 98.8271C169.253 98.8271 168.943 98.9297 168.701 99.1348C168.464 99.3353 168.298 99.5996 168.202 99.9277L168.209 105H166.548V100.133C166.525 99.2624 166.081 98.8271 165.215 98.8271C164.549 98.8271 164.078 99.0983 163.8 99.6406V105H162.139V97.6035H163.704ZM178.743 105C178.67 104.859 178.606 104.629 178.552 104.31C178.023 104.861 177.376 105.137 176.61 105.137C175.868 105.137 175.261 104.925 174.792 104.501C174.323 104.077 174.088 103.553 174.088 102.929C174.088 102.14 174.38 101.536 174.963 101.117C175.551 100.693 176.389 100.481 177.479 100.481H178.497V99.9961C178.497 99.6133 178.39 99.3079 178.176 99.0801C177.962 98.8477 177.636 98.7314 177.198 98.7314C176.82 98.7314 176.51 98.8271 176.269 99.0186C176.027 99.2054 175.906 99.4447 175.906 99.7363H174.245C174.245 99.3307 174.38 98.9525 174.648 98.6016C174.917 98.2461 175.282 97.9681 175.742 97.7676C176.207 97.5671 176.724 97.4668 177.294 97.4668C178.16 97.4668 178.85 97.6855 179.365 98.123C179.88 98.556 180.145 99.1667 180.158 99.9551V103.291C180.158 103.956 180.252 104.487 180.438 104.884V105H178.743ZM176.918 103.804C177.246 103.804 177.554 103.724 177.841 103.564C178.132 103.405 178.351 103.191 178.497 102.922V101.527H177.602C176.986 101.527 176.524 101.634 176.214 101.849C175.904 102.063 175.749 102.366 175.749 102.758C175.749 103.077 175.854 103.332 176.063 103.523C176.278 103.71 176.562 103.804 176.918 103.804ZM183.665 105H182.004V97.6035H183.665V105ZM181.901 95.6826C181.901 95.4274 181.981 95.2155 182.141 95.0469C182.305 94.8783 182.537 94.7939 182.838 94.7939C183.139 94.7939 183.371 94.8783 183.535 95.0469C183.699 95.2155 183.781 95.4274 183.781 95.6826C183.781 95.9333 183.699 96.1429 183.535 96.3115C183.371 96.4756 183.139 96.5576 182.838 96.5576C182.537 96.5576 182.305 96.4756 182.141 96.3115C181.981 96.1429 181.901 95.9333 181.901 95.6826ZM187.247 105H185.586V94.5H187.247V105Z" fill="white"/>
<path d="M99.583 341.683H95.7275L94.9209 344H93.123L96.8828 334.047H98.4346L102.201 344H100.396L99.583 341.683ZM96.2129 340.288H99.0977L97.6553 336.159L96.2129 340.288ZM102.864 340.247C102.864 339.108 103.129 338.194 103.657 337.506C104.186 336.813 104.895 336.467 105.783 336.467C106.567 336.467 107.201 336.74 107.684 337.287V333.5H109.345V344H107.841L107.759 343.234C107.262 343.836 106.599 344.137 105.77 344.137C104.904 344.137 104.202 343.788 103.664 343.091C103.131 342.394 102.864 341.446 102.864 340.247ZM104.525 340.391C104.525 341.143 104.669 341.73 104.956 342.154C105.248 342.574 105.66 342.783 106.193 342.783C106.872 342.783 107.369 342.48 107.684 341.874V338.716C107.378 338.123 106.886 337.827 106.207 337.827C105.669 337.827 105.255 338.041 104.963 338.47C104.671 338.894 104.525 339.534 104.525 340.391ZM110.767 340.247C110.767 339.108 111.031 338.194 111.56 337.506C112.088 336.813 112.797 336.467 113.686 336.467C114.469 336.467 115.103 336.74 115.586 337.287V333.5H117.247V344H115.743L115.661 343.234C115.164 343.836 114.501 344.137 113.672 344.137C112.806 344.137 112.104 343.788 111.566 343.091C111.033 342.394 110.767 341.446 110.767 340.247ZM112.428 340.391C112.428 341.143 112.571 341.73 112.858 342.154C113.15 342.574 113.562 342.783 114.096 342.783C114.775 342.783 115.271 342.48 115.586 341.874V338.716C115.281 338.123 114.788 337.827 114.109 337.827C113.572 337.827 113.157 338.041 112.865 338.47C112.574 338.894 112.428 339.534 112.428 340.391ZM128.957 340.377C128.957 341.525 128.7 342.439 128.185 343.118C127.674 343.797 126.97 344.137 126.072 344.137C125.206 344.137 124.532 343.825 124.049 343.2L123.967 344H122.463V333.5H124.124V337.314C124.603 336.749 125.247 336.467 126.059 336.467C126.961 336.467 127.67 336.802 128.185 337.472C128.7 338.142 128.957 339.078 128.957 340.281V340.377ZM127.296 340.233C127.296 339.431 127.155 338.83 126.872 338.429C126.59 338.028 126.179 337.827 125.642 337.827C124.922 337.827 124.416 338.142 124.124 338.771V341.819C124.42 342.462 124.931 342.783 125.655 342.783C126.175 342.783 126.576 342.59 126.858 342.202C127.141 341.815 127.287 341.229 127.296 340.445V340.233ZM132.86 341.621L134.364 336.604H136.135L133.195 345.121C132.744 346.365 131.979 346.987 130.898 346.987C130.657 346.987 130.39 346.946 130.099 346.864V345.579L130.413 345.6C130.832 345.6 131.147 345.522 131.356 345.367C131.571 345.217 131.739 344.962 131.862 344.602L132.102 343.966L129.504 336.604H131.295L132.86 341.621ZM148.337 340.76C148.237 341.822 147.845 342.651 147.161 343.248C146.478 343.84 145.568 344.137 144.434 344.137C143.641 344.137 142.941 343.95 142.335 343.576C141.733 343.198 141.269 342.662 140.94 341.97C140.612 341.277 140.441 340.473 140.428 339.557V338.627C140.428 337.688 140.594 336.861 140.927 336.146C141.259 335.43 141.736 334.879 142.355 334.491C142.98 334.104 143.7 333.91 144.516 333.91C145.614 333.91 146.498 334.209 147.168 334.806C147.838 335.403 148.228 336.246 148.337 337.335H146.614C146.532 336.619 146.323 336.104 145.985 335.79C145.653 335.471 145.163 335.312 144.516 335.312C143.764 335.312 143.185 335.587 142.779 336.139C142.378 336.686 142.173 337.49 142.164 338.552V339.434C142.164 340.509 142.355 341.329 142.738 341.895C143.126 342.46 143.691 342.742 144.434 342.742C145.113 342.742 145.623 342.59 145.965 342.284C146.307 341.979 146.523 341.471 146.614 340.76H148.337ZM155.091 341.437C155.091 340.999 154.936 340.662 154.626 340.425C154.321 340.188 153.767 339.949 152.965 339.707C152.163 339.465 151.525 339.197 151.051 338.9C150.144 338.331 149.69 337.588 149.69 336.672C149.69 335.87 150.016 335.209 150.668 334.689C151.324 334.17 152.174 333.91 153.218 333.91C153.91 333.91 154.528 334.038 155.07 334.293C155.613 334.548 156.039 334.913 156.349 335.387C156.659 335.856 156.813 336.378 156.813 336.952H155.091C155.091 336.433 154.927 336.027 154.599 335.735C154.275 335.439 153.81 335.291 153.204 335.291C152.639 335.291 152.199 335.412 151.885 335.653C151.575 335.895 151.42 336.232 151.42 336.665C151.42 337.03 151.589 337.335 151.926 337.581C152.263 337.823 152.819 338.06 153.594 338.292C154.368 338.52 154.991 338.782 155.46 339.078C155.929 339.37 156.273 339.707 156.492 340.09C156.711 340.468 156.82 340.912 156.82 341.423C156.82 342.252 156.501 342.913 155.863 343.405C155.23 343.893 154.368 344.137 153.279 344.137C152.559 344.137 151.896 344.005 151.29 343.74C150.688 343.471 150.219 343.102 149.882 342.633C149.549 342.163 149.383 341.617 149.383 340.992H151.112C151.112 341.557 151.299 341.995 151.673 342.305C152.047 342.615 152.582 342.77 153.279 342.77C153.881 342.77 154.332 342.649 154.633 342.407C154.938 342.161 155.091 341.838 155.091 341.437ZM161.845 341.833L164.374 334.047H166.274L162.692 344H161.018L157.449 334.047H159.343L161.845 341.833Z" fill="#BCCDE7"/>
<path d="M93 345.367H166.384V346.051H93V345.367Z" fill="#BCCDE7"/>
<defs>
<filter id="filter0_d" x="0" y="0" width="522" height="440" filterUnits="userSpaceOnUse" color-interpolation-filters="sRGB">
<feFlood flood-opacity="0" result="BackgroundImageFix"/>
<feColorMatrix in="SourceAlpha" type="matrix" values="0 0 0 0 0 0 0 0 0 0 0 0 0 0 0 0 0 0 127 0"/>
<feOffset/>
<feGaussianBlur stdDeviation="15"/>
<feColorMatrix type="matrix" values="0 0 0 0 0 0 0 0 0 0 0 0 0 0 0 0 0 0 0.1 0"/>
<feBlend mode="normal" in2="BackgroundImageFix" result="effect1_dropShadow"/>
<feBlend mode="normal" in="SourceGraphic" in2="effect1_dropShadow" result="shape"/>
</filter>
</defs>
</svg>
