<svg width="130" height="23" viewBox="0 0 130 23" fill="none" xmlns="http://www.w3.org/2000/svg">
<path fill-rule="evenodd" clip-rule="evenodd" d="M11.2173 22.4016H2.3868C1.03393 22.4016 0 21.3618 0 20.0013V11.1206C0 4.96022 4.9322 0 10.9789 0C17.4486 0 22.3045 4.8321 22.2759 11.281C22.2482 17.4414 17.3429 22.4016 11.2173 22.4016ZM16.2292 12.6407L11.4556 12.1613C11.0587 12.1613 10.7397 11.8406 10.66 11.4405L9.94413 6.1604C9.94413 5.92071 9.70579 5.76034 9.54633 5.76034C9.38773 5.76034 9.14853 5.84053 9.14853 6.08021L7.7168 14.2409C7.63706 14.4815 7.87626 14.7212 8.19433 14.7212L16.3089 13.4408C16.5473 13.3615 16.7067 13.2011 16.627 13.0407C16.5473 12.8812 16.4684 12.6407 16.2292 12.6407Z" fill="#603680"/>
<path fill-rule="evenodd" clip-rule="evenodd" d="M115.208 6.87395C112.052 6.87395 107.489 9.79726 111.596 14.272C111.991 14.7348 112.187 15.1305 112.187 15.5271C112.187 16.0553 111.859 16.4519 111.137 16.6497C110.546 16.7822 109.298 17.0463 109.298 17.1125C109.298 17.3104 111.071 20.0846 111.268 20.0846C111.991 20.0846 112.779 19.8868 113.698 19.4902C114.486 19.1599 119.363 16.7979 115.012 12.4225C114.617 11.9606 114.421 11.6302 114.421 11.2999C114.421 9.92626 116.322 9.75194 116.928 9.95502C117.664 9.21591 115.34 6.87395 115.208 6.87395ZM107.688 8.46373C107.738 8.11161 104.24 7.66623 103.977 7.66623C103.846 7.66623 103.452 8.85595 103.386 8.85595C103.386 8.85595 102.693 7.46838 100.299 7.46838C92.4073 7.46838 92.7419 19.9522 99.8398 19.9522C101.755 19.9522 103.052 18.3676 103.058 18.3676C103.124 18.3676 103.386 19.8206 103.584 19.8206C104.897 19.8206 106.335 19.6401 107.386 19.5739C107.649 19.5739 106.762 15.0294 107.688 8.46373ZM33.3718 19.6227H29.2993C29.1026 19.6227 28.9518 19.5704 28.9535 19.4388C28.97 18.3999 29.2733 3.73274 28.8721 2.48375C28.8721 2.48375 32.9775 2.31641 33.4368 2.31641C33.5685 2.31641 33.7003 2.51426 33.8311 2.84459L37.3784 10.7055C37.641 11.2336 37.8377 11.4977 38.0345 11.4977C38.1003 11.4977 38.2979 11.2336 38.6914 10.573C39.4801 8.85595 40.7159 6.27343 42.2924 2.83936C42.4241 2.50903 42.6347 2.31815 42.7517 2.37655C42.9173 2.45848 46.4714 2.47416 46.7046 2.38265C46.949 2.2859 47.1639 2.45935 47.0989 2.64674C46.7271 3.71357 46.8701 18.48 47.1648 19.2261C47.261 19.4719 47.0989 19.6227 46.8363 19.6227H42.5013C42.3037 19.6227 42.1711 19.4902 42.1728 19.2261C42.1815 17.4646 42.4891 11.4324 42.1728 11.4315C42.1069 11.4315 39.3483 18.1035 38.7573 19.5565C38.3231 20.211 37.2467 19.7543 37.1808 19.6227C36.7865 18.7633 34.2497 12.4774 33.7653 11.7366C33.5902 11.469 33.6032 11.7845 33.6032 11.917C33.6032 12.7755 33.7003 18.433 33.7003 19.2261C33.7003 19.4902 33.5685 19.6227 33.3718 19.6227ZM92.7462 15.7912C92.8779 15.7921 92.6153 18.6979 92.5495 18.7633C92.4836 18.8296 91.207 19.8868 88.6737 19.8868C86.3095 19.8868 85.1273 18.962 85.1273 17.1779C85.1273 16.6497 85.2591 12.8191 85.2591 12.29C85.2591 11.2903 83.9452 12.1218 83.9452 11.4315V8.65722C83.9452 8.29987 85.1932 8.58052 85.1932 8.12904C85.2591 7.86495 85.2591 3.70311 85.4558 3.70311C85.6525 3.70311 89.5933 4.36377 89.5933 4.49625C89.5933 4.76035 89.4624 7.13804 89.4624 7.46838C89.4624 7.86495 89.5283 8.0628 89.7909 8.0628C90.1193 8.0628 92.3978 7.81614 92.6344 7.93119C92.8389 8.02968 92.7869 11.4045 92.5226 11.8281H89.725C89.5933 11.8281 89.5283 12.0259 89.5283 12.3563C89.5283 12.3563 89.6591 15.263 89.7909 15.5271C90.5336 16.4606 92.6145 15.7912 92.7462 15.7912ZM55.0462 7.33677C56.8853 7.33677 58.3959 7.93119 59.5122 9.12004C62.731 12.3571 60.5964 17.0149 59.5122 18.1689C58.3959 19.2924 56.8853 19.8868 55.0462 19.8868C53.273 19.8868 51.8274 19.2924 50.6453 18.1689C48.1935 15.5576 48.587 11.2424 50.5794 9.12004C51.6966 7.93119 53.1413 7.33677 55.0462 7.33677ZM82.0368 7.99656C81.7898 8.12468 81.5991 18.8993 81.8435 19.424C81.9267 19.6035 81.7118 19.7543 81.5151 19.7543C81.2525 19.8206 78.0337 19.8206 77.7711 19.7543C77.5743 19.7543 77.3533 19.6471 77.4426 19.6227C77.6281 19.5713 77.6367 8.35304 77.3117 8.26152C77.1219 8.20748 77.4426 7.99656 77.6402 7.99656C77.9028 7.99656 82.2708 7.87715 82.0368 7.99656ZM74.9475 19.2924C74.9475 18.7633 75.0125 10.6392 75.0125 10.6392C75.0125 9.64822 74.6181 8.85595 73.8303 8.26152C73.1075 7.79871 72.2539 7.53462 71.2685 7.53462C68.9502 7.53462 67.5149 9.12963 67.4127 9.21766C67.3858 9.24119 67.3702 9.2438 67.359 9.22724C67.3052 9.1488 67.2506 8.88297 67.1969 8.39313C67.131 7.86495 67.0652 7.53462 67.0002 7.53462C66.8771 7.64879 63.3342 8.299 62.796 8.19528C62.6521 8.16739 62.5992 8.59186 62.5992 8.65722C62.9277 9.84607 63.0586 11.4315 63.0586 13.4797V19.2924C63.0586 19.4902 63.1903 19.6881 63.4529 19.6881C63.7155 19.7543 66.7367 19.7543 67.0652 19.6881C67.3278 19.6881 67.4595 19.4902 67.4595 19.2261V12.6203C67.4595 12.29 68.2473 11.2999 69.2327 11.2999C70.2181 11.2999 70.6774 11.8281 70.6774 12.9507C70.6774 12.9507 70.5466 18.8296 70.5466 19.1599C70.5466 19.424 70.6774 19.6227 70.9409 19.6881C71.2035 19.7543 74.4214 19.7543 74.6181 19.6881C74.8157 19.6881 74.9475 19.5565 74.9475 19.2924ZM122.565 19.6227H119.413C119.215 19.6227 119.018 19.4902 119.018 19.2261V4.62786C120.281 3.99858 121.616 3.71008 123.025 3.76935V12.1584H123.419L125.521 8.65722C125.587 8.52561 125.718 8.45937 125.849 8.45937V8.39313H129.592C129.921 8.39313 130.119 8.78971 129.921 9.0538L126.506 14.0079L129.921 18.962C130.119 19.2261 129.921 19.6227 129.592 19.6227H125.783C125.652 19.6227 125.521 19.5565 125.455 19.424L123.353 15.9237H122.959V19.2261C122.959 19.424 122.828 19.6227 122.565 19.6227ZM56.7908 15.277C56.3965 15.8051 55.7682 16.1215 55.1112 16.1215C54.4552 16.1215 53.9291 15.8574 53.5356 15.3292C52.5329 14.1526 53.0139 12.5933 53.5356 11.8943C53.9291 11.3661 54.4552 11.1012 55.1112 11.1012C55.7682 11.1012 56.3662 11.3766 56.7596 11.8385C57.2857 12.4556 57.6549 13.8868 56.7908 15.277ZM102.533 15.3292C102.073 15.7912 100.493 16.58 99.1829 15.263C98.7236 14.8002 98.0519 12.9655 99.1829 11.8281C99.6423 11.3661 101.241 10.4632 102.598 11.8281C103.956 13.193 102.992 14.8664 102.533 15.3292ZM81.4327 3.37365C82.7284 4.49015 82.3497 7.0718 79.7913 7.0718C77.765 7.0718 76.3359 4.74117 78.1489 3.37365C78.6083 2.97707 80.1371 2.25627 81.4327 3.37365Z" fill="#333359"/>
</svg>
