<svg width="48" height="48" viewBox="0 0 48 48" fill="none" xmlns="http://www.w3.org/2000/svg">
<path d="M33.0008 21.75C33.0008 23.9751 32.341 26.1502 31.1048 28.0002C29.8686 29.8503 28.1116 31.2922 26.056 32.1437C24.0003 32.9952 21.7383 33.218 19.556 32.7839C17.3737 32.3498 15.3692 31.2783 13.7958 29.705C12.2225 28.1317 11.151 26.1271 10.7169 23.9448C10.2829 21.7625 10.5056 19.5005 11.3571 17.4449C12.2086 15.3892 13.6506 13.6322 15.5006 12.396C17.3507 11.1598 19.5257 10.5 21.7508 10.5C24.7345 10.5 27.5959 11.6853 29.7057 13.7951C31.8155 15.9049 33.0008 18.7664 33.0008 21.75ZM43.0508 43.0688C42.7708 43.3445 42.3938 43.4994 42.0008 43.5C41.6025 43.4984 41.22 43.344 40.932 43.0688L32.832 34.95C29.4206 37.8154 25.0347 39.2532 20.589 38.9635C16.1433 38.6737 11.9811 36.6789 8.97049 33.395C5.95985 30.1111 4.33322 25.7916 4.42985 21.3376C4.52649 16.8835 6.33893 12.6387 9.48918 9.48844C12.6394 6.3382 16.8842 4.52576 21.3383 4.42912C25.7924 4.33248 30.1118 5.95912 33.3957 8.96976C36.6796 11.9804 38.6745 16.1426 38.9642 20.5883C39.2539 25.034 37.8162 29.4199 34.9508 32.8313L43.0508 40.9313C43.1925 41.0709 43.3051 41.2372 43.3819 41.4207C43.4587 41.6042 43.4983 41.8011 43.4983 42C43.4983 42.199 43.4587 42.3959 43.3819 42.5794C43.3051 42.7628 43.1925 42.9292 43.0508 43.0688ZM21.7508 36C24.5692 36 27.3243 35.1643 29.6677 33.5985C32.0111 32.0327 33.8375 29.8071 34.9161 27.2033C35.9946 24.5994 36.2768 21.7342 35.727 18.97C35.1771 16.2058 33.8199 13.6667 31.827 11.6738C29.8342 9.68088 27.295 8.32369 24.5308 7.77386C21.7666 7.22402 18.9014 7.50621 16.2975 8.58476C13.6937 9.66331 11.4681 11.4898 9.90234 13.8332C8.33653 16.1766 7.50078 18.9317 7.50078 21.75C7.50574 25.5279 9.00867 29.1495 11.68 31.8208C14.3513 34.4922 17.973 35.9951 21.7508 36Z" fill="#5470CB"/>
</svg>
