<svg width="60" height="75" viewBox="0 0 60 75" fill="none" xmlns="http://www.w3.org/2000/svg">
<rect x="8.36816" y="16.8154" width="43.2637" height="43.5375" rx="5.5" stroke="#5470CB" stroke-width="3"/>
<path d="M23.3836 63.2799C21.3056 59.6182 22.5467 54.957 26.1189 52.8588C29.6911 50.7606 34.2795 51.9977 36.3575 55.6594C38.4355 59.321 37.1944 63.9822 33.6222 66.0804C30.05 68.1786 25.4616 66.9415 23.3836 63.2799Z" fill="white" fill-opacity="0.7" stroke="#5470CB" stroke-width="3"/>
<line x1="1.5" y1="-1.5" x2="9.07261" y2="-1.5" transform="matrix(0.700674 -0.713482 0.700674 0.713482 17.6949 73.6846)" stroke="#5470CB" stroke-width="3" stroke-linecap="round"/>
<line x1="1.5" y1="-1.5" x2="14.5556" y2="-1.5" transform="matrix(0.700671 -0.713484 0.700671 0.713484 12.7891 43.4341)" stroke="#5470CB" stroke-width="3" stroke-linecap="round"/>
<line x1="1.5" y1="-1.5" x2="14.5556" y2="-1.5" transform="matrix(0.700999 0.713162 -0.700999 0.713162 21.2306 31.9838)" stroke="#5470CB" stroke-width="3" stroke-linecap="round"/>
<line x1="1.5" y1="-1.5" x2="7.47014" y2="-1.5" transform="matrix(-0.723018 0.69083 -0.723018 -0.69083 33.5779 25.6031)" stroke="#5470CB" stroke-width="3" stroke-linecap="round"/>
<line x1="1.5" y1="-1.5" x2="19.2789" y2="-1.5" transform="matrix(-0.687564 -0.726124 0.723883 -0.689922 47.9902 40.6909)" stroke="#5470CB" stroke-width="3" stroke-linecap="round"/>
</svg>
