<svg width="690" height="375" viewBox="0 0 690 375" fill="none" xmlns="http://www.w3.org/2000/svg">
<g filter="url(#filter0_d)">
<rect x="30" y="30" width="315" height="315" fill="#293763"/>
</g>
<g filter="url(#filter1_d)">
<rect x="345" y="30" width="315" height="315" fill="white"/>
</g>
<rect x="381" y="81" width="247" height="37" fill="#BCCDE7"/>
<rect x="381" y="144" width="247" height="37" fill="#BCCDE7"/>
<rect x="381" y="208" width="247" height="37" fill="#BCCDE7"/>
<rect x="381" y="208" width="247" height="37" fill="#BCCDE7"/>
<rect x="413" y="272" width="183" height="37" rx="4" fill="#505A89"/>
<path fill-rule="evenodd" clip-rule="evenodd" d="M136.575 188H128.25C126.975 188 126 187.025 126 185.75V177.425C126 171.65 130.65 167 136.35 167C142.449 167 147.027 171.53 147 177.575C146.974 183.35 142.349 188 136.575 188ZM141.3 178.85L136.799 178.4C136.425 178.4 136.125 178.1 136.049 177.725L135.374 172.775C135.374 172.55 135.15 172.4 134.999 172.4C134.85 172.4 134.624 172.475 134.624 172.7L133.275 180.35C133.2 180.575 133.425 180.8 133.725 180.8L141.375 179.6C141.599 179.525 141.75 179.375 141.675 179.225C141.599 179.075 141.525 178.85 141.3 178.85V178.85Z" fill="white"/>
<path fill-rule="evenodd" clip-rule="evenodd" d="M234.959 173.36C231.962 173.36 227.631 176.157 231.53 180.439C231.904 180.881 232.091 181.26 232.091 181.64C232.091 182.145 231.779 182.524 231.093 182.714C230.532 182.84 229.348 183.093 229.348 183.156C229.348 183.346 231.031 186 231.218 186C231.904 186 232.653 185.811 233.525 185.431C234.273 185.115 238.903 182.855 234.772 178.669C234.398 178.227 234.211 177.911 234.211 177.595C234.211 176.281 236.016 176.114 236.591 176.308C237.289 175.601 235.084 173.36 234.959 173.36V173.36ZM227.82 174.882C227.867 174.545 224.546 174.119 224.297 174.119C224.173 174.119 223.798 175.257 223.736 175.257C223.736 175.257 223.078 173.929 220.805 173.929C213.314 173.929 213.631 185.873 220.369 185.873C222.188 185.873 223.418 184.357 223.424 184.357C223.487 184.357 223.736 185.747 223.923 185.747C225.17 185.747 226.535 185.575 227.533 185.511C227.782 185.511 226.94 181.163 227.82 174.882ZM157.272 185.558H153.406C153.219 185.558 153.076 185.508 153.077 185.382C153.093 184.388 153.381 170.355 153 169.16C153 169.16 156.897 169 157.333 169C157.458 169 157.583 169.189 157.708 169.505L161.075 177.026C161.324 177.532 161.511 177.784 161.698 177.784C161.76 177.784 161.948 177.532 162.321 176.9C163.07 175.257 164.243 172.786 165.74 169.5C165.865 169.184 166.065 169.002 166.176 169.058C166.333 169.136 169.707 169.151 169.928 169.063C170.16 168.971 170.364 169.137 170.303 169.316C169.95 170.337 170.085 184.465 170.365 185.179C170.456 185.414 170.303 185.558 170.053 185.558H165.938C165.751 185.558 165.625 185.431 165.626 185.179C165.635 183.493 165.927 177.722 165.626 177.721C165.564 177.721 162.945 184.105 162.384 185.495C161.972 186.121 160.95 185.684 160.887 185.558C160.513 184.736 158.105 178.722 157.645 178.013C157.479 177.757 157.491 178.059 157.491 178.185C157.491 179.007 157.583 184.42 157.583 185.179C157.583 185.431 157.458 185.558 157.272 185.558V185.558ZM213.635 181.892C213.76 181.893 213.511 184.673 213.449 184.736C213.386 184.799 212.174 185.811 209.769 185.811C207.525 185.811 206.403 184.926 206.403 183.219C206.403 182.714 206.528 179.049 206.528 178.542C206.528 177.586 205.281 178.381 205.281 177.721V175.067C205.281 174.725 206.465 174.993 206.465 174.561C206.528 174.309 206.528 170.327 206.715 170.327C206.901 170.327 210.642 170.959 210.642 171.086C210.642 171.338 210.518 173.613 210.518 173.929C210.518 174.309 210.581 174.498 210.83 174.498C211.142 174.498 213.305 174.262 213.529 174.372C213.723 174.466 213.674 177.695 213.423 178.1H210.767C210.642 178.1 210.581 178.29 210.581 178.606C210.581 178.606 210.705 181.387 210.83 181.64C211.535 182.533 213.51 181.892 213.635 181.892ZM177.847 173.803C179.593 173.803 181.027 174.372 182.086 175.509C185.142 178.607 183.116 183.063 182.086 184.167C181.027 185.242 179.593 185.811 177.847 185.811C176.164 185.811 174.791 185.242 173.669 184.167C171.342 181.669 171.715 177.54 173.607 175.509C174.667 174.372 176.039 173.803 177.847 173.803V173.803ZM203.469 174.435C203.235 174.557 203.054 184.866 203.286 185.368C203.365 185.54 203.16 185.684 202.974 185.684C202.724 185.747 199.669 185.747 199.42 185.684C199.233 185.684 199.023 185.581 199.108 185.558C199.284 185.509 199.292 174.776 198.984 174.688C198.803 174.636 199.108 174.435 199.295 174.435C199.545 174.435 203.691 174.32 203.469 174.435V174.435ZM196.739 185.242C196.739 184.736 196.801 176.963 196.801 176.963C196.801 176.015 196.427 175.257 195.679 174.688C194.992 174.245 194.182 173.993 193.247 173.993C191.046 173.993 189.683 175.519 189.586 175.603C189.561 175.625 189.546 175.628 189.535 175.612C189.484 175.537 189.433 175.283 189.382 174.814C189.319 174.309 189.256 173.993 189.195 173.993C189.078 174.102 185.715 174.724 185.204 174.625C185.067 174.598 185.017 175.004 185.017 175.067C185.329 176.204 185.453 177.721 185.453 179.681V185.242C185.453 185.431 185.578 185.621 185.827 185.621C186.077 185.684 188.945 185.684 189.256 185.621C189.506 185.621 189.631 185.431 189.631 185.179V178.858C189.631 178.542 190.379 177.595 191.314 177.595C192.25 177.595 192.686 178.1 192.686 179.174C192.686 179.174 192.561 184.799 192.561 185.115C192.561 185.368 192.686 185.558 192.936 185.621C193.185 185.684 196.24 185.684 196.426 185.621C196.614 185.621 196.739 185.495 196.739 185.242V185.242ZM241.942 185.558H238.95C238.762 185.558 238.575 185.431 238.575 185.179V171.212C239.774 170.609 241.041 170.333 242.379 170.39V178.416H242.753L244.748 175.067C244.811 174.941 244.935 174.877 245.06 174.877V174.814H248.613C248.925 174.814 249.113 175.193 248.925 175.446L245.684 180.186L248.925 184.926C249.113 185.179 248.925 185.558 248.613 185.558H244.997C244.872 185.558 244.748 185.495 244.686 185.368L242.691 182.019H242.316V185.179C242.316 185.368 242.192 185.558 241.942 185.558V185.558ZM179.503 181.4C179.129 181.906 178.532 182.208 177.909 182.208C177.286 182.208 176.787 181.956 176.413 181.45C175.461 180.324 175.918 178.833 176.413 178.164C176.787 177.658 177.286 177.405 177.909 177.405C178.532 177.405 179.1 177.668 179.474 178.11C179.973 178.701 180.323 180.07 179.503 181.4V181.4ZM222.926 181.45C222.489 181.892 220.99 182.647 219.746 181.387C219.31 180.944 218.672 179.189 219.746 178.1C220.182 177.658 221.7 176.795 222.988 178.1C224.276 179.406 223.362 181.007 222.926 181.45V181.45ZM202.896 170.012C204.126 171.08 203.766 173.55 201.337 173.55C199.414 173.55 198.057 171.32 199.778 170.012C200.214 169.632 201.666 168.942 202.896 170.012Z" fill="white"/>
<path d="M480.989 293.704C480.989 293.142 480.79 292.708 480.392 292.403C479.999 292.099 479.287 291.791 478.256 291.48C477.225 291.17 476.404 290.824 475.795 290.443C474.629 289.711 474.046 288.756 474.046 287.578C474.046 286.547 474.465 285.697 475.303 285.029C476.146 284.361 477.239 284.027 478.581 284.027C479.472 284.027 480.266 284.191 480.963 284.52C481.66 284.848 482.208 285.316 482.606 285.926C483.005 286.529 483.204 287.2 483.204 287.938H480.989C480.989 287.271 480.778 286.749 480.356 286.374C479.94 285.993 479.343 285.803 478.563 285.803C477.837 285.803 477.271 285.958 476.867 286.269C476.469 286.579 476.27 287.013 476.27 287.569C476.27 288.038 476.486 288.431 476.92 288.747C477.354 289.058 478.068 289.362 479.064 289.661C480.061 289.954 480.86 290.291 481.464 290.672C482.067 291.047 482.51 291.48 482.791 291.973C483.072 292.459 483.213 293.03 483.213 293.687C483.213 294.753 482.803 295.603 481.982 296.235C481.168 296.862 480.061 297.176 478.66 297.176C477.734 297.176 476.882 297.006 476.103 296.666C475.329 296.32 474.726 295.846 474.292 295.242C473.864 294.639 473.65 293.936 473.65 293.133H475.874C475.874 293.859 476.114 294.422 476.595 294.82C477.075 295.219 477.764 295.418 478.66 295.418C479.434 295.418 480.014 295.263 480.4 294.952C480.793 294.636 480.989 294.22 480.989 293.704ZM487.511 297H485.296V284.203H487.511V297ZM500.053 295.339C499.59 295.942 498.948 296.399 498.128 296.71C497.308 297.021 496.376 297.176 495.333 297.176C494.261 297.176 493.312 296.933 492.485 296.446C491.659 295.96 491.021 295.266 490.569 294.363C490.124 293.455 489.893 292.397 489.875 291.19V290.188C489.875 288.255 490.338 286.746 491.264 285.662C492.189 284.572 493.481 284.027 495.14 284.027C496.563 284.027 497.694 284.379 498.532 285.082C499.37 285.785 499.874 286.799 500.044 288.123H497.864C497.618 286.582 496.725 285.812 495.184 285.812C494.188 285.812 493.429 286.172 492.907 286.893C492.392 287.607 492.125 288.659 492.107 290.048V291.032C492.107 292.415 492.397 293.49 492.978 294.258C493.563 295.02 494.375 295.4 495.412 295.4C496.549 295.4 497.357 295.143 497.838 294.627V292.122H495.201V290.435H500.053V295.339ZM512.647 297H510.424L504.72 287.921V297H502.496V284.203H504.72L510.441 293.317V284.203H512.647V297ZM529.118 284.203V292.755C529.118 294.114 528.682 295.192 527.809 295.989C526.941 296.78 525.784 297.176 524.337 297.176C522.872 297.176 521.709 296.786 520.848 296.007C519.986 295.222 519.556 294.135 519.556 292.746V284.203H521.771V292.764C521.771 293.619 521.987 294.272 522.421 294.724C522.854 295.175 523.493 295.4 524.337 295.4C526.048 295.4 526.903 294.498 526.903 292.693V284.203H529.118ZM533.724 292.245V297H531.5V284.203H536.396C537.825 284.203 538.959 284.575 539.797 285.319C540.641 286.063 541.062 287.048 541.062 288.272C541.062 289.526 540.649 290.502 539.823 291.199C539.003 291.896 537.852 292.245 536.369 292.245H533.724ZM533.724 290.461H536.396C537.187 290.461 537.79 290.276 538.206 289.907C538.622 289.532 538.83 288.993 538.83 288.29C538.83 287.599 538.619 287.048 538.197 286.638C537.775 286.222 537.195 286.008 536.457 285.996H533.724V290.461Z" fill="white"/>
<defs>
<filter id="filter0_d" x="0" y="0" width="375" height="375" filterUnits="userSpaceOnUse" color-interpolation-filters="sRGB">
<feFlood flood-opacity="0" result="BackgroundImageFix"/>
<feColorMatrix in="SourceAlpha" type="matrix" values="0 0 0 0 0 0 0 0 0 0 0 0 0 0 0 0 0 0 127 0"/>
<feOffset/>
<feGaussianBlur stdDeviation="15"/>
<feColorMatrix type="matrix" values="0 0 0 0 0 0 0 0 0 0 0 0 0 0 0 0 0 0 0.45 0"/>
<feBlend mode="normal" in2="BackgroundImageFix" result="effect1_dropShadow"/>
<feBlend mode="normal" in="SourceGraphic" in2="effect1_dropShadow" result="shape"/>
</filter>
<filter id="filter1_d" x="315" y="0" width="375" height="375" filterUnits="userSpaceOnUse" color-interpolation-filters="sRGB">
<feFlood flood-opacity="0" result="BackgroundImageFix"/>
<feColorMatrix in="SourceAlpha" type="matrix" values="0 0 0 0 0 0 0 0 0 0 0 0 0 0 0 0 0 0 127 0"/>
<feOffset/>
<feGaussianBlur stdDeviation="15"/>
<feColorMatrix type="matrix" values="0 0 0 0 0 0 0 0 0 0 0 0 0 0 0 0 0 0 0.1 0"/>
<feBlend mode="normal" in2="BackgroundImageFix" result="effect1_dropShadow"/>
<feBlend mode="normal" in="SourceGraphic" in2="effect1_dropShadow" result="shape"/>
</filter>
</defs>
</svg>
