<svg width="665" height="418" viewBox="0 0 665 418" fill="none" xmlns="http://www.w3.org/2000/svg">
<g filter="url(#filter0_d)">
<rect x="30" y="30" width="605" height="358" fill="white"/>
</g>
<path d="M58.5244 79.2451V84H56.3008V71.2031H61.1963C62.626 71.2031 63.7598 71.5752 64.5977 72.3193C65.4414 73.0635 65.8633 74.0479 65.8633 75.2725C65.8633 76.5264 65.4502 77.502 64.624 78.1992C63.8037 78.8965 62.6523 79.2451 61.1699 79.2451H58.5244ZM58.5244 77.4609H61.1963C61.9873 77.4609 62.5908 77.2764 63.0068 76.9072C63.4229 76.5322 63.6309 75.9932 63.6309 75.29C63.6309 74.5986 63.4199 74.0479 62.998 73.6377C62.5762 73.2217 61.9961 73.0078 61.2578 72.9961H58.5244V77.4609ZM72.5869 76.4414C72.3057 76.3945 72.0156 76.3711 71.7168 76.3711C70.7383 76.3711 70.0791 76.7461 69.7393 77.4961V84H67.6035V74.4902H69.6426L69.6953 75.5537C70.2109 74.7275 70.9258 74.3145 71.8398 74.3145C72.1445 74.3145 72.3965 74.3555 72.5957 74.4375L72.5869 76.4414ZM73.2197 79.1572C73.2197 78.2256 73.4043 77.3877 73.7734 76.6436C74.1426 75.8936 74.6611 75.3193 75.3291 74.9209C75.9971 74.5166 76.7646 74.3145 77.6318 74.3145C78.915 74.3145 79.9551 74.7275 80.752 75.5537C81.5547 76.3799 81.9883 77.4756 82.0527 78.8408L82.0615 79.3418C82.0615 80.2793 81.8799 81.1172 81.5166 81.8555C81.1592 82.5938 80.6436 83.165 79.9697 83.5693C79.3018 83.9736 78.5283 84.1758 77.6494 84.1758C76.3076 84.1758 75.2324 83.7305 74.4238 82.8398C73.6211 81.9434 73.2197 80.751 73.2197 79.2627V79.1572ZM75.3555 79.3418C75.3555 80.3203 75.5576 81.0879 75.9619 81.6445C76.3662 82.1953 76.9287 82.4707 77.6494 82.4707C78.3701 82.4707 78.9297 82.1895 79.3281 81.627C79.7324 81.0645 79.9346 80.2412 79.9346 79.1572C79.9346 78.1963 79.7266 77.4346 79.3105 76.8721C78.9004 76.3096 78.3408 76.0283 77.6318 76.0283C76.9346 76.0283 76.3809 76.3066 75.9707 76.8633C75.5605 77.4141 75.3555 78.2402 75.3555 79.3418ZM86.0957 74.4902V84.8438C86.0957 85.8164 85.8525 86.5576 85.3662 87.0674C84.8857 87.583 84.1797 87.8408 83.248 87.8408C82.8555 87.8408 82.4775 87.791 82.1143 87.6914V86.0039C82.3369 86.0566 82.5889 86.083 82.8701 86.083C83.5791 86.083 83.9424 85.6963 83.96 84.9229V74.4902H86.0957ZM83.7754 72.0205C83.7754 71.6924 83.8779 71.4199 84.083 71.2031C84.2939 70.9863 84.5928 70.8779 84.9795 70.8779C85.3662 70.8779 85.665 70.9863 85.876 71.2031C86.0869 71.4199 86.1924 71.6924 86.1924 72.0205C86.1924 72.3428 86.0869 72.6123 85.876 72.8291C85.665 73.04 85.3662 73.1455 84.9795 73.1455C84.5928 73.1455 84.2939 73.04 84.083 72.8291C83.8779 72.6123 83.7754 72.3428 83.7754 72.0205ZM92.5732 84.1758C91.2197 84.1758 90.1211 83.751 89.2773 82.9014C88.4395 82.0459 88.0205 80.9092 88.0205 79.4912V79.2275C88.0205 78.2783 88.2021 77.4316 88.5654 76.6875C88.9346 75.9375 89.4502 75.3545 90.1123 74.9385C90.7744 74.5225 91.5127 74.3145 92.3271 74.3145C93.6221 74.3145 94.6211 74.7275 95.3242 75.5537C96.0332 76.3799 96.3877 77.5488 96.3877 79.0605V79.9219H90.1738C90.2383 80.707 90.499 81.3281 90.9561 81.7852C91.4189 82.2422 91.999 82.4707 92.6963 82.4707C93.6748 82.4707 94.4717 82.0752 95.0869 81.2842L96.2383 82.3828C95.8574 82.9512 95.3477 83.3936 94.709 83.71C94.0762 84.0205 93.3643 84.1758 92.5732 84.1758ZM92.3184 76.0283C91.7324 76.0283 91.2578 76.2334 90.8945 76.6436C90.5371 77.0537 90.3086 77.625 90.209 78.3574H94.2783V78.1992C94.2314 77.4844 94.041 76.9453 93.707 76.582C93.373 76.2129 92.9102 76.0283 92.3184 76.0283ZM101.96 82.4707C102.493 82.4707 102.936 82.3154 103.287 82.0049C103.639 81.6943 103.826 81.3105 103.85 80.8535H105.862C105.839 81.4453 105.654 81.999 105.309 82.5146C104.963 83.0244 104.494 83.4287 103.902 83.7275C103.311 84.0264 102.672 84.1758 101.986 84.1758C100.656 84.1758 99.6016 83.7451 98.8223 82.8838C98.043 82.0225 97.6533 80.833 97.6533 79.3154V79.0957C97.6533 77.6484 98.04 76.4912 98.8135 75.624C99.5869 74.751 100.642 74.3145 101.978 74.3145C103.108 74.3145 104.028 74.6455 104.737 75.3076C105.452 75.9639 105.827 76.8281 105.862 77.9004H103.85C103.826 77.3555 103.639 76.9072 103.287 76.5557C102.941 76.2041 102.499 76.0283 101.96 76.0283C101.269 76.0283 100.735 76.2803 100.36 76.7842C99.9854 77.2822 99.7949 78.041 99.7891 79.0605V79.4033C99.7891 80.4346 99.9736 81.2051 100.343 81.7148C100.718 82.2188 101.257 82.4707 101.96 82.4707ZM110.151 72.1787V74.4902H111.83V76.0723H110.151V81.3809C110.151 81.7441 110.222 82.0078 110.362 82.1719C110.509 82.3301 110.767 82.4092 111.136 82.4092C111.382 82.4092 111.631 82.3799 111.883 82.3213V83.9736C111.396 84.1084 110.928 84.1758 110.477 84.1758C108.836 84.1758 108.016 83.2705 108.016 81.46V76.0723H106.451V74.4902H108.016V72.1787H110.151ZM118.8 81.416C118.8 81.0352 118.642 80.7451 118.325 80.5459C118.015 80.3467 117.496 80.1709 116.77 80.0186C116.043 79.8662 115.437 79.6729 114.95 79.4385C113.884 78.9229 113.351 78.1758 113.351 77.1973C113.351 76.377 113.696 75.6914 114.388 75.1406C115.079 74.5898 115.958 74.3145 117.024 74.3145C118.161 74.3145 119.078 74.5957 119.775 75.1582C120.479 75.7207 120.83 76.4502 120.83 77.3467H118.694C118.694 76.9365 118.542 76.5967 118.237 76.3271C117.933 76.0518 117.528 75.9141 117.024 75.9141C116.556 75.9141 116.172 76.0225 115.873 76.2393C115.58 76.4561 115.434 76.7461 115.434 77.1094C115.434 77.4375 115.571 77.6924 115.847 77.874C116.122 78.0557 116.679 78.2402 117.517 78.4277C118.354 78.6094 119.011 78.8291 119.485 79.0869C119.966 79.3389 120.32 79.6436 120.549 80.001C120.783 80.3584 120.9 80.792 120.9 81.3018C120.9 82.1572 120.546 82.8516 119.837 83.3848C119.128 83.9121 118.199 84.1758 117.051 84.1758C116.271 84.1758 115.577 84.0352 114.968 83.7539C114.358 83.4727 113.884 83.0859 113.544 82.5938C113.204 82.1016 113.034 81.5713 113.034 81.0029H115.108C115.138 81.5068 115.328 81.8965 115.68 82.1719C116.031 82.4414 116.497 82.5762 117.077 82.5762C117.64 82.5762 118.067 82.4707 118.36 82.2598C118.653 82.043 118.8 81.7617 118.8 81.416ZM132.933 84C132.839 83.8184 132.757 83.5225 132.687 83.1123C132.007 83.8213 131.175 84.1758 130.19 84.1758C129.235 84.1758 128.456 83.9033 127.853 83.3584C127.249 82.8135 126.947 82.1396 126.947 81.3369C126.947 80.3232 127.322 79.5469 128.072 79.0078C128.828 78.4629 129.906 78.1904 131.307 78.1904H132.616V77.5664C132.616 77.0742 132.479 76.6816 132.203 76.3887C131.928 76.0898 131.509 75.9404 130.946 75.9404C130.46 75.9404 130.062 76.0635 129.751 76.3096C129.44 76.5498 129.285 76.8574 129.285 77.2324H127.149C127.149 76.7109 127.322 76.2246 127.668 75.7734C128.014 75.3164 128.482 74.959 129.074 74.7012C129.672 74.4434 130.337 74.3145 131.069 74.3145C132.183 74.3145 133.07 74.5957 133.732 75.1582C134.395 75.7148 134.734 76.5 134.752 77.5137V81.8027C134.752 82.6582 134.872 83.3408 135.112 83.8506V84H132.933ZM130.586 82.4619C131.008 82.4619 131.403 82.3594 131.772 82.1543C132.147 81.9492 132.429 81.6738 132.616 81.3281V79.5352H131.465C130.674 79.5352 130.079 79.6729 129.681 79.9482C129.282 80.2236 129.083 80.6133 129.083 81.1172C129.083 81.5273 129.218 81.8555 129.487 82.1016C129.763 82.3418 130.129 82.4619 130.586 82.4619ZM138.971 74.4902L139.032 75.5889C139.735 74.7393 140.658 74.3145 141.801 74.3145C143.781 74.3145 144.789 75.4482 144.824 77.7158V84H142.688V77.8389C142.688 77.2354 142.557 76.79 142.293 76.5029C142.035 76.21 141.61 76.0635 141.019 76.0635C140.157 76.0635 139.516 76.4531 139.094 77.2324V84H136.958V74.4902H138.971ZM146.608 79.1748C146.608 77.71 146.948 76.5352 147.628 75.6504C148.308 74.7598 149.219 74.3145 150.361 74.3145C151.369 74.3145 152.184 74.666 152.805 75.3691V70.5H154.94V84H153.007L152.901 83.0156C152.263 83.7891 151.41 84.1758 150.344 84.1758C149.23 84.1758 148.328 83.7275 147.637 82.8311C146.951 81.9346 146.608 80.7158 146.608 79.1748ZM148.744 79.3594C148.744 80.3262 148.929 81.082 149.298 81.627C149.673 82.166 150.203 82.4355 150.889 82.4355C151.762 82.4355 152.4 82.0459 152.805 81.2666V77.2061C152.412 76.4443 151.779 76.0635 150.906 76.0635C150.215 76.0635 149.682 76.3389 149.307 76.8896C148.932 77.4346 148.744 78.2578 148.744 79.3594ZM164.327 72.1787V74.4902H166.006V76.0723H164.327V81.3809C164.327 81.7441 164.397 82.0078 164.538 82.1719C164.685 82.3301 164.942 82.4092 165.312 82.4092C165.558 82.4092 165.807 82.3799 166.059 82.3213V83.9736C165.572 84.1084 165.104 84.1758 164.652 84.1758C163.012 84.1758 162.191 83.2705 162.191 81.46V76.0723H160.627V74.4902H162.191V72.1787H164.327ZM173.327 84C173.233 83.8184 173.151 83.5225 173.081 83.1123C172.401 83.8213 171.569 84.1758 170.585 84.1758C169.63 84.1758 168.851 83.9033 168.247 83.3584C167.644 82.8135 167.342 82.1396 167.342 81.3369C167.342 80.3232 167.717 79.5469 168.467 79.0078C169.223 78.4629 170.301 78.1904 171.701 78.1904H173.011V77.5664C173.011 77.0742 172.873 76.6816 172.598 76.3887C172.322 76.0898 171.903 75.9404 171.341 75.9404C170.854 75.9404 170.456 76.0635 170.146 76.3096C169.835 76.5498 169.68 76.8574 169.68 77.2324H167.544C167.544 76.7109 167.717 76.2246 168.062 75.7734C168.408 75.3164 168.877 74.959 169.469 74.7012C170.066 74.4434 170.731 74.3145 171.464 74.3145C172.577 74.3145 173.465 74.5957 174.127 75.1582C174.789 75.7148 175.129 76.5 175.146 77.5137V81.8027C175.146 82.6582 175.267 83.3408 175.507 83.8506V84H173.327ZM170.98 82.4619C171.402 82.4619 171.798 82.3594 172.167 82.1543C172.542 81.9492 172.823 81.6738 173.011 81.3281V79.5352H171.859C171.068 79.5352 170.474 79.6729 170.075 79.9482C169.677 80.2236 169.478 80.6133 169.478 81.1172C169.478 81.5273 169.612 81.8555 169.882 82.1016C170.157 82.3418 170.523 82.4619 170.98 82.4619ZM182.714 81.416C182.714 81.0352 182.556 80.7451 182.239 80.5459C181.929 80.3467 181.41 80.1709 180.684 80.0186C179.957 79.8662 179.351 79.6729 178.864 79.4385C177.798 78.9229 177.265 78.1758 177.265 77.1973C177.265 76.377 177.61 75.6914 178.302 75.1406C178.993 74.5898 179.872 74.3145 180.938 74.3145C182.075 74.3145 182.992 74.5957 183.689 75.1582C184.393 75.7207 184.744 76.4502 184.744 77.3467H182.608C182.608 76.9365 182.456 76.5967 182.151 76.3271C181.847 76.0518 181.442 75.9141 180.938 75.9141C180.47 75.9141 180.086 76.0225 179.787 76.2393C179.494 76.4561 179.348 76.7461 179.348 77.1094C179.348 77.4375 179.485 77.6924 179.761 77.874C180.036 78.0557 180.593 78.2402 181.431 78.4277C182.269 78.6094 182.925 78.8291 183.399 79.0869C183.88 79.3389 184.234 79.6436 184.463 80.001C184.697 80.3584 184.814 80.792 184.814 81.3018C184.814 82.1572 184.46 82.8516 183.751 83.3848C183.042 83.9121 182.113 84.1758 180.965 84.1758C180.186 84.1758 179.491 84.0352 178.882 83.7539C178.272 83.4727 177.798 83.0859 177.458 82.5938C177.118 82.1016 176.948 81.5713 176.948 81.0029H179.022C179.052 81.5068 179.242 81.8965 179.594 82.1719C179.945 82.4414 180.411 82.5762 180.991 82.5762C181.554 82.5762 181.981 82.4707 182.274 82.2598C182.567 82.043 182.714 81.7617 182.714 81.416ZM189.771 79.9219L188.822 80.8975V84H186.687V70.5H188.822V78.2871L189.49 77.4521L192.118 74.4902H194.685L191.151 78.4541L195.062 84H192.593L189.771 79.9219ZM201.417 81.416C201.417 81.0352 201.259 80.7451 200.942 80.5459C200.632 80.3467 200.113 80.1709 199.387 80.0186C198.66 79.8662 198.054 79.6729 197.567 79.4385C196.501 78.9229 195.968 78.1758 195.968 77.1973C195.968 76.377 196.313 75.6914 197.005 75.1406C197.696 74.5898 198.575 74.3145 199.642 74.3145C200.778 74.3145 201.695 74.5957 202.393 75.1582C203.096 75.7207 203.447 76.4502 203.447 77.3467H201.312C201.312 76.9365 201.159 76.5967 200.854 76.3271C200.55 76.0518 200.146 75.9141 199.642 75.9141C199.173 75.9141 198.789 76.0225 198.49 76.2393C198.197 76.4561 198.051 76.7461 198.051 77.1094C198.051 77.4375 198.188 77.6924 198.464 77.874C198.739 78.0557 199.296 78.2402 200.134 78.4277C200.972 78.6094 201.628 78.8291 202.103 79.0869C202.583 79.3389 202.938 79.6436 203.166 80.001C203.4 80.3584 203.518 80.792 203.518 81.3018C203.518 82.1572 203.163 82.8516 202.454 83.3848C201.745 83.9121 200.816 84.1758 199.668 84.1758C198.889 84.1758 198.194 84.0352 197.585 83.7539C196.976 83.4727 196.501 83.0859 196.161 82.5938C195.821 82.1016 195.651 81.5713 195.651 81.0029H197.726C197.755 81.5068 197.945 81.8965 198.297 82.1719C198.648 82.4414 199.114 82.5762 199.694 82.5762C200.257 82.5762 200.685 82.4707 200.978 82.2598C201.271 82.043 201.417 81.7617 201.417 81.416Z" fill="#BBBBBB"/>
<rect x="53" y="104" width="557" height="43" rx="3" fill="#505A89"/>
<path d="M79.0312 123.664H76.3711V131H74.9004V123.664H72.2637V122.469H79.0312V123.664ZM82.8223 131C82.7598 130.879 82.7051 130.682 82.6582 130.408C82.2051 130.881 81.6504 131.117 80.9941 131.117C80.3574 131.117 79.8379 130.936 79.4355 130.572C79.0332 130.209 78.832 129.76 78.832 129.225C78.832 128.549 79.082 128.031 79.582 127.672C80.0859 127.309 80.8047 127.127 81.7383 127.127H82.6113V126.711C82.6113 126.383 82.5195 126.121 82.3359 125.926C82.1523 125.727 81.873 125.627 81.498 125.627C81.1738 125.627 80.9082 125.709 80.7012 125.873C80.4941 126.033 80.3906 126.238 80.3906 126.488H78.9668C78.9668 126.141 79.082 125.816 79.3125 125.516C79.543 125.211 79.8555 124.973 80.25 124.801C80.6484 124.629 81.0918 124.543 81.5801 124.543C82.3223 124.543 82.9141 124.73 83.3555 125.105C83.7969 125.477 84.0234 126 84.0352 126.676V129.535C84.0352 130.105 84.1152 130.561 84.2754 130.9V131H82.8223ZM81.2578 129.975C81.5391 129.975 81.8027 129.906 82.0488 129.77C82.2988 129.633 82.4863 129.449 82.6113 129.219V128.023H81.8438C81.3164 128.023 80.9199 128.115 80.6543 128.299C80.3887 128.482 80.2559 128.742 80.2559 129.078C80.2559 129.352 80.3457 129.57 80.5254 129.734C80.709 129.895 80.9531 129.975 81.2578 129.975ZM89.0801 129.277C89.0801 129.023 88.9746 128.83 88.7637 128.697C88.5566 128.564 88.2109 128.447 87.7266 128.346C87.2422 128.244 86.8379 128.115 86.5137 127.959C85.8027 127.615 85.4473 127.117 85.4473 126.465C85.4473 125.918 85.6777 125.461 86.1387 125.094C86.5996 124.727 87.1855 124.543 87.8965 124.543C88.6543 124.543 89.2656 124.73 89.7305 125.105C90.1992 125.48 90.4336 125.967 90.4336 126.564H89.0098C89.0098 126.291 88.9082 126.064 88.7051 125.885C88.502 125.701 88.2324 125.609 87.8965 125.609C87.584 125.609 87.3281 125.682 87.1289 125.826C86.9336 125.971 86.8359 126.164 86.8359 126.406C86.8359 126.625 86.9277 126.795 87.1113 126.916C87.2949 127.037 87.666 127.16 88.2246 127.285C88.7832 127.406 89.2207 127.553 89.5371 127.725C89.8574 127.893 90.0938 128.096 90.2461 128.334C90.4023 128.572 90.4805 128.861 90.4805 129.201C90.4805 129.771 90.2441 130.234 89.7715 130.59C89.2988 130.941 88.6797 131.117 87.9141 131.117C87.3945 131.117 86.9316 131.023 86.5254 130.836C86.1191 130.648 85.8027 130.391 85.5762 130.062C85.3496 129.734 85.2363 129.381 85.2363 129.002H86.6191C86.6387 129.338 86.7656 129.598 87 129.781C87.2344 129.961 87.5449 130.051 87.9316 130.051C88.3066 130.051 88.5918 129.98 88.7871 129.84C88.9824 129.695 89.0801 129.508 89.0801 129.277ZM93.7852 128.281L93.1523 128.932V131H91.7285V122H93.1523V127.191L93.5977 126.635L95.3496 124.66H97.0605L94.7051 127.303L97.3125 131H95.666L93.7852 128.281Z" fill="#F6FAFF"/>
<path d="M72.6348 229V221.891H74.8223C75.4473 221.891 76.0055 222.032 76.4971 222.315C76.9919 222.595 77.3776 222.996 77.6543 223.517C77.931 224.034 78.0693 224.623 78.0693 225.284V225.611C78.0693 226.272 77.9326 226.86 77.6592 227.374C77.389 227.888 77.0065 228.287 76.5117 228.57C76.0169 228.854 75.4587 228.997 74.8369 229H72.6348ZM74.0996 223.077V227.823H74.8076C75.3805 227.823 75.8184 227.636 76.1211 227.262C76.4238 226.887 76.5785 226.352 76.585 225.655V225.279C76.585 224.557 76.4352 224.01 76.1357 223.639C75.8363 223.264 75.3984 223.077 74.8223 223.077H74.0996ZM81.4775 229.098C80.7028 229.098 80.0713 228.86 79.583 228.385C79.098 227.91 78.8555 227.276 78.8555 226.485V226.349C78.8555 225.818 78.958 225.344 79.1631 224.928C79.3682 224.508 79.6579 224.186 80.0322 223.961C80.4098 223.733 80.8395 223.619 81.3213 223.619C82.0439 223.619 82.612 223.847 83.0254 224.303C83.4421 224.758 83.6504 225.405 83.6504 226.241V226.817H80.2861C80.3317 227.162 80.4684 227.439 80.6963 227.647C80.9274 227.856 81.2188 227.96 81.5703 227.96C82.1139 227.96 82.5387 227.763 82.8447 227.369L83.5381 228.146C83.3265 228.445 83.04 228.679 82.6787 228.849C82.3174 229.015 81.917 229.098 81.4775 229.098ZM81.3164 224.762C81.0365 224.762 80.8086 224.856 80.6328 225.045C80.4603 225.234 80.3496 225.504 80.3008 225.855H82.2637V225.743C82.2572 225.431 82.1725 225.19 82.0098 225.021C81.847 224.848 81.6159 224.762 81.3164 224.762ZM87.3174 227.54C87.3174 227.368 87.2311 227.232 87.0586 227.135C86.8893 227.034 86.6159 226.944 86.2383 226.866C84.9818 226.603 84.3535 226.069 84.3535 225.265C84.3535 224.796 84.5472 224.405 84.9346 224.093C85.3252 223.777 85.8346 223.619 86.4629 223.619C87.1335 223.619 87.6689 223.777 88.0693 224.093C88.473 224.409 88.6748 224.819 88.6748 225.323H87.2637C87.2637 225.121 87.1986 224.955 87.0684 224.825C86.9382 224.692 86.7347 224.625 86.458 224.625C86.2204 224.625 86.0365 224.679 85.9062 224.786C85.776 224.894 85.7109 225.03 85.7109 225.196C85.7109 225.353 85.7842 225.479 85.9307 225.577C86.0804 225.672 86.3311 225.755 86.6826 225.826C87.0342 225.895 87.3304 225.973 87.5713 226.061C88.3167 226.334 88.6895 226.808 88.6895 227.481C88.6895 227.963 88.4827 228.354 88.0693 228.653C87.6559 228.95 87.1221 229.098 86.4678 229.098C86.0251 229.098 85.6312 229.02 85.2861 228.863C84.9443 228.704 84.6758 228.487 84.4805 228.214C84.2852 227.937 84.1875 227.639 84.1875 227.32H85.5254C85.5384 227.571 85.6312 227.763 85.8037 227.896C85.9762 228.03 86.2074 228.097 86.4971 228.097C86.7673 228.097 86.9707 228.046 87.1074 227.945C87.2474 227.841 87.3174 227.706 87.3174 227.54ZM91.0918 229H89.6758V223.717H91.0918V229ZM89.5928 222.35C89.5928 222.138 89.6628 221.964 89.8027 221.827C89.946 221.69 90.1396 221.622 90.3838 221.622C90.6247 221.622 90.8167 221.69 90.96 221.827C91.1032 221.964 91.1748 222.138 91.1748 222.35C91.1748 222.564 91.1016 222.74 90.9551 222.877C90.8118 223.014 90.6214 223.082 90.3838 223.082C90.1462 223.082 89.9541 223.014 89.8076 222.877C89.6644 222.74 89.5928 222.564 89.5928 222.35ZM92.0537 226.319C92.0537 225.509 92.2458 224.856 92.6299 224.361C93.0173 223.867 93.5381 223.619 94.1924 223.619C94.7718 223.619 95.2227 223.818 95.5449 224.215L95.6035 223.717H96.8828V228.824C96.8828 229.286 96.777 229.688 96.5654 230.03C96.3571 230.372 96.0625 230.632 95.6816 230.812C95.3008 230.991 94.8548 231.08 94.3438 231.08C93.9564 231.08 93.5788 231.002 93.2109 230.846C92.8431 230.693 92.5648 230.494 92.376 230.25L93.001 229.391C93.3525 229.785 93.779 229.981 94.2803 229.981C94.6546 229.981 94.946 229.881 95.1543 229.679C95.3626 229.48 95.4668 229.197 95.4668 228.829V228.546C95.1413 228.914 94.7132 229.098 94.1826 229.098C93.5479 229.098 93.0335 228.85 92.6396 228.355C92.249 227.857 92.0537 227.198 92.0537 226.378V226.319ZM93.4648 226.422C93.4648 226.9 93.5609 227.276 93.7529 227.55C93.945 227.82 94.2087 227.955 94.5439 227.955C94.9736 227.955 95.2812 227.794 95.4668 227.472V225.25C95.278 224.928 94.9736 224.767 94.5537 224.767C94.2152 224.767 93.9482 224.905 93.7529 225.182C93.5609 225.458 93.4648 225.872 93.4648 226.422ZM99.2705 223.717L99.3145 224.327C99.6921 223.855 100.198 223.619 100.833 223.619C101.393 223.619 101.81 223.784 102.083 224.112C102.356 224.441 102.496 224.933 102.503 225.587V229H101.092V225.621C101.092 225.322 101.027 225.105 100.896 224.972C100.766 224.835 100.55 224.767 100.247 224.767C99.8499 224.767 99.5521 224.936 99.3535 225.274V229H97.9424V223.717H99.2705ZM110.662 227.081L111.355 223.717H112.718L111.37 229H110.188L109.188 225.675L108.187 229H107.01L105.662 223.717H107.024L107.713 227.076L108.68 223.717H109.7L110.662 227.081ZM115.853 229.098C115.078 229.098 114.446 228.86 113.958 228.385C113.473 227.91 113.23 227.276 113.23 226.485V226.349C113.23 225.818 113.333 225.344 113.538 224.928C113.743 224.508 114.033 224.186 114.407 223.961C114.785 223.733 115.215 223.619 115.696 223.619C116.419 223.619 116.987 223.847 117.4 224.303C117.817 224.758 118.025 225.405 118.025 226.241V226.817H114.661C114.707 227.162 114.843 227.439 115.071 227.647C115.302 227.856 115.594 227.96 115.945 227.96C116.489 227.96 116.914 227.763 117.22 227.369L117.913 228.146C117.701 228.445 117.415 228.679 117.054 228.849C116.692 229.015 116.292 229.098 115.853 229.098ZM115.691 224.762C115.411 224.762 115.184 224.856 115.008 225.045C114.835 225.234 114.725 225.504 114.676 225.855H116.639V225.743C116.632 225.431 116.548 225.19 116.385 225.021C116.222 224.848 115.991 224.762 115.691 224.762ZM123.592 226.407C123.592 227.254 123.411 227.914 123.05 228.39C122.688 228.862 122.184 229.098 121.536 229.098C120.963 229.098 120.506 228.878 120.164 228.438L120.101 229H118.831V221.5H120.242V224.19C120.568 223.81 120.996 223.619 121.526 223.619C122.171 223.619 122.675 223.857 123.04 224.332C123.408 224.804 123.592 225.47 123.592 226.329V226.407ZM122.181 226.305C122.181 225.771 122.096 225.382 121.927 225.138C121.757 224.89 121.505 224.767 121.17 224.767C120.721 224.767 120.411 224.951 120.242 225.318V227.403C120.415 227.774 120.727 227.96 121.18 227.96C121.635 227.96 121.935 227.735 122.078 227.286C122.146 227.071 122.181 226.744 122.181 226.305ZM127.327 227.54C127.327 227.368 127.241 227.232 127.068 227.135C126.899 227.034 126.626 226.944 126.248 226.866C124.992 226.603 124.363 226.069 124.363 225.265C124.363 224.796 124.557 224.405 124.944 224.093C125.335 223.777 125.844 223.619 126.473 223.619C127.143 223.619 127.679 223.777 128.079 224.093C128.483 224.409 128.685 224.819 128.685 225.323H127.273C127.273 225.121 127.208 224.955 127.078 224.825C126.948 224.692 126.744 224.625 126.468 224.625C126.23 224.625 126.046 224.679 125.916 224.786C125.786 224.894 125.721 225.03 125.721 225.196C125.721 225.353 125.794 225.479 125.94 225.577C126.09 225.672 126.341 225.755 126.692 225.826C127.044 225.895 127.34 225.973 127.581 226.061C128.326 226.334 128.699 226.808 128.699 227.481C128.699 227.963 128.493 228.354 128.079 228.653C127.666 228.95 127.132 229.098 126.478 229.098C126.035 229.098 125.641 229.02 125.296 228.863C124.954 228.704 124.686 228.487 124.49 228.214C124.295 227.937 124.197 227.639 124.197 227.32H125.535C125.548 227.571 125.641 227.763 125.813 227.896C125.986 228.03 126.217 228.097 126.507 228.097C126.777 228.097 126.98 228.046 127.117 227.945C127.257 227.841 127.327 227.706 127.327 227.54ZM131.102 229H129.686V223.717H131.102V229ZM129.603 222.35C129.603 222.138 129.673 221.964 129.812 221.827C129.956 221.69 130.149 221.622 130.394 221.622C130.634 221.622 130.826 221.69 130.97 221.827C131.113 221.964 131.185 222.138 131.185 222.35C131.185 222.564 131.111 222.74 130.965 222.877C130.822 223.014 130.631 223.082 130.394 223.082C130.156 223.082 129.964 223.014 129.817 222.877C129.674 222.74 129.603 222.564 129.603 222.35ZM133.958 222.418V223.717H134.861V224.752H133.958V227.389C133.958 227.584 133.995 227.724 134.07 227.809C134.145 227.893 134.288 227.936 134.5 227.936C134.656 227.936 134.795 227.924 134.915 227.901V228.971C134.638 229.055 134.354 229.098 134.061 229.098C133.071 229.098 132.566 228.598 132.547 227.599V224.752H131.775V223.717H132.547V222.418H133.958ZM138.079 229.098C137.304 229.098 136.673 228.86 136.185 228.385C135.7 227.91 135.457 227.276 135.457 226.485V226.349C135.457 225.818 135.56 225.344 135.765 224.928C135.97 224.508 136.259 224.186 136.634 223.961C137.011 223.733 137.441 223.619 137.923 223.619C138.646 223.619 139.214 223.847 139.627 224.303C140.044 224.758 140.252 225.405 140.252 226.241V226.817H136.888C136.933 227.162 137.07 227.439 137.298 227.647C137.529 227.856 137.82 227.96 138.172 227.96C138.715 227.96 139.14 227.763 139.446 227.369L140.14 228.146C139.928 228.445 139.642 228.679 139.28 228.849C138.919 229.015 138.519 229.098 138.079 229.098ZM137.918 224.762C137.638 224.762 137.41 224.856 137.234 225.045C137.062 225.234 136.951 225.504 136.902 225.855H138.865V225.743C138.859 225.431 138.774 225.19 138.611 225.021C138.449 224.848 138.217 224.762 137.918 224.762ZM145.555 221.891L147.381 227.047L149.197 221.891H151.121V229H149.651V227.057L149.798 223.702L147.879 229H146.873L144.959 223.707L145.105 227.057V229H143.641V221.891H145.555ZM155.369 229C155.304 228.873 155.257 228.715 155.228 228.526C154.886 228.907 154.441 229.098 153.895 229.098C153.377 229.098 152.947 228.948 152.605 228.648C152.267 228.349 152.098 227.971 152.098 227.516C152.098 226.956 152.304 226.526 152.718 226.227C153.134 225.927 153.735 225.776 154.52 225.772H155.169V225.47C155.169 225.226 155.105 225.03 154.979 224.884C154.855 224.737 154.658 224.664 154.388 224.664C154.15 224.664 153.963 224.721 153.826 224.835C153.693 224.949 153.626 225.105 153.626 225.304H152.215C152.215 224.998 152.309 224.715 152.498 224.454C152.687 224.194 152.954 223.99 153.299 223.844C153.644 223.694 154.031 223.619 154.461 223.619C155.112 223.619 155.628 223.784 156.009 224.112C156.393 224.438 156.585 224.897 156.585 225.489V227.779C156.588 228.281 156.658 228.66 156.795 228.917V229H155.369ZM154.202 228.019C154.41 228.019 154.603 227.973 154.778 227.882C154.954 227.787 155.084 227.662 155.169 227.506V226.598H154.642C153.935 226.598 153.559 226.842 153.514 227.33L153.509 227.413C153.509 227.589 153.571 227.734 153.694 227.848C153.818 227.962 153.987 228.019 154.202 228.019ZM159.158 229H157.742V223.717H159.158V229ZM157.659 222.35C157.659 222.138 157.729 221.964 157.869 221.827C158.012 221.69 158.206 221.622 158.45 221.622C158.691 221.622 158.883 221.69 159.026 221.827C159.17 221.964 159.241 222.138 159.241 222.35C159.241 222.564 159.168 222.74 159.021 222.877C158.878 223.014 158.688 223.082 158.45 223.082C158.213 223.082 158.021 223.014 157.874 222.877C157.731 222.74 157.659 222.564 157.659 222.35ZM161.624 223.717L161.668 224.327C162.046 223.855 162.552 223.619 163.187 223.619C163.746 223.619 164.163 223.784 164.437 224.112C164.71 224.441 164.85 224.933 164.856 225.587V229H163.445V225.621C163.445 225.322 163.38 225.105 163.25 224.972C163.12 224.835 162.903 224.767 162.601 224.767C162.203 224.767 161.906 224.936 161.707 225.274V229H160.296V223.717H161.624ZM173.177 226.407C173.177 227.221 172.991 227.874 172.62 228.365C172.252 228.854 171.754 229.098 171.126 229.098C170.592 229.098 170.161 228.912 169.832 228.541V231.031H168.421V223.717H169.729L169.778 224.234C170.12 223.824 170.566 223.619 171.116 223.619C171.767 223.619 172.273 223.86 172.635 224.342C172.996 224.824 173.177 225.488 173.177 226.334V226.407ZM171.766 226.305C171.766 225.813 171.678 225.434 171.502 225.167C171.329 224.9 171.077 224.767 170.745 224.767C170.302 224.767 169.998 224.936 169.832 225.274V227.438C170.005 227.786 170.312 227.96 170.755 227.96C171.429 227.96 171.766 227.408 171.766 226.305ZM177.117 229C177.052 228.873 177.005 228.715 176.976 228.526C176.634 228.907 176.189 229.098 175.643 229.098C175.125 229.098 174.695 228.948 174.354 228.648C174.015 228.349 173.846 227.971 173.846 227.516C173.846 226.956 174.052 226.526 174.466 226.227C174.882 225.927 175.483 225.776 176.268 225.772H176.917V225.47C176.917 225.226 176.854 225.03 176.727 224.884C176.603 224.737 176.406 224.664 176.136 224.664C175.898 224.664 175.711 224.721 175.574 224.835C175.441 224.949 175.374 225.105 175.374 225.304H173.963C173.963 224.998 174.057 224.715 174.246 224.454C174.435 224.194 174.702 223.99 175.047 223.844C175.392 223.694 175.779 223.619 176.209 223.619C176.86 223.619 177.376 223.784 177.757 224.112C178.141 224.438 178.333 224.897 178.333 225.489V227.779C178.336 228.281 178.406 228.66 178.543 228.917V229H177.117ZM175.95 228.019C176.159 228.019 176.351 227.973 176.526 227.882C176.702 227.787 176.832 227.662 176.917 227.506V226.598H176.39C175.683 226.598 175.307 226.842 175.262 227.33L175.257 227.413C175.257 227.589 175.319 227.734 175.442 227.848C175.566 227.962 175.735 228.019 175.95 228.019ZM179.212 226.319C179.212 225.509 179.404 224.856 179.788 224.361C180.175 223.867 180.696 223.619 181.351 223.619C181.93 223.619 182.381 223.818 182.703 224.215L182.762 223.717H184.041V228.824C184.041 229.286 183.935 229.688 183.724 230.03C183.515 230.372 183.221 230.632 182.84 230.812C182.459 230.991 182.013 231.08 181.502 231.08C181.115 231.08 180.737 231.002 180.369 230.846C180.001 230.693 179.723 230.494 179.534 230.25L180.159 229.391C180.511 229.785 180.937 229.981 181.438 229.981C181.813 229.981 182.104 229.881 182.312 229.679C182.521 229.48 182.625 229.197 182.625 228.829V228.546C182.299 228.914 181.871 229.098 181.341 229.098C180.706 229.098 180.192 228.85 179.798 228.355C179.407 227.857 179.212 227.198 179.212 226.378V226.319ZM180.623 226.422C180.623 226.9 180.719 227.276 180.911 227.55C181.103 227.82 181.367 227.955 181.702 227.955C182.132 227.955 182.439 227.794 182.625 227.472V225.25C182.436 224.928 182.132 224.767 181.712 224.767C181.373 224.767 181.106 224.905 180.911 225.182C180.719 225.458 180.623 225.872 180.623 226.422ZM187.562 229.098C186.787 229.098 186.155 228.86 185.667 228.385C185.182 227.91 184.939 227.276 184.939 226.485V226.349C184.939 225.818 185.042 225.344 185.247 224.928C185.452 224.508 185.742 224.186 186.116 223.961C186.494 223.733 186.924 223.619 187.405 223.619C188.128 223.619 188.696 223.847 189.109 224.303C189.526 224.758 189.734 225.405 189.734 226.241V226.817H186.37C186.416 227.162 186.552 227.439 186.78 227.647C187.011 227.856 187.303 227.96 187.654 227.96C188.198 227.96 188.623 227.763 188.929 227.369L189.622 228.146C189.41 228.445 189.124 228.679 188.763 228.849C188.401 229.015 188.001 229.098 187.562 229.098ZM187.4 224.762C187.12 224.762 186.893 224.856 186.717 225.045C186.544 225.234 186.434 225.504 186.385 225.855H188.348V225.743C188.341 225.431 188.257 225.19 188.094 225.021C187.931 224.848 187.7 224.762 187.4 224.762Z" fill="#505A89"/>
<path d="M372.501 221.891H373.966V226.812C373.966 227.265 373.865 227.665 373.663 228.014C373.465 228.359 373.183 228.626 372.818 228.814C372.454 229.003 372.042 229.098 371.583 229.098C370.831 229.098 370.245 228.907 369.825 228.526C369.405 228.142 369.195 227.6 369.195 226.9H370.67C370.67 227.249 370.743 227.506 370.89 227.672C371.036 227.838 371.267 227.921 371.583 227.921C371.863 227.921 372.086 227.825 372.252 227.633C372.418 227.441 372.501 227.167 372.501 226.812V221.891ZM374.908 226.31C374.908 225.785 375.009 225.318 375.211 224.908C375.413 224.498 375.702 224.181 376.08 223.956C376.461 223.731 376.902 223.619 377.403 223.619C378.116 223.619 378.697 223.837 379.146 224.273C379.599 224.71 379.851 225.302 379.903 226.051L379.913 226.412C379.913 227.223 379.687 227.874 379.234 228.365C378.782 228.854 378.175 229.098 377.413 229.098C376.651 229.098 376.043 228.854 375.587 228.365C375.134 227.877 374.908 227.213 374.908 226.373V226.31ZM376.319 226.412C376.319 226.913 376.414 227.298 376.603 227.564C376.791 227.828 377.062 227.96 377.413 227.96C377.755 227.96 378.022 227.83 378.214 227.569C378.406 227.306 378.502 226.886 378.502 226.31C378.502 225.818 378.406 225.437 378.214 225.167C378.022 224.897 377.752 224.762 377.403 224.762C377.058 224.762 376.791 224.897 376.603 225.167C376.414 225.434 376.319 225.849 376.319 226.412ZM382.159 224.293C382.534 223.844 383.004 223.619 383.57 223.619C384.716 223.619 385.297 224.285 385.313 225.616V229H383.902V225.655C383.902 225.353 383.837 225.13 383.707 224.986C383.577 224.84 383.36 224.767 383.058 224.767C382.644 224.767 382.345 224.926 382.159 225.245V229H380.748V221.5H382.159V224.293ZM387.677 223.717L387.721 224.327C388.098 223.855 388.604 223.619 389.239 223.619C389.799 223.619 390.216 223.784 390.489 224.112C390.763 224.441 390.903 224.933 390.909 225.587V229H389.498V225.621C389.498 225.322 389.433 225.105 389.303 224.972C389.173 224.835 388.956 224.767 388.653 224.767C388.256 224.767 387.958 224.936 387.76 225.274V229H386.349V223.717H387.677ZM400.104 226.949L401.061 221.891H402.521L400.943 229H399.469L398.312 224.244L397.154 229H395.68L394.103 221.891H395.562L396.524 226.939L397.696 221.891H398.937L400.104 226.949ZM404.713 229H403.297V223.717H404.713V229ZM403.214 222.35C403.214 222.138 403.284 221.964 403.424 221.827C403.567 221.69 403.761 221.622 404.005 221.622C404.246 221.622 404.438 221.69 404.581 221.827C404.724 221.964 404.796 222.138 404.796 222.35C404.796 222.564 404.723 222.74 404.576 222.877C404.433 223.014 404.243 223.082 404.005 223.082C403.767 223.082 403.575 223.014 403.429 222.877C403.285 222.74 403.214 222.564 403.214 222.35ZM408.741 227.54C408.741 227.368 408.655 227.232 408.482 227.135C408.313 227.034 408.04 226.944 407.662 226.866C406.406 226.603 405.777 226.069 405.777 225.265C405.777 224.796 405.971 224.405 406.358 224.093C406.749 223.777 407.258 223.619 407.887 223.619C408.557 223.619 409.093 223.777 409.493 224.093C409.897 224.409 410.099 224.819 410.099 225.323H408.688C408.688 225.121 408.622 224.955 408.492 224.825C408.362 224.692 408.159 224.625 407.882 224.625C407.644 224.625 407.46 224.679 407.33 224.786C407.2 224.894 407.135 225.03 407.135 225.196C407.135 225.353 407.208 225.479 407.354 225.577C407.504 225.672 407.755 225.755 408.106 225.826C408.458 225.895 408.754 225.973 408.995 226.061C409.741 226.334 410.113 226.808 410.113 227.481C410.113 227.963 409.907 228.354 409.493 228.653C409.08 228.95 408.546 229.098 407.892 229.098C407.449 229.098 407.055 229.02 406.71 228.863C406.368 228.704 406.1 228.487 405.904 228.214C405.709 227.937 405.611 227.639 405.611 227.32H406.949C406.962 227.571 407.055 227.763 407.228 227.896C407.4 228.03 407.631 228.097 407.921 228.097C408.191 228.097 408.395 228.046 408.531 227.945C408.671 227.841 408.741 227.706 408.741 227.54ZM413.888 227.54C413.888 227.368 413.801 227.232 413.629 227.135C413.46 227.034 413.186 226.944 412.809 226.866C411.552 226.603 410.924 226.069 410.924 225.265C410.924 224.796 411.118 224.405 411.505 224.093C411.896 223.777 412.405 223.619 413.033 223.619C413.704 223.619 414.239 223.777 414.64 224.093C415.043 224.409 415.245 224.819 415.245 225.323H413.834C413.834 225.121 413.769 224.955 413.639 224.825C413.508 224.692 413.305 224.625 413.028 224.625C412.791 224.625 412.607 224.679 412.477 224.786C412.346 224.894 412.281 225.03 412.281 225.196C412.281 225.353 412.354 225.479 412.501 225.577C412.651 225.672 412.901 225.755 413.253 225.826C413.604 225.895 413.901 225.973 414.142 226.061C414.887 226.334 415.26 226.808 415.26 227.481C415.26 227.963 415.053 228.354 414.64 228.653C414.226 228.95 413.692 229.098 413.038 229.098C412.595 229.098 412.201 229.02 411.856 228.863C411.515 228.704 411.246 228.487 411.051 228.214C410.855 227.937 410.758 227.639 410.758 227.32H412.096C412.109 227.571 412.201 227.763 412.374 227.896C412.547 228.03 412.778 228.097 413.067 228.097C413.338 228.097 413.541 228.046 413.678 227.945C413.818 227.841 413.888 227.706 413.888 227.54ZM418.604 229.098C417.83 229.098 417.198 228.86 416.71 228.385C416.225 227.91 415.982 227.276 415.982 226.485V226.349C415.982 225.818 416.085 225.344 416.29 224.928C416.495 224.508 416.785 224.186 417.159 223.961C417.537 223.733 417.966 223.619 418.448 223.619C419.171 223.619 419.739 223.847 420.152 224.303C420.569 224.758 420.777 225.405 420.777 226.241V226.817H417.413C417.459 227.162 417.595 227.439 417.823 227.647C418.054 227.856 418.346 227.96 418.697 227.96C419.241 227.96 419.666 227.763 419.972 227.369L420.665 228.146C420.453 228.445 420.167 228.679 419.806 228.849C419.444 229.015 419.044 229.098 418.604 229.098ZM418.443 224.762C418.163 224.762 417.936 224.856 417.76 225.045C417.587 225.234 417.477 225.504 417.428 225.855H419.391V225.743C419.384 225.431 419.299 225.19 419.137 225.021C418.974 224.848 418.743 224.762 418.443 224.762ZM423.072 229H421.656V221.5H423.072V229ZM429 226.407C429 227.254 428.819 227.914 428.458 228.39C428.097 228.862 427.592 229.098 426.944 229.098C426.371 229.098 425.914 228.878 425.572 228.438L425.509 229H424.239V221.5H425.65V224.19C425.976 223.81 426.404 223.619 426.935 223.619C427.579 223.619 428.084 223.857 428.448 224.332C428.816 224.804 429 225.47 429 226.329V226.407ZM427.589 226.305C427.589 225.771 427.504 225.382 427.335 225.138C427.166 224.89 426.913 224.767 426.578 224.767C426.129 224.767 425.82 224.951 425.65 225.318V227.403C425.823 227.774 426.135 227.96 426.588 227.96C427.044 227.96 427.343 227.735 427.486 227.286C427.555 227.071 427.589 226.744 427.589 226.305ZM433.038 228.463C432.69 228.886 432.208 229.098 431.593 229.098C431.026 229.098 430.593 228.935 430.294 228.609C429.998 228.284 429.846 227.807 429.84 227.179V223.717H431.251V227.13C431.251 227.68 431.502 227.955 432.003 227.955C432.481 227.955 432.81 227.789 432.989 227.457V223.717H434.405V229H433.077L433.038 228.463ZM438.438 225.04C438.246 225.014 438.077 225.001 437.931 225.001C437.397 225.001 437.047 225.182 436.881 225.543V229H435.47V223.717H436.803L436.842 224.347C437.125 223.862 437.517 223.619 438.019 223.619C438.175 223.619 438.321 223.64 438.458 223.683L438.438 225.04ZM438.819 226.319C438.819 225.509 439.011 224.856 439.396 224.361C439.783 223.867 440.304 223.619 440.958 223.619C441.537 223.619 441.988 223.818 442.311 224.215L442.369 223.717H443.648V228.824C443.648 229.286 443.543 229.688 443.331 230.03C443.123 230.372 442.828 230.632 442.447 230.812C442.066 230.991 441.62 231.08 441.109 231.08C440.722 231.08 440.344 231.002 439.977 230.846C439.609 230.693 439.33 230.494 439.142 230.25L439.767 229.391C440.118 229.785 440.545 229.981 441.046 229.981C441.42 229.981 441.712 229.881 441.92 229.679C442.128 229.48 442.232 229.197 442.232 228.829V228.546C441.907 228.914 441.479 229.098 440.948 229.098C440.313 229.098 439.799 228.85 439.405 228.355C439.015 227.857 438.819 227.198 438.819 226.378V226.319ZM440.23 226.422C440.23 226.9 440.326 227.276 440.519 227.55C440.711 227.82 440.974 227.955 441.31 227.955C441.739 227.955 442.047 227.794 442.232 227.472V225.25C442.044 224.928 441.739 224.767 441.319 224.767C440.981 224.767 440.714 224.905 440.519 225.182C440.326 225.458 440.23 225.872 440.23 226.422Z" fill="#505A89"/>
<path d="M484.911 229H483.5V223.561L481.815 224.083V222.936L484.76 221.881H484.911V229ZM492.099 229H487.226V228.033L489.525 225.582C489.841 225.237 490.074 224.936 490.224 224.679C490.377 224.422 490.453 224.177 490.453 223.946C490.453 223.631 490.373 223.383 490.214 223.204C490.054 223.022 489.826 222.931 489.53 222.931C489.211 222.931 488.959 223.041 488.773 223.263C488.591 223.481 488.5 223.769 488.5 224.127H487.084C487.084 223.694 487.187 223.299 487.392 222.94C487.6 222.582 487.893 222.302 488.271 222.101C488.648 221.896 489.076 221.793 489.555 221.793C490.287 221.793 490.855 221.969 491.259 222.32C491.666 222.672 491.869 223.168 491.869 223.81C491.869 224.161 491.778 224.519 491.596 224.884C491.413 225.248 491.101 225.673 490.658 226.158L489.042 227.862H492.099V229ZM493.471 229.61H492.421L495.038 221.891H496.088L493.471 229.61ZM500.136 229H498.725V223.561L497.04 224.083V222.936L499.984 221.881H500.136V229ZM507.323 229H502.45V228.033L504.75 225.582C505.066 225.237 505.299 224.936 505.448 224.679C505.601 224.422 505.678 224.177 505.678 223.946C505.678 223.631 505.598 223.383 505.438 223.204C505.279 223.022 505.051 222.931 504.755 222.931C504.436 222.931 504.184 223.041 503.998 223.263C503.816 223.481 503.725 223.769 503.725 224.127H502.309C502.309 223.694 502.411 223.299 502.616 222.94C502.825 222.582 503.118 222.302 503.495 222.101C503.873 221.896 504.301 221.793 504.779 221.793C505.512 221.793 506.08 221.969 506.483 222.32C506.89 222.672 507.094 223.168 507.094 223.81C507.094 224.161 507.003 224.519 506.82 224.884C506.638 225.248 506.326 225.673 505.883 226.158L504.267 227.862H507.323V229ZM508.695 229.61H507.646L510.263 221.891H511.312L508.695 229.61ZM516.806 229H511.933V228.033L514.232 225.582C514.548 225.237 514.781 224.936 514.931 224.679C515.084 224.422 515.16 224.177 515.16 223.946C515.16 223.631 515.08 223.383 514.921 223.204C514.761 223.022 514.534 222.931 514.237 222.931C513.918 222.931 513.666 223.041 513.48 223.263C513.298 223.481 513.207 223.769 513.207 224.127H511.791C511.791 223.694 511.894 223.299 512.099 222.94C512.307 222.582 512.6 222.302 512.978 222.101C513.355 221.896 513.783 221.793 514.262 221.793C514.994 221.793 515.562 221.969 515.966 222.32C516.373 222.672 516.576 223.168 516.576 223.81C516.576 224.161 516.485 224.519 516.303 224.884C516.12 225.248 515.808 225.673 515.365 226.158L513.749 227.862H516.806V229ZM522.46 226.061C522.46 227.044 522.257 227.796 521.85 228.316C521.443 228.837 520.847 229.098 520.062 229.098C519.288 229.098 518.695 228.842 518.285 228.331C517.875 227.82 517.665 227.088 517.655 226.134V224.825C517.655 223.832 517.86 223.079 518.271 222.564C518.684 222.05 519.278 221.793 520.053 221.793C520.827 221.793 521.42 222.049 521.83 222.56C522.24 223.067 522.45 223.798 522.46 224.752V226.061ZM521.049 224.625C521.049 224.036 520.967 223.608 520.805 223.341C520.645 223.071 520.395 222.936 520.053 222.936C519.721 222.936 519.475 223.064 519.315 223.321C519.159 223.575 519.076 223.974 519.066 224.518V226.246C519.066 226.826 519.145 227.257 519.301 227.54C519.46 227.82 519.714 227.96 520.062 227.96C520.408 227.96 520.657 227.825 520.81 227.555C520.963 227.285 521.042 226.871 521.049 226.314V224.625ZM528.29 229H523.417V228.033L525.717 225.582C526.033 225.237 526.265 224.936 526.415 224.679C526.568 224.422 526.645 224.177 526.645 223.946C526.645 223.631 526.565 223.383 526.405 223.204C526.246 223.022 526.018 222.931 525.722 222.931C525.403 222.931 525.15 223.041 524.965 223.263C524.783 223.481 524.691 223.769 524.691 224.127H523.275C523.275 223.694 523.378 223.299 523.583 222.94C523.791 222.582 524.084 222.302 524.462 222.101C524.84 221.896 525.268 221.793 525.746 221.793C526.479 221.793 527.047 221.969 527.45 222.32C527.857 222.672 528.061 223.168 528.061 223.81C528.061 224.161 527.969 224.519 527.787 224.884C527.605 225.248 527.292 225.673 526.85 226.158L525.233 227.862H528.29V229ZM533.944 226.061C533.944 227.044 533.741 227.796 533.334 228.316C532.927 228.837 532.331 229.098 531.547 229.098C530.772 229.098 530.18 228.842 529.77 228.331C529.359 227.82 529.149 227.088 529.14 226.134V224.825C529.14 223.832 529.345 223.079 529.755 222.564C530.168 222.05 530.762 221.793 531.537 221.793C532.312 221.793 532.904 222.049 533.314 222.56C533.725 223.067 533.935 223.798 533.944 224.752V226.061ZM532.533 224.625C532.533 224.036 532.452 223.608 532.289 223.341C532.13 223.071 531.879 222.936 531.537 222.936C531.205 222.936 530.959 223.064 530.8 223.321C530.644 223.575 530.561 223.974 530.551 224.518V226.246C530.551 226.826 530.629 227.257 530.785 227.54C530.945 227.82 531.199 227.96 531.547 227.96C531.892 227.96 532.141 227.825 532.294 227.555C532.447 227.285 532.527 226.871 532.533 226.314V224.625ZM540.512 229C540.447 228.873 540.399 228.715 540.37 228.526C540.028 228.907 539.584 229.098 539.037 229.098C538.52 229.098 538.09 228.948 537.748 228.648C537.41 228.349 537.24 227.971 537.24 227.516C537.24 226.956 537.447 226.526 537.86 226.227C538.277 225.927 538.878 225.776 539.662 225.772H540.312V225.47C540.312 225.226 540.248 225.03 540.121 224.884C539.997 224.737 539.8 224.664 539.53 224.664C539.293 224.664 539.105 224.721 538.969 224.835C538.835 224.949 538.769 225.105 538.769 225.304H537.357C537.357 224.998 537.452 224.715 537.641 224.454C537.829 224.194 538.096 223.99 538.441 223.844C538.786 223.694 539.174 223.619 539.604 223.619C540.255 223.619 540.771 223.784 541.151 224.112C541.535 224.438 541.728 224.897 541.728 225.489V227.779C541.731 228.281 541.801 228.66 541.938 228.917V229H540.512ZM539.345 228.019C539.553 228.019 539.745 227.973 539.921 227.882C540.097 227.787 540.227 227.662 540.312 227.506V226.598H539.784C539.078 226.598 538.702 226.842 538.656 227.33L538.651 227.413C538.651 227.589 538.713 227.734 538.837 227.848C538.961 227.962 539.13 228.019 539.345 228.019ZM544.501 222.418V223.717H545.404V224.752H544.501V227.389C544.501 227.584 544.538 227.724 544.613 227.809C544.688 227.893 544.831 227.936 545.043 227.936C545.199 227.936 545.338 227.924 545.458 227.901V228.971C545.181 229.055 544.896 229.098 544.604 229.098C543.614 229.098 543.109 228.598 543.09 227.599V224.752H542.318V223.717H543.09V222.418H544.501ZM553.256 223.78C553.256 224.125 553.17 224.431 552.997 224.698C552.825 224.965 552.587 225.178 552.284 225.338C552.629 225.504 552.903 225.733 553.104 226.026C553.306 226.316 553.407 226.658 553.407 227.052C553.407 227.683 553.192 228.183 552.763 228.551C552.333 228.915 551.749 229.098 551.01 229.098C550.271 229.098 549.685 228.914 549.252 228.546C548.819 228.178 548.603 227.68 548.603 227.052C548.603 226.658 548.703 226.314 548.905 226.021C549.107 225.729 549.379 225.501 549.721 225.338C549.418 225.178 549.18 224.965 549.008 224.698C548.839 224.431 548.754 224.125 548.754 223.78C548.754 223.175 548.956 222.693 549.359 222.335C549.763 221.974 550.312 221.793 551.005 221.793C551.695 221.793 552.242 221.972 552.646 222.33C553.052 222.685 553.256 223.168 553.256 223.78ZM551.991 226.949C551.991 226.64 551.902 226.393 551.723 226.207C551.544 226.021 551.303 225.929 551 225.929C550.701 225.929 550.461 226.021 550.282 226.207C550.103 226.389 550.014 226.637 550.014 226.949C550.014 227.252 550.102 227.496 550.277 227.682C550.453 227.867 550.697 227.96 551.01 227.96C551.316 227.96 551.555 227.87 551.728 227.691C551.903 227.512 551.991 227.265 551.991 226.949ZM551.845 223.849C551.845 223.572 551.771 223.351 551.625 223.185C551.479 223.015 551.272 222.931 551.005 222.931C550.741 222.931 550.536 223.012 550.39 223.175C550.243 223.338 550.17 223.562 550.17 223.849C550.17 224.132 550.243 224.36 550.39 224.532C550.536 224.705 550.743 224.791 551.01 224.791C551.277 224.791 551.482 224.705 551.625 224.532C551.771 224.36 551.845 224.132 551.845 223.849ZM554.491 228.307C554.491 228.082 554.566 227.9 554.716 227.76C554.869 227.62 555.059 227.55 555.287 227.55C555.518 227.55 555.709 227.62 555.858 227.76C556.011 227.9 556.088 228.082 556.088 228.307C556.088 228.528 556.013 228.709 555.863 228.849C555.714 228.985 555.521 229.054 555.287 229.054C555.056 229.054 554.866 228.985 554.716 228.849C554.566 228.709 554.491 228.528 554.491 228.307ZM554.491 224.308C554.491 224.083 554.566 223.901 554.716 223.761C554.869 223.621 555.059 223.551 555.287 223.551C555.518 223.551 555.709 223.621 555.858 223.761C556.011 223.901 556.088 224.083 556.088 224.308C556.088 224.529 556.013 224.71 555.863 224.85C555.714 224.986 555.521 225.055 555.287 225.055C555.056 225.055 554.866 224.986 554.716 224.85C554.566 224.71 554.491 224.529 554.491 224.308ZM561.361 226.324H562.167V227.462H561.361V229H559.95V227.462H557.035L556.972 226.573L559.936 221.891H561.361V226.324ZM558.378 226.324H559.95V223.814L559.857 223.976L558.378 226.324ZM563.139 225.504L563.549 221.891H567.533V223.067H564.706L564.53 224.596C564.866 224.417 565.222 224.327 565.6 224.327C566.277 224.327 566.807 224.537 567.191 224.957C567.576 225.377 567.768 225.965 567.768 226.72C567.768 227.179 567.67 227.59 567.475 227.955C567.283 228.316 567.006 228.598 566.645 228.8C566.283 228.998 565.857 229.098 565.365 229.098C564.936 229.098 564.537 229.011 564.169 228.839C563.801 228.663 563.51 228.417 563.295 228.102C563.083 227.786 562.971 227.426 562.958 227.022H564.354C564.384 227.319 564.486 227.55 564.662 227.716C564.841 227.879 565.074 227.96 565.36 227.96C565.679 227.96 565.925 227.846 566.098 227.618C566.27 227.387 566.356 227.062 566.356 226.642C566.356 226.238 566.257 225.929 566.059 225.714C565.86 225.499 565.578 225.392 565.214 225.392C564.879 225.392 564.607 225.479 564.398 225.655L564.262 225.782L563.139 225.504ZM575.326 227.535H572.758L572.27 229H570.712L573.358 221.891H574.716L577.377 229H575.819L575.326 227.535ZM573.153 226.349H574.931L574.037 223.688L573.153 226.349ZM579.955 221.891L581.781 227.047L583.598 221.891H585.521V229H584.052V227.057L584.198 223.702L582.279 229H581.273L579.359 223.707L579.506 227.057V229H578.041V221.891H579.955Z" fill="#505A89"/>
<path d="M237.172 226.949L238.129 221.891H239.589L238.012 229H236.537L235.38 224.244L234.223 229H232.748L231.171 221.891H232.631L233.593 226.939L234.765 221.891H236.005L237.172 226.949ZM242.567 229.098C241.793 229.098 241.161 228.86 240.673 228.385C240.188 227.91 239.945 227.276 239.945 226.485V226.349C239.945 225.818 240.048 225.344 240.253 224.928C240.458 224.508 240.748 224.186 241.122 223.961C241.5 223.733 241.929 223.619 242.411 223.619C243.134 223.619 243.702 223.847 244.115 224.303C244.532 224.758 244.74 225.405 244.74 226.241V226.817H241.376C241.422 227.162 241.558 227.439 241.786 227.647C242.017 227.856 242.309 227.96 242.66 227.96C243.204 227.96 243.629 227.763 243.935 227.369L244.628 228.146C244.416 228.445 244.13 228.679 243.769 228.849C243.407 229.015 243.007 229.098 242.567 229.098ZM242.406 224.762C242.126 224.762 241.898 224.856 241.723 225.045C241.55 225.234 241.439 225.504 241.391 225.855H243.354V225.743C243.347 225.431 243.262 225.19 243.1 225.021C242.937 224.848 242.706 224.762 242.406 224.762ZM250.307 226.407C250.307 227.254 250.126 227.914 249.765 228.39C249.403 228.862 248.899 229.098 248.251 229.098C247.678 229.098 247.221 228.878 246.879 228.438L246.815 229H245.546V221.5H246.957V224.19C247.283 223.81 247.711 223.619 248.241 223.619C248.886 223.619 249.39 223.857 249.755 224.332C250.123 224.804 250.307 225.47 250.307 226.329V226.407ZM248.896 226.305C248.896 225.771 248.811 225.382 248.642 225.138C248.472 224.89 248.22 224.767 247.885 224.767C247.436 224.767 247.126 224.951 246.957 225.318V227.403C247.13 227.774 247.442 227.96 247.895 227.96C248.35 227.96 248.65 227.735 248.793 227.286C248.861 227.071 248.896 226.744 248.896 226.305ZM254.042 227.54C254.042 227.368 253.956 227.232 253.783 227.135C253.614 227.034 253.34 226.944 252.963 226.866C251.706 226.603 251.078 226.069 251.078 225.265C251.078 224.796 251.272 224.405 251.659 224.093C252.05 223.777 252.559 223.619 253.188 223.619C253.858 223.619 254.394 223.777 254.794 224.093C255.198 224.409 255.399 224.819 255.399 225.323H253.988C253.988 225.121 253.923 224.955 253.793 224.825C253.663 224.692 253.459 224.625 253.183 224.625C252.945 224.625 252.761 224.679 252.631 224.786C252.501 224.894 252.436 225.03 252.436 225.196C252.436 225.353 252.509 225.479 252.655 225.577C252.805 225.672 253.056 225.755 253.407 225.826C253.759 225.895 254.055 225.973 254.296 226.061C255.041 226.334 255.414 226.808 255.414 227.481C255.414 227.963 255.207 228.354 254.794 228.653C254.381 228.95 253.847 229.098 253.192 229.098C252.75 229.098 252.356 229.02 252.011 228.863C251.669 228.704 251.4 228.487 251.205 228.214C251.01 227.937 250.912 227.639 250.912 227.32H252.25C252.263 227.571 252.356 227.763 252.528 227.896C252.701 228.03 252.932 228.097 253.222 228.097C253.492 228.097 253.695 228.046 253.832 227.945C253.972 227.841 254.042 227.706 254.042 227.54ZM257.816 229H256.4V223.717H257.816V229ZM256.317 222.35C256.317 222.138 256.387 221.964 256.527 221.827C256.671 221.69 256.864 221.622 257.108 221.622C257.349 221.622 257.541 221.69 257.685 221.827C257.828 221.964 257.899 222.138 257.899 222.35C257.899 222.564 257.826 222.74 257.68 222.877C257.536 223.014 257.346 223.082 257.108 223.082C256.871 223.082 256.679 223.014 256.532 222.877C256.389 222.74 256.317 222.564 256.317 222.35ZM260.673 222.418V223.717H261.576V224.752H260.673V227.389C260.673 227.584 260.71 227.724 260.785 227.809C260.86 227.893 261.003 227.936 261.215 227.936C261.371 227.936 261.509 227.924 261.63 227.901V228.971C261.353 229.055 261.068 229.098 260.775 229.098C259.786 229.098 259.281 228.598 259.262 227.599V224.752H258.49V223.717H259.262V222.418H260.673ZM264.794 229.098C264.019 229.098 263.388 228.86 262.899 228.385C262.414 227.91 262.172 227.276 262.172 226.485V226.349C262.172 225.818 262.274 225.344 262.479 224.928C262.685 224.508 262.974 224.186 263.349 223.961C263.726 223.733 264.156 223.619 264.638 223.619C265.36 223.619 265.928 223.847 266.342 224.303C266.758 224.758 266.967 225.405 266.967 226.241V226.817H263.603C263.648 227.162 263.785 227.439 264.013 227.647C264.244 227.856 264.535 227.96 264.887 227.96C265.43 227.96 265.855 227.763 266.161 227.369L266.854 228.146C266.643 228.445 266.356 228.679 265.995 228.849C265.634 229.015 265.233 229.098 264.794 229.098ZM264.633 224.762C264.353 224.762 264.125 224.856 263.949 225.045C263.777 225.234 263.666 225.504 263.617 225.855H265.58V225.743C265.574 225.431 265.489 225.19 265.326 225.021C265.163 224.848 264.932 224.762 264.633 224.762ZM270.043 226.319C270.043 225.496 270.227 224.84 270.595 224.352C270.966 223.863 271.472 223.619 272.113 223.619C272.628 223.619 273.052 223.811 273.388 224.195V221.5H274.804V229H273.529L273.461 228.438C273.109 228.878 272.657 229.098 272.104 229.098C271.482 229.098 270.982 228.854 270.604 228.365C270.23 227.874 270.043 227.192 270.043 226.319ZM271.454 226.422C271.454 226.917 271.54 227.296 271.713 227.56C271.885 227.823 272.136 227.955 272.465 227.955C272.901 227.955 273.209 227.771 273.388 227.403V225.318C273.212 224.951 272.908 224.767 272.475 224.767C271.794 224.767 271.454 225.318 271.454 226.422ZM278.329 229.098C277.554 229.098 276.923 228.86 276.435 228.385C275.95 227.91 275.707 227.276 275.707 226.485V226.349C275.707 225.818 275.81 225.344 276.015 224.928C276.22 224.508 276.509 224.186 276.884 223.961C277.261 223.733 277.691 223.619 278.173 223.619C278.896 223.619 279.464 223.847 279.877 224.303C280.294 224.758 280.502 225.405 280.502 226.241V226.817H277.138C277.183 227.162 277.32 227.439 277.548 227.647C277.779 227.856 278.07 227.96 278.422 227.96C278.965 227.96 279.39 227.763 279.696 227.369L280.39 228.146C280.178 228.445 279.892 228.679 279.53 228.849C279.169 229.015 278.769 229.098 278.329 229.098ZM278.168 224.762C277.888 224.762 277.66 224.856 277.484 225.045C277.312 225.234 277.201 225.504 277.152 225.855H279.115V225.743C279.109 225.431 279.024 225.19 278.861 225.021C278.699 224.848 278.467 224.762 278.168 224.762ZM283.217 227.276L284.198 223.717H285.673L283.891 229H282.543L280.761 223.717H282.235L283.217 227.276ZM288.661 229.098C287.886 229.098 287.255 228.86 286.767 228.385C286.282 227.91 286.039 227.276 286.039 226.485V226.349C286.039 225.818 286.142 225.344 286.347 224.928C286.552 224.508 286.841 224.186 287.216 223.961C287.593 223.733 288.023 223.619 288.505 223.619C289.228 223.619 289.796 223.847 290.209 224.303C290.626 224.758 290.834 225.405 290.834 226.241V226.817H287.47C287.515 227.162 287.652 227.439 287.88 227.647C288.111 227.856 288.402 227.96 288.754 227.96C289.298 227.96 289.722 227.763 290.028 227.369L290.722 228.146C290.51 228.445 290.224 228.679 289.862 228.849C289.501 229.015 289.101 229.098 288.661 229.098ZM288.5 224.762C288.22 224.762 287.992 224.856 287.816 225.045C287.644 225.234 287.533 225.504 287.484 225.855H289.447V225.743C289.441 225.431 289.356 225.19 289.193 225.021C289.031 224.848 288.799 224.762 288.5 224.762ZM293.129 229H291.713V221.5H293.129V229ZM294.076 226.31C294.076 225.785 294.177 225.318 294.379 224.908C294.581 224.498 294.87 224.181 295.248 223.956C295.629 223.731 296.07 223.619 296.571 223.619C297.284 223.619 297.865 223.837 298.314 224.273C298.767 224.71 299.019 225.302 299.071 226.051L299.081 226.412C299.081 227.223 298.855 227.874 298.402 228.365C297.95 228.854 297.343 229.098 296.581 229.098C295.819 229.098 295.211 228.854 294.755 228.365C294.302 227.877 294.076 227.213 294.076 226.373V226.31ZM295.487 226.412C295.487 226.913 295.582 227.298 295.771 227.564C295.959 227.828 296.229 227.96 296.581 227.96C296.923 227.96 297.19 227.83 297.382 227.569C297.574 227.306 297.67 226.886 297.67 226.31C297.67 225.818 297.574 225.437 297.382 225.167C297.19 224.897 296.92 224.762 296.571 224.762C296.226 224.762 295.959 224.897 295.771 225.167C295.582 225.434 295.487 225.849 295.487 226.412ZM304.706 226.407C304.706 227.221 304.521 227.874 304.149 228.365C303.782 228.854 303.284 229.098 302.655 229.098C302.121 229.098 301.69 228.912 301.361 228.541V231.031H299.95V223.717H301.259L301.308 224.234C301.649 223.824 302.095 223.619 302.646 223.619C303.297 223.619 303.803 223.86 304.164 224.342C304.525 224.824 304.706 225.488 304.706 226.334V226.407ZM303.295 226.305C303.295 225.813 303.207 225.434 303.031 225.167C302.859 224.9 302.606 224.767 302.274 224.767C301.832 224.767 301.527 224.936 301.361 225.274V227.438C301.534 227.786 301.841 227.96 302.284 227.96C302.958 227.96 303.295 227.408 303.295 226.305ZM307.074 229H305.658V223.717H307.074V229ZM305.575 222.35C305.575 222.138 305.645 221.964 305.785 221.827C305.928 221.69 306.122 221.622 306.366 221.622C306.607 221.622 306.799 221.69 306.942 221.827C307.086 221.964 307.157 222.138 307.157 222.35C307.157 222.564 307.084 222.74 306.938 222.877C306.794 223.014 306.604 223.082 306.366 223.082C306.129 223.082 305.937 223.014 305.79 222.877C305.647 222.74 305.575 222.564 305.575 222.35ZM309.54 223.717L309.584 224.327C309.962 223.855 310.468 223.619 311.103 223.619C311.662 223.619 312.079 223.784 312.353 224.112C312.626 224.441 312.766 224.933 312.772 225.587V229H311.361V225.621C311.361 225.322 311.296 225.105 311.166 224.972C311.036 224.835 310.819 224.767 310.517 224.767C310.119 224.767 309.822 224.936 309.623 225.274V229H308.212V223.717H309.54ZM313.642 226.319C313.642 225.509 313.834 224.856 314.218 224.361C314.605 223.867 315.126 223.619 315.78 223.619C316.36 223.619 316.811 223.818 317.133 224.215L317.191 223.717H318.471V228.824C318.471 229.286 318.365 229.688 318.153 230.03C317.945 230.372 317.65 230.632 317.27 230.812C316.889 230.991 316.443 231.08 315.932 231.08C315.544 231.08 315.167 231.002 314.799 230.846C314.431 230.693 314.153 230.494 313.964 230.25L314.589 229.391C314.94 229.785 315.367 229.981 315.868 229.981C316.243 229.981 316.534 229.881 316.742 229.679C316.951 229.48 317.055 229.197 317.055 228.829V228.546C316.729 228.914 316.301 229.098 315.771 229.098C315.136 229.098 314.621 228.85 314.228 228.355C313.837 227.857 313.642 227.198 313.642 226.378V226.319ZM315.053 226.422C315.053 226.9 315.149 227.276 315.341 227.55C315.533 227.82 315.797 227.955 316.132 227.955C316.562 227.955 316.869 227.794 317.055 227.472V225.25C316.866 224.928 316.562 224.767 316.142 224.767C315.803 224.767 315.536 224.905 315.341 225.182C315.149 225.458 315.053 225.872 315.053 226.422Z" fill="#505A89"/>
<path d="M233.35 127.83V131H231.867V122.469H235.131C236.084 122.469 236.84 122.717 237.398 123.213C237.961 123.709 238.242 124.365 238.242 125.182C238.242 126.018 237.967 126.668 237.416 127.133C236.869 127.598 236.102 127.83 235.113 127.83H233.35ZM233.35 126.641H235.131C235.658 126.641 236.061 126.518 236.338 126.271C236.615 126.021 236.754 125.662 236.754 125.193C236.754 124.732 236.613 124.365 236.332 124.092C236.051 123.814 235.664 123.672 235.172 123.664H233.35V126.641ZM242.725 125.961C242.537 125.93 242.344 125.914 242.145 125.914C241.492 125.914 241.053 126.164 240.826 126.664V131H239.402V124.66H240.762L240.797 125.369C241.141 124.818 241.617 124.543 242.227 124.543C242.43 124.543 242.598 124.57 242.73 124.625L242.725 125.961ZM243.146 127.771C243.146 127.15 243.27 126.592 243.516 126.096C243.762 125.596 244.107 125.213 244.553 124.947C244.998 124.678 245.51 124.543 246.088 124.543C246.943 124.543 247.637 124.818 248.168 125.369C248.703 125.92 248.992 126.65 249.035 127.561L249.041 127.895C249.041 128.52 248.92 129.078 248.678 129.57C248.439 130.062 248.096 130.443 247.646 130.713C247.201 130.982 246.686 131.117 246.1 131.117C245.205 131.117 244.488 130.82 243.949 130.227C243.414 129.629 243.146 128.834 243.146 127.842V127.771ZM244.57 127.895C244.57 128.547 244.705 129.059 244.975 129.43C245.244 129.797 245.619 129.98 246.1 129.98C246.58 129.98 246.953 129.793 247.219 129.418C247.488 129.043 247.623 128.494 247.623 127.771C247.623 127.131 247.484 126.623 247.207 126.248C246.934 125.873 246.561 125.686 246.088 125.686C245.623 125.686 245.254 125.871 244.98 126.242C244.707 126.609 244.57 127.16 244.57 127.895ZM251.73 124.66V131.562C251.73 132.211 251.568 132.705 251.244 133.045C250.924 133.389 250.453 133.561 249.832 133.561C249.57 133.561 249.318 133.527 249.076 133.461V132.336C249.225 132.371 249.393 132.389 249.58 132.389C250.053 132.389 250.295 132.131 250.307 131.615V124.66H251.73ZM250.184 123.014C250.184 122.795 250.252 122.613 250.389 122.469C250.529 122.324 250.729 122.252 250.986 122.252C251.244 122.252 251.443 122.324 251.584 122.469C251.725 122.613 251.795 122.795 251.795 123.014C251.795 123.229 251.725 123.408 251.584 123.553C251.443 123.693 251.244 123.764 250.986 123.764C250.729 123.764 250.529 123.693 250.389 123.553C250.252 123.408 250.184 123.229 250.184 123.014ZM256.049 131.117C255.146 131.117 254.414 130.834 253.852 130.268C253.293 129.697 253.014 128.939 253.014 127.994V127.818C253.014 127.186 253.135 126.621 253.377 126.125C253.623 125.625 253.967 125.236 254.408 124.959C254.85 124.682 255.342 124.543 255.885 124.543C256.748 124.543 257.414 124.818 257.883 125.369C258.355 125.92 258.592 126.699 258.592 127.707V128.281H254.449C254.492 128.805 254.666 129.219 254.971 129.523C255.279 129.828 255.666 129.98 256.131 129.98C256.783 129.98 257.314 129.717 257.725 129.189L258.492 129.922C258.238 130.301 257.898 130.596 257.473 130.807C257.051 131.014 256.576 131.117 256.049 131.117ZM255.879 125.686C255.488 125.686 255.172 125.822 254.93 126.096C254.691 126.369 254.539 126.75 254.473 127.238H257.186V127.133C257.154 126.656 257.027 126.297 256.805 126.055C256.582 125.809 256.273 125.686 255.879 125.686ZM262.307 129.98C262.662 129.98 262.957 129.877 263.191 129.67C263.426 129.463 263.551 129.207 263.566 128.902H264.908C264.893 129.297 264.77 129.666 264.539 130.01C264.309 130.35 263.996 130.619 263.602 130.818C263.207 131.018 262.781 131.117 262.324 131.117C261.438 131.117 260.734 130.83 260.215 130.256C259.695 129.682 259.436 128.889 259.436 127.877V127.73C259.436 126.766 259.693 125.994 260.209 125.416C260.725 124.834 261.428 124.543 262.318 124.543C263.072 124.543 263.686 124.764 264.158 125.205C264.635 125.643 264.885 126.219 264.908 126.934H263.566C263.551 126.57 263.426 126.271 263.191 126.037C262.961 125.803 262.666 125.686 262.307 125.686C261.846 125.686 261.49 125.854 261.24 126.189C260.99 126.521 260.863 127.027 260.859 127.707V127.936C260.859 128.623 260.982 129.137 261.229 129.477C261.479 129.812 261.838 129.98 262.307 129.98ZM267.768 123.119V124.66H268.887V125.715H267.768V129.254C267.768 129.496 267.814 129.672 267.908 129.781C268.006 129.887 268.178 129.939 268.424 129.939C268.588 129.939 268.754 129.92 268.922 129.881V130.982C268.598 131.072 268.285 131.117 267.984 131.117C266.891 131.117 266.344 130.514 266.344 129.307V125.715H265.301V124.66H266.344V123.119H267.768Z" fill="#F6FAFF"/>
<path d="M371.789 122.469L374.25 129.008L376.705 122.469H378.621V131H377.145V128.188L377.291 124.426L374.771 131H373.711L371.197 124.432L371.344 128.188V131H369.867V122.469H371.789ZM383.033 131.117C382.131 131.117 381.398 130.834 380.836 130.268C380.277 129.697 379.998 128.939 379.998 127.994V127.818C379.998 127.186 380.119 126.621 380.361 126.125C380.607 125.625 380.951 125.236 381.393 124.959C381.834 124.682 382.326 124.543 382.869 124.543C383.732 124.543 384.398 124.818 384.867 125.369C385.34 125.92 385.576 126.699 385.576 127.707V128.281H381.434C381.477 128.805 381.65 129.219 381.955 129.523C382.264 129.828 382.65 129.98 383.115 129.98C383.768 129.98 384.299 129.717 384.709 129.189L385.477 129.922C385.223 130.301 384.883 130.596 384.457 130.807C384.035 131.014 383.561 131.117 383.033 131.117ZM382.863 125.686C382.473 125.686 382.156 125.822 381.914 126.096C381.676 126.369 381.523 126.75 381.457 127.238H384.17V127.133C384.139 126.656 384.012 126.297 383.789 126.055C383.566 125.809 383.258 125.686 382.863 125.686ZM388.025 124.66L388.066 125.322C388.512 124.803 389.121 124.543 389.895 124.543C390.742 124.543 391.322 124.867 391.635 125.516C392.096 124.867 392.744 124.543 393.58 124.543C394.279 124.543 394.799 124.736 395.139 125.123C395.482 125.51 395.658 126.08 395.666 126.834V131H394.242V126.875C394.242 126.473 394.154 126.178 393.979 125.99C393.803 125.803 393.512 125.709 393.105 125.709C392.781 125.709 392.516 125.797 392.309 125.973C392.105 126.145 391.963 126.371 391.881 126.652L391.887 131H390.463V126.828C390.443 126.082 390.062 125.709 389.32 125.709C388.75 125.709 388.346 125.941 388.107 126.406V131H386.684V124.66H388.025ZM402.691 127.895C402.691 128.879 402.471 129.662 402.029 130.244C401.592 130.826 400.988 131.117 400.219 131.117C399.477 131.117 398.898 130.85 398.484 130.314L398.414 131H397.125V122H398.549V125.27C398.959 124.785 399.512 124.543 400.207 124.543C400.98 124.543 401.588 124.83 402.029 125.404C402.471 125.979 402.691 126.781 402.691 127.812V127.895ZM401.268 127.771C401.268 127.084 401.146 126.568 400.904 126.225C400.662 125.881 400.311 125.709 399.85 125.709C399.232 125.709 398.799 125.979 398.549 126.518V129.131C398.803 129.682 399.24 129.957 399.861 129.957C400.307 129.957 400.65 129.791 400.893 129.459C401.135 129.127 401.26 128.625 401.268 127.953V127.771ZM406.682 131.117C405.779 131.117 405.047 130.834 404.484 130.268C403.926 129.697 403.646 128.939 403.646 127.994V127.818C403.646 127.186 403.768 126.621 404.01 126.125C404.256 125.625 404.6 125.236 405.041 124.959C405.482 124.682 405.975 124.543 406.518 124.543C407.381 124.543 408.047 124.818 408.516 125.369C408.988 125.92 409.225 126.699 409.225 127.707V128.281H405.082C405.125 128.805 405.299 129.219 405.604 129.523C405.912 129.828 406.299 129.98 406.764 129.98C407.416 129.98 407.947 129.717 408.357 129.189L409.125 129.922C408.871 130.301 408.531 130.596 408.105 130.807C407.684 131.014 407.209 131.117 406.682 131.117ZM406.512 125.686C406.121 125.686 405.805 125.822 405.562 126.096C405.324 126.369 405.172 126.75 405.105 127.238H407.818V127.133C407.787 126.656 407.66 126.297 407.438 126.055C407.215 125.809 406.906 125.686 406.512 125.686ZM413.654 125.961C413.467 125.93 413.273 125.914 413.074 125.914C412.422 125.914 411.982 126.164 411.756 126.664V131H410.332V124.66H411.691L411.727 125.369C412.07 124.818 412.547 124.543 413.156 124.543C413.359 124.543 413.527 124.57 413.66 124.625L413.654 125.961Z" fill="#F6FAFF"/>
<path d="M483.35 129.816H487.223V131H481.867V122.469H483.35V129.816ZM492.01 131C491.947 130.879 491.893 130.682 491.846 130.408C491.393 130.881 490.838 131.117 490.182 131.117C489.545 131.117 489.025 130.936 488.623 130.572C488.221 130.209 488.02 129.76 488.02 129.225C488.02 128.549 488.27 128.031 488.77 127.672C489.273 127.309 489.992 127.127 490.926 127.127H491.799V126.711C491.799 126.383 491.707 126.121 491.523 125.926C491.34 125.727 491.061 125.627 490.686 125.627C490.361 125.627 490.096 125.709 489.889 125.873C489.682 126.033 489.578 126.238 489.578 126.488H488.154C488.154 126.141 488.27 125.816 488.5 125.516C488.73 125.211 489.043 124.973 489.438 124.801C489.836 124.629 490.279 124.543 490.768 124.543C491.51 124.543 492.102 124.73 492.543 125.105C492.984 125.477 493.211 126 493.223 126.676V129.535C493.223 130.105 493.303 130.561 493.463 130.9V131H492.01ZM490.445 129.975C490.727 129.975 490.99 129.906 491.236 129.77C491.486 129.633 491.674 129.449 491.799 129.219V128.023H491.031C490.504 128.023 490.107 128.115 489.842 128.299C489.576 128.482 489.443 128.742 489.443 129.078C489.443 129.352 489.533 129.57 489.713 129.734C489.896 129.895 490.141 129.975 490.445 129.975ZM498.268 129.277C498.268 129.023 498.162 128.83 497.951 128.697C497.744 128.564 497.398 128.447 496.914 128.346C496.43 128.244 496.025 128.115 495.701 127.959C494.99 127.615 494.635 127.117 494.635 126.465C494.635 125.918 494.865 125.461 495.326 125.094C495.787 124.727 496.373 124.543 497.084 124.543C497.842 124.543 498.453 124.73 498.918 125.105C499.387 125.48 499.621 125.967 499.621 126.564H498.197C498.197 126.291 498.096 126.064 497.893 125.885C497.689 125.701 497.42 125.609 497.084 125.609C496.771 125.609 496.516 125.682 496.316 125.826C496.121 125.971 496.023 126.164 496.023 126.406C496.023 126.625 496.115 126.795 496.299 126.916C496.482 127.037 496.854 127.16 497.412 127.285C497.971 127.406 498.408 127.553 498.725 127.725C499.045 127.893 499.281 128.096 499.434 128.334C499.59 128.572 499.668 128.861 499.668 129.201C499.668 129.771 499.432 130.234 498.959 130.59C498.486 130.941 497.867 131.117 497.102 131.117C496.582 131.117 496.119 131.023 495.713 130.836C495.307 130.648 494.99 130.391 494.764 130.062C494.537 129.734 494.424 129.381 494.424 129.002H495.807C495.826 129.338 495.953 129.598 496.188 129.781C496.422 129.961 496.732 130.051 497.119 130.051C497.494 130.051 497.779 129.98 497.975 129.84C498.17 129.695 498.268 129.508 498.268 129.277ZM502.697 123.119V124.66H503.816V125.715H502.697V129.254C502.697 129.496 502.744 129.672 502.838 129.781C502.936 129.887 503.107 129.939 503.354 129.939C503.518 129.939 503.684 129.92 503.852 129.881V130.982C503.527 131.072 503.215 131.117 502.914 131.117C501.82 131.117 501.273 130.514 501.273 129.307V125.715H500.23V124.66H501.273V123.119H502.697ZM513.467 129.037L514.475 124.66H515.863L514.135 131H512.963L511.604 126.646L510.268 131H509.096L507.361 124.66H508.75L509.775 128.99L511.076 124.66H512.148L513.467 129.037ZM516.549 127.771C516.549 127.15 516.672 126.592 516.918 126.096C517.164 125.596 517.51 125.213 517.955 124.947C518.4 124.678 518.912 124.543 519.49 124.543C520.346 124.543 521.039 124.818 521.57 125.369C522.105 125.92 522.395 126.65 522.438 127.561L522.443 127.895C522.443 128.52 522.322 129.078 522.08 129.57C521.842 130.062 521.498 130.443 521.049 130.713C520.604 130.982 520.088 131.117 519.502 131.117C518.607 131.117 517.891 130.82 517.352 130.227C516.816 129.629 516.549 128.834 516.549 127.842V127.771ZM517.973 127.895C517.973 128.547 518.107 129.059 518.377 129.43C518.646 129.797 519.021 129.98 519.502 129.98C519.982 129.98 520.355 129.793 520.621 129.418C520.891 129.043 521.025 128.494 521.025 127.771C521.025 127.131 520.887 126.623 520.609 126.248C520.336 125.873 519.963 125.686 519.49 125.686C519.025 125.686 518.656 125.871 518.383 126.242C518.109 126.609 517.973 127.16 517.973 127.895ZM526.967 125.961C526.779 125.93 526.586 125.914 526.387 125.914C525.734 125.914 525.295 126.164 525.068 126.664V131H523.645V124.66H525.004L525.039 125.369C525.383 124.818 525.859 124.543 526.469 124.543C526.672 124.543 526.84 124.57 526.973 124.625L526.967 125.961ZM529.926 128.281L529.293 128.932V131H527.869V122H529.293V127.191L529.738 126.635L531.49 124.66H533.201L530.846 127.303L533.453 131H531.807L529.926 128.281ZM536.811 131.117C535.908 131.117 535.176 130.834 534.613 130.268C534.055 129.697 533.775 128.939 533.775 127.994V127.818C533.775 127.186 533.896 126.621 534.139 126.125C534.385 125.625 534.729 125.236 535.17 124.959C535.611 124.682 536.104 124.543 536.646 124.543C537.51 124.543 538.176 124.818 538.645 125.369C539.117 125.92 539.354 126.699 539.354 127.707V128.281H535.211C535.254 128.805 535.428 129.219 535.732 129.523C536.041 129.828 536.428 129.98 536.893 129.98C537.545 129.98 538.076 129.717 538.486 129.189L539.254 129.922C539 130.301 538.66 130.596 538.234 130.807C537.812 131.014 537.338 131.117 536.811 131.117ZM536.641 125.686C536.25 125.686 535.934 125.822 535.691 126.096C535.453 126.369 535.301 126.75 535.234 127.238H537.947V127.133C537.916 126.656 537.789 126.297 537.566 126.055C537.344 125.809 537.035 125.686 536.641 125.686ZM540.197 127.783C540.197 126.807 540.424 126.023 540.877 125.434C541.33 124.84 541.938 124.543 542.699 124.543C543.371 124.543 543.914 124.777 544.328 125.246V122H545.752V131H544.463L544.393 130.344C543.967 130.859 543.398 131.117 542.688 131.117C541.945 131.117 541.344 130.818 540.883 130.221C540.426 129.623 540.197 128.811 540.197 127.783ZM541.621 127.906C541.621 128.551 541.744 129.055 541.99 129.418C542.24 129.777 542.594 129.957 543.051 129.957C543.633 129.957 544.059 129.697 544.328 129.178V126.471C544.066 125.963 543.645 125.709 543.062 125.709C542.602 125.709 542.246 125.893 541.996 126.26C541.746 126.623 541.621 127.172 541.621 127.906ZM549.959 127.771C549.959 127.15 550.082 126.592 550.328 126.096C550.574 125.596 550.92 125.213 551.365 124.947C551.811 124.678 552.322 124.543 552.9 124.543C553.756 124.543 554.449 124.818 554.98 125.369C555.516 125.92 555.805 126.65 555.848 127.561L555.854 127.895C555.854 128.52 555.732 129.078 555.49 129.57C555.252 130.062 554.908 130.443 554.459 130.713C554.014 130.982 553.498 131.117 552.912 131.117C552.018 131.117 551.301 130.82 550.762 130.227C550.227 129.629 549.959 128.834 549.959 127.842V127.771ZM551.383 127.895C551.383 128.547 551.518 129.059 551.787 129.43C552.057 129.797 552.432 129.98 552.912 129.98C553.393 129.98 553.766 129.793 554.031 129.418C554.301 129.043 554.436 128.494 554.436 127.771C554.436 127.131 554.297 126.623 554.02 126.248C553.746 125.873 553.373 125.686 552.9 125.686C552.436 125.686 552.066 125.871 551.793 126.242C551.52 126.609 551.383 127.16 551.383 127.895ZM558.379 124.66L558.42 125.393C558.889 124.826 559.504 124.543 560.266 124.543C561.586 124.543 562.258 125.299 562.281 126.811V131H560.857V126.893C560.857 126.49 560.77 126.193 560.594 126.002C560.422 125.807 560.139 125.709 559.744 125.709C559.17 125.709 558.742 125.969 558.461 126.488V131H557.037V124.66H558.379Z" fill="#F6FAFF"/>
<rect x="72" y="180" width="111" height="12" rx="2" fill="#EEEEEE"/>
<rect x="72" y="259" width="94" height="12" rx="2" fill="#EEEEEE"/>
<rect x="72" y="299" width="117" height="12" rx="2" fill="#EEEEEE"/>
<rect x="231" y="180" width="64" height="12" rx="2" fill="#EEEEEE"/>
<rect x="231" y="259" width="82" height="12" rx="2" fill="#EEEEEE"/>
<rect x="231" y="299" width="57" height="12" rx="2" fill="#EEEEEE"/>
<rect x="72" y="341" width="89" height="12" rx="2" fill="#EEEEEE"/>
<rect x="231" y="341" width="68" height="12" rx="2" fill="#EEEEEE"/>
<rect x="369" y="180" width="58" height="12" rx="2" fill="#EEEEEE"/>
<rect x="369" y="259" width="72" height="12" rx="2" fill="#EEEEEE"/>
<rect x="369" y="299" width="58" height="12" rx="2" fill="#EEEEEE"/>
<rect x="369" y="341" width="75" height="12" rx="2" fill="#EEEEEE"/>
<rect x="481" y="180" width="96" height="12" rx="2" fill="#EEEEEE"/>
<rect x="481" y="259" width="114" height="12" rx="2" fill="#EEEEEE"/>
<rect x="481" y="299" width="104" height="12" rx="2" fill="#EEEEEE"/>
<rect x="481" y="341" width="114" height="12" rx="2" fill="#EEEEEE"/>
<defs>
<filter id="filter0_d" x="0" y="0" width="665" height="418" filterUnits="userSpaceOnUse" color-interpolation-filters="sRGB">
<feFlood flood-opacity="0" result="BackgroundImageFix"/>
<feColorMatrix in="SourceAlpha" type="matrix" values="0 0 0 0 0 0 0 0 0 0 0 0 0 0 0 0 0 0 127 0"/>
<feOffset/>
<feGaussianBlur stdDeviation="15"/>
<feColorMatrix type="matrix" values="0 0 0 0 0 0 0 0 0 0 0 0 0 0 0 0 0 0 0.1 0"/>
<feBlend mode="normal" in2="BackgroundImageFix" result="effect1_dropShadow"/>
<feBlend mode="normal" in="SourceGraphic" in2="effect1_dropShadow" result="shape"/>
</filter>
</defs>
</svg>
