<svg width="48" height="48" viewBox="0 0 48 48" fill="none" xmlns="http://www.w3.org/2000/svg">
<path d="M22.7267 29.6062C24.7393 28.2693 26.2679 26.32 27.0864 24.0468C27.905 21.7735 27.9699 19.2972 27.2717 16.9842C26.5734 14.6712 25.1491 12.6444 23.2094 11.2038C21.2698 9.76326 18.9178 8.98541 16.5017 8.98541C14.0856 8.98541 11.7337 9.76326 9.79404 11.2038C7.85438 12.6444 6.43002 14.6712 5.73177 16.9842C5.03352 19.2972 5.09847 21.7735 5.91702 24.0468C6.73557 26.32 8.26421 28.2693 10.2767 29.6062C6.84355 30.8687 3.87938 33.1523 1.78298 36.15C1.61923 36.3723 1.52176 36.6364 1.50185 36.9118C1.48195 37.1872 1.54041 37.4626 1.67048 37.7062C1.79901 37.9482 1.99061 38.1509 2.22498 38.2928C2.45934 38.4348 2.72774 38.5107 3.00173 38.5125H30.0017C30.2757 38.5107 30.5441 38.4348 30.7785 38.2928C31.0128 38.1509 31.2044 37.9482 31.333 37.7062C31.4631 37.4626 31.5215 37.1872 31.5016 36.9118C31.4817 36.6364 31.3842 36.3723 31.2205 36.15C29.1241 33.1523 26.1599 30.8687 22.7267 29.6062Z" fill="#5470CB"/>
<path d="M46.5181 36.1501C44.4097 33.1561 41.4409 30.8739 38.0056 29.6063C40.0244 28.2745 41.5595 26.3265 42.3823 24.0522C43.2051 21.7778 43.2718 19.2986 42.5724 16.9833C41.8729 14.6681 40.4448 12.6404 38.5004 11.202C36.556 9.76365 34.1992 8.99137 31.7806 9.00007C30.7483 9.00555 29.7211 9.14419 28.7243 9.41257C28.4902 9.48289 28.2762 9.60803 28.1001 9.77759C27.924 9.94716 27.7909 10.1563 27.7118 10.3876C27.6364 10.617 27.6174 10.8612 27.6566 11.0995C27.6958 11.3378 27.7919 11.5631 27.9368 11.7563C29.6326 14.0348 30.6068 16.769 30.7338 19.6065C30.8608 22.4439 30.1348 25.2542 28.6493 27.6751C28.4588 27.9967 28.3937 28.3774 28.4663 28.7441C28.539 29.1108 28.7443 29.4378 29.0431 29.6626C29.6056 30.1001 30.1493 30.5501 30.6743 31.0126L30.7681 31.1063C32.7694 32.9583 34.3931 35.1805 35.5493 37.6501C35.668 37.9081 35.8583 38.1267 36.0976 38.2796C36.337 38.4325 36.6153 38.5134 36.8993 38.5126H45.2806C45.5545 38.5108 45.8229 38.4349 46.0573 38.2929C46.2917 38.151 46.4833 37.9483 46.6118 37.7063C46.7403 37.4632 46.7995 37.1895 46.783 36.9151C46.7665 36.6406 46.6748 36.376 46.5181 36.1501Z" fill="#5470CB"/>
</svg>
